M48
; DRILL file {KiCad 9.0.0} date 2025-04-11T12:54:07-0600
; FORMAT={-:-/ absolute / metric / decimal}
; #@! TF.CreationDate,2025-04-11T12:54:07-06:00
; #@! TF.GenerationSoftware,Kicad,Pcbnew,9.0.0
; #@! TF.FileFunction,MixedPlating,1,2
FMAT,2
METRIC
; #@! TA.AperFunction,Plated,PTH,ViaDrill
T1C0.300
; #@! TA.AperFunction,Plated,PTH,ComponentDrill
T2C1.016
; #@! TA.AperFunction,NonPlated,NPTH,ComponentDrill
T3C3.100
%
G90
G05
T1
X0.49Y16.572
X0.539Y7.497
X0.675Y0.647
X1.27Y20.637
X2.21Y13.6
X3.306Y14.579
X3.536Y4.702
X3.718Y13.189
X4.617Y21.445
X4.932Y16.536
X5.08Y19.26
X5.245Y24.894
X5.401Y10.061
X5.79Y6.33
X6.124Y22.565
X6.261Y14.679
X6.612Y9.324
X7.002Y11.082
X7.536Y17.022
X7.556Y21.242
X7.777Y22.794
X7.95Y5.988
X8.371Y14.435
X8.706Y9.516
X9.295Y18.51
X9.523Y14.891
X9.534Y10.294
X9.588Y24.493
X10.143Y0.542
X10.395Y8.898
X10.625Y20.819
X10.684Y12.757
X10.892Y19.077
X11.411Y6.222
X11.493Y14.11
X11.53Y11.131
X12.262Y9.56
X12.336Y14.284
X12.342Y17.723
X12.609Y7.512
X12.852Y21.3
X12.902Y23.103
X13.738Y15.259
X13.888Y19.166
X14.155Y6.028
X14.752Y13.806
X14.774Y12.059
X14.985Y20.939
X15.131Y9.429
X15.209Y23.08
X15.233Y0.544
X15.371Y11.584
X15.75Y6.0
X15.754Y18.778
X16.15Y20.536
X16.713Y9.436
X17.144Y11.888
X17.335Y23.835
X17.375Y5.994
X17.414Y20.389
X17.792Y0.581
X17.865Y19.466
X18.722Y22.839
X19.047Y19.204
X19.207Y11.893
X19.548Y9.38
X20.135Y24.858
X20.405Y0.494
X21.173Y20.784
X21.844Y12.192
X22.153Y10.858
X22.944Y18.429
X23.812Y5.397
X24.588Y12.817
X24.872Y17.997
X24.895Y24.878
X24.907Y8.856
T2
X1.27Y17.78
X3.81Y17.78
X6.35Y1.27
X8.89Y1.27
X11.43Y1.27
X13.97Y1.27
X16.51Y1.27
X19.05Y1.27
T3
X2.54Y22.86
X2.54Y2.54
X22.86Y22.86
X22.86Y2.54
M30
