%TF.GenerationSoftware,KiCad,Pcbnew,9.0.0*%
%TF.CreationDate,2025-04-11T12:54:07-06:00*%
%TF.ProjectId,SparkFun_AS7343_Qwiic,53706172-6b46-4756-9e5f-415337333433,v01*%
%TF.SameCoordinates,Original*%
%TF.FileFunction,Soldermask,Bot*%
%TF.FilePolarity,Negative*%
%FSLAX46Y46*%
G04 Gerber Fmt 4.6, Leading zero omitted, Abs format (unit mm)*
G04 Created by KiCad (PCBNEW 9.0.0) date 2025-04-11 12:54:07*
%MOMM*%
%LPD*%
G01*
G04 APERTURE LIST*
G04 Aperture macros list*
%AMRoundRect*
0 Rectangle with rounded corners*
0 $1 Rounding radius*
0 $2 $3 $4 $5 $6 $7 $8 $9 X,Y pos of 4 corners*
0 Add a 4 corners polygon primitive as box body*
4,1,4,$2,$3,$4,$5,$6,$7,$8,$9,$2,$3,0*
0 Add four circle primitives for the rounded corners*
1,1,$1+$1,$2,$3*
1,1,$1+$1,$4,$5*
1,1,$1+$1,$6,$7*
1,1,$1+$1,$8,$9*
0 Add four rect primitives between the rounded corners*
20,1,$1+$1,$2,$3,$4,$5,0*
20,1,$1+$1,$4,$5,$6,$7,0*
20,1,$1+$1,$6,$7,$8,$9,0*
20,1,$1+$1,$8,$9,$2,$3,0*%
G04 Aperture macros list end*
%ADD10C,0.000000*%
%ADD11C,1.979600*%
%ADD12C,3.200000*%
%ADD13RoundRect,0.050000X0.330200X0.635000X-0.330200X0.635000X-0.330200X-0.635000X0.330200X-0.635000X0*%
%ADD14RoundRect,0.050000X-0.330200X-0.635000X0.330200X-0.635000X0.330200X0.635000X-0.330200X0.635000X0*%
%ADD15C,0.600000*%
%ADD16RoundRect,0.050000X0.635000X-0.330200X0.635000X0.330200X-0.635000X0.330200X-0.635000X-0.330200X0*%
G04 APERTURE END LIST*
D10*
%TO.C,JP2*%
G36*
X9267000Y23277500D02*
G01*
X8759000Y23277500D01*
X8759000Y23758500D01*
X9267000Y23758500D01*
X9267000Y23277500D01*
G37*
G36*
X10299700Y23254500D02*
G01*
X9791700Y23254500D01*
X9791700Y23735500D01*
X10299700Y23735500D01*
X10299700Y23254500D01*
G37*
%TO.C,JP1*%
G36*
X23622000Y7379500D02*
G01*
X23114000Y7379500D01*
X23114000Y7860500D01*
X23622000Y7860500D01*
X23622000Y7379500D01*
G37*
%TO.C,JP3*%
G36*
X9765500Y15938500D02*
G01*
X9284500Y15938500D01*
X9284500Y16446500D01*
X9765500Y16446500D01*
X9765500Y15938500D01*
G37*
%TD*%
D11*
%TO.C,J3*%
X6350000Y1270000D03*
X8890000Y1270000D03*
X11430000Y1270000D03*
X13970000Y1270000D03*
X16510000Y1270000D03*
X19050000Y1270000D03*
%TD*%
D12*
%TO.C,ST3*%
X22860000Y2540000D03*
%TD*%
D11*
%TO.C,D3*%
X3810000Y17780000D03*
X1270000Y17780000D03*
%TD*%
D12*
%TO.C,ST2*%
X22860000Y22860000D03*
%TD*%
%TO.C,ST1*%
X2540000Y22860000D03*
%TD*%
%TO.C,ST4*%
X2540000Y2540000D03*
%TD*%
D13*
%TO.C,JP2*%
X10566400Y23495000D03*
X9525000Y23495000D03*
D14*
X8483600Y23495000D03*
%TD*%
D13*
%TO.C,JP1*%
X23888700Y7620000D03*
X22847300Y7620000D03*
%TD*%
D15*
%TO.C,FID2*%
X635000Y24765000D03*
%TD*%
%TO.C,FID1*%
X24765000Y635000D03*
%TD*%
D16*
%TO.C,JP3*%
X9525000Y15671800D03*
X9525000Y16713200D03*
%TD*%
M02*
