%TF.GenerationSoftware,KiCad,Pcbnew,9.0.0*%
%TF.CreationDate,2025-04-11T12:54:07-06:00*%
%TF.ProjectId,SparkFun_AS7343_Qwiic,53706172-6b46-4756-9e5f-415337333433,v01*%
%TF.SameCoordinates,Original*%
%TF.FileFunction,Legend,Bot*%
%TF.FilePolarity,Positive*%
%FSLAX46Y46*%
G04 Gerber Fmt 4.6, Leading zero omitted, Abs format (unit mm)*
G04 Created by KiCad (PCBNEW 9.0.0) date 2025-04-11 12:54:07*
%MOMM*%
%LPD*%
G01*
G04 APERTURE LIST*
%ADD10C,0.150000*%
%ADD11C,0.000000*%
%ADD12C,0.152400*%
%ADD13C,0.018437*%
G04 APERTURE END LIST*
D10*
X2286000Y15494000D02*
X3048000Y16002000D01*
X2372500Y15207000D02*
X2695500Y14752000D01*
X3048000Y16002000D02*
X3048000Y15494000D01*
X3937000Y16002000D02*
X3937000Y16764000D01*
X3048000Y16002000D02*
X3048000Y16510000D01*
X2792500Y15466000D02*
X3115500Y15011000D01*
X1397000Y16002000D02*
X2286000Y16002000D01*
X3115500Y15011000D02*
X2842500Y15113000D01*
X2695500Y14752000D02*
X2422500Y14854000D01*
X3048000Y16002000D02*
X3937000Y16002000D01*
X3048000Y16002000D02*
X2286000Y16510000D01*
X3115500Y15011000D02*
X3115500Y15293000D01*
X2695500Y14752000D02*
X2695500Y15034000D01*
X1397000Y16764000D02*
X1397000Y16002000D01*
X2286000Y16002000D02*
X2286000Y15494000D01*
X2286000Y16510000D02*
X2286000Y16002000D01*
D11*
%TO.C,kibuzzard-67ED7915*%
G36*
X9591381Y14580126D02*
G01*
X9653183Y14538066D01*
X9695243Y14476264D01*
X9709263Y14403016D01*
X9709263Y14311457D01*
X9328147Y14311457D01*
X9328147Y14404161D01*
X9342024Y14476550D01*
X9383655Y14538066D01*
X9445029Y14580126D01*
X9518133Y14594146D01*
X9591381Y14580126D01*
G37*
G36*
X10075501Y14803588D02*
G01*
X10075501Y11653946D01*
X10075501Y11653851D01*
X10072850Y11599892D01*
X10064923Y11546453D01*
X10051796Y11494049D01*
X10033596Y11443183D01*
X10010498Y11394346D01*
X9982725Y11348009D01*
X9950543Y11304617D01*
X9914263Y11264588D01*
X9874234Y11228308D01*
X9830842Y11196126D01*
X9784504Y11168352D01*
X9735668Y11145254D01*
X9684802Y11127054D01*
X9632397Y11113928D01*
X9578959Y11106001D01*
X9525000Y11103350D01*
X9471041Y11106001D01*
X9417603Y11113928D01*
X9365198Y11127054D01*
X9314332Y11145254D01*
X9265496Y11168352D01*
X9219158Y11196126D01*
X9175766Y11228308D01*
X9135737Y11264588D01*
X9099457Y11304617D01*
X9067275Y11348009D01*
X9039502Y11394346D01*
X9016404Y11443183D01*
X8998204Y11494049D01*
X8985077Y11546453D01*
X8977150Y11599892D01*
X8974499Y11653851D01*
X8974499Y11653946D01*
X8974499Y11976693D01*
X8974499Y12395577D01*
X9118705Y12395577D01*
X9129006Y12346936D01*
X9154757Y12314890D01*
X9178791Y12300012D01*
X9195386Y12293717D01*
X9547890Y12186135D01*
X9196531Y12078553D01*
X9138162Y12041643D01*
X9118705Y11976693D01*
X9135300Y11919468D01*
X9165057Y11888567D01*
X9189664Y11878267D01*
X9780222Y11672258D01*
X9864914Y11667108D01*
X9912983Y11738639D01*
X9918133Y11823903D01*
X9847747Y11870255D01*
X9499821Y11989282D01*
X9842024Y12083131D01*
X9899535Y12118038D01*
X9918705Y12183846D01*
X9915844Y12217036D01*
X9906116Y12242215D01*
X9893526Y12259955D01*
X9878648Y12272544D01*
X9864342Y12279983D01*
X9850036Y12285706D01*
X9840880Y12289139D01*
X9497532Y12382988D01*
X9847747Y12502015D01*
X9918705Y12548367D01*
X9914127Y12634776D01*
X9863770Y12706307D01*
X9780222Y12700012D01*
X9189664Y12495148D01*
X9136445Y12459382D01*
X9118705Y12395577D01*
X8974499Y12395577D01*
X8974499Y12889998D01*
X8974499Y13273402D01*
X9117561Y13273402D01*
X9117561Y12889998D01*
X9125572Y12830484D01*
X9151896Y12798438D01*
X9183369Y12787566D01*
X9222854Y12785849D01*
X9814557Y12785849D01*
X9852897Y12787566D01*
X9884371Y12798438D01*
X9910694Y12830484D01*
X9918705Y12891142D01*
X9910694Y12950656D01*
X9884371Y12982701D01*
X9852897Y12993574D01*
X9813412Y12995291D01*
X9296102Y12995291D01*
X9296102Y13274547D01*
X9294385Y13307165D01*
X9285229Y13333488D01*
X9258333Y13355806D01*
X9206831Y13362673D01*
X9156474Y13355806D01*
X9129006Y13333488D01*
X9119278Y13306021D01*
X9117561Y13273402D01*
X8974499Y13273402D01*
X8974499Y13527480D01*
X8974499Y13948653D01*
X9117561Y13948653D01*
X9117561Y13527480D01*
X9125572Y13467966D01*
X9151896Y13435920D01*
X9183369Y13425048D01*
X9222854Y13423331D01*
X9814557Y13423331D01*
X9896388Y13446793D01*
X9918705Y13530913D01*
X9918705Y13949797D01*
X9916989Y13989282D01*
X9906116Y14020184D01*
X9874070Y14045935D01*
X9813412Y14053946D01*
X9753898Y14045935D01*
X9721853Y14019611D01*
X9710980Y13988138D01*
X9709263Y13948653D01*
X9709263Y13632773D01*
X9607403Y13632773D01*
X9607403Y13844504D01*
X9605687Y13881700D01*
X9596531Y13909168D01*
X9569063Y13930913D01*
X9516989Y13937208D01*
X9466059Y13930913D01*
X9439735Y13908596D01*
X9430579Y13879983D01*
X9428863Y13842215D01*
X9428863Y13632773D01*
X9327003Y13632773D01*
X9327003Y13949797D01*
X9325286Y13989282D01*
X9314413Y14020184D01*
X9282368Y14045935D01*
X9221710Y14053946D01*
X9162196Y14045935D01*
X9130150Y14019611D01*
X9119278Y13988138D01*
X9117561Y13948653D01*
X8974499Y13948653D01*
X8974499Y14206164D01*
X8974499Y14400727D01*
X9118705Y14400727D01*
X9118705Y14206164D01*
X9126717Y14148367D01*
X9151323Y14116893D01*
X9183369Y14104876D01*
X9223999Y14102015D01*
X9815701Y14102015D01*
X9854041Y14103732D01*
X9885515Y14114604D01*
X9911266Y14146650D01*
X9918705Y14207308D01*
X9918705Y14404161D01*
X9911409Y14483131D01*
X9889521Y14556378D01*
X9853040Y14623903D01*
X9801967Y14685706D01*
X9740737Y14737279D01*
X9673784Y14774118D01*
X9601109Y14796221D01*
X9522711Y14803588D01*
X9442203Y14796221D01*
X9367775Y14774118D01*
X9299428Y14737279D01*
X9237160Y14685706D01*
X9185336Y14623689D01*
X9148319Y14555520D01*
X9126109Y14481199D01*
X9118705Y14400727D01*
X8974499Y14400727D01*
X8974499Y14803588D01*
X8974499Y14946650D01*
X10075501Y14946650D01*
X10075501Y14803588D01*
G37*
D12*
%TO.C,JP2*%
X7797800Y24053800D02*
X7797800Y22936200D01*
X8255000Y24511000D02*
X10795000Y24511000D01*
X10795000Y22479000D02*
X8255000Y22479000D01*
X11252200Y24053800D02*
X11252200Y22936200D01*
X7797800Y24053800D02*
G75*
G02*
X8255000Y24511000I457200J0D01*
G01*
X8255000Y22479000D02*
G75*
G02*
X7797800Y22936200I0J457200D01*
G01*
X10795000Y24511000D02*
G75*
G02*
X11252200Y24053800I-1J-457201D01*
G01*
X11252200Y22936200D02*
G75*
G02*
X10795000Y22479000I-457201J1D01*
G01*
D11*
%TO.C,kibuzzard-67F954F3*%
G36*
X1490000Y19394539D02*
G01*
X1348369Y19394539D01*
X1286567Y19417715D01*
X1256953Y19488530D01*
X1284635Y19555483D01*
X1350944Y19582521D01*
X1490000Y19582521D01*
X1490000Y19394539D01*
G37*
G36*
X4134166Y19936848D02*
G01*
X4189702Y19928610D01*
X4244163Y19914968D01*
X4297024Y19896054D01*
X4347778Y19872050D01*
X4395934Y19843186D01*
X4441028Y19809742D01*
X4482628Y19772038D01*
X4520332Y19730438D01*
X4553776Y19685343D01*
X4582640Y19637187D01*
X4606644Y19586434D01*
X4625559Y19533573D01*
X4639200Y19479112D01*
X4647438Y19423576D01*
X4650193Y19367500D01*
X4647438Y19311424D01*
X4639200Y19255888D01*
X4625559Y19201427D01*
X4606644Y19148566D01*
X4582640Y19097813D01*
X4553776Y19049657D01*
X4520332Y19004562D01*
X4482628Y18962962D01*
X4441028Y18925258D01*
X4395934Y18891814D01*
X4347778Y18862950D01*
X4297024Y18838946D01*
X4244163Y18820032D01*
X4189702Y18806390D01*
X4134166Y18798152D01*
X4078090Y18795397D01*
X4077983Y18795397D01*
X3681416Y18795397D01*
X2896009Y18795397D01*
X2380987Y18795397D01*
X1160386Y18795397D01*
X1002017Y18795397D01*
X1001910Y18795397D01*
X945834Y18798152D01*
X890298Y18806390D01*
X835837Y18820032D01*
X782976Y18838946D01*
X732222Y18862950D01*
X684066Y18891814D01*
X638972Y18925258D01*
X597372Y18962962D01*
X559668Y19004562D01*
X544502Y19025011D01*
X1007167Y19025011D01*
X1068970Y18949045D01*
X1160386Y18913637D01*
X1232489Y18973509D01*
X1370258Y19160204D01*
X1490000Y19160204D01*
X1490000Y19035311D01*
X1491931Y18990891D01*
X1504163Y18956127D01*
X1540215Y18927157D01*
X1608455Y18918144D01*
X1675408Y18927157D01*
X1711459Y18956770D01*
X1723691Y18992178D01*
X1725622Y19036599D01*
X1725622Y19699689D01*
X1788712Y19699689D01*
X1797725Y19632736D01*
X1827339Y19596685D01*
X1862747Y19584453D01*
X1907167Y19582521D01*
X2262532Y19582521D01*
X2262532Y19467929D01*
X2024335Y19467929D01*
X1982489Y19465998D01*
X1951588Y19455697D01*
X1927124Y19424796D01*
X1920043Y19366212D01*
X1927124Y19308916D01*
X1952232Y19279303D01*
X1984421Y19269002D01*
X2026910Y19267071D01*
X2262532Y19267071D01*
X2262532Y19152479D01*
X1905880Y19152479D01*
X1861459Y19150547D01*
X1826695Y19138315D01*
X1797725Y19102264D01*
X1788712Y19034024D01*
X1797725Y18967071D01*
X1827339Y18931019D01*
X1862747Y18918788D01*
X1907167Y18916856D01*
X2380987Y18916856D01*
X2447940Y18925869D01*
X2483991Y18955483D01*
X2496223Y18990891D01*
X2498155Y19035311D01*
X2498155Y19207843D01*
X2565107Y19207843D01*
X2570579Y19146363D01*
X2586996Y19090676D01*
X2643004Y19003766D01*
X2722189Y18946470D01*
X2810386Y18913637D01*
X2896009Y18903981D01*
X2968112Y18909775D01*
X3028627Y18923938D01*
X3078197Y18945182D01*
X3118112Y18969646D01*
X3149013Y18994753D01*
X3171545Y19017285D01*
X3185708Y19035311D01*
X3193433Y19044324D01*
X3225622Y19128015D01*
X3171545Y19210418D01*
X3118040Y19240175D01*
X3062246Y19231592D01*
X3004163Y19184667D01*
X2952017Y19137672D01*
X2901159Y19125440D01*
X2825193Y19144109D01*
X2802017Y19203981D01*
X2835494Y19243895D01*
X2936567Y19274152D01*
X2997886Y19290730D01*
X3046652Y19308273D01*
X3118755Y19349474D01*
X3170258Y19404839D01*
X3201159Y19474367D01*
X3211459Y19558058D01*
X3201874Y19632521D01*
X3173119Y19697972D01*
X3171661Y19699689D01*
X3280987Y19699689D01*
X3280987Y19337886D01*
X3287586Y19259989D01*
X3307382Y19183380D01*
X3339410Y19110472D01*
X3382704Y19043680D01*
X3438873Y18986223D01*
X3509528Y18941320D01*
X3591449Y18912350D01*
X3681416Y18902693D01*
X3771223Y18912511D01*
X3852661Y18941964D01*
X3922672Y18987511D01*
X3978197Y19045612D01*
X4020848Y19112886D01*
X4052232Y19185955D01*
X4071545Y19262564D01*
X4077983Y19340461D01*
X4077983Y19700976D01*
X4076052Y19745397D01*
X4063820Y19780805D01*
X4027768Y19810418D01*
X3959528Y19819431D01*
X3891931Y19810418D01*
X3856524Y19781448D01*
X3843648Y19745397D01*
X3841073Y19699689D01*
X3841073Y19340461D01*
X3828197Y19249689D01*
X3776695Y19173723D01*
X3732597Y19148133D01*
X3677554Y19139603D01*
X3611567Y19153444D01*
X3560386Y19194968D01*
X3527554Y19259345D01*
X3516609Y19341749D01*
X3516609Y19707414D01*
X3514034Y19749260D01*
X3501159Y19782736D01*
X3465107Y19810418D01*
X3398155Y19819431D01*
X3331202Y19810418D01*
X3295150Y19780161D01*
X3282918Y19744109D01*
X3280987Y19699689D01*
X3171661Y19699689D01*
X3125193Y19754410D01*
X3062675Y19797686D01*
X2990143Y19823652D01*
X2907597Y19832307D01*
X2810458Y19823723D01*
X2728484Y19797972D01*
X2661674Y19755054D01*
X2615322Y19688745D01*
X2646223Y19609560D01*
X2722189Y19547114D01*
X2808455Y19570933D01*
X2823262Y19583165D01*
X2841288Y19597972D01*
X2866395Y19607629D01*
X2908884Y19612135D01*
X2956524Y19596041D01*
X2977124Y19556770D01*
X2954592Y19514925D01*
X2903734Y19492393D01*
X2825193Y19476298D01*
X2742790Y19456341D01*
X2669882Y19422865D01*
X2613391Y19373938D01*
X2577178Y19304088D01*
X2565107Y19207843D01*
X2498155Y19207843D01*
X2498155Y19700976D01*
X2471760Y19793036D01*
X2377124Y19818144D01*
X1905880Y19818144D01*
X1861459Y19816212D01*
X1826695Y19803981D01*
X1797725Y19767929D01*
X1788712Y19699689D01*
X1725622Y19699689D01*
X1725622Y19700976D01*
X1723691Y19744109D01*
X1711459Y19779517D01*
X1675408Y19809131D01*
X1607167Y19818144D01*
X1348369Y19818144D01*
X1296062Y19812994D01*
X1242146Y19797543D01*
X1188391Y19772436D01*
X1136567Y19738315D01*
X1090376Y19692768D01*
X1053519Y19633380D01*
X1029378Y19563691D01*
X1021330Y19487242D01*
X1033920Y19390819D01*
X1071688Y19307557D01*
X1134635Y19237457D01*
X1041931Y19113852D01*
X1007167Y19025011D01*
X544502Y19025011D01*
X526224Y19049657D01*
X497360Y19097813D01*
X473356Y19148566D01*
X454441Y19201427D01*
X440800Y19255888D01*
X432562Y19311424D01*
X429807Y19367500D01*
X432562Y19423576D01*
X440800Y19479112D01*
X454441Y19533573D01*
X473356Y19586434D01*
X497360Y19637187D01*
X526224Y19685343D01*
X559668Y19730438D01*
X597372Y19772038D01*
X638972Y19809742D01*
X684066Y19843186D01*
X732222Y19872050D01*
X782976Y19896054D01*
X835837Y19914968D01*
X890298Y19928610D01*
X945834Y19936848D01*
X1001910Y19939603D01*
X1002017Y19939603D01*
X4077983Y19939603D01*
X4078090Y19939603D01*
X4134166Y19936848D01*
G37*
%TO.C,kibuzzard-67F027E1*%
G36*
X8288488Y8446312D02*
G01*
X8330870Y8423243D01*
X8353938Y8380504D01*
X8361628Y8313801D01*
X8330870Y8209366D01*
X8224289Y8179323D01*
X8117708Y8209366D01*
X8086950Y8315232D01*
X8094461Y8380861D01*
X8116993Y8423243D01*
X8222858Y8454001D01*
X8288488Y8446312D01*
G37*
G36*
X8289918Y8021419D02*
G01*
X8332300Y7998351D01*
X8355369Y7955611D01*
X8363059Y7888908D01*
X8332300Y7784474D01*
X8225720Y7754431D01*
X8119139Y7784474D01*
X8088381Y7890339D01*
X8095891Y7955969D01*
X8118423Y7998351D01*
X8224289Y8029109D01*
X8289918Y8021419D01*
G37*
G36*
X13569067Y8747278D02*
G01*
X13609124Y8714373D01*
X13622715Y8675031D01*
X13624861Y8627106D01*
X13624861Y7887478D01*
X13622715Y7838122D01*
X13609124Y7798780D01*
X13569067Y7765876D01*
X13494675Y7755861D01*
X13418853Y7765876D01*
X13378795Y7798064D01*
X13365205Y7836691D01*
X13363059Y7886047D01*
X13363059Y8625675D01*
X13365205Y8675031D01*
X13378795Y8714373D01*
X13418853Y8747278D01*
X13493245Y8757292D01*
X13569067Y8747278D01*
G37*
G36*
X10835162Y8736548D02*
G01*
X10885233Y8681469D01*
X11244318Y7937549D01*
X11262916Y7836691D01*
X11182801Y7767306D01*
X11078366Y7746562D01*
X11006835Y7825961D01*
X10941027Y7963300D01*
X10833731Y7963300D01*
X10589096Y7963300D01*
X10523288Y7827392D01*
X10453187Y7745132D01*
X10347322Y7765876D01*
X10267923Y7835976D01*
X10287236Y7937549D01*
X10407622Y8186476D01*
X10699253Y8186476D01*
X10833731Y8186476D01*
X10766492Y8325246D01*
X10699253Y8186476D01*
X10407622Y8186476D01*
X10646320Y8680039D01*
X10695319Y8737979D01*
X10765062Y8757292D01*
X10835162Y8736548D01*
G37*
G36*
X6856621Y8442557D02*
G01*
X6908838Y8347421D01*
X6856621Y8259438D01*
X6719282Y8120668D01*
X6856621Y7980468D01*
X6908123Y7893200D01*
X6856621Y7798780D01*
X6764346Y7747278D01*
X6676363Y7798780D01*
X6537594Y7937549D01*
X6400255Y7798780D01*
X6311557Y7746562D01*
X6219997Y7798780D01*
X6167064Y7892485D01*
X6219997Y7980468D01*
X6357336Y8120668D01*
X6219997Y8259438D01*
X6167064Y8348136D01*
X6219997Y8442557D01*
X6310126Y8494059D01*
X6400255Y8442557D01*
X6537594Y8302356D01*
X6676363Y8442557D01*
X6765062Y8494774D01*
X6856621Y8442557D01*
G37*
G36*
X9224289Y8747993D02*
G01*
X9264346Y8715804D01*
X9277937Y8676462D01*
X9280083Y8628536D01*
X9280083Y7888908D01*
X9276506Y7838122D01*
X9261485Y7798064D01*
X9222143Y7767306D01*
X9149897Y7757292D01*
X9018280Y7757292D01*
X8906692Y7757292D01*
X8806102Y7766546D01*
X8713202Y7794309D01*
X8627991Y7840580D01*
X8550469Y7905361D01*
X8486002Y7983195D01*
X8439954Y8068629D01*
X8412325Y8161664D01*
X8403640Y8256577D01*
X8664918Y8256577D01*
X8682443Y8165196D01*
X8735019Y8088479D01*
X8811914Y8036441D01*
X8902401Y8019094D01*
X9018280Y8019094D01*
X9018280Y8495489D01*
X8903831Y8495489D01*
X8812272Y8477964D01*
X8735019Y8425389D01*
X8682443Y8348136D01*
X8664918Y8256577D01*
X8403640Y8256577D01*
X8403116Y8262299D01*
X8412325Y8360296D01*
X8439954Y8451140D01*
X8486002Y8534831D01*
X8550469Y8611369D01*
X8627722Y8675210D01*
X8712129Y8720811D01*
X8803688Y8748172D01*
X8902401Y8757292D01*
X9148466Y8757292D01*
X9224289Y8747993D01*
G37*
G36*
X10161342Y8747993D02*
G01*
X10201399Y8715804D01*
X10214990Y8676462D01*
X10217136Y8628536D01*
X10217136Y7888908D01*
X10213559Y7838122D01*
X10198538Y7798064D01*
X10159196Y7767306D01*
X10086950Y7757292D01*
X9955333Y7757292D01*
X9843745Y7757292D01*
X9743155Y7766546D01*
X9650255Y7794309D01*
X9565044Y7840580D01*
X9487522Y7905361D01*
X9423055Y7983195D01*
X9377007Y8068629D01*
X9349378Y8161664D01*
X9340693Y8256577D01*
X9601971Y8256577D01*
X9619496Y8165196D01*
X9672072Y8088479D01*
X9748967Y8036441D01*
X9839454Y8019094D01*
X9955333Y8019094D01*
X9955333Y8495489D01*
X9840884Y8495489D01*
X9749325Y8477964D01*
X9672072Y8425389D01*
X9619496Y8348136D01*
X9601971Y8256577D01*
X9340693Y8256577D01*
X9340169Y8262299D01*
X9349378Y8360296D01*
X9377007Y8451140D01*
X9423055Y8534831D01*
X9487522Y8611369D01*
X9564775Y8675210D01*
X9649182Y8720811D01*
X9740741Y8748172D01*
X9839454Y8757292D01*
X10085519Y8757292D01*
X10161342Y8747993D01*
G37*
G36*
X5073756Y8762458D02*
G01*
X5154825Y8730746D01*
X5225720Y8677893D01*
X5280560Y8609621D01*
X5313464Y8531652D01*
X5324432Y8443987D01*
X5313385Y8368165D01*
X5280242Y8299018D01*
X5225004Y8236548D01*
X5154984Y8187271D01*
X5077492Y8157705D01*
X4992529Y8147850D01*
X4983946Y8149307D01*
X4916707Y8160725D01*
X4975521Y8080452D01*
X5058497Y8032288D01*
X5165634Y8016233D01*
X5215705Y8014087D01*
X5255763Y8000496D01*
X5288667Y7960439D01*
X5298681Y7886047D01*
X5289382Y7811655D01*
X5259339Y7771598D01*
X5222143Y7757292D01*
X5177079Y7754431D01*
X5080312Y7761126D01*
X4991442Y7781212D01*
X4910469Y7814688D01*
X4837393Y7861555D01*
X4772215Y7921813D01*
X4717107Y7993000D01*
X4674246Y8072657D01*
X4643631Y8160783D01*
X4625262Y8257378D01*
X4619139Y8362442D01*
X4627029Y8449710D01*
X4888094Y8449710D01*
X4913845Y8400353D01*
X4983946Y8382471D01*
X5044031Y8401784D01*
X5066921Y8452571D01*
X5045462Y8510511D01*
X4976793Y8528393D01*
X4908838Y8509795D01*
X4888094Y8449710D01*
X4627029Y8449710D01*
X4629868Y8481104D01*
X4662057Y8581485D01*
X4715705Y8663587D01*
X4788269Y8724388D01*
X4877206Y8760868D01*
X4982515Y8773029D01*
X5073756Y8762458D01*
G37*
G36*
X13034653Y8758881D02*
G01*
X13124305Y8720732D01*
X13199969Y8657149D01*
X13257193Y8577829D01*
X13291528Y8492469D01*
X13302973Y8401069D01*
X13300827Y8351712D01*
X13287236Y8312371D01*
X13247179Y8279466D01*
X13172787Y8269452D01*
X13096964Y8278751D01*
X13056907Y8308794D01*
X13043316Y8345275D01*
X13041170Y8391054D01*
X13013273Y8480110D01*
X12929582Y8509795D01*
X12857336Y8490482D01*
X12825863Y8453286D01*
X12820856Y8415375D01*
X12833552Y8360296D01*
X12871642Y8306648D01*
X12926185Y8258007D01*
X12988237Y8217950D01*
X13057265Y8177714D01*
X13132730Y8128536D01*
X13201757Y8075783D01*
X13251471Y8024817D01*
X13290097Y7958651D01*
X13302973Y7886047D01*
X13264346Y7792342D01*
X13172787Y7753000D01*
X12656335Y7753000D01*
X12606979Y7755861D01*
X12566206Y7770167D01*
X12533302Y7809509D01*
X12523288Y7883186D01*
X12533302Y7959009D01*
X12565491Y7999066D01*
X12604117Y8013372D01*
X12653474Y8016233D01*
X12832300Y8016233D01*
X12746464Y8067020D01*
X12659196Y8142127D01*
X12617887Y8192914D01*
X12585519Y8253715D01*
X12564597Y8321670D01*
X12557622Y8393916D01*
X12569703Y8493582D01*
X12605945Y8582757D01*
X12666349Y8661441D01*
X12744079Y8722639D01*
X12832300Y8759358D01*
X12931013Y8771598D01*
X13034653Y8758881D01*
G37*
G36*
X12034196Y8763014D02*
G01*
X12100541Y8750139D01*
X12169210Y8727428D01*
X12239310Y8693629D01*
X12306371Y8649996D01*
X12365920Y8597778D01*
X12416707Y8533579D01*
X12457479Y8454001D01*
X12484303Y8362442D01*
X12493245Y8262299D01*
X12484124Y8158222D01*
X12456764Y8063443D01*
X12415455Y7981362D01*
X12364489Y7915375D01*
X12304940Y7861727D01*
X12237880Y7816662D01*
X12168137Y7781791D01*
X12100541Y7758722D01*
X12035984Y7745847D01*
X11975362Y7741555D01*
X11882849Y7750457D01*
X11794151Y7777162D01*
X11709268Y7821670D01*
X11650612Y7865303D01*
X11630584Y7917521D01*
X11662057Y8000496D01*
X11713559Y8061655D01*
X11762200Y8082041D01*
X11833731Y8053429D01*
X11905619Y8018021D01*
X11981084Y8006219D01*
X12089811Y8029109D01*
X12141492Y8061119D01*
X12187808Y8111369D01*
X12220534Y8176999D01*
X12231442Y8255146D01*
X12225362Y8315947D01*
X12207122Y8369595D01*
X12143459Y8447564D01*
X12062629Y8489767D01*
X11981084Y8504073D01*
X11946750Y8502642D01*
X11918137Y8497635D01*
X11895247Y8491913D01*
X11875934Y8484760D01*
X11862343Y8476891D01*
X11850183Y8469023D01*
X11840884Y8462585D01*
X11763631Y8429681D01*
X11714275Y8448994D01*
X11660627Y8506934D01*
X11629153Y8587049D01*
X11642744Y8629967D01*
X11669210Y8660010D01*
X11707837Y8687192D01*
X11798125Y8731700D01*
X11885869Y8758405D01*
X11971070Y8767306D01*
X12034196Y8763014D01*
G37*
G36*
X7414561Y8762120D02*
G01*
X7493245Y8733687D01*
X7557980Y8691305D01*
X7606263Y8639981D01*
X7642565Y8579538D01*
X7671356Y8509795D01*
X7691921Y8438980D01*
X7703545Y8375318D01*
X7708910Y8315232D01*
X7710698Y8255146D01*
X7704976Y8150711D01*
X7684947Y8036977D01*
X7666886Y7977607D01*
X7641313Y7923959D01*
X7571213Y7829538D01*
X7524539Y7790732D01*
X7466063Y7761584D01*
X7397751Y7743343D01*
X7327293Y7737720D01*
X7321571Y7737263D01*
X7235376Y7746205D01*
X7159911Y7773029D01*
X7097322Y7813443D01*
X7049754Y7863157D01*
X7013452Y7921991D01*
X6984661Y7989767D01*
X6963738Y8059867D01*
X6951041Y8125675D01*
X6944604Y8189516D01*
X6942458Y8253715D01*
X6942503Y8255146D01*
X7204260Y8255146D01*
X7204260Y8247993D01*
X7204976Y8190768D01*
X7212844Y8127821D01*
X7231442Y8063443D01*
X7267923Y8019810D01*
X7327293Y8000496D01*
X7380494Y8016323D01*
X7418495Y8063801D01*
X7441295Y8142932D01*
X7448896Y8253715D01*
X7441206Y8365750D01*
X7418137Y8445775D01*
X7379690Y8493790D01*
X7325863Y8509795D01*
X7272662Y8493880D01*
X7234661Y8446133D01*
X7211861Y8366555D01*
X7204260Y8255146D01*
X6942503Y8255146D01*
X6944425Y8316305D01*
X6950326Y8378179D01*
X6962486Y8442735D01*
X6983230Y8513372D01*
X7012021Y8582399D01*
X7048323Y8642127D01*
X7096249Y8692735D01*
X7159911Y8734402D01*
X7236807Y8762299D01*
X7324432Y8771598D01*
X7414561Y8762120D01*
G37*
G36*
X5830155Y8765160D02*
G01*
X5895963Y8747993D01*
X5948896Y8722957D01*
X5991099Y8693629D01*
X6022572Y8662871D01*
X6045462Y8634259D01*
X6059768Y8610654D01*
X6067637Y8594917D01*
X6069783Y8589910D01*
X6090526Y8491197D01*
X6019711Y8412514D01*
X5943094Y8386921D01*
X5883008Y8403612D01*
X5839454Y8462585D01*
X5797966Y8505504D01*
X5736449Y8519810D01*
X5671356Y8501927D01*
X5647751Y8452571D01*
X5668495Y8416090D01*
X5735019Y8406791D01*
X5745033Y8406791D01*
X5790813Y8404645D01*
X5827293Y8392485D01*
X5857336Y8355289D01*
X5866635Y8283758D01*
X5858052Y8220811D01*
X5840884Y8183615D01*
X5808695Y8165732D01*
X5775791Y8159295D01*
X5736449Y8159295D01*
X5653831Y8138551D01*
X5626292Y8076319D01*
X5659911Y8016948D01*
X5749325Y7994774D01*
X5800112Y8002642D01*
X5834446Y8019810D01*
X5855906Y8041269D01*
X5866635Y8058436D01*
X5869496Y8066305D01*
X5910984Y8133544D01*
X5989668Y8149280D01*
X6096964Y8126748D01*
X6132730Y8059152D01*
X6120013Y7977686D01*
X6081863Y7903056D01*
X6018280Y7835260D01*
X5937689Y7781612D01*
X5848514Y7749423D01*
X5750755Y7738694D01*
X5645605Y7749423D01*
X5553330Y7781612D01*
X5473931Y7835260D01*
X5413130Y7905281D01*
X5376649Y7986588D01*
X5364489Y8079180D01*
X5374146Y8147850D01*
X5403116Y8205074D01*
X5483230Y8282328D01*
X5409196Y8353501D01*
X5384518Y8458293D01*
X5395565Y8535070D01*
X5428708Y8607077D01*
X5483946Y8674316D01*
X5557781Y8728362D01*
X5646718Y8760789D01*
X5750755Y8771598D01*
X5830155Y8765160D01*
G37*
D12*
%TO.C,JP1*%
X22148800Y8178800D02*
X22148800Y7061200D01*
X22606000Y8636000D02*
X24130000Y8636000D01*
X24130000Y6604000D02*
X22606000Y6604000D01*
X24587200Y8178800D02*
X24587200Y7061200D01*
X22148800Y8178800D02*
G75*
G02*
X22606000Y8636000I457200J0D01*
G01*
X22606000Y6604000D02*
G75*
G02*
X22148800Y7061200I0J457200D01*
G01*
X24130000Y8636000D02*
G75*
G02*
X24587200Y8178800I-1J-457201D01*
G01*
X24587200Y7061200D02*
G75*
G02*
X24130000Y6604000I-457201J1D01*
G01*
D13*
%TO.C,Ref\u002A\u002A*%
X2705182Y7595661D02*
X2705882Y7595609D01*
X2706579Y7595523D01*
X2707271Y7595404D01*
X2707958Y7595253D01*
X2708639Y7595072D01*
X2709312Y7594859D01*
X2709976Y7594618D01*
X2710631Y7594348D01*
X2711275Y7594050D01*
X2712527Y7593375D01*
X2713724Y7592600D01*
X2714857Y7591731D01*
X2715918Y7590775D01*
X2716899Y7589739D01*
X2717791Y7588631D01*
X2718201Y7588052D01*
X2718586Y7587457D01*
X2718945Y7586847D01*
X2719276Y7586223D01*
X2719579Y7585587D01*
X2719852Y7584938D01*
X2720095Y7584277D01*
X2720306Y7583607D01*
X2720485Y7582926D01*
X2720630Y7582237D01*
X2778966Y7268744D01*
X2779293Y7267353D01*
X2779741Y7265956D01*
X2780303Y7264564D01*
X2780972Y7263186D01*
X2781739Y7261830D01*
X2782596Y7260506D01*
X2783537Y7259222D01*
X2784553Y7257988D01*
X2785637Y7256814D01*
X2786780Y7255707D01*
X2787974Y7254678D01*
X2789213Y7253735D01*
X2790489Y7252887D01*
X2791792Y7252144D01*
X2793117Y7251514D01*
X2794454Y7251008D01*
X3004587Y7164997D01*
X3005895Y7164422D01*
X3007283Y7163942D01*
X3008736Y7163556D01*
X3010244Y7163263D01*
X3011794Y7163062D01*
X3013373Y7162952D01*
X3014971Y7162933D01*
X3016573Y7163003D01*
X3018169Y7163162D01*
X3019747Y7163409D01*
X3021293Y7163744D01*
X3022796Y7164164D01*
X3024243Y7164671D01*
X3025623Y7165261D01*
X3026923Y7165936D01*
X3028131Y7166693D01*
X3290018Y7346422D01*
X3290610Y7346807D01*
X3291219Y7347161D01*
X3291844Y7347486D01*
X3292484Y7347781D01*
X3293138Y7348046D01*
X3293803Y7348282D01*
X3295165Y7348666D01*
X3296560Y7348934D01*
X3297976Y7349086D01*
X3299402Y7349125D01*
X3300829Y7349050D01*
X3302246Y7348862D01*
X3303641Y7348563D01*
X3305004Y7348154D01*
X3306324Y7347636D01*
X3307591Y7347009D01*
X3308201Y7346655D01*
X3308793Y7346274D01*
X3309367Y7345867D01*
X3309921Y7345433D01*
X3310453Y7344973D01*
X3310963Y7344486D01*
X3531549Y7123918D01*
X3532034Y7123407D01*
X3532493Y7122873D01*
X3532926Y7122318D01*
X3533332Y7121743D01*
X3533712Y7121149D01*
X3534065Y7120538D01*
X3534391Y7119911D01*
X3534691Y7119269D01*
X3534964Y7118614D01*
X3535209Y7117947D01*
X3535618Y7116583D01*
X3535918Y7115187D01*
X3536106Y7113771D01*
X3536182Y7112344D01*
X3536144Y7110918D01*
X3535993Y7109503D01*
X3535874Y7108803D01*
X3535726Y7108110D01*
X3535549Y7107425D01*
X3535343Y7106750D01*
X3535107Y7106086D01*
X3534842Y7105433D01*
X3534548Y7104795D01*
X3534223Y7104171D01*
X3533869Y7103563D01*
X3533485Y7102973D01*
X3356872Y6845586D01*
X3356119Y6844369D01*
X3355450Y6843064D01*
X3354867Y6841683D01*
X3354370Y6840236D01*
X3353960Y6838737D01*
X3353638Y6837197D01*
X3353405Y6835628D01*
X3353260Y6834042D01*
X3353206Y6832450D01*
X3353243Y6830864D01*
X3353371Y6829297D01*
X3353592Y6827761D01*
X3353906Y6826266D01*
X3354314Y6824825D01*
X3354817Y6823450D01*
X3355415Y6822152D01*
X3448340Y6605401D01*
X3448588Y6604734D01*
X3448867Y6604070D01*
X3449516Y6602751D01*
X3450278Y6601452D01*
X3451143Y6600181D01*
X3452103Y6598946D01*
X3453148Y6597755D01*
X3454269Y6596615D01*
X3455457Y6595534D01*
X3456703Y6594521D01*
X3457998Y6593582D01*
X3459333Y6592727D01*
X3460698Y6591962D01*
X3462084Y6591296D01*
X3463483Y6590736D01*
X3464884Y6590291D01*
X3465584Y6590114D01*
X3466280Y6589968D01*
X3769356Y6533605D01*
X3770047Y6533456D01*
X3770729Y6533275D01*
X3771400Y6533061D01*
X3772062Y6532815D01*
X3772711Y6532540D01*
X3773349Y6532235D01*
X3773973Y6531902D01*
X3774583Y6531542D01*
X3775178Y6531156D01*
X3775758Y6530744D01*
X3776321Y6530309D01*
X3776866Y6529850D01*
X3777393Y6529370D01*
X3777901Y6528868D01*
X3778389Y6528347D01*
X3778856Y6527806D01*
X3779301Y6527248D01*
X3779724Y6526672D01*
X3780124Y6526081D01*
X3780499Y6525475D01*
X3780849Y6524855D01*
X3781173Y6524222D01*
X3781470Y6523578D01*
X3781739Y6522922D01*
X3781980Y6522257D01*
X3782192Y6521584D01*
X3782373Y6520902D01*
X3782524Y6520214D01*
X3782642Y6519521D01*
X3782728Y6518823D01*
X3782780Y6518121D01*
X3782797Y6517416D01*
X3782779Y6205472D01*
X3782761Y6204768D01*
X3782709Y6204066D01*
X3782623Y6203367D01*
X3782504Y6202672D01*
X3782354Y6201983D01*
X3782172Y6201300D01*
X3781960Y6200625D01*
X3781718Y6199959D01*
X3781150Y6198655D01*
X3780475Y6197399D01*
X3779700Y6196199D01*
X3778831Y6195062D01*
X3777875Y6193998D01*
X3776840Y6193014D01*
X3775731Y6192120D01*
X3775152Y6191709D01*
X3774557Y6191323D01*
X3773947Y6190964D01*
X3773324Y6190633D01*
X3772687Y6190330D01*
X3772038Y6190057D01*
X3771378Y6189815D01*
X3770707Y6189605D01*
X3770027Y6189428D01*
X3769338Y6189284D01*
X3473692Y6134267D01*
X3472997Y6134124D01*
X3472301Y6133949D01*
X3470907Y6133506D01*
X3469519Y6132947D01*
X3468146Y6132279D01*
X3466798Y6131510D01*
X3465482Y6130648D01*
X3464209Y6129702D01*
X3462987Y6128680D01*
X3461825Y6127589D01*
X3460732Y6126438D01*
X3459718Y6125235D01*
X3458791Y6123989D01*
X3457961Y6122706D01*
X3457236Y6121395D01*
X3456626Y6120065D01*
X3456367Y6119395D01*
X3456139Y6118724D01*
X3363841Y5888163D01*
X3363270Y5886851D01*
X3362793Y5885462D01*
X3362410Y5884008D01*
X3362121Y5882500D01*
X3361923Y5880951D01*
X3361817Y5879373D01*
X3361801Y5877777D01*
X3361875Y5876176D01*
X3362038Y5874581D01*
X3362288Y5873006D01*
X3362626Y5871461D01*
X3363050Y5869959D01*
X3363560Y5868511D01*
X3364154Y5867131D01*
X3364832Y5865829D01*
X3365593Y5864618D01*
X3533521Y5619897D01*
X3533904Y5619306D01*
X3534257Y5618699D01*
X3534580Y5618075D01*
X3534874Y5617436D01*
X3535138Y5616783D01*
X3535373Y5616118D01*
X3535755Y5614757D01*
X3536021Y5613363D01*
X3536173Y5611946D01*
X3536210Y5610518D01*
X3536135Y5609090D01*
X3535948Y5607672D01*
X3535650Y5606274D01*
X3535242Y5604909D01*
X3534724Y5603586D01*
X3534099Y5602316D01*
X3533747Y5601704D01*
X3533367Y5601110D01*
X3532961Y5600534D01*
X3532529Y5599979D01*
X3532070Y5599445D01*
X3531586Y5598933D01*
X3310981Y5378365D01*
X3310471Y5377882D01*
X3309939Y5377425D01*
X3309385Y5376994D01*
X3308811Y5376590D01*
X3308219Y5376211D01*
X3307609Y5375860D01*
X3306983Y5375535D01*
X3306342Y5375237D01*
X3305688Y5374965D01*
X3305022Y5374721D01*
X3303659Y5374314D01*
X3302264Y5374017D01*
X3300847Y5373830D01*
X3299420Y5373754D01*
X3297994Y5373791D01*
X3296578Y5373942D01*
X3295877Y5374060D01*
X3295183Y5374207D01*
X3294498Y5374382D01*
X3293821Y5374587D01*
X3293156Y5374821D01*
X3292502Y5375084D01*
X3291862Y5375376D01*
X3291237Y5375698D01*
X3290628Y5376049D01*
X3290036Y5376430D01*
X3049648Y5541427D01*
X3048439Y5542177D01*
X3047144Y5542834D01*
X3045775Y5543399D01*
X3044343Y5543872D01*
X3042861Y5544252D01*
X3041339Y5544538D01*
X3039791Y5544732D01*
X3038228Y5544831D01*
X3036661Y5544837D01*
X3035103Y5544749D01*
X3033566Y5544566D01*
X3032061Y5544288D01*
X3030600Y5543915D01*
X3029195Y5543446D01*
X3027858Y5542882D01*
X3026601Y5542222D01*
X2920585Y5485619D01*
X2919953Y5485316D01*
X2919315Y5485049D01*
X2918673Y5484819D01*
X2918028Y5484625D01*
X2917380Y5484466D01*
X2916732Y5484341D01*
X2916083Y5484252D01*
X2915436Y5484197D01*
X2914791Y5484175D01*
X2914150Y5484187D01*
X2913513Y5484232D01*
X2912882Y5484309D01*
X2912257Y5484418D01*
X2911640Y5484559D01*
X2911033Y5484731D01*
X2910435Y5484934D01*
X2909849Y5485168D01*
X2909275Y5485431D01*
X2908715Y5485724D01*
X2908169Y5486046D01*
X2907639Y5486397D01*
X2907126Y5486777D01*
X2906630Y5487184D01*
X2906154Y5487618D01*
X2905698Y5488080D01*
X2905263Y5488569D01*
X2904850Y5489083D01*
X2904461Y5489624D01*
X2904097Y5490190D01*
X2903758Y5490780D01*
X2903446Y5491396D01*
X2903162Y5492035D01*
X2684567Y6020214D01*
X2684312Y6020872D01*
X2684091Y6021539D01*
X2683903Y6022214D01*
X2683748Y6022898D01*
X2683625Y6023587D01*
X2683534Y6024281D01*
X2683446Y6025680D01*
X2683480Y6027083D01*
X2683633Y6028482D01*
X2683902Y6029864D01*
X2684283Y6031222D01*
X2684774Y6032544D01*
X2685370Y6033820D01*
X2686069Y6035041D01*
X2686867Y6036196D01*
X2687760Y6037276D01*
X2688242Y6037785D01*
X2688746Y6038270D01*
X2689273Y6038732D01*
X2689822Y6039169D01*
X2690392Y6039579D01*
X2690983Y6039961D01*
X2717515Y6056205D01*
X2719430Y6057421D01*
X2721472Y6058809D01*
X2723603Y6060339D01*
X2725786Y6061980D01*
X2727984Y6063703D01*
X2730160Y6065476D01*
X2732275Y6067271D01*
X2734293Y6069055D01*
X2751853Y6081077D01*
X2768613Y6094130D01*
X2784526Y6108168D01*
X2799546Y6123146D01*
X2813629Y6139019D01*
X2826727Y6155741D01*
X2838795Y6173266D01*
X2849788Y6191550D01*
X2859659Y6210546D01*
X2864159Y6220297D01*
X2868362Y6230209D01*
X2872262Y6240276D01*
X2875852Y6250493D01*
X2879128Y6260855D01*
X2882083Y6271354D01*
X2884713Y6281986D01*
X2887010Y6292746D01*
X2888969Y6303626D01*
X2890585Y6314622D01*
X2891852Y6325728D01*
X2892764Y6336939D01*
X2893315Y6348247D01*
X2893501Y6359649D01*
X2893052Y6377402D01*
X2891719Y6394922D01*
X2889525Y6412188D01*
X2886491Y6429177D01*
X2882639Y6445867D01*
X2877989Y6462238D01*
X2872565Y6478268D01*
X2866388Y6493934D01*
X2859479Y6509216D01*
X2851860Y6524091D01*
X2843553Y6538538D01*
X2834579Y6552535D01*
X2824960Y6566060D01*
X2814718Y6579093D01*
X2803875Y6591610D01*
X2792452Y6603591D01*
X2780470Y6615014D01*
X2767952Y6625857D01*
X2754920Y6636098D01*
X2741394Y6645716D01*
X2727397Y6654690D01*
X2712950Y6662996D01*
X2698075Y6670615D01*
X2682794Y6677523D01*
X2667128Y6683700D01*
X2651099Y6689124D01*
X2634728Y6693772D01*
X2618038Y6697625D01*
X2601051Y6700658D01*
X2583786Y6702852D01*
X2566268Y6704184D01*
X2548516Y6704633D01*
X2530765Y6704184D01*
X2513246Y6702852D01*
X2495982Y6700658D01*
X2478995Y6697625D01*
X2462305Y6693772D01*
X2445935Y6689124D01*
X2429907Y6683700D01*
X2414242Y6677523D01*
X2398961Y6670615D01*
X2384087Y6662996D01*
X2369641Y6654690D01*
X2355644Y6645716D01*
X2342119Y6636098D01*
X2329088Y6625857D01*
X2316571Y6615014D01*
X2304590Y6603591D01*
X2293168Y6591610D01*
X2282325Y6579092D01*
X2272084Y6566060D01*
X2262466Y6552535D01*
X2253493Y6538537D01*
X2245187Y6524091D01*
X2237568Y6509216D01*
X2230660Y6493934D01*
X2224483Y6478268D01*
X2219060Y6462238D01*
X2214411Y6445867D01*
X2210559Y6429176D01*
X2207525Y6412188D01*
X2205331Y6394922D01*
X2203999Y6377402D01*
X2203550Y6359649D01*
X2204286Y6336939D01*
X2206465Y6314622D01*
X2210039Y6292746D01*
X2214965Y6271354D01*
X2221195Y6250493D01*
X2228684Y6230209D01*
X2237386Y6210546D01*
X2247256Y6191550D01*
X2258248Y6173266D01*
X2270316Y6155741D01*
X2283414Y6139019D01*
X2297497Y6123146D01*
X2312518Y6108168D01*
X2328433Y6094130D01*
X2345195Y6081077D01*
X2362758Y6069055D01*
X2364765Y6067271D01*
X2366873Y6065476D01*
X2369044Y6063703D01*
X2371240Y6061980D01*
X2373421Y6060339D01*
X2375551Y6058809D01*
X2377590Y6057421D01*
X2379500Y6056205D01*
X2406031Y6039961D01*
X2406619Y6039579D01*
X2407186Y6039169D01*
X2407732Y6038732D01*
X2408257Y6038270D01*
X2408759Y6037785D01*
X2409239Y6037276D01*
X2409696Y6036747D01*
X2410130Y6036197D01*
X2410540Y6035628D01*
X2410926Y6035041D01*
X2411287Y6034438D01*
X2411623Y6033820D01*
X2411934Y6033188D01*
X2412219Y6032544D01*
X2412478Y6031888D01*
X2412710Y6031222D01*
X2412915Y6030547D01*
X2413093Y6029865D01*
X2413242Y6029176D01*
X2413363Y6028482D01*
X2413456Y6027784D01*
X2413519Y6027084D01*
X2413552Y6026382D01*
X2413555Y6025680D01*
X2413528Y6024980D01*
X2413470Y6024282D01*
X2413380Y6023587D01*
X2413259Y6022898D01*
X2413106Y6022214D01*
X2412919Y6021539D01*
X2412700Y6020872D01*
X2412447Y6020214D01*
X2193870Y5492017D01*
X2193587Y5491377D01*
X2193275Y5490761D01*
X2192936Y5490171D01*
X2192572Y5489605D01*
X2192183Y5489065D01*
X2191771Y5488551D01*
X2191337Y5488063D01*
X2190881Y5487602D01*
X2190405Y5487168D01*
X2189910Y5486761D01*
X2189398Y5486382D01*
X2188868Y5486032D01*
X2188323Y5485711D01*
X2187763Y5485418D01*
X2187190Y5485155D01*
X2186604Y5484922D01*
X2186007Y5484720D01*
X2185400Y5484548D01*
X2184783Y5484408D01*
X2184159Y5484298D01*
X2183528Y5484221D01*
X2182891Y5484177D01*
X2182249Y5484165D01*
X2181604Y5484186D01*
X2180957Y5484241D01*
X2180308Y5484330D01*
X2179658Y5484453D01*
X2179010Y5484611D01*
X2178364Y5484805D01*
X2177720Y5485034D01*
X2177081Y5485299D01*
X2176447Y5485600D01*
X2070432Y5542203D01*
X2069171Y5542864D01*
X2067832Y5543430D01*
X2066426Y5543899D01*
X2064964Y5544274D01*
X2063458Y5544553D01*
X2061921Y5544737D01*
X2060363Y5544827D01*
X2058797Y5544822D01*
X2057235Y5544723D01*
X2055688Y5544529D01*
X2054168Y5544242D01*
X2052687Y5543862D01*
X2051256Y5543388D01*
X2049887Y5542821D01*
X2048593Y5542161D01*
X2047385Y5541408D01*
X1806978Y5376411D01*
X1806388Y5376030D01*
X1805780Y5375679D01*
X1805156Y5375358D01*
X1804517Y5375065D01*
X1803864Y5374802D01*
X1803200Y5374569D01*
X1801839Y5374188D01*
X1800445Y5373923D01*
X1799029Y5373773D01*
X1797603Y5373736D01*
X1796176Y5373811D01*
X1794760Y5373998D01*
X1793365Y5374295D01*
X1792002Y5374702D01*
X1790683Y5375218D01*
X1789417Y5375841D01*
X1788808Y5376192D01*
X1788216Y5376571D01*
X1787643Y5376975D01*
X1787091Y5377406D01*
X1786560Y5377863D01*
X1786052Y5378346D01*
X1565447Y5598914D01*
X1564960Y5599426D01*
X1564500Y5599960D01*
X1564066Y5600515D01*
X1563659Y5601091D01*
X1563278Y5601685D01*
X1562924Y5602297D01*
X1562597Y5602924D01*
X1562297Y5603567D01*
X1562024Y5604222D01*
X1561778Y5604890D01*
X1561369Y5606256D01*
X1561070Y5607653D01*
X1560883Y5609071D01*
X1560808Y5610500D01*
X1560846Y5611927D01*
X1560999Y5613344D01*
X1561119Y5614044D01*
X1561267Y5614738D01*
X1561444Y5615424D01*
X1561651Y5616099D01*
X1561887Y5616764D01*
X1562153Y5617417D01*
X1562448Y5618056D01*
X1562772Y5618680D01*
X1563127Y5619288D01*
X1563511Y5619878D01*
X1731458Y5864599D01*
X1732213Y5865810D01*
X1732886Y5867112D01*
X1733476Y5868492D01*
X1733982Y5869940D01*
X1734404Y5871442D01*
X1734741Y5872987D01*
X1734990Y5874563D01*
X1735153Y5876157D01*
X1735227Y5877758D01*
X1735212Y5879354D01*
X1735106Y5880932D01*
X1734909Y5882481D01*
X1734620Y5883989D01*
X1734238Y5885443D01*
X1733762Y5886832D01*
X1733191Y5888144D01*
X1640893Y6118705D01*
X1640665Y6119377D01*
X1640404Y6120046D01*
X1639793Y6121377D01*
X1639069Y6122687D01*
X1638240Y6123970D01*
X1637315Y6125216D01*
X1636304Y6126419D01*
X1635214Y6127570D01*
X1634056Y6128661D01*
X1632837Y6129683D01*
X1631567Y6130629D01*
X1630254Y6131491D01*
X1628907Y6132260D01*
X1627535Y6132928D01*
X1626148Y6133487D01*
X1625450Y6133724D01*
X1624752Y6133930D01*
X1624055Y6134105D01*
X1623359Y6134247D01*
X1327713Y6189265D01*
X1327026Y6189408D01*
X1326347Y6189586D01*
X1325678Y6189796D01*
X1325018Y6190038D01*
X1324370Y6190311D01*
X1323734Y6190614D01*
X1323111Y6190945D01*
X1322502Y6191304D01*
X1321907Y6191690D01*
X1321328Y6192101D01*
X1320765Y6192536D01*
X1320220Y6192995D01*
X1319692Y6193476D01*
X1319184Y6193978D01*
X1318695Y6194501D01*
X1318227Y6195043D01*
X1317781Y6195603D01*
X1317357Y6196179D01*
X1316957Y6196772D01*
X1316581Y6197380D01*
X1316230Y6198002D01*
X1315905Y6198636D01*
X1315606Y6199282D01*
X1315336Y6199939D01*
X1315094Y6200606D01*
X1314881Y6201281D01*
X1314699Y6201964D01*
X1314548Y6202653D01*
X1314429Y6203347D01*
X1314343Y6204046D01*
X1314290Y6204749D01*
X1314273Y6205453D01*
X1314236Y6517398D01*
X1314252Y6518104D01*
X1314302Y6518807D01*
X1314387Y6519507D01*
X1314504Y6520202D01*
X1314653Y6520891D01*
X1314834Y6521573D01*
X1315045Y6522248D01*
X1315285Y6522914D01*
X1315555Y6523570D01*
X1315851Y6524216D01*
X1316524Y6525470D01*
X1317298Y6526668D01*
X1318166Y6527803D01*
X1319120Y6528866D01*
X1320153Y6529849D01*
X1321260Y6530743D01*
X1322432Y6531541D01*
X1323041Y6531901D01*
X1323663Y6532234D01*
X1324298Y6532539D01*
X1324946Y6532815D01*
X1325605Y6533060D01*
X1326274Y6533274D01*
X1326953Y6533456D01*
X1327640Y6533604D01*
X1630735Y6589968D01*
X1632124Y6590291D01*
X1633521Y6590736D01*
X1634915Y6591296D01*
X1636299Y6591962D01*
X1637662Y6592726D01*
X1638995Y6593582D01*
X1640290Y6594520D01*
X1641537Y6595534D01*
X1642726Y6596614D01*
X1643849Y6597754D01*
X1644896Y6598946D01*
X1645858Y6600181D01*
X1646726Y6601452D01*
X1647491Y6602750D01*
X1648143Y6604069D01*
X1648674Y6605400D01*
X1741581Y6822152D01*
X1742182Y6823449D01*
X1742688Y6824824D01*
X1743098Y6826265D01*
X1743414Y6827760D01*
X1743636Y6829297D01*
X1743765Y6830864D01*
X1743802Y6832450D01*
X1743747Y6834041D01*
X1743602Y6835628D01*
X1743366Y6837197D01*
X1743041Y6838737D01*
X1742628Y6840236D01*
X1742127Y6841682D01*
X1741539Y6843064D01*
X1740864Y6844369D01*
X1740104Y6845585D01*
X1563510Y7102973D01*
X1563129Y7103563D01*
X1562778Y7104171D01*
X1562455Y7104795D01*
X1562163Y7105433D01*
X1561899Y7106085D01*
X1561664Y7106750D01*
X1561282Y7108110D01*
X1561015Y7109503D01*
X1560863Y7110918D01*
X1560823Y7112344D01*
X1560897Y7113771D01*
X1561082Y7115187D01*
X1561379Y7116583D01*
X1561786Y7117947D01*
X1562302Y7119269D01*
X1562927Y7120537D01*
X1563280Y7121149D01*
X1563660Y7121742D01*
X1564066Y7122318D01*
X1564499Y7122873D01*
X1564959Y7123407D01*
X1565445Y7123918D01*
X1786013Y7344486D01*
X1786525Y7344972D01*
X1787058Y7345433D01*
X1787613Y7345866D01*
X1788188Y7346274D01*
X1788782Y7346654D01*
X1789392Y7347008D01*
X1790019Y7347335D01*
X1790660Y7347635D01*
X1791314Y7347908D01*
X1791980Y7348154D01*
X1793343Y7348563D01*
X1794737Y7348862D01*
X1796151Y7349049D01*
X1797576Y7349124D01*
X1799001Y7349086D01*
X1800414Y7348933D01*
X1801113Y7348814D01*
X1801806Y7348666D01*
X1802490Y7348488D01*
X1803164Y7348281D01*
X1803828Y7348046D01*
X1804480Y7347780D01*
X1805118Y7347485D01*
X1805742Y7347161D01*
X1806349Y7346806D01*
X1806939Y7346422D01*
X2068845Y7166693D01*
X2070056Y7165935D01*
X2071359Y7165261D01*
X2072741Y7164670D01*
X2074191Y7164164D01*
X2075695Y7163744D01*
X2077242Y7163409D01*
X2078820Y7163162D01*
X2080417Y7163003D01*
X2082019Y7162932D01*
X2083616Y7162952D01*
X2085194Y7163061D01*
X2086743Y7163262D01*
X2088248Y7163556D01*
X2089700Y7163942D01*
X2091084Y7164422D01*
X2092389Y7164996D01*
X2302503Y7251007D01*
X2303172Y7251245D01*
X2303838Y7251514D01*
X2304501Y7251814D01*
X2305160Y7252144D01*
X2306462Y7252887D01*
X2307737Y7253735D01*
X2308975Y7254678D01*
X2310170Y7255707D01*
X2311313Y7256814D01*
X2312397Y7257988D01*
X2313414Y7259222D01*
X2314356Y7260505D01*
X2315215Y7261830D01*
X2315983Y7263185D01*
X2316653Y7264564D01*
X2317216Y7265956D01*
X2317664Y7267352D01*
X2317843Y7268049D01*
X2317991Y7268744D01*
X2376346Y7582237D01*
X2376491Y7582926D01*
X2376670Y7583607D01*
X2376881Y7584277D01*
X2377124Y7584938D01*
X2377397Y7585587D01*
X2377700Y7586223D01*
X2378032Y7586847D01*
X2378390Y7587457D01*
X2378775Y7588052D01*
X2379186Y7588631D01*
X2379621Y7589194D01*
X2380078Y7589739D01*
X2380559Y7590267D01*
X2381060Y7590775D01*
X2381581Y7591263D01*
X2382122Y7591731D01*
X2382680Y7592176D01*
X2383256Y7592600D01*
X2383847Y7592999D01*
X2384454Y7593375D01*
X2385074Y7593726D01*
X2385707Y7594050D01*
X2386352Y7594348D01*
X2387008Y7594618D01*
X2387673Y7594859D01*
X2388347Y7595072D01*
X2389029Y7595253D01*
X2389717Y7595404D01*
X2390411Y7595523D01*
X2391110Y7595609D01*
X2391812Y7595661D01*
X2392516Y7595678D01*
X2704479Y7595678D01*
X2705182Y7595661D01*
G36*
X2705182Y7595661D02*
G01*
X2705882Y7595609D01*
X2706579Y7595523D01*
X2707271Y7595404D01*
X2707958Y7595253D01*
X2708639Y7595072D01*
X2709312Y7594859D01*
X2709976Y7594618D01*
X2710631Y7594348D01*
X2711275Y7594050D01*
X2712527Y7593375D01*
X2713724Y7592600D01*
X2714857Y7591731D01*
X2715918Y7590775D01*
X2716899Y7589739D01*
X2717791Y7588631D01*
X2718201Y7588052D01*
X2718586Y7587457D01*
X2718945Y7586847D01*
X2719276Y7586223D01*
X2719579Y7585587D01*
X2719852Y7584938D01*
X2720095Y7584277D01*
X2720306Y7583607D01*
X2720485Y7582926D01*
X2720630Y7582237D01*
X2778966Y7268744D01*
X2779293Y7267353D01*
X2779741Y7265956D01*
X2780303Y7264564D01*
X2780972Y7263186D01*
X2781739Y7261830D01*
X2782596Y7260506D01*
X2783537Y7259222D01*
X2784553Y7257988D01*
X2785637Y7256814D01*
X2786780Y7255707D01*
X2787974Y7254678D01*
X2789213Y7253735D01*
X2790489Y7252887D01*
X2791792Y7252144D01*
X2793117Y7251514D01*
X2794454Y7251008D01*
X3004587Y7164997D01*
X3005895Y7164422D01*
X3007283Y7163942D01*
X3008736Y7163556D01*
X3010244Y7163263D01*
X3011794Y7163062D01*
X3013373Y7162952D01*
X3014971Y7162933D01*
X3016573Y7163003D01*
X3018169Y7163162D01*
X3019747Y7163409D01*
X3021293Y7163744D01*
X3022796Y7164164D01*
X3024243Y7164671D01*
X3025623Y7165261D01*
X3026923Y7165936D01*
X3028131Y7166693D01*
X3290018Y7346422D01*
X3290610Y7346807D01*
X3291219Y7347161D01*
X3291844Y7347486D01*
X3292484Y7347781D01*
X3293138Y7348046D01*
X3293803Y7348282D01*
X3295165Y7348666D01*
X3296560Y7348934D01*
X3297976Y7349086D01*
X3299402Y7349125D01*
X3300829Y7349050D01*
X3302246Y7348862D01*
X3303641Y7348563D01*
X3305004Y7348154D01*
X3306324Y7347636D01*
X3307591Y7347009D01*
X3308201Y7346655D01*
X3308793Y7346274D01*
X3309367Y7345867D01*
X3309921Y7345433D01*
X3310453Y7344973D01*
X3310963Y7344486D01*
X3531549Y7123918D01*
X3532034Y7123407D01*
X3532493Y7122873D01*
X3532926Y7122318D01*
X3533332Y7121743D01*
X3533712Y7121149D01*
X3534065Y7120538D01*
X3534391Y7119911D01*
X3534691Y7119269D01*
X3534964Y7118614D01*
X3535209Y7117947D01*
X3535618Y7116583D01*
X3535918Y7115187D01*
X3536106Y7113771D01*
X3536182Y7112344D01*
X3536144Y7110918D01*
X3535993Y7109503D01*
X3535874Y7108803D01*
X3535726Y7108110D01*
X3535549Y7107425D01*
X3535343Y7106750D01*
X3535107Y7106086D01*
X3534842Y7105433D01*
X3534548Y7104795D01*
X3534223Y7104171D01*
X3533869Y7103563D01*
X3533485Y7102973D01*
X3356872Y6845586D01*
X3356119Y6844369D01*
X3355450Y6843064D01*
X3354867Y6841683D01*
X3354370Y6840236D01*
X3353960Y6838737D01*
X3353638Y6837197D01*
X3353405Y6835628D01*
X3353260Y6834042D01*
X3353206Y6832450D01*
X3353243Y6830864D01*
X3353371Y6829297D01*
X3353592Y6827761D01*
X3353906Y6826266D01*
X3354314Y6824825D01*
X3354817Y6823450D01*
X3355415Y6822152D01*
X3448340Y6605401D01*
X3448588Y6604734D01*
X3448867Y6604070D01*
X3449516Y6602751D01*
X3450278Y6601452D01*
X3451143Y6600181D01*
X3452103Y6598946D01*
X3453148Y6597755D01*
X3454269Y6596615D01*
X3455457Y6595534D01*
X3456703Y6594521D01*
X3457998Y6593582D01*
X3459333Y6592727D01*
X3460698Y6591962D01*
X3462084Y6591296D01*
X3463483Y6590736D01*
X3464884Y6590291D01*
X3465584Y6590114D01*
X3466280Y6589968D01*
X3769356Y6533605D01*
X3770047Y6533456D01*
X3770729Y6533275D01*
X3771400Y6533061D01*
X3772062Y6532815D01*
X3772711Y6532540D01*
X3773349Y6532235D01*
X3773973Y6531902D01*
X3774583Y6531542D01*
X3775178Y6531156D01*
X3775758Y6530744D01*
X3776321Y6530309D01*
X3776866Y6529850D01*
X3777393Y6529370D01*
X3777901Y6528868D01*
X3778389Y6528347D01*
X3778856Y6527806D01*
X3779301Y6527248D01*
X3779724Y6526672D01*
X3780124Y6526081D01*
X3780499Y6525475D01*
X3780849Y6524855D01*
X3781173Y6524222D01*
X3781470Y6523578D01*
X3781739Y6522922D01*
X3781980Y6522257D01*
X3782192Y6521584D01*
X3782373Y6520902D01*
X3782524Y6520214D01*
X3782642Y6519521D01*
X3782728Y6518823D01*
X3782780Y6518121D01*
X3782797Y6517416D01*
X3782779Y6205472D01*
X3782761Y6204768D01*
X3782709Y6204066D01*
X3782623Y6203367D01*
X3782504Y6202672D01*
X3782354Y6201983D01*
X3782172Y6201300D01*
X3781960Y6200625D01*
X3781718Y6199959D01*
X3781150Y6198655D01*
X3780475Y6197399D01*
X3779700Y6196199D01*
X3778831Y6195062D01*
X3777875Y6193998D01*
X3776840Y6193014D01*
X3775731Y6192120D01*
X3775152Y6191709D01*
X3774557Y6191323D01*
X3773947Y6190964D01*
X3773324Y6190633D01*
X3772687Y6190330D01*
X3772038Y6190057D01*
X3771378Y6189815D01*
X3770707Y6189605D01*
X3770027Y6189428D01*
X3769338Y6189284D01*
X3473692Y6134267D01*
X3472997Y6134124D01*
X3472301Y6133949D01*
X3470907Y6133506D01*
X3469519Y6132947D01*
X3468146Y6132279D01*
X3466798Y6131510D01*
X3465482Y6130648D01*
X3464209Y6129702D01*
X3462987Y6128680D01*
X3461825Y6127589D01*
X3460732Y6126438D01*
X3459718Y6125235D01*
X3458791Y6123989D01*
X3457961Y6122706D01*
X3457236Y6121395D01*
X3456626Y6120065D01*
X3456367Y6119395D01*
X3456139Y6118724D01*
X3363841Y5888163D01*
X3363270Y5886851D01*
X3362793Y5885462D01*
X3362410Y5884008D01*
X3362121Y5882500D01*
X3361923Y5880951D01*
X3361817Y5879373D01*
X3361801Y5877777D01*
X3361875Y5876176D01*
X3362038Y5874581D01*
X3362288Y5873006D01*
X3362626Y5871461D01*
X3363050Y5869959D01*
X3363560Y5868511D01*
X3364154Y5867131D01*
X3364832Y5865829D01*
X3365593Y5864618D01*
X3533521Y5619897D01*
X3533904Y5619306D01*
X3534257Y5618699D01*
X3534580Y5618075D01*
X3534874Y5617436D01*
X3535138Y5616783D01*
X3535373Y5616118D01*
X3535755Y5614757D01*
X3536021Y5613363D01*
X3536173Y5611946D01*
X3536210Y5610518D01*
X3536135Y5609090D01*
X3535948Y5607672D01*
X3535650Y5606274D01*
X3535242Y5604909D01*
X3534724Y5603586D01*
X3534099Y5602316D01*
X3533747Y5601704D01*
X3533367Y5601110D01*
X3532961Y5600534D01*
X3532529Y5599979D01*
X3532070Y5599445D01*
X3531586Y5598933D01*
X3310981Y5378365D01*
X3310471Y5377882D01*
X3309939Y5377425D01*
X3309385Y5376994D01*
X3308811Y5376590D01*
X3308219Y5376211D01*
X3307609Y5375860D01*
X3306983Y5375535D01*
X3306342Y5375237D01*
X3305688Y5374965D01*
X3305022Y5374721D01*
X3303659Y5374314D01*
X3302264Y5374017D01*
X3300847Y5373830D01*
X3299420Y5373754D01*
X3297994Y5373791D01*
X3296578Y5373942D01*
X3295877Y5374060D01*
X3295183Y5374207D01*
X3294498Y5374382D01*
X3293821Y5374587D01*
X3293156Y5374821D01*
X3292502Y5375084D01*
X3291862Y5375376D01*
X3291237Y5375698D01*
X3290628Y5376049D01*
X3290036Y5376430D01*
X3049648Y5541427D01*
X3048439Y5542177D01*
X3047144Y5542834D01*
X3045775Y5543399D01*
X3044343Y5543872D01*
X3042861Y5544252D01*
X3041339Y5544538D01*
X3039791Y5544732D01*
X3038228Y5544831D01*
X3036661Y5544837D01*
X3035103Y5544749D01*
X3033566Y5544566D01*
X3032061Y5544288D01*
X3030600Y5543915D01*
X3029195Y5543446D01*
X3027858Y5542882D01*
X3026601Y5542222D01*
X2920585Y5485619D01*
X2919953Y5485316D01*
X2919315Y5485049D01*
X2918673Y5484819D01*
X2918028Y5484625D01*
X2917380Y5484466D01*
X2916732Y5484341D01*
X2916083Y5484252D01*
X2915436Y5484197D01*
X2914791Y5484175D01*
X2914150Y5484187D01*
X2913513Y5484232D01*
X2912882Y5484309D01*
X2912257Y5484418D01*
X2911640Y5484559D01*
X2911033Y5484731D01*
X2910435Y5484934D01*
X2909849Y5485168D01*
X2909275Y5485431D01*
X2908715Y5485724D01*
X2908169Y5486046D01*
X2907639Y5486397D01*
X2907126Y5486777D01*
X2906630Y5487184D01*
X2906154Y5487618D01*
X2905698Y5488080D01*
X2905263Y5488569D01*
X2904850Y5489083D01*
X2904461Y5489624D01*
X2904097Y5490190D01*
X2903758Y5490780D01*
X2903446Y5491396D01*
X2903162Y5492035D01*
X2684567Y6020214D01*
X2684312Y6020872D01*
X2684091Y6021539D01*
X2683903Y6022214D01*
X2683748Y6022898D01*
X2683625Y6023587D01*
X2683534Y6024281D01*
X2683446Y6025680D01*
X2683480Y6027083D01*
X2683633Y6028482D01*
X2683902Y6029864D01*
X2684283Y6031222D01*
X2684774Y6032544D01*
X2685370Y6033820D01*
X2686069Y6035041D01*
X2686867Y6036196D01*
X2687760Y6037276D01*
X2688242Y6037785D01*
X2688746Y6038270D01*
X2689273Y6038732D01*
X2689822Y6039169D01*
X2690392Y6039579D01*
X2690983Y6039961D01*
X2717515Y6056205D01*
X2719430Y6057421D01*
X2721472Y6058809D01*
X2723603Y6060339D01*
X2725786Y6061980D01*
X2727984Y6063703D01*
X2730160Y6065476D01*
X2732275Y6067271D01*
X2734293Y6069055D01*
X2751853Y6081077D01*
X2768613Y6094130D01*
X2784526Y6108168D01*
X2799546Y6123146D01*
X2813629Y6139019D01*
X2826727Y6155741D01*
X2838795Y6173266D01*
X2849788Y6191550D01*
X2859659Y6210546D01*
X2864159Y6220297D01*
X2868362Y6230209D01*
X2872262Y6240276D01*
X2875852Y6250493D01*
X2879128Y6260855D01*
X2882083Y6271354D01*
X2884713Y6281986D01*
X2887010Y6292746D01*
X2888969Y6303626D01*
X2890585Y6314622D01*
X2891852Y6325728D01*
X2892764Y6336939D01*
X2893315Y6348247D01*
X2893501Y6359649D01*
X2893052Y6377402D01*
X2891719Y6394922D01*
X2889525Y6412188D01*
X2886491Y6429177D01*
X2882639Y6445867D01*
X2877989Y6462238D01*
X2872565Y6478268D01*
X2866388Y6493934D01*
X2859479Y6509216D01*
X2851860Y6524091D01*
X2843553Y6538538D01*
X2834579Y6552535D01*
X2824960Y6566060D01*
X2814718Y6579093D01*
X2803875Y6591610D01*
X2792452Y6603591D01*
X2780470Y6615014D01*
X2767952Y6625857D01*
X2754920Y6636098D01*
X2741394Y6645716D01*
X2727397Y6654690D01*
X2712950Y6662996D01*
X2698075Y6670615D01*
X2682794Y6677523D01*
X2667128Y6683700D01*
X2651099Y6689124D01*
X2634728Y6693772D01*
X2618038Y6697625D01*
X2601051Y6700658D01*
X2583786Y6702852D01*
X2566268Y6704184D01*
X2548516Y6704633D01*
X2530765Y6704184D01*
X2513246Y6702852D01*
X2495982Y6700658D01*
X2478995Y6697625D01*
X2462305Y6693772D01*
X2445935Y6689124D01*
X2429907Y6683700D01*
X2414242Y6677523D01*
X2398961Y6670615D01*
X2384087Y6662996D01*
X2369641Y6654690D01*
X2355644Y6645716D01*
X2342119Y6636098D01*
X2329088Y6625857D01*
X2316571Y6615014D01*
X2304590Y6603591D01*
X2293168Y6591610D01*
X2282325Y6579092D01*
X2272084Y6566060D01*
X2262466Y6552535D01*
X2253493Y6538537D01*
X2245187Y6524091D01*
X2237568Y6509216D01*
X2230660Y6493934D01*
X2224483Y6478268D01*
X2219060Y6462238D01*
X2214411Y6445867D01*
X2210559Y6429176D01*
X2207525Y6412188D01*
X2205331Y6394922D01*
X2203999Y6377402D01*
X2203550Y6359649D01*
X2204286Y6336939D01*
X2206465Y6314622D01*
X2210039Y6292746D01*
X2214965Y6271354D01*
X2221195Y6250493D01*
X2228684Y6230209D01*
X2237386Y6210546D01*
X2247256Y6191550D01*
X2258248Y6173266D01*
X2270316Y6155741D01*
X2283414Y6139019D01*
X2297497Y6123146D01*
X2312518Y6108168D01*
X2328433Y6094130D01*
X2345195Y6081077D01*
X2362758Y6069055D01*
X2364765Y6067271D01*
X2366873Y6065476D01*
X2369044Y6063703D01*
X2371240Y6061980D01*
X2373421Y6060339D01*
X2375551Y6058809D01*
X2377590Y6057421D01*
X2379500Y6056205D01*
X2406031Y6039961D01*
X2406619Y6039579D01*
X2407186Y6039169D01*
X2407732Y6038732D01*
X2408257Y6038270D01*
X2408759Y6037785D01*
X2409239Y6037276D01*
X2409696Y6036747D01*
X2410130Y6036197D01*
X2410540Y6035628D01*
X2410926Y6035041D01*
X2411287Y6034438D01*
X2411623Y6033820D01*
X2411934Y6033188D01*
X2412219Y6032544D01*
X2412478Y6031888D01*
X2412710Y6031222D01*
X2412915Y6030547D01*
X2413093Y6029865D01*
X2413242Y6029176D01*
X2413363Y6028482D01*
X2413456Y6027784D01*
X2413519Y6027084D01*
X2413552Y6026382D01*
X2413555Y6025680D01*
X2413528Y6024980D01*
X2413470Y6024282D01*
X2413380Y6023587D01*
X2413259Y6022898D01*
X2413106Y6022214D01*
X2412919Y6021539D01*
X2412700Y6020872D01*
X2412447Y6020214D01*
X2193870Y5492017D01*
X2193587Y5491377D01*
X2193275Y5490761D01*
X2192936Y5490171D01*
X2192572Y5489605D01*
X2192183Y5489065D01*
X2191771Y5488551D01*
X2191337Y5488063D01*
X2190881Y5487602D01*
X2190405Y5487168D01*
X2189910Y5486761D01*
X2189398Y5486382D01*
X2188868Y5486032D01*
X2188323Y5485711D01*
X2187763Y5485418D01*
X2187190Y5485155D01*
X2186604Y5484922D01*
X2186007Y5484720D01*
X2185400Y5484548D01*
X2184783Y5484408D01*
X2184159Y5484298D01*
X2183528Y5484221D01*
X2182891Y5484177D01*
X2182249Y5484165D01*
X2181604Y5484186D01*
X2180957Y5484241D01*
X2180308Y5484330D01*
X2179658Y5484453D01*
X2179010Y5484611D01*
X2178364Y5484805D01*
X2177720Y5485034D01*
X2177081Y5485299D01*
X2176447Y5485600D01*
X2070432Y5542203D01*
X2069171Y5542864D01*
X2067832Y5543430D01*
X2066426Y5543899D01*
X2064964Y5544274D01*
X2063458Y5544553D01*
X2061921Y5544737D01*
X2060363Y5544827D01*
X2058797Y5544822D01*
X2057235Y5544723D01*
X2055688Y5544529D01*
X2054168Y5544242D01*
X2052687Y5543862D01*
X2051256Y5543388D01*
X2049887Y5542821D01*
X2048593Y5542161D01*
X2047385Y5541408D01*
X1806978Y5376411D01*
X1806388Y5376030D01*
X1805780Y5375679D01*
X1805156Y5375358D01*
X1804517Y5375065D01*
X1803864Y5374802D01*
X1803200Y5374569D01*
X1801839Y5374188D01*
X1800445Y5373923D01*
X1799029Y5373773D01*
X1797603Y5373736D01*
X1796176Y5373811D01*
X1794760Y5373998D01*
X1793365Y5374295D01*
X1792002Y5374702D01*
X1790683Y5375218D01*
X1789417Y5375841D01*
X1788808Y5376192D01*
X1788216Y5376571D01*
X1787643Y5376975D01*
X1787091Y5377406D01*
X1786560Y5377863D01*
X1786052Y5378346D01*
X1565447Y5598914D01*
X1564960Y5599426D01*
X1564500Y5599960D01*
X1564066Y5600515D01*
X1563659Y5601091D01*
X1563278Y5601685D01*
X1562924Y5602297D01*
X1562597Y5602924D01*
X1562297Y5603567D01*
X1562024Y5604222D01*
X1561778Y5604890D01*
X1561369Y5606256D01*
X1561070Y5607653D01*
X1560883Y5609071D01*
X1560808Y5610500D01*
X1560846Y5611927D01*
X1560999Y5613344D01*
X1561119Y5614044D01*
X1561267Y5614738D01*
X1561444Y5615424D01*
X1561651Y5616099D01*
X1561887Y5616764D01*
X1562153Y5617417D01*
X1562448Y5618056D01*
X1562772Y5618680D01*
X1563127Y5619288D01*
X1563511Y5619878D01*
X1731458Y5864599D01*
X1732213Y5865810D01*
X1732886Y5867112D01*
X1733476Y5868492D01*
X1733982Y5869940D01*
X1734404Y5871442D01*
X1734741Y5872987D01*
X1734990Y5874563D01*
X1735153Y5876157D01*
X1735227Y5877758D01*
X1735212Y5879354D01*
X1735106Y5880932D01*
X1734909Y5882481D01*
X1734620Y5883989D01*
X1734238Y5885443D01*
X1733762Y5886832D01*
X1733191Y5888144D01*
X1640893Y6118705D01*
X1640665Y6119377D01*
X1640404Y6120046D01*
X1639793Y6121377D01*
X1639069Y6122687D01*
X1638240Y6123970D01*
X1637315Y6125216D01*
X1636304Y6126419D01*
X1635214Y6127570D01*
X1634056Y6128661D01*
X1632837Y6129683D01*
X1631567Y6130629D01*
X1630254Y6131491D01*
X1628907Y6132260D01*
X1627535Y6132928D01*
X1626148Y6133487D01*
X1625450Y6133724D01*
X1624752Y6133930D01*
X1624055Y6134105D01*
X1623359Y6134247D01*
X1327713Y6189265D01*
X1327026Y6189408D01*
X1326347Y6189586D01*
X1325678Y6189796D01*
X1325018Y6190038D01*
X1324370Y6190311D01*
X1323734Y6190614D01*
X1323111Y6190945D01*
X1322502Y6191304D01*
X1321907Y6191690D01*
X1321328Y6192101D01*
X1320765Y6192536D01*
X1320220Y6192995D01*
X1319692Y6193476D01*
X1319184Y6193978D01*
X1318695Y6194501D01*
X1318227Y6195043D01*
X1317781Y6195603D01*
X1317357Y6196179D01*
X1316957Y6196772D01*
X1316581Y6197380D01*
X1316230Y6198002D01*
X1315905Y6198636D01*
X1315606Y6199282D01*
X1315336Y6199939D01*
X1315094Y6200606D01*
X1314881Y6201281D01*
X1314699Y6201964D01*
X1314548Y6202653D01*
X1314429Y6203347D01*
X1314343Y6204046D01*
X1314290Y6204749D01*
X1314273Y6205453D01*
X1314236Y6517398D01*
X1314252Y6518104D01*
X1314302Y6518807D01*
X1314387Y6519507D01*
X1314504Y6520202D01*
X1314653Y6520891D01*
X1314834Y6521573D01*
X1315045Y6522248D01*
X1315285Y6522914D01*
X1315555Y6523570D01*
X1315851Y6524216D01*
X1316524Y6525470D01*
X1317298Y6526668D01*
X1318166Y6527803D01*
X1319120Y6528866D01*
X1320153Y6529849D01*
X1321260Y6530743D01*
X1322432Y6531541D01*
X1323041Y6531901D01*
X1323663Y6532234D01*
X1324298Y6532539D01*
X1324946Y6532815D01*
X1325605Y6533060D01*
X1326274Y6533274D01*
X1326953Y6533456D01*
X1327640Y6533604D01*
X1630735Y6589968D01*
X1632124Y6590291D01*
X1633521Y6590736D01*
X1634915Y6591296D01*
X1636299Y6591962D01*
X1637662Y6592726D01*
X1638995Y6593582D01*
X1640290Y6594520D01*
X1641537Y6595534D01*
X1642726Y6596614D01*
X1643849Y6597754D01*
X1644896Y6598946D01*
X1645858Y6600181D01*
X1646726Y6601452D01*
X1647491Y6602750D01*
X1648143Y6604069D01*
X1648674Y6605400D01*
X1741581Y6822152D01*
X1742182Y6823449D01*
X1742688Y6824824D01*
X1743098Y6826265D01*
X1743414Y6827760D01*
X1743636Y6829297D01*
X1743765Y6830864D01*
X1743802Y6832450D01*
X1743747Y6834041D01*
X1743602Y6835628D01*
X1743366Y6837197D01*
X1743041Y6838737D01*
X1742628Y6840236D01*
X1742127Y6841682D01*
X1741539Y6843064D01*
X1740864Y6844369D01*
X1740104Y6845585D01*
X1563510Y7102973D01*
X1563129Y7103563D01*
X1562778Y7104171D01*
X1562455Y7104795D01*
X1562163Y7105433D01*
X1561899Y7106085D01*
X1561664Y7106750D01*
X1561282Y7108110D01*
X1561015Y7109503D01*
X1560863Y7110918D01*
X1560823Y7112344D01*
X1560897Y7113771D01*
X1561082Y7115187D01*
X1561379Y7116583D01*
X1561786Y7117947D01*
X1562302Y7119269D01*
X1562927Y7120537D01*
X1563280Y7121149D01*
X1563660Y7121742D01*
X1564066Y7122318D01*
X1564499Y7122873D01*
X1564959Y7123407D01*
X1565445Y7123918D01*
X1786013Y7344486D01*
X1786525Y7344972D01*
X1787058Y7345433D01*
X1787613Y7345866D01*
X1788188Y7346274D01*
X1788782Y7346654D01*
X1789392Y7347008D01*
X1790019Y7347335D01*
X1790660Y7347635D01*
X1791314Y7347908D01*
X1791980Y7348154D01*
X1793343Y7348563D01*
X1794737Y7348862D01*
X1796151Y7349049D01*
X1797576Y7349124D01*
X1799001Y7349086D01*
X1800414Y7348933D01*
X1801113Y7348814D01*
X1801806Y7348666D01*
X1802490Y7348488D01*
X1803164Y7348281D01*
X1803828Y7348046D01*
X1804480Y7347780D01*
X1805118Y7347485D01*
X1805742Y7347161D01*
X1806349Y7346806D01*
X1806939Y7346422D01*
X2068845Y7166693D01*
X2070056Y7165935D01*
X2071359Y7165261D01*
X2072741Y7164670D01*
X2074191Y7164164D01*
X2075695Y7163744D01*
X2077242Y7163409D01*
X2078820Y7163162D01*
X2080417Y7163003D01*
X2082019Y7162932D01*
X2083616Y7162952D01*
X2085194Y7163061D01*
X2086743Y7163262D01*
X2088248Y7163556D01*
X2089700Y7163942D01*
X2091084Y7164422D01*
X2092389Y7164996D01*
X2302503Y7251007D01*
X2303172Y7251245D01*
X2303838Y7251514D01*
X2304501Y7251814D01*
X2305160Y7252144D01*
X2306462Y7252887D01*
X2307737Y7253735D01*
X2308975Y7254678D01*
X2310170Y7255707D01*
X2311313Y7256814D01*
X2312397Y7257988D01*
X2313414Y7259222D01*
X2314356Y7260505D01*
X2315215Y7261830D01*
X2315983Y7263185D01*
X2316653Y7264564D01*
X2317216Y7265956D01*
X2317664Y7267352D01*
X2317843Y7268049D01*
X2317991Y7268744D01*
X2376346Y7582237D01*
X2376491Y7582926D01*
X2376670Y7583607D01*
X2376881Y7584277D01*
X2377124Y7584938D01*
X2377397Y7585587D01*
X2377700Y7586223D01*
X2378032Y7586847D01*
X2378390Y7587457D01*
X2378775Y7588052D01*
X2379186Y7588631D01*
X2379621Y7589194D01*
X2380078Y7589739D01*
X2380559Y7590267D01*
X2381060Y7590775D01*
X2381581Y7591263D01*
X2382122Y7591731D01*
X2382680Y7592176D01*
X2383256Y7592600D01*
X2383847Y7592999D01*
X2384454Y7593375D01*
X2385074Y7593726D01*
X2385707Y7594050D01*
X2386352Y7594348D01*
X2387008Y7594618D01*
X2387673Y7594859D01*
X2388347Y7595072D01*
X2389029Y7595253D01*
X2389717Y7595404D01*
X2390411Y7595523D01*
X2391110Y7595609D01*
X2391812Y7595661D01*
X2392516Y7595678D01*
X2704479Y7595678D01*
X2705182Y7595661D01*
G37*
D11*
%TO.C,kibuzzard-67BF7F13*%
G36*
X11495021Y4498519D02*
G01*
X11370129Y4438004D01*
X11370129Y4559034D01*
X11495021Y4498519D01*
G37*
G36*
X11515622Y3772017D02*
G01*
X11585150Y3724700D01*
X11632468Y3655172D01*
X11648240Y3572768D01*
X11648240Y3469764D01*
X11219485Y3469764D01*
X11219485Y3574056D01*
X11235097Y3655494D01*
X11281931Y3724700D01*
X11350976Y3772017D01*
X11433219Y3787790D01*
X11515622Y3772017D01*
G37*
G36*
X11491650Y5746349D02*
G01*
X11552706Y5737292D01*
X11612580Y5722294D01*
X11670696Y5701500D01*
X11726494Y5675110D01*
X11779437Y5643377D01*
X11829014Y5606608D01*
X11874749Y5565157D01*
X11916200Y5519422D01*
X11952969Y5469845D01*
X11984702Y5416902D01*
X12011092Y5361104D01*
X12031887Y5302988D01*
X12046884Y5243114D01*
X12055941Y5182058D01*
X12058970Y5120408D01*
X12058970Y4959464D01*
X12058970Y2514399D01*
X12058970Y1870622D01*
X10801030Y1870622D01*
X10801030Y2514399D01*
X10801030Y2849163D01*
X10969700Y2849163D01*
X10975494Y2777060D01*
X10989657Y2716545D01*
X11010901Y2666974D01*
X11035365Y2627060D01*
X11060472Y2596159D01*
X11083004Y2573627D01*
X11101030Y2559464D01*
X11110043Y2551738D01*
X11193734Y2519549D01*
X11276137Y2573627D01*
X11305894Y2627132D01*
X11297310Y2682926D01*
X11250386Y2741009D01*
X11203391Y2793155D01*
X11191159Y2844013D01*
X11209828Y2919979D01*
X11269700Y2943155D01*
X11309614Y2909678D01*
X11339871Y2808605D01*
X11356448Y2747285D01*
X11373991Y2698519D01*
X11415193Y2626416D01*
X11470558Y2574914D01*
X11540086Y2544013D01*
X11623777Y2533712D01*
X11698240Y2543298D01*
X11763691Y2572053D01*
X11820129Y2619979D01*
X11863405Y2682496D01*
X11889371Y2755029D01*
X11898026Y2837575D01*
X11889442Y2934714D01*
X11863691Y3016688D01*
X11820773Y3083498D01*
X11754464Y3129850D01*
X11675279Y3098948D01*
X11612833Y3022983D01*
X11636652Y2936717D01*
X11648884Y2921910D01*
X11663691Y2903884D01*
X11673348Y2878777D01*
X11677854Y2836288D01*
X11661760Y2788648D01*
X11622489Y2768047D01*
X11580644Y2790579D01*
X11558112Y2841438D01*
X11542017Y2919979D01*
X11522060Y3002382D01*
X11488584Y3075290D01*
X11439657Y3131781D01*
X11369807Y3167994D01*
X11273562Y3180064D01*
X11212082Y3174592D01*
X11156395Y3158176D01*
X11069485Y3102167D01*
X11012189Y3022983D01*
X10979356Y2934785D01*
X10969700Y2849163D01*
X10801030Y2849163D01*
X10801030Y3351309D01*
X10801030Y3570193D01*
X10983863Y3570193D01*
X10983863Y3351309D01*
X10992876Y3286288D01*
X11020558Y3250880D01*
X11056609Y3237361D01*
X11102318Y3234142D01*
X11767983Y3234142D01*
X11811116Y3236073D01*
X11846524Y3248305D01*
X11875494Y3284356D01*
X11883863Y3352597D01*
X11883863Y3574056D01*
X11875655Y3662897D01*
X11851030Y3745300D01*
X11809989Y3821266D01*
X11752532Y3890794D01*
X11683648Y3948814D01*
X11608326Y3990258D01*
X11526567Y4015123D01*
X11438369Y4023412D01*
X11347798Y4015123D01*
X11264067Y3990258D01*
X11187175Y3948814D01*
X11117124Y3890794D01*
X11058822Y3821025D01*
X11017178Y3744335D01*
X10992192Y3660724D01*
X10983863Y3570193D01*
X10801030Y3570193D01*
X10801030Y4780494D01*
X10972918Y4780494D01*
X11046953Y4717403D01*
X11169270Y4658176D01*
X11169270Y4341438D01*
X11045665Y4282210D01*
X10974206Y4217833D01*
X10992876Y4123841D01*
X11055322Y4051738D01*
X11146094Y4068476D01*
X11815622Y4391652D01*
X11865193Y4436717D01*
X11883863Y4499807D01*
X11866481Y4562575D01*
X11814335Y4606674D01*
X11146094Y4929850D01*
X11054678Y4947232D01*
X10991588Y4875773D01*
X10972918Y4780494D01*
X10801030Y4780494D01*
X10801030Y4959464D01*
X10801030Y5120408D01*
X10804059Y5182058D01*
X10813116Y5243114D01*
X10828113Y5302988D01*
X10848908Y5361104D01*
X10875298Y5416902D01*
X10907031Y5469845D01*
X10943800Y5519422D01*
X10985251Y5565157D01*
X11030986Y5606608D01*
X11080563Y5643377D01*
X11133506Y5675110D01*
X11189304Y5701500D01*
X11247420Y5722294D01*
X11307294Y5737292D01*
X11368350Y5746349D01*
X11430000Y5749378D01*
X11491650Y5746349D01*
G37*
%TO.C,kibuzzard-67ED66FD*%
G36*
X16455057Y12916738D02*
G01*
X16527303Y12867382D01*
X16567361Y12911373D01*
X16650336Y12926037D01*
X16725443Y12916023D01*
X16764785Y12883834D01*
X16778376Y12845923D01*
X16780522Y12797282D01*
X16780522Y12330901D01*
X16778376Y12281545D01*
X16764785Y12242203D01*
X16725443Y12209299D01*
X16651767Y12199285D01*
X16575944Y12209299D01*
X16535887Y12241488D01*
X16522296Y12279399D01*
X16520150Y12328040D01*
X16520150Y12607010D01*
X16492253Y12659227D01*
X16421438Y12679971D01*
X16386388Y12669242D01*
X16331309Y12658512D01*
X16251195Y12707868D01*
X16227589Y12763126D01*
X16219721Y12830186D01*
X16237604Y12884549D01*
X16284099Y12916738D01*
X16335601Y12929614D01*
X16378519Y12933190D01*
X16455057Y12916738D01*
G37*
G36*
X17322248Y12930726D02*
G01*
X17410947Y12893292D01*
X17490107Y12830901D01*
X17552101Y12751184D01*
X17589297Y12661771D01*
X17601695Y12562661D01*
X17588502Y12460213D01*
X17548921Y12370323D01*
X17482954Y12292990D01*
X17401091Y12233778D01*
X17313824Y12198251D01*
X17224013Y12186775D01*
X17221152Y12186409D01*
X17129354Y12198013D01*
X17042802Y12232825D01*
X16961495Y12290844D01*
X16895925Y12367620D01*
X16856583Y12458703D01*
X16843469Y12564092D01*
X16843644Y12565522D01*
X17105272Y12565522D01*
X17143898Y12476824D01*
X17224013Y12448212D01*
X17302697Y12476824D01*
X17339893Y12564092D01*
X17306273Y12647783D01*
X17225443Y12681402D01*
X17138176Y12649928D01*
X17105272Y12565522D01*
X16843644Y12565522D01*
X16855788Y12664553D01*
X16892746Y12754204D01*
X16954342Y12833047D01*
X17033582Y12894246D01*
X17123472Y12930965D01*
X17224013Y12943205D01*
X17322248Y12930726D01*
G37*
G36*
X18986531Y12916738D02*
G01*
X19025873Y12885980D01*
X19039464Y12848784D01*
X19042325Y12801574D01*
X19042325Y12330901D01*
X19040179Y12281545D01*
X19026588Y12242918D01*
X18987246Y12210730D01*
X18913569Y12200715D01*
X18839177Y12210730D01*
X18799120Y12242918D01*
X18785529Y12281545D01*
X18783383Y12329471D01*
X18783383Y12564092D01*
X18754771Y12639199D01*
X18678948Y12667096D01*
X18603841Y12639914D01*
X18577375Y12564092D01*
X18577375Y12330901D01*
X18575229Y12282976D01*
X18561638Y12243634D01*
X18521581Y12210730D01*
X18445758Y12200715D01*
X18370651Y12210730D01*
X18331309Y12242918D01*
X18317718Y12281545D01*
X18315572Y12329471D01*
X18315572Y12564092D01*
X18323997Y12663599D01*
X18349271Y12750389D01*
X18391395Y12824464D01*
X18448937Y12880893D01*
X18520468Y12914751D01*
X18605987Y12926037D01*
X18709707Y12898856D01*
X18786245Y12837339D01*
X18790536Y12866667D01*
X18806273Y12893848D01*
X18844900Y12917454D01*
X18912139Y12926037D01*
X18986531Y12916738D01*
G37*
G36*
X19545504Y12929932D02*
G01*
X19639686Y12894405D01*
X19719721Y12835193D01*
X19780522Y12757225D01*
X19817003Y12665427D01*
X19829163Y12559800D01*
X19823619Y12494707D01*
X19806989Y12431044D01*
X19779449Y12369528D01*
X19741180Y12310873D01*
X19688784Y12259192D01*
X19618863Y12218598D01*
X19534456Y12192310D01*
X19438605Y12183548D01*
X19308419Y12191685D01*
X19215429Y12216094D01*
X19159635Y12256778D01*
X19141037Y12313734D01*
X19159635Y12379542D01*
X19198262Y12431044D01*
X19245472Y12448212D01*
X19311280Y12429614D01*
X19427160Y12411016D01*
X19511567Y12431044D01*
X19554485Y12485408D01*
X19249764Y12485408D01*
X19191645Y12496316D01*
X19146044Y12529041D01*
X19116538Y12581795D01*
X19106702Y12652790D01*
X19107005Y12654220D01*
X19355629Y12654220D01*
X19394256Y12619886D01*
X19554485Y12619886D01*
X19520866Y12683548D01*
X19440036Y12711445D01*
X19378519Y12696423D01*
X19355629Y12654220D01*
X19107005Y12654220D01*
X19127983Y12753290D01*
X19191824Y12848784D01*
X19256917Y12900445D01*
X19338701Y12931442D01*
X19437175Y12941774D01*
X19545504Y12929932D01*
G37*
G36*
X18019038Y12933906D02*
G01*
X18094145Y12914592D01*
X18153197Y12882403D01*
X18210601Y12811409D01*
X18229735Y12714306D01*
X18218737Y12633923D01*
X18185744Y12568741D01*
X18130755Y12518759D01*
X18053770Y12483977D01*
X17976516Y12464664D01*
X17905701Y12444635D01*
X17884957Y12419599D01*
X17939320Y12396710D01*
X18045901Y12431760D01*
X18145329Y12466810D01*
X18201123Y12438197D01*
X18240823Y12371674D01*
X18254056Y12320887D01*
X18229199Y12268312D01*
X18154628Y12225036D01*
X18056810Y12196066D01*
X17962210Y12186409D01*
X17847361Y12196309D01*
X17758033Y12226009D01*
X17694227Y12275508D01*
X17655944Y12344807D01*
X17643183Y12433906D01*
X17662496Y12536910D01*
X17718290Y12602718D01*
X17786960Y12635622D01*
X17864928Y12654220D01*
X17887818Y12657797D01*
X17910708Y12661373D01*
X17930737Y12665665D01*
X17949335Y12670672D01*
X17965072Y12675680D01*
X17978662Y12682117D01*
X17987961Y12689986D01*
X17994399Y12700000D01*
X17996545Y12712876D01*
X17943612Y12741488D01*
X17854914Y12715737D01*
X17776230Y12689986D01*
X17704700Y12744349D01*
X17673584Y12833763D01*
X17729020Y12893133D01*
X17828805Y12928541D01*
X17927876Y12940343D01*
X18019038Y12933906D01*
G37*
G36*
X20342913Y13206835D02*
G01*
X20423504Y13177984D01*
X20492969Y13129900D01*
X20546219Y13067191D01*
X20578170Y12994468D01*
X20588820Y12911731D01*
X20577375Y12818741D01*
X20543040Y12741488D01*
X20485815Y12679971D01*
X20405701Y12634192D01*
X20351516Y12614700D01*
X20283383Y12596280D01*
X20171080Y12562661D01*
X20133884Y12518312D01*
X20159635Y12451788D01*
X20244041Y12431044D01*
X20300551Y12444635D01*
X20358491Y12496853D01*
X20423027Y12548991D01*
X20485021Y12558528D01*
X20544471Y12525465D01*
X20604557Y12433906D01*
X20568791Y12340916D01*
X20560207Y12330901D01*
X20544471Y12310873D01*
X20519435Y12285837D01*
X20485100Y12257940D01*
X20440751Y12230758D01*
X20385672Y12207153D01*
X20318433Y12191416D01*
X20238319Y12184979D01*
X20143183Y12195708D01*
X20045186Y12232189D01*
X19957203Y12295851D01*
X19894971Y12392418D01*
X19876731Y12454292D01*
X19870651Y12522604D01*
X19884063Y12629542D01*
X19924299Y12707153D01*
X19987067Y12761516D01*
X20068076Y12798712D01*
X20159635Y12820887D01*
X20246903Y12838770D01*
X20303412Y12863805D01*
X20328448Y12910300D01*
X20305558Y12953934D01*
X20252625Y12971817D01*
X20205415Y12966810D01*
X20177518Y12956080D01*
X20157489Y12939628D01*
X20141037Y12926037D01*
X20045186Y12899571D01*
X19960780Y12968956D01*
X19926445Y13056938D01*
X19977947Y13130615D01*
X20052180Y13178302D01*
X20143263Y13206915D01*
X20251195Y13216452D01*
X20342913Y13206835D01*
G37*
%TO.C,kibuzzard-67BF7F2F*%
G36*
X14031271Y5467875D02*
G01*
X14091952Y5458874D01*
X14151459Y5443968D01*
X14209218Y5423302D01*
X14264674Y5397073D01*
X14317291Y5365536D01*
X14366564Y5328992D01*
X14412018Y5287796D01*
X14453214Y5242342D01*
X14489758Y5193069D01*
X14521295Y5140451D01*
X14547524Y5084996D01*
X14568190Y5027237D01*
X14583096Y4967730D01*
X14592097Y4907049D01*
X14595107Y4845778D01*
X14595107Y4684834D01*
X14595107Y2475392D01*
X14595107Y1831615D01*
X13344893Y1831615D01*
X13344893Y2475392D01*
X13344893Y2810156D01*
X13505837Y2810156D01*
X13511631Y2738053D01*
X13525794Y2677538D01*
X13547039Y2627967D01*
X13571502Y2588053D01*
X13596609Y2557151D01*
X13619142Y2534619D01*
X13637167Y2520456D01*
X13646180Y2512731D01*
X13729871Y2480542D01*
X13812275Y2534619D01*
X13842031Y2588124D01*
X13833448Y2643918D01*
X13786524Y2702001D01*
X13739528Y2754147D01*
X13727296Y2805005D01*
X13745966Y2880971D01*
X13805837Y2904147D01*
X13845751Y2870671D01*
X13876009Y2769598D01*
X13892586Y2708278D01*
X13910129Y2659512D01*
X13951330Y2587409D01*
X14006695Y2535907D01*
X14076223Y2505005D01*
X14159914Y2494705D01*
X14234378Y2504290D01*
X14299828Y2533045D01*
X14356266Y2580971D01*
X14399542Y2643489D01*
X14425508Y2716021D01*
X14434163Y2798568D01*
X14425579Y2895706D01*
X14399828Y2977681D01*
X14356910Y3044490D01*
X14290601Y3090842D01*
X14211416Y3059941D01*
X14148970Y2983975D01*
X14172790Y2897709D01*
X14185021Y2882902D01*
X14199828Y2864877D01*
X14209485Y2839769D01*
X14213991Y2797280D01*
X14197897Y2749641D01*
X14158627Y2729040D01*
X14116781Y2751572D01*
X14094249Y2802430D01*
X14078155Y2880971D01*
X14058197Y2963374D01*
X14024721Y3036282D01*
X13975794Y3092774D01*
X13905944Y3128986D01*
X13809700Y3141057D01*
X13748219Y3135585D01*
X13692532Y3119168D01*
X13605622Y3063160D01*
X13548326Y2983975D01*
X13515494Y2895778D01*
X13505837Y2810156D01*
X13344893Y2810156D01*
X13344893Y3643203D01*
X13505837Y3643203D01*
X13509700Y3588643D01*
X13521288Y3530542D01*
X13542049Y3469705D01*
X13573433Y3406937D01*
X13613991Y3346583D01*
X13662275Y3292988D01*
X13721663Y3247119D01*
X13795536Y3209941D01*
X13880837Y3185317D01*
X13974506Y3177108D01*
X14064635Y3185156D01*
X14147039Y3209297D01*
X14218659Y3245993D01*
X14276438Y3291701D01*
X14323433Y3345295D01*
X14362704Y3405649D01*
X14393122Y3468739D01*
X14413562Y3530542D01*
X14425150Y3590252D01*
X14429013Y3647065D01*
X14421001Y3723746D01*
X14396967Y3802716D01*
X14356910Y3883975D01*
X14332446Y3918739D01*
X14305408Y3942559D01*
X14266781Y3954791D01*
X14194678Y3926465D01*
X14142532Y3878181D01*
X14125150Y3833761D01*
X14154764Y3764233D01*
X14160558Y3755864D01*
X14167639Y3744920D01*
X14174721Y3732688D01*
X14181159Y3715306D01*
X14186309Y3694705D01*
X14190815Y3668954D01*
X14192103Y3638053D01*
X14179227Y3564662D01*
X14141245Y3491915D01*
X14071073Y3434619D01*
X14022790Y3418203D01*
X13968069Y3412731D01*
X13897736Y3422548D01*
X13838670Y3452001D01*
X13793444Y3493686D01*
X13764635Y3540199D01*
X13744034Y3638053D01*
X13754657Y3705971D01*
X13786524Y3770671D01*
X13812275Y3835048D01*
X13793927Y3878825D01*
X13738884Y3925177D01*
X13664206Y3953503D01*
X13617210Y3935477D01*
X13577940Y3882688D01*
X13537883Y3806293D01*
X13513848Y3726465D01*
X13505837Y3643203D01*
X13344893Y3643203D01*
X13344893Y4153074D01*
X13344893Y4584405D01*
X13518712Y4584405D01*
X13518712Y4153074D01*
X13527725Y4086121D01*
X13557339Y4050070D01*
X13592747Y4037838D01*
X13637167Y4035907D01*
X14302833Y4035907D01*
X14345966Y4037838D01*
X14381373Y4050070D01*
X14410987Y4086121D01*
X14420000Y4154362D01*
X14410987Y4221314D01*
X14381373Y4257366D01*
X14345966Y4269598D01*
X14301545Y4271529D01*
X13719571Y4271529D01*
X13719571Y4585692D01*
X13717639Y4622387D01*
X13707339Y4652001D01*
X13677082Y4677108D01*
X13619142Y4684834D01*
X13562489Y4677108D01*
X13531588Y4652001D01*
X13520644Y4621100D01*
X13518712Y4584405D01*
X13344893Y4584405D01*
X13344893Y4684834D01*
X13344893Y4845778D01*
X13347903Y4907049D01*
X13356904Y4967730D01*
X13371810Y5027237D01*
X13392476Y5084996D01*
X13418705Y5140451D01*
X13450242Y5193069D01*
X13486786Y5242342D01*
X13527982Y5287796D01*
X13573436Y5328992D01*
X13622709Y5365536D01*
X13675326Y5397073D01*
X13730782Y5423302D01*
X13788541Y5443968D01*
X13848048Y5458874D01*
X13908729Y5467875D01*
X13970000Y5470885D01*
X14031271Y5467875D01*
G37*
%TO.C,kibuzzard-67ED66F3*%
G36*
X16004413Y14640243D02*
G01*
X16044471Y14608054D01*
X16058062Y14569428D01*
X16060207Y14520072D01*
X16060207Y13886309D01*
X16056631Y13798863D01*
X16045901Y13731087D01*
X15992969Y13642389D01*
X15904270Y13602332D01*
X15844185Y13595358D01*
X15764070Y13593033D01*
X15732597Y13595179D01*
X15704700Y13608054D01*
X15680379Y13647396D01*
X15672511Y13721788D01*
X15680379Y13791888D01*
X15704700Y13829084D01*
X15732597Y13841245D01*
X15762639Y13843391D01*
X15796259Y13851259D01*
X15801266Y13902046D01*
X15801266Y14518641D01*
X15804127Y14567282D01*
X15817718Y14607339D01*
X15856345Y14640243D01*
X15930021Y14650258D01*
X16004413Y14640243D01*
G37*
G36*
X17156774Y14310486D02*
G01*
X17229020Y14261130D01*
X17269077Y14305122D01*
X17352053Y14319785D01*
X17427160Y14309771D01*
X17466502Y14277582D01*
X17480093Y14239671D01*
X17482239Y14191030D01*
X17482239Y13724649D01*
X17480093Y13675293D01*
X17466502Y13635951D01*
X17427160Y13603047D01*
X17353484Y13593033D01*
X17277661Y13603047D01*
X17237604Y13635236D01*
X17224013Y13673147D01*
X17221867Y13721788D01*
X17221867Y14000758D01*
X17193970Y14052976D01*
X17123155Y14073720D01*
X17088104Y14062990D01*
X17033026Y14052260D01*
X16952911Y14101617D01*
X16929306Y14156874D01*
X16921438Y14223934D01*
X16939320Y14278298D01*
X16985815Y14310486D01*
X17037318Y14323362D01*
X17080236Y14326938D01*
X17156774Y14310486D01*
G37*
G36*
X18511745Y14322289D02*
G01*
X18574514Y14304049D01*
X18636388Y14274900D01*
X18694685Y14236094D01*
X18746009Y14185129D01*
X18786960Y14119499D01*
X18813784Y14042961D01*
X18822725Y13959270D01*
X18813784Y13874328D01*
X18786960Y13796896D01*
X18745830Y13730551D01*
X18693970Y13678870D01*
X18635136Y13639528D01*
X18573083Y13610200D01*
X18509957Y13591960D01*
X18447904Y13585880D01*
X18350622Y13599828D01*
X18253340Y13641674D01*
X18191188Y13697627D01*
X18176405Y13758666D01*
X18208991Y13824793D01*
X18266574Y13881660D01*
X18316288Y13900615D01*
X18390680Y13869142D01*
X18453627Y13850544D01*
X18525873Y13882017D01*
X18556631Y13957840D01*
X18525157Y14032947D01*
X18450765Y14063705D01*
X18378519Y14037954D01*
X18307704Y14012203D01*
X18256202Y14031874D01*
X18204700Y14090887D01*
X18174657Y14172432D01*
X18188247Y14215351D01*
X18215429Y14246109D01*
X18253340Y14271144D01*
X18348476Y14314063D01*
X18450765Y14328369D01*
X18511745Y14322289D01*
G37*
G36*
X16368505Y14305122D02*
G01*
X16404986Y14261130D01*
X16471152Y14304049D01*
X16555200Y14318355D01*
X16637222Y14306115D01*
X16713522Y14269396D01*
X16784099Y14208197D01*
X16840529Y14131580D01*
X16874386Y14048604D01*
X16885672Y13959270D01*
X16874466Y13867552D01*
X16840846Y13783146D01*
X16784814Y13706052D01*
X16714475Y13644853D01*
X16637938Y13608134D01*
X16555200Y13595894D01*
X16519435Y13601517D01*
X16473298Y13608770D01*
X16404986Y13647396D01*
X16364571Y13608770D01*
X16283383Y13595894D01*
X16208991Y13605908D01*
X16168934Y13638097D01*
X16155343Y13676009D01*
X16153197Y13724649D01*
X16153197Y13957840D01*
X16420722Y13957840D01*
X16450050Y13885594D01*
X16519435Y13854835D01*
X16594542Y13885594D01*
X16626731Y13956409D01*
X16595973Y14029371D01*
X16522296Y14060844D01*
X16450050Y14030801D01*
X16420722Y13957840D01*
X16153197Y13957840D01*
X16153197Y14189599D01*
X16155343Y14237525D01*
X16168934Y14276867D01*
X16208276Y14309771D01*
X16281953Y14319785D01*
X16368505Y14305122D01*
G37*
G36*
X19318751Y14323680D02*
G01*
X19412934Y14288153D01*
X19492969Y14228941D01*
X19553770Y14150973D01*
X19590250Y14059175D01*
X19602411Y13953548D01*
X19596867Y13888455D01*
X19580236Y13824793D01*
X19552697Y13763276D01*
X19514428Y13704621D01*
X19462031Y13652940D01*
X19392110Y13612346D01*
X19307704Y13586059D01*
X19211853Y13577296D01*
X19081667Y13585433D01*
X18988677Y13609843D01*
X18932883Y13650526D01*
X18914285Y13707482D01*
X18932883Y13773290D01*
X18971509Y13824793D01*
X19018720Y13841960D01*
X19084528Y13823362D01*
X19200408Y13804764D01*
X19284814Y13824793D01*
X19327732Y13879156D01*
X19023011Y13879156D01*
X18964893Y13890064D01*
X18919292Y13922790D01*
X18889785Y13975544D01*
X18879950Y14046538D01*
X18880253Y14047969D01*
X19128877Y14047969D01*
X19167504Y14013634D01*
X19327732Y14013634D01*
X19294113Y14077296D01*
X19213283Y14105193D01*
X19151767Y14090172D01*
X19128877Y14047969D01*
X18880253Y14047969D01*
X18901230Y14147039D01*
X18965072Y14242532D01*
X19030165Y14294193D01*
X19111948Y14325190D01*
X19210422Y14335522D01*
X19318751Y14323680D01*
G37*
G36*
X20306989Y14309771D02*
G01*
X20345615Y14277582D01*
X20358491Y14239671D01*
X20360637Y14192461D01*
X20360637Y13415637D01*
X20359921Y13377010D01*
X20352768Y13344821D01*
X20333455Y13315494D01*
X20295544Y13297611D01*
X20233312Y13289742D01*
X20158920Y13299757D01*
X20118863Y13330515D01*
X20105272Y13369857D01*
X20104557Y13417067D01*
X20104557Y13647396D01*
X20041967Y13619499D01*
X20002983Y13614555D01*
X19968648Y13610200D01*
X19885196Y13621725D01*
X19808419Y13656298D01*
X19738319Y13713920D01*
X19682684Y13787279D01*
X19649303Y13869062D01*
X19638529Y13956409D01*
X19898548Y13956409D01*
X19930021Y13884163D01*
X20002983Y13853405D01*
X20074514Y13884163D01*
X20104557Y13956409D01*
X20074514Y14029371D01*
X20001552Y14059413D01*
X19928591Y14029371D01*
X19898548Y13956409D01*
X19638529Y13956409D01*
X19638176Y13959270D01*
X19649462Y14048604D01*
X19683320Y14131580D01*
X19739750Y14208197D01*
X19810327Y14269396D01*
X19886626Y14306115D01*
X19968648Y14318355D01*
X20043398Y14307268D01*
X20110279Y14274006D01*
X20157132Y14308340D01*
X20234742Y14319785D01*
X20306989Y14309771D01*
G37*
G36*
X17947904Y14550830D02*
G01*
X17987246Y14520787D01*
X18000837Y14483591D01*
X18002983Y14435665D01*
X18002983Y14311202D01*
X18033026Y14311202D01*
X18101695Y14280443D01*
X18124585Y14188169D01*
X18105272Y14093748D01*
X18038748Y14062275D01*
X18002983Y14062275D01*
X18002983Y13880587D01*
X17994955Y13790935D01*
X17970873Y13718450D01*
X17930737Y13663133D01*
X17873751Y13624189D01*
X17799120Y13600822D01*
X17706845Y13593033D01*
X17660351Y13595179D01*
X17621009Y13608770D01*
X17587389Y13648112D01*
X17576660Y13721788D01*
X17585243Y13787597D01*
X17613856Y13822647D01*
X17652482Y13836237D01*
X17705415Y13839099D01*
X17736173Y13850544D01*
X17744041Y13893462D01*
X17744041Y14059413D01*
X17669649Y14057983D01*
X17621009Y14061559D01*
X17581667Y14076581D01*
X17550193Y14115923D01*
X17539464Y14186738D01*
X17547332Y14250401D01*
X17565930Y14289742D01*
X17596688Y14309771D01*
X17630308Y14317639D01*
X17668219Y14318355D01*
X17744041Y14315494D01*
X17744041Y14429943D01*
X17746903Y14477868D01*
X17761209Y14517926D01*
X17800551Y14550114D01*
X17872797Y14560129D01*
X17947904Y14550830D01*
G37*
G36*
X20890123Y14600583D02*
G01*
X20970715Y14571733D01*
X21040179Y14523648D01*
X21093430Y14460939D01*
X21125380Y14388216D01*
X21136030Y14305479D01*
X21124585Y14212489D01*
X21090250Y14135236D01*
X21033026Y14073720D01*
X20952911Y14027940D01*
X20898727Y14008448D01*
X20830594Y13990029D01*
X20718290Y13956409D01*
X20681094Y13912060D01*
X20706845Y13845536D01*
X20791252Y13824793D01*
X20847761Y13838383D01*
X20905701Y13890601D01*
X20970238Y13942739D01*
X21032231Y13952276D01*
X21091681Y13919213D01*
X21151767Y13827654D01*
X21116001Y13734664D01*
X21107418Y13724649D01*
X21091681Y13704621D01*
X21066645Y13679585D01*
X21032310Y13651688D01*
X20987961Y13624506D01*
X20932883Y13600901D01*
X20865644Y13585165D01*
X20785529Y13578727D01*
X20690393Y13589456D01*
X20592396Y13625937D01*
X20504413Y13689599D01*
X20442182Y13786166D01*
X20423941Y13848040D01*
X20417861Y13916352D01*
X20431273Y14023290D01*
X20471509Y14100901D01*
X20534278Y14155265D01*
X20615286Y14192461D01*
X20706845Y14214635D01*
X20794113Y14232518D01*
X20850622Y14257554D01*
X20875658Y14304049D01*
X20852768Y14347682D01*
X20799835Y14365565D01*
X20752625Y14360558D01*
X20724728Y14349828D01*
X20704700Y14333376D01*
X20688247Y14319785D01*
X20592396Y14293319D01*
X20507990Y14362704D01*
X20473655Y14450687D01*
X20525157Y14524363D01*
X20599390Y14572051D01*
X20690473Y14600663D01*
X20798405Y14610200D01*
X20890123Y14600583D01*
G37*
%TO.C,kibuzzard-67F81140*%
G36*
X20227897Y7406266D02*
G01*
X20123605Y7406266D01*
X20042167Y7421878D01*
X19972961Y7468712D01*
X19925644Y7537758D01*
X19909871Y7620000D01*
X19925644Y7702403D01*
X19972961Y7771931D01*
X20042489Y7819249D01*
X20124893Y7835021D01*
X20227897Y7835021D01*
X20227897Y7406266D01*
G37*
G36*
X22212446Y7008412D02*
G01*
X21944206Y7008412D01*
X21827039Y7008412D01*
X21109871Y7008412D01*
X20346352Y7008412D01*
X19674249Y7008412D01*
X19674142Y7008412D01*
X19614196Y7011357D01*
X19554827Y7020164D01*
X19496607Y7034747D01*
X19440097Y7054966D01*
X19385841Y7080628D01*
X19334362Y7111483D01*
X19286154Y7147236D01*
X19241684Y7187542D01*
X19201378Y7232013D01*
X19165625Y7280220D01*
X19134769Y7331699D01*
X19109108Y7385955D01*
X19088888Y7442465D01*
X19074305Y7500685D01*
X19065499Y7560054D01*
X19062554Y7620000D01*
X19062807Y7625150D01*
X19674249Y7625150D01*
X19682538Y7534579D01*
X19707403Y7450848D01*
X19748847Y7373957D01*
X19806867Y7303906D01*
X19876636Y7245604D01*
X19953326Y7203959D01*
X20036937Y7178973D01*
X20127468Y7170644D01*
X20346352Y7170644D01*
X20411373Y7179657D01*
X20446781Y7207339D01*
X20460300Y7243391D01*
X20463519Y7289099D01*
X20463519Y7952189D01*
X20517597Y7952189D01*
X20526609Y7885236D01*
X20556223Y7849185D01*
X20591631Y7836953D01*
X20636052Y7835021D01*
X20991416Y7835021D01*
X20991416Y7720429D01*
X20753219Y7720429D01*
X20711373Y7718498D01*
X20680472Y7708197D01*
X20656009Y7677296D01*
X20648927Y7618712D01*
X20656009Y7561416D01*
X20681116Y7531803D01*
X20713305Y7521502D01*
X20755794Y7519571D01*
X20991416Y7519571D01*
X20991416Y7404979D01*
X20634764Y7404979D01*
X20590343Y7403047D01*
X20555579Y7390815D01*
X20526609Y7354764D01*
X20517597Y7286524D01*
X20526609Y7219571D01*
X20556223Y7183519D01*
X20591631Y7171288D01*
X20636052Y7169356D01*
X21109871Y7169356D01*
X21176824Y7178369D01*
X21212876Y7207983D01*
X21225107Y7243391D01*
X21226255Y7269785D01*
X21295279Y7269785D01*
X21303004Y7213133D01*
X21328112Y7182232D01*
X21359013Y7171288D01*
X21395708Y7169356D01*
X21827039Y7169356D01*
X21893991Y7178369D01*
X21930043Y7207983D01*
X21942275Y7243391D01*
X21944206Y7287811D01*
X21944206Y7953476D01*
X21942275Y7996609D01*
X21930043Y8032017D01*
X21893991Y8061631D01*
X21825751Y8070644D01*
X21758798Y8061631D01*
X21722747Y8032017D01*
X21710515Y7996609D01*
X21708584Y7952189D01*
X21708584Y7370215D01*
X21394421Y7370215D01*
X21357725Y7368283D01*
X21328112Y7357983D01*
X21303004Y7327725D01*
X21295279Y7269785D01*
X21226255Y7269785D01*
X21227039Y7287811D01*
X21227039Y7953476D01*
X21200644Y8045536D01*
X21106009Y8070644D01*
X20634764Y8070644D01*
X20590343Y8068712D01*
X20555579Y8056481D01*
X20526609Y8020429D01*
X20517597Y7952189D01*
X20463519Y7952189D01*
X20463519Y7954764D01*
X20461588Y7997897D01*
X20449356Y8033305D01*
X20413305Y8062275D01*
X20345064Y8070644D01*
X20123605Y8070644D01*
X20034764Y8062436D01*
X19952361Y8037811D01*
X19876395Y7996770D01*
X19806867Y7939313D01*
X19748847Y7870429D01*
X19707403Y7795107D01*
X19682538Y7713348D01*
X19674249Y7625150D01*
X19062807Y7625150D01*
X19065499Y7679946D01*
X19074305Y7739315D01*
X19088888Y7797535D01*
X19109108Y7854045D01*
X19134769Y7908301D01*
X19165625Y7959780D01*
X19201378Y8007987D01*
X19241684Y8052458D01*
X19286154Y8092764D01*
X19334362Y8128517D01*
X19385841Y8159372D01*
X19440097Y8185034D01*
X19496607Y8205253D01*
X19554827Y8219836D01*
X19614196Y8228643D01*
X19674142Y8231588D01*
X19674249Y8231588D01*
X21944206Y8231588D01*
X22212446Y8231588D01*
X22212446Y7008412D01*
G37*
%TO.C,kibuzzard-67ED694E*%
G36*
X19769528Y4731842D02*
G01*
X19769528Y4570898D01*
X19769528Y2631842D01*
X19769528Y1773473D01*
X18330472Y1773473D01*
X18330472Y2631842D01*
X18330472Y2749009D01*
X18491416Y2749009D01*
X18500429Y2682057D01*
X18530043Y2646005D01*
X18565451Y2633773D01*
X18609871Y2631842D01*
X19275536Y2631842D01*
X19318670Y2633773D01*
X19354077Y2646005D01*
X19383691Y2682057D01*
X19392704Y2750297D01*
X19383691Y2817250D01*
X19354077Y2853301D01*
X19318670Y2865533D01*
X19274249Y2867464D01*
X18608584Y2867464D01*
X18564163Y2865533D01*
X18529399Y2853301D01*
X18500429Y2817250D01*
X18491416Y2749009D01*
X18330472Y2749009D01*
X18330472Y3055447D01*
X18330472Y3611670D01*
X18491416Y3611670D01*
X18498498Y3545361D01*
X18526180Y3507378D01*
X18966524Y3173902D01*
X18608584Y3173902D01*
X18564163Y3171971D01*
X18529399Y3159739D01*
X18500429Y3123687D01*
X18491416Y3055447D01*
X18500429Y2989138D01*
X18529399Y2954374D01*
X18564807Y2942142D01*
X18609871Y2939567D01*
X19278112Y2939567D01*
X19321245Y2942142D01*
X19355365Y2955018D01*
X19383047Y2990426D01*
X19391416Y3058022D01*
X19383691Y3116606D01*
X19367597Y3149438D01*
X19341202Y3172614D01*
X18908584Y3494503D01*
X19278112Y3494503D01*
X19320601Y3497078D01*
X19354721Y3509954D01*
X19382403Y3546005D01*
X19391416Y3612958D01*
X19382403Y3679911D01*
X19352790Y3715962D01*
X19317382Y3728194D01*
X19272961Y3730125D01*
X18608584Y3730125D01*
X18564163Y3728194D01*
X18529399Y3715962D01*
X18500429Y3679911D01*
X18491416Y3611670D01*
X18330472Y3611670D01*
X18330472Y4176906D01*
X18491416Y4176906D01*
X18500429Y4110597D01*
X18529399Y4075833D01*
X18564163Y4064245D01*
X18607296Y4062314D01*
X19195708Y4062314D01*
X19195708Y3883344D01*
X19197639Y3846649D01*
X19207940Y3817679D01*
X19238197Y3793215D01*
X19296137Y3785490D01*
X19352146Y3793215D01*
X19381760Y3818323D01*
X19392060Y3847936D01*
X19393991Y3884632D01*
X19393991Y4473044D01*
X19392060Y4509739D01*
X19381760Y4538709D01*
X19351502Y4563172D01*
X19294850Y4570898D01*
X19501288Y4570898D01*
X19501288Y2631842D01*
X19608584Y2631842D01*
X19608584Y4570898D01*
X19501288Y4570898D01*
X19294850Y4570898D01*
X19238197Y4563172D01*
X19207940Y4538065D01*
X19197639Y4508451D01*
X19195708Y4471756D01*
X19195708Y4294074D01*
X18606009Y4294074D01*
X18562876Y4292142D01*
X18528755Y4279911D01*
X18500429Y4243859D01*
X18491416Y4176906D01*
X18330472Y4176906D01*
X18330472Y4570898D01*
X18330472Y4731842D01*
X18330472Y5211527D01*
X19050000Y4731842D01*
X19769528Y5211527D01*
X19769528Y4731842D01*
G37*
%TO.C,G\u002A\u002A\u002A*%
G36*
X18284388Y18228331D02*
G01*
X18284388Y16631091D01*
X17927832Y16631091D01*
X17927832Y17077919D01*
X17789694Y17211177D01*
X17433371Y16631091D01*
X17001530Y16631091D01*
X17546297Y17451901D01*
X17056483Y17929283D01*
X17478332Y17929283D01*
X17927832Y17462009D01*
X17927832Y18423861D01*
X18284388Y18228331D01*
G37*
G36*
X18516854Y17963999D02*
G01*
X18533446Y17963019D01*
X18549948Y17961401D01*
X18566342Y17959156D01*
X18582613Y17956295D01*
X18598744Y17952829D01*
X18614718Y17948771D01*
X18630518Y17944130D01*
X18646129Y17938920D01*
X18661532Y17933151D01*
X18676712Y17926835D01*
X18691653Y17919983D01*
X18706336Y17912606D01*
X18720747Y17904717D01*
X18734868Y17896326D01*
X18748682Y17887445D01*
X18762174Y17878086D01*
X18775325Y17868260D01*
X18788121Y17857978D01*
X18800544Y17847251D01*
X18812577Y17836092D01*
X18824204Y17824512D01*
X18835408Y17812521D01*
X18846173Y17800133D01*
X18856483Y17787357D01*
X18866319Y17774205D01*
X18875667Y17760690D01*
X18884508Y17746822D01*
X18892828Y17732613D01*
X18900608Y17718074D01*
X18907833Y17703216D01*
X18914485Y17688052D01*
X18919365Y17688052D01*
X18919365Y17929241D01*
X19258378Y17868711D01*
X19258378Y16631048D01*
X18901822Y16631048D01*
X18901822Y17216014D01*
X18900770Y17258776D01*
X18897528Y17300271D01*
X18891968Y17340292D01*
X18888278Y17359686D01*
X18883961Y17378634D01*
X18879000Y17397111D01*
X18873379Y17415091D01*
X18867082Y17432549D01*
X18860093Y17449458D01*
X18852396Y17465793D01*
X18843975Y17481528D01*
X18834814Y17496637D01*
X18824896Y17511095D01*
X18814206Y17524877D01*
X18802728Y17537955D01*
X18790446Y17550305D01*
X18777343Y17561901D01*
X18763403Y17572717D01*
X18748611Y17582728D01*
X18732950Y17591907D01*
X18716404Y17600229D01*
X18698958Y17607668D01*
X18680595Y17614199D01*
X18661299Y17619796D01*
X18641053Y17624433D01*
X18619843Y17628084D01*
X18597652Y17630723D01*
X18574463Y17632326D01*
X18550262Y17632866D01*
X18533824Y17632628D01*
X18516809Y17631937D01*
X18499566Y17630832D01*
X18482442Y17629352D01*
X18465786Y17627534D01*
X18449948Y17625416D01*
X18435275Y17623037D01*
X18422115Y17620435D01*
X18422115Y17951780D01*
X18431536Y17954421D01*
X18440997Y17956828D01*
X18450525Y17958967D01*
X18460150Y17960798D01*
X18469900Y17962287D01*
X18479804Y17963396D01*
X18484823Y17963797D01*
X18489891Y17964089D01*
X18495011Y17964267D01*
X18500188Y17964328D01*
X18516854Y17963999D01*
G37*
G36*
X16376922Y18423352D02*
G01*
X16402928Y18421938D01*
X16428068Y18419602D01*
X16452344Y18416362D01*
X16475756Y18412236D01*
X16498305Y18407240D01*
X16519992Y18401392D01*
X16540818Y18394710D01*
X16560784Y18387211D01*
X16579890Y18378913D01*
X16598138Y18369832D01*
X16615528Y18359988D01*
X16632061Y18349396D01*
X16647739Y18338074D01*
X16662561Y18326040D01*
X16676529Y18313311D01*
X16689644Y18299905D01*
X16701906Y18285840D01*
X16713317Y18271131D01*
X16723877Y18255798D01*
X16733587Y18239857D01*
X16742449Y18223326D01*
X16750462Y18206222D01*
X16757628Y18188563D01*
X16763948Y18170367D01*
X16769422Y18151650D01*
X16774052Y18132430D01*
X16777838Y18112724D01*
X16780781Y18092551D01*
X16782882Y18071927D01*
X16784142Y18050870D01*
X16784562Y18029397D01*
X16784562Y17929250D01*
X16893190Y17929250D01*
X17136238Y17690733D01*
X16784562Y17690733D01*
X16784562Y16630941D01*
X16428006Y16630941D01*
X16428006Y17690733D01*
X16182053Y17690733D01*
X16182053Y17929250D01*
X16428006Y17929250D01*
X16428006Y18006974D01*
X16427558Y18026445D01*
X16426192Y18044366D01*
X16425154Y18052758D01*
X16423875Y18060777D01*
X16422349Y18068430D01*
X16420574Y18075720D01*
X16418544Y18082654D01*
X16416256Y18089235D01*
X16413705Y18095469D01*
X16410888Y18101362D01*
X16407800Y18106918D01*
X16404437Y18112142D01*
X16400795Y18117039D01*
X16396870Y18121615D01*
X16392657Y18125874D01*
X16388153Y18129822D01*
X16383354Y18133463D01*
X16378255Y18136803D01*
X16372852Y18139847D01*
X16367141Y18142599D01*
X16361119Y18145065D01*
X16354780Y18147250D01*
X16348121Y18149160D01*
X16341137Y18150798D01*
X16333825Y18152170D01*
X16326180Y18153281D01*
X16318199Y18154137D01*
X16309876Y18154742D01*
X16292192Y18155220D01*
X16276164Y18155105D01*
X16259930Y18154757D01*
X16243554Y18154172D01*
X16227102Y18153346D01*
X16210639Y18152275D01*
X16194230Y18150956D01*
X16177942Y18149382D01*
X16161838Y18147552D01*
X16161838Y18413836D01*
X16184602Y18414966D01*
X16207780Y18416426D01*
X16254985Y18419747D01*
X16278816Y18421309D01*
X16302670Y18422609D01*
X16326447Y18423498D01*
X16350049Y18423828D01*
X16376922Y18423352D01*
G37*
G36*
X13952076Y17963449D02*
G01*
X13980417Y17961042D01*
X14008662Y17957010D01*
X14036708Y17951333D01*
X14064454Y17943993D01*
X14091796Y17934973D01*
X14118632Y17924255D01*
X14144860Y17911821D01*
X14170378Y17897651D01*
X14195082Y17881730D01*
X14207098Y17873106D01*
X14218871Y17864037D01*
X14230390Y17854522D01*
X14241642Y17844556D01*
X14252613Y17834139D01*
X14263292Y17823269D01*
X14273665Y17811942D01*
X14283719Y17800156D01*
X14293442Y17787910D01*
X14302821Y17775201D01*
X14311843Y17762027D01*
X14320495Y17748385D01*
X14328164Y17748385D01*
X14328164Y17929161D01*
X14667060Y17929161D01*
X14667060Y16630968D01*
X14310272Y16630968D01*
X14310272Y17311316D01*
X14309297Y17358953D01*
X14308071Y17381424D01*
X14306345Y17403010D01*
X14304115Y17423718D01*
X14301374Y17443558D01*
X14298119Y17462538D01*
X14294344Y17480667D01*
X14290044Y17497953D01*
X14285214Y17514406D01*
X14279847Y17530033D01*
X14273941Y17544845D01*
X14267488Y17558849D01*
X14260485Y17572054D01*
X14252925Y17584469D01*
X14244805Y17596102D01*
X14236117Y17606963D01*
X14226859Y17617060D01*
X14217023Y17626402D01*
X14206606Y17634998D01*
X14195602Y17642855D01*
X14184006Y17649984D01*
X14171813Y17656392D01*
X14159017Y17662089D01*
X14145613Y17667083D01*
X14131597Y17671382D01*
X14116963Y17674997D01*
X14101706Y17677934D01*
X14085821Y17680204D01*
X14069302Y17681814D01*
X14052145Y17682774D01*
X14034345Y17683092D01*
X14018909Y17682783D01*
X14004094Y17681855D01*
X13989891Y17680308D01*
X13976292Y17678142D01*
X13963289Y17675356D01*
X13950872Y17671949D01*
X13939033Y17667921D01*
X13927764Y17663272D01*
X13917056Y17658002D01*
X13906900Y17652108D01*
X13897288Y17645592D01*
X13888211Y17638453D01*
X13879661Y17630690D01*
X13871629Y17622303D01*
X13864106Y17613291D01*
X13857083Y17603654D01*
X13850553Y17593391D01*
X13844507Y17582503D01*
X13838935Y17570987D01*
X13833830Y17558845D01*
X13824984Y17532678D01*
X13817901Y17503997D01*
X13812512Y17472799D01*
X13808748Y17439079D01*
X13806539Y17402835D01*
X13805819Y17364062D01*
X13805819Y16630968D01*
X13449264Y16630968D01*
X13449264Y17429588D01*
X13450427Y17488530D01*
X13454102Y17544791D01*
X13460565Y17598216D01*
X13470091Y17648650D01*
X13476088Y17672697D01*
X13482955Y17695938D01*
X13490726Y17718354D01*
X13499435Y17739926D01*
X13509116Y17760633D01*
X13519805Y17780458D01*
X13531536Y17799380D01*
X13544342Y17817381D01*
X13558259Y17834440D01*
X13573322Y17850539D01*
X13589563Y17865658D01*
X13607019Y17879778D01*
X13625724Y17892880D01*
X13645712Y17904943D01*
X13667017Y17915950D01*
X13689674Y17925880D01*
X13713718Y17934714D01*
X13739182Y17942433D01*
X13766102Y17949018D01*
X13794512Y17954449D01*
X13824447Y17958706D01*
X13855940Y17961771D01*
X13889027Y17963625D01*
X13923742Y17964247D01*
X13952076Y17963449D01*
G37*
G36*
X15220628Y17248744D02*
G01*
X15221604Y17201148D01*
X15222832Y17178695D01*
X15224561Y17157127D01*
X15226794Y17136435D01*
X15229538Y17116610D01*
X15232797Y17097644D01*
X15236577Y17079528D01*
X15240883Y17062253D01*
X15245721Y17045812D01*
X15251094Y17030194D01*
X15257008Y17015391D01*
X15263469Y17001396D01*
X15270482Y16988198D01*
X15278051Y16975789D01*
X15286183Y16964162D01*
X15294881Y16953306D01*
X15304152Y16943213D01*
X15313999Y16933875D01*
X15324430Y16925283D01*
X15335448Y16917429D01*
X15347059Y16910302D01*
X15359268Y16903896D01*
X15372079Y16898201D01*
X15385500Y16893208D01*
X15399533Y16888909D01*
X15414185Y16885296D01*
X15429461Y16882359D01*
X15445366Y16880089D01*
X15461904Y16878479D01*
X15479082Y16877519D01*
X15496904Y16877201D01*
X15512339Y16877510D01*
X15527153Y16878437D01*
X15541352Y16879982D01*
X15554947Y16882146D01*
X15567945Y16884930D01*
X15580355Y16888334D01*
X15592187Y16892358D01*
X15603448Y16897003D01*
X15614148Y16902269D01*
X15624294Y16908158D01*
X15633897Y16914669D01*
X15642964Y16921803D01*
X15651504Y16929561D01*
X15659526Y16937943D01*
X15667038Y16946950D01*
X15674049Y16956581D01*
X15680568Y16966838D01*
X15686604Y16977722D01*
X15692165Y16989231D01*
X15697260Y17001368D01*
X15706086Y17027526D01*
X15713151Y17056198D01*
X15718525Y17087389D01*
X15722278Y17121102D01*
X15724479Y17157343D01*
X15725197Y17196115D01*
X15725197Y17929209D01*
X16081868Y17929209D01*
X16081868Y17130589D01*
X16080705Y17071627D01*
X16077030Y17015352D01*
X16070567Y16961917D01*
X16061042Y16911478D01*
X16055044Y16887429D01*
X16048177Y16864187D01*
X16040406Y16841771D01*
X16031697Y16820200D01*
X16022016Y16799493D01*
X16011327Y16779670D01*
X15999597Y16760750D01*
X15986790Y16742752D01*
X15972873Y16725696D01*
X15957811Y16709600D01*
X15941569Y16694484D01*
X15924113Y16680368D01*
X15905408Y16667270D01*
X15885421Y16655210D01*
X15864116Y16644207D01*
X15841458Y16634280D01*
X15817415Y16625449D01*
X15791950Y16617733D01*
X15765030Y16611151D01*
X15736620Y16605723D01*
X15706685Y16601468D01*
X15675192Y16598404D01*
X15642105Y16596552D01*
X15607390Y16595930D01*
X15579074Y16596728D01*
X15550744Y16599135D01*
X15522503Y16603168D01*
X15494457Y16608846D01*
X15466706Y16616187D01*
X15439357Y16625209D01*
X15412510Y16635931D01*
X15386272Y16648371D01*
X15360743Y16662546D01*
X15336029Y16678476D01*
X15324010Y16687104D01*
X15312233Y16696177D01*
X15300711Y16705699D01*
X15289457Y16715670D01*
X15278485Y16726093D01*
X15267807Y16736971D01*
X15257435Y16748305D01*
X15247384Y16760099D01*
X15237666Y16772353D01*
X15228293Y16785072D01*
X15219279Y16798256D01*
X15210637Y16811908D01*
X15203085Y16811908D01*
X15203085Y16631016D01*
X14863956Y16631016D01*
X14863956Y17929209D01*
X15220628Y17929209D01*
X15220628Y17248744D01*
G37*
G36*
X22104176Y16174015D02*
G01*
X21747620Y15856843D01*
X21747620Y16791510D01*
X21742392Y16791510D01*
X21725307Y16768253D01*
X21706985Y16746412D01*
X21687483Y16725999D01*
X21666861Y16707026D01*
X21645177Y16689504D01*
X21622489Y16673445D01*
X21598857Y16658861D01*
X21574338Y16645763D01*
X21548992Y16634162D01*
X21522876Y16624071D01*
X21496049Y16615500D01*
X21468571Y16608462D01*
X21440499Y16602968D01*
X21411891Y16599029D01*
X21382808Y16596657D01*
X21353306Y16595864D01*
X21318092Y16596803D01*
X21284011Y16599585D01*
X21251060Y16604153D01*
X21219239Y16610454D01*
X21188548Y16618431D01*
X21158984Y16628030D01*
X21130548Y16639196D01*
X21103238Y16651873D01*
X21077054Y16666007D01*
X21051994Y16681542D01*
X21028057Y16698423D01*
X21005244Y16716596D01*
X20983552Y16736004D01*
X20962981Y16756594D01*
X20943530Y16778309D01*
X20925198Y16801095D01*
X20907984Y16824897D01*
X20891887Y16849659D01*
X20876907Y16875327D01*
X20863042Y16901845D01*
X20838655Y16957212D01*
X20818717Y17015320D01*
X20803224Y17075727D01*
X20792166Y17137993D01*
X20785536Y17201676D01*
X20783328Y17266337D01*
X20783642Y17276329D01*
X21140000Y17276329D01*
X21140901Y17236956D01*
X21143686Y17198100D01*
X21148476Y17160039D01*
X21155394Y17123053D01*
X21159688Y17105050D01*
X21164560Y17087421D01*
X21170025Y17070200D01*
X21176098Y17053422D01*
X21182794Y17037122D01*
X21190129Y17021336D01*
X21198117Y17006097D01*
X21206774Y16991441D01*
X21216115Y16977403D01*
X21226156Y16964018D01*
X21236911Y16951320D01*
X21248397Y16939345D01*
X21260627Y16928127D01*
X21273617Y16917701D01*
X21287383Y16908103D01*
X21301940Y16899367D01*
X21317303Y16891528D01*
X21333487Y16884621D01*
X21350507Y16878680D01*
X21368379Y16873742D01*
X21387118Y16869840D01*
X21406740Y16867010D01*
X21427258Y16865286D01*
X21448690Y16864704D01*
X21469934Y16865286D01*
X21490306Y16867010D01*
X21509817Y16869840D01*
X21528481Y16873742D01*
X21546311Y16878680D01*
X21563319Y16884621D01*
X21579520Y16891528D01*
X21594925Y16899367D01*
X21609549Y16908103D01*
X21623404Y16917701D01*
X21636502Y16928127D01*
X21648858Y16939345D01*
X21660484Y16951320D01*
X21671393Y16964018D01*
X21681599Y16977403D01*
X21691113Y16991441D01*
X21699950Y17006097D01*
X21708123Y17021336D01*
X21722526Y17053422D01*
X21734427Y17087421D01*
X21743930Y17123053D01*
X21751139Y17160039D01*
X21756160Y17198100D01*
X21759096Y17236956D01*
X21760051Y17276329D01*
X21759149Y17315768D01*
X21756360Y17354853D01*
X21751564Y17393283D01*
X21744638Y17430753D01*
X21740338Y17449035D01*
X21735460Y17466963D01*
X21729990Y17484501D01*
X21723910Y17501610D01*
X21717207Y17518253D01*
X21709865Y17534392D01*
X21701870Y17549989D01*
X21693204Y17565006D01*
X21683855Y17579406D01*
X21673806Y17593151D01*
X21663041Y17606203D01*
X21651547Y17618524D01*
X21639307Y17630076D01*
X21626307Y17640822D01*
X21612531Y17650724D01*
X21597964Y17659744D01*
X21582591Y17667844D01*
X21566397Y17674987D01*
X21549366Y17681135D01*
X21531483Y17686249D01*
X21512733Y17690293D01*
X21493101Y17693228D01*
X21472571Y17695017D01*
X21451129Y17695622D01*
X21430141Y17695010D01*
X21409994Y17693202D01*
X21390679Y17690235D01*
X21372182Y17686149D01*
X21354493Y17680984D01*
X21337600Y17674778D01*
X21321491Y17667571D01*
X21306155Y17659401D01*
X21291581Y17650308D01*
X21277756Y17640331D01*
X21264670Y17629509D01*
X21252311Y17617880D01*
X21240667Y17605486D01*
X21229727Y17592363D01*
X21219479Y17578552D01*
X21209911Y17564092D01*
X21201013Y17549021D01*
X21192772Y17533379D01*
X21178218Y17500538D01*
X21166156Y17465882D01*
X21156494Y17429724D01*
X21149139Y17392377D01*
X21144000Y17354153D01*
X21140985Y17315366D01*
X21140000Y17276329D01*
X20783642Y17276329D01*
X20785486Y17334982D01*
X20792000Y17402264D01*
X20802928Y17467761D01*
X20810066Y17499708D01*
X20818329Y17531049D01*
X20827725Y17561733D01*
X20838262Y17591706D01*
X20849946Y17620915D01*
X20862785Y17649307D01*
X20876786Y17676830D01*
X20891957Y17703431D01*
X20908305Y17729056D01*
X20925837Y17753653D01*
X20944561Y17777170D01*
X20964484Y17799552D01*
X20985613Y17820747D01*
X21007955Y17840703D01*
X21031519Y17859367D01*
X21056311Y17876684D01*
X21082339Y17892604D01*
X21109610Y17907072D01*
X21138131Y17920037D01*
X21167910Y17931444D01*
X21198954Y17941241D01*
X21231270Y17949376D01*
X21264866Y17955795D01*
X21299749Y17960445D01*
X21335926Y17963274D01*
X21373405Y17964229D01*
X21403260Y17963520D01*
X21432543Y17961373D01*
X21461216Y17957759D01*
X21489236Y17952646D01*
X21516565Y17946004D01*
X21543163Y17937805D01*
X21568988Y17928017D01*
X21581599Y17922518D01*
X21594001Y17916610D01*
X21606191Y17910290D01*
X21618162Y17903555D01*
X21629911Y17896399D01*
X21641431Y17888820D01*
X21652718Y17880814D01*
X21663767Y17872377D01*
X21674573Y17863505D01*
X21685130Y17854194D01*
X21695434Y17844442D01*
X21705480Y17834243D01*
X21715263Y17823594D01*
X21724777Y17812492D01*
X21734018Y17800932D01*
X21742981Y17788911D01*
X21751660Y17776425D01*
X21760051Y17763471D01*
X21765047Y17763471D01*
X21765047Y17929143D01*
X22104176Y17868730D01*
X22104176Y17276329D01*
X22104176Y16174015D01*
G37*
G36*
X20680649Y16985163D02*
G01*
X20680087Y16960608D01*
X20678418Y16936890D01*
X20675668Y16914005D01*
X20671862Y16891949D01*
X20667024Y16870719D01*
X20661181Y16850311D01*
X20654357Y16830721D01*
X20646577Y16811945D01*
X20637868Y16793980D01*
X20628254Y16776822D01*
X20617760Y16760466D01*
X20606412Y16744910D01*
X20594235Y16730150D01*
X20581254Y16716181D01*
X20567495Y16703001D01*
X20552982Y16690604D01*
X20537741Y16678988D01*
X20521797Y16668149D01*
X20505176Y16658083D01*
X20487903Y16648786D01*
X20470002Y16640254D01*
X20451500Y16632484D01*
X20432421Y16625472D01*
X20412791Y16619214D01*
X20371978Y16608945D01*
X20329262Y16601647D01*
X20284847Y16597291D01*
X20238933Y16595845D01*
X20208749Y16596352D01*
X20178587Y16597903D01*
X20148525Y16600548D01*
X20118642Y16604334D01*
X20089014Y16609310D01*
X20059718Y16615524D01*
X20030833Y16623025D01*
X20002435Y16631861D01*
X19974602Y16642080D01*
X19947412Y16653731D01*
X19920941Y16666862D01*
X19895268Y16681521D01*
X19870470Y16697756D01*
X19846624Y16715617D01*
X19823807Y16735151D01*
X19802097Y16756406D01*
X19800718Y16740488D01*
X19798708Y16724564D01*
X19796124Y16708669D01*
X19793021Y16692841D01*
X19789455Y16677116D01*
X19785482Y16661532D01*
X19781158Y16646125D01*
X19776538Y16630931D01*
X19415218Y16630931D01*
X19421086Y16641570D01*
X19426495Y16653644D01*
X19431458Y16667056D01*
X19435986Y16681711D01*
X19440088Y16697513D01*
X19443777Y16714367D01*
X19447063Y16732175D01*
X19449956Y16750844D01*
X19454611Y16790376D01*
X19457828Y16832197D01*
X19459694Y16875540D01*
X19460296Y16919638D01*
X19460296Y17266319D01*
X19816968Y17266319D01*
X19816968Y17133061D01*
X19817942Y17097210D01*
X19819727Y17075727D01*
X19822883Y17052570D01*
X19827788Y17028261D01*
X19834821Y17003322D01*
X19839255Y16990781D01*
X19844362Y16978278D01*
X19850191Y16965879D01*
X19856789Y16953650D01*
X19864203Y16941656D01*
X19872481Y16929961D01*
X19881669Y16918633D01*
X19891816Y16907735D01*
X19902968Y16897334D01*
X19915174Y16887494D01*
X19928479Y16878281D01*
X19942933Y16869761D01*
X19958581Y16861998D01*
X19975472Y16855058D01*
X19993652Y16849007D01*
X20013170Y16843909D01*
X20034072Y16839830D01*
X20056406Y16836836D01*
X20080219Y16834992D01*
X20105559Y16834362D01*
X20127085Y16834788D01*
X20148182Y16836125D01*
X20168717Y16838461D01*
X20188558Y16841885D01*
X20198177Y16844032D01*
X20207573Y16846485D01*
X20216729Y16849254D01*
X20225629Y16852350D01*
X20234256Y16855785D01*
X20242594Y16859568D01*
X20250626Y16863713D01*
X20258335Y16868229D01*
X20265706Y16873127D01*
X20272720Y16878419D01*
X20279363Y16884116D01*
X20285617Y16890228D01*
X20291466Y16896768D01*
X20296893Y16903745D01*
X20301882Y16911171D01*
X20306415Y16919057D01*
X20310478Y16927415D01*
X20314052Y16936254D01*
X20317122Y16945587D01*
X20319671Y16955423D01*
X20321683Y16965776D01*
X20323140Y16976654D01*
X20324026Y16988070D01*
X20324325Y17000035D01*
X20324033Y17012005D01*
X20323168Y17023460D01*
X20321747Y17034413D01*
X20319786Y17044876D01*
X20317302Y17054863D01*
X20314312Y17064386D01*
X20310832Y17073457D01*
X20306878Y17082090D01*
X20302468Y17090298D01*
X20297618Y17098092D01*
X20292345Y17105486D01*
X20286665Y17112492D01*
X20280594Y17119123D01*
X20274151Y17125392D01*
X20267350Y17131312D01*
X20260209Y17136895D01*
X20252744Y17142154D01*
X20244972Y17147101D01*
X20228574Y17156113D01*
X20211146Y17164032D01*
X20192823Y17170961D01*
X20173736Y17177000D01*
X20154019Y17182253D01*
X20133805Y17186819D01*
X20113227Y17190802D01*
X19946276Y17216318D01*
X19926821Y17220180D01*
X19908072Y17224525D01*
X19890145Y17229452D01*
X19873159Y17235061D01*
X19857231Y17241452D01*
X19842478Y17248726D01*
X19835579Y17252725D01*
X19829018Y17256981D01*
X19822810Y17261509D01*
X19816968Y17266319D01*
X19460296Y17266319D01*
X19460296Y17595340D01*
X19461198Y17623783D01*
X19463858Y17650775D01*
X19468209Y17676352D01*
X19474186Y17700552D01*
X19481720Y17723409D01*
X19490747Y17744959D01*
X19501198Y17765238D01*
X19513008Y17784283D01*
X19526109Y17802129D01*
X19540434Y17818811D01*
X19555919Y17834367D01*
X19572494Y17848831D01*
X19590094Y17862240D01*
X19608653Y17874629D01*
X19628102Y17886035D01*
X19648377Y17896493D01*
X19691133Y17914709D01*
X19736388Y17929565D01*
X19783608Y17941347D01*
X19832259Y17950344D01*
X19881808Y17956841D01*
X19931721Y17961127D01*
X19981465Y17963488D01*
X20030507Y17964211D01*
X20085137Y17962974D01*
X20139525Y17959140D01*
X20193251Y17952527D01*
X20245897Y17942948D01*
X20271683Y17936990D01*
X20297042Y17930221D01*
X20321921Y17922620D01*
X20346267Y17914162D01*
X20370029Y17904825D01*
X20393153Y17894587D01*
X20415588Y17883423D01*
X20437281Y17871311D01*
X20458180Y17858228D01*
X20478231Y17844150D01*
X20497384Y17829056D01*
X20515585Y17812922D01*
X20532781Y17795725D01*
X20548921Y17777441D01*
X20563953Y17758049D01*
X20577823Y17737524D01*
X20590479Y17715845D01*
X20601869Y17692987D01*
X20611940Y17668928D01*
X20620640Y17643646D01*
X20627917Y17617116D01*
X20633718Y17589316D01*
X20637991Y17560223D01*
X20640683Y17529814D01*
X20284011Y17529814D01*
X20282622Y17542745D01*
X20280809Y17555183D01*
X20278578Y17567134D01*
X20275930Y17578602D01*
X20272871Y17589594D01*
X20269403Y17600114D01*
X20265530Y17610169D01*
X20261256Y17619763D01*
X20256585Y17628902D01*
X20251520Y17637591D01*
X20246065Y17645836D01*
X20240224Y17653643D01*
X20234000Y17661015D01*
X20227397Y17667960D01*
X20220419Y17674482D01*
X20213069Y17680587D01*
X20205351Y17686280D01*
X20197269Y17691566D01*
X20188826Y17696452D01*
X20180027Y17700941D01*
X20170874Y17705041D01*
X20161372Y17708756D01*
X20151524Y17712091D01*
X20141333Y17715052D01*
X20119941Y17719874D01*
X20097224Y17723265D01*
X20073212Y17725268D01*
X20047934Y17725926D01*
X20024682Y17725605D01*
X20002018Y17724543D01*
X19980069Y17722595D01*
X19958960Y17719614D01*
X19948760Y17717690D01*
X19938817Y17715453D01*
X19929147Y17712884D01*
X19919766Y17709966D01*
X19910689Y17706679D01*
X19901932Y17703006D01*
X19893511Y17698928D01*
X19885442Y17694427D01*
X19877740Y17689484D01*
X19870420Y17684082D01*
X19863500Y17678201D01*
X19856994Y17671824D01*
X19850918Y17664933D01*
X19845288Y17657508D01*
X19840119Y17649532D01*
X19835428Y17640986D01*
X19831230Y17631852D01*
X19827541Y17622112D01*
X19824376Y17611748D01*
X19821751Y17600740D01*
X19819682Y17589071D01*
X19818185Y17576723D01*
X19817275Y17563677D01*
X19816968Y17549914D01*
X19818124Y17524352D01*
X19824165Y17502072D01*
X19834769Y17482797D01*
X19849615Y17466249D01*
X19868380Y17452152D01*
X19890743Y17440228D01*
X19916382Y17430200D01*
X19944975Y17421791D01*
X20009736Y17408722D01*
X20082451Y17398804D01*
X20241446Y17379551D01*
X20322576Y17365782D01*
X20362422Y17356892D01*
X20401361Y17346296D01*
X20439069Y17333716D01*
X20475226Y17318876D01*
X20509510Y17301497D01*
X20541598Y17281304D01*
X20571169Y17258019D01*
X20597901Y17231364D01*
X20621472Y17201063D01*
X20641560Y17166839D01*
X20657844Y17128414D01*
X20670001Y17085511D01*
X20677710Y17037853D01*
X20679819Y17000035D01*
X20680649Y16985163D01*
G37*
G36*
X22906693Y17963167D02*
G01*
X22958708Y17959894D01*
X23010036Y17954150D01*
X23060245Y17945700D01*
X23084797Y17940387D01*
X23108907Y17934308D01*
X23132524Y17927435D01*
X23155593Y17919738D01*
X23178060Y17911188D01*
X23199871Y17901754D01*
X23220974Y17891408D01*
X23241313Y17880120D01*
X23260836Y17867861D01*
X23279489Y17854601D01*
X23297218Y17840310D01*
X23313969Y17824960D01*
X23329689Y17808520D01*
X23344323Y17790961D01*
X23357819Y17772254D01*
X23370122Y17752370D01*
X23381179Y17731278D01*
X23390936Y17708949D01*
X23399339Y17685354D01*
X23406335Y17660463D01*
X23411870Y17634247D01*
X23415890Y17606676D01*
X23418341Y17577721D01*
X23419170Y17547352D01*
X23418580Y17526183D01*
X23416836Y17505943D01*
X23413972Y17486606D01*
X23410027Y17468145D01*
X23405035Y17450534D01*
X23399033Y17433748D01*
X23392058Y17417760D01*
X23384145Y17402543D01*
X23375332Y17388072D01*
X23365654Y17374320D01*
X23355147Y17361262D01*
X23343849Y17348870D01*
X23331794Y17337120D01*
X23319020Y17325984D01*
X23305563Y17315436D01*
X23291459Y17305451D01*
X23261456Y17287063D01*
X23229300Y17270609D01*
X23195282Y17255881D01*
X23159693Y17242669D01*
X23122823Y17230763D01*
X23084962Y17219953D01*
X23007429Y17200788D01*
X22961093Y17191065D01*
X22917239Y17181511D01*
X22875938Y17172009D01*
X22837260Y17162441D01*
X22801274Y17152691D01*
X22768050Y17142642D01*
X22752495Y17137468D01*
X22737658Y17132175D01*
X22723546Y17126750D01*
X22710168Y17121176D01*
X22697534Y17115439D01*
X22685651Y17109525D01*
X22674528Y17103419D01*
X22664175Y17097106D01*
X22654600Y17090573D01*
X22645812Y17083803D01*
X22637819Y17076783D01*
X22630630Y17069497D01*
X22624255Y17061932D01*
X22618701Y17054073D01*
X22613977Y17045904D01*
X22610093Y17037412D01*
X22607057Y17028581D01*
X22604877Y17019398D01*
X22603563Y17009847D01*
X22603123Y16999913D01*
X22603508Y16988399D01*
X22604643Y16977376D01*
X22606497Y16966838D01*
X22609040Y16956775D01*
X22612242Y16947179D01*
X22616072Y16938041D01*
X22620500Y16929355D01*
X22625495Y16921111D01*
X22631027Y16913300D01*
X22637066Y16905916D01*
X22643582Y16898948D01*
X22650543Y16892390D01*
X22657921Y16886233D01*
X22665683Y16880468D01*
X22673800Y16875087D01*
X22682242Y16870082D01*
X22699977Y16861167D01*
X22718645Y16853656D01*
X22738003Y16847482D01*
X22757809Y16842580D01*
X22777819Y16838883D01*
X22797791Y16836324D01*
X22817480Y16834838D01*
X22836645Y16834357D01*
X22862465Y16835129D01*
X22888038Y16837467D01*
X22913168Y16841403D01*
X22925506Y16843980D01*
X22937659Y16846970D01*
X22949604Y16850375D01*
X22961316Y16854201D01*
X22972770Y16858450D01*
X22983942Y16863128D01*
X22994807Y16868238D01*
X23005342Y16873784D01*
X23015521Y16879771D01*
X23025320Y16886202D01*
X23034715Y16893082D01*
X23043681Y16900415D01*
X23052194Y16908204D01*
X23060229Y16916454D01*
X23067762Y16925169D01*
X23074768Y16934354D01*
X23081223Y16944011D01*
X23087103Y16954146D01*
X23092382Y16964761D01*
X23097037Y16975863D01*
X23101043Y16987453D01*
X23104375Y16999537D01*
X23107009Y17012119D01*
X23108921Y17025203D01*
X23110086Y17038792D01*
X23110480Y17052891D01*
X23449261Y17052891D01*
X23447262Y17021293D01*
X23443651Y16991029D01*
X23438481Y16962078D01*
X23431801Y16934417D01*
X23423663Y16908026D01*
X23414118Y16882882D01*
X23403217Y16858964D01*
X23391011Y16836250D01*
X23377551Y16814719D01*
X23362888Y16794347D01*
X23347074Y16775115D01*
X23330158Y16757000D01*
X23312193Y16739980D01*
X23293229Y16724034D01*
X23273318Y16709139D01*
X23252510Y16695275D01*
X23230857Y16682420D01*
X23208409Y16670551D01*
X23161334Y16649687D01*
X23111695Y16632510D01*
X23059899Y16618845D01*
X23006354Y16608520D01*
X22951470Y16601360D01*
X22895655Y16597191D01*
X22839317Y16595840D01*
X22784240Y16597163D01*
X22729489Y16601250D01*
X22675509Y16608277D01*
X22622745Y16618422D01*
X22596958Y16624720D01*
X22571643Y16631863D01*
X22546854Y16639873D01*
X22522648Y16648774D01*
X22499079Y16658588D01*
X22476205Y16669335D01*
X22454080Y16681039D01*
X22432760Y16693721D01*
X22412301Y16707405D01*
X22392758Y16722111D01*
X22374188Y16737861D01*
X22356645Y16754679D01*
X22340186Y16772587D01*
X22324866Y16791605D01*
X22310741Y16811757D01*
X22297866Y16833065D01*
X22286298Y16855550D01*
X22276091Y16879235D01*
X22267302Y16904142D01*
X22259986Y16930293D01*
X22254199Y16957710D01*
X22249996Y16986415D01*
X22247434Y17016431D01*
X22246567Y17047779D01*
X22247158Y17069888D01*
X22248904Y17091052D01*
X22251770Y17111297D01*
X22255720Y17130647D01*
X22260717Y17149129D01*
X22266724Y17166766D01*
X22273705Y17183586D01*
X22281625Y17199612D01*
X22290445Y17214870D01*
X22300130Y17229386D01*
X22310644Y17243184D01*
X22321950Y17256290D01*
X22334011Y17268730D01*
X22346792Y17280528D01*
X22360255Y17291709D01*
X22374365Y17302300D01*
X22404378Y17321810D01*
X22436539Y17339259D01*
X22470558Y17354850D01*
X22506142Y17368784D01*
X22543001Y17381264D01*
X22580842Y17392493D01*
X22619375Y17402672D01*
X22658309Y17412003D01*
X22695955Y17420598D01*
X22733364Y17428701D01*
X22806262Y17444248D01*
X22841145Y17452102D01*
X22874582Y17460283D01*
X22906270Y17468995D01*
X22935906Y17478443D01*
X22949860Y17483507D01*
X22963188Y17488832D01*
X22975851Y17494443D01*
X22987813Y17500366D01*
X22999035Y17506627D01*
X23009480Y17513251D01*
X23019109Y17520264D01*
X23027885Y17527691D01*
X23035771Y17535558D01*
X23042727Y17543890D01*
X23048717Y17552714D01*
X23053703Y17562054D01*
X23057647Y17571936D01*
X23060510Y17582387D01*
X23062256Y17593431D01*
X23062847Y17605094D01*
X23062505Y17614947D01*
X23061500Y17624256D01*
X23059860Y17633038D01*
X23057613Y17641307D01*
X23054787Y17649078D01*
X23051413Y17656366D01*
X23047517Y17663187D01*
X23043129Y17669555D01*
X23038276Y17675486D01*
X23032989Y17680995D01*
X23027295Y17686096D01*
X23021222Y17690806D01*
X23014800Y17695138D01*
X23008056Y17699109D01*
X23001020Y17702733D01*
X22993720Y17706025D01*
X22978441Y17711675D01*
X22962449Y17716179D01*
X22945971Y17719659D01*
X22929236Y17722235D01*
X22912473Y17724029D01*
X22895909Y17725160D01*
X22879774Y17725751D01*
X22864295Y17725920D01*
X22840573Y17725461D01*
X22817487Y17724023D01*
X22795145Y17721515D01*
X22773651Y17717844D01*
X22763256Y17715545D01*
X22753113Y17712920D01*
X22743235Y17709960D01*
X22733636Y17706652D01*
X22724328Y17702985D01*
X22715326Y17698948D01*
X22706642Y17694528D01*
X22698289Y17689716D01*
X22690281Y17684499D01*
X22682631Y17678865D01*
X22675353Y17672804D01*
X22668459Y17666305D01*
X22661962Y17659354D01*
X22655877Y17651942D01*
X22650216Y17644057D01*
X22644993Y17635687D01*
X22640221Y17626821D01*
X22635912Y17617447D01*
X22632081Y17607555D01*
X22628741Y17597132D01*
X22625904Y17586167D01*
X22623585Y17574649D01*
X22621796Y17562567D01*
X22620550Y17549908D01*
X22281654Y17549908D01*
X22284941Y17579165D01*
X22289569Y17607135D01*
X22295499Y17633841D01*
X22302691Y17659306D01*
X22311104Y17683555D01*
X22320699Y17706609D01*
X22331437Y17728494D01*
X22343276Y17749233D01*
X22356178Y17768848D01*
X22370102Y17787365D01*
X22385009Y17804805D01*
X22400858Y17821193D01*
X22417610Y17836552D01*
X22435226Y17850906D01*
X22453664Y17864279D01*
X22472886Y17876693D01*
X22492850Y17888172D01*
X22513519Y17898741D01*
X22556807Y17917238D01*
X22602430Y17932374D01*
X22650071Y17944335D01*
X22699409Y17953311D01*
X22750126Y17959489D01*
X22801902Y17963058D01*
X22854420Y17964205D01*
X22906693Y17963167D01*
G37*
G36*
X16723673Y20530006D02*
G01*
X16748198Y20527309D01*
X16773121Y20522943D01*
X16798395Y20516786D01*
X16823972Y20508715D01*
X16849805Y20498609D01*
X16875847Y20486345D01*
X16902050Y20471800D01*
X16928367Y20454853D01*
X16950900Y20438509D01*
X16971575Y20421817D01*
X16990424Y20404793D01*
X17007477Y20387454D01*
X17022764Y20369817D01*
X17036318Y20351899D01*
X17048169Y20333717D01*
X17058347Y20315288D01*
X17066883Y20296628D01*
X17073809Y20277754D01*
X17079154Y20258684D01*
X17082951Y20239435D01*
X17085229Y20220022D01*
X17086020Y20200463D01*
X17085355Y20180775D01*
X17083264Y20160975D01*
X17079778Y20141080D01*
X17074927Y20121107D01*
X17068744Y20101071D01*
X17061259Y20080992D01*
X17052502Y20060884D01*
X17042504Y20040766D01*
X17031297Y20020653D01*
X17018911Y20000564D01*
X17005377Y19980514D01*
X16990725Y19960522D01*
X16974987Y19940602D01*
X16958194Y19920774D01*
X16921564Y19881455D01*
X16881082Y19842701D01*
X16863041Y19825274D01*
X16847087Y19807788D01*
X16833161Y19790289D01*
X16821204Y19772823D01*
X16811156Y19755434D01*
X16802958Y19738168D01*
X16796551Y19721070D01*
X16791876Y19704186D01*
X16788873Y19687560D01*
X16787483Y19671238D01*
X16787647Y19655266D01*
X16789306Y19639688D01*
X16792401Y19624549D01*
X16796871Y19609896D01*
X16802659Y19595773D01*
X16809704Y19582226D01*
X16817947Y19569299D01*
X16827330Y19557039D01*
X16837793Y19545490D01*
X16849276Y19534697D01*
X16861721Y19524707D01*
X16875069Y19515564D01*
X16889259Y19507313D01*
X16904232Y19500000D01*
X16919931Y19493670D01*
X16936294Y19488368D01*
X16953264Y19484139D01*
X16970780Y19481030D01*
X16988784Y19479084D01*
X17007216Y19478348D01*
X17026017Y19478867D01*
X17045128Y19480685D01*
X17058063Y19482626D01*
X17070509Y19485098D01*
X17082465Y19488076D01*
X17093930Y19491535D01*
X17104901Y19495450D01*
X17115378Y19499794D01*
X17125359Y19504543D01*
X17134842Y19509672D01*
X17143827Y19515154D01*
X17152311Y19520966D01*
X17160294Y19527080D01*
X17167773Y19533472D01*
X17174749Y19540117D01*
X17181218Y19546989D01*
X17187180Y19554063D01*
X17192633Y19561314D01*
X17197575Y19568715D01*
X17202006Y19576243D01*
X17205925Y19583870D01*
X17209328Y19591573D01*
X17212216Y19599326D01*
X17214586Y19607102D01*
X17216438Y19614878D01*
X17217769Y19622628D01*
X17218579Y19630325D01*
X17218866Y19637946D01*
X17218628Y19645464D01*
X17217864Y19652854D01*
X17216573Y19660091D01*
X17214753Y19667150D01*
X17212403Y19674005D01*
X17209522Y19680630D01*
X17206573Y19686117D01*
X17203236Y19691468D01*
X17199543Y19696680D01*
X17195525Y19701750D01*
X17191214Y19706677D01*
X17186642Y19711457D01*
X17176839Y19720567D01*
X17166369Y19729062D01*
X17155485Y19736922D01*
X17144438Y19744127D01*
X17133482Y19750658D01*
X17122869Y19756494D01*
X17112852Y19761616D01*
X17095615Y19769638D01*
X17079400Y19776246D01*
X17084649Y19778172D01*
X17091000Y19780260D01*
X17099650Y19782812D01*
X17110459Y19785616D01*
X17123286Y19788457D01*
X17137992Y19791122D01*
X17154438Y19793397D01*
X17172484Y19795070D01*
X17182063Y19795613D01*
X17191989Y19795925D01*
X17202246Y19795980D01*
X17212815Y19795751D01*
X17223680Y19795210D01*
X17234822Y19794332D01*
X17246224Y19793090D01*
X17257869Y19791456D01*
X17269740Y19789405D01*
X17281818Y19786909D01*
X17294086Y19783942D01*
X17306528Y19780478D01*
X17319125Y19776488D01*
X17331859Y19771948D01*
X17354549Y19762628D01*
X17376611Y19751870D01*
X17387366Y19745907D01*
X17397916Y19739532D01*
X17408245Y19732726D01*
X17418337Y19725472D01*
X17428175Y19717752D01*
X17437743Y19709548D01*
X17447025Y19700843D01*
X17456006Y19691619D01*
X17464668Y19681858D01*
X17472996Y19671542D01*
X17480974Y19660653D01*
X17488586Y19649175D01*
X17495815Y19637088D01*
X17502645Y19624376D01*
X17509060Y19611021D01*
X17515044Y19597004D01*
X17520582Y19582309D01*
X17525656Y19566916D01*
X17530250Y19550810D01*
X17534350Y19533971D01*
X17537937Y19516383D01*
X17540997Y19498027D01*
X17543514Y19478886D01*
X17545470Y19458942D01*
X17546850Y19438177D01*
X17547638Y19416573D01*
X17547818Y19394113D01*
X17547373Y19370779D01*
X17547373Y18194110D01*
X17525244Y18221027D01*
X17499426Y18251970D01*
X17465408Y18292165D01*
X17424420Y18339811D01*
X17377689Y18393104D01*
X17326443Y18450242D01*
X17271911Y18509422D01*
X17160808Y18631654D01*
X17136308Y18657973D01*
X17112574Y18682370D01*
X17089334Y18704728D01*
X17066316Y18724935D01*
X17043247Y18742877D01*
X17019856Y18758439D01*
X17007954Y18765292D01*
X16995870Y18771508D01*
X16983569Y18777071D01*
X16971017Y18781969D01*
X16958181Y18786186D01*
X16945026Y18789708D01*
X16931518Y18792522D01*
X16917623Y18794612D01*
X16903308Y18795965D01*
X16888538Y18796566D01*
X16873279Y18796401D01*
X16857497Y18795456D01*
X16797790Y18793593D01*
X16740163Y18795463D01*
X16684596Y18800955D01*
X16631066Y18809953D01*
X16579553Y18822346D01*
X16530035Y18838020D01*
X16482490Y18856862D01*
X16436897Y18878757D01*
X16393235Y18903594D01*
X16351482Y18931257D01*
X16311616Y18961635D01*
X16273617Y18994614D01*
X16237463Y19030080D01*
X16203132Y19067920D01*
X16170603Y19108021D01*
X16139854Y19150270D01*
X16112756Y19192069D01*
X16088748Y19234085D01*
X16067724Y19276229D01*
X16049578Y19318413D01*
X16034203Y19360549D01*
X16021494Y19402549D01*
X16011344Y19444324D01*
X16003648Y19485786D01*
X15998299Y19526847D01*
X15995191Y19567418D01*
X15994217Y19607411D01*
X15995273Y19646738D01*
X15998252Y19685311D01*
X16003047Y19723041D01*
X16017662Y19795619D01*
X16038271Y19863768D01*
X16064024Y19926780D01*
X16094073Y19983949D01*
X16127568Y20034569D01*
X16163662Y20077933D01*
X16201503Y20113336D01*
X16220815Y20127831D01*
X16240245Y20140071D01*
X16259688Y20149968D01*
X16279038Y20157432D01*
X16277827Y20151379D01*
X16276689Y20144385D01*
X16275533Y20135255D01*
X16274608Y20124370D01*
X16274167Y20112113D01*
X16274461Y20098865D01*
X16275741Y20085009D01*
X16276830Y20077971D01*
X16278259Y20070924D01*
X16280061Y20063916D01*
X16282266Y20056995D01*
X16284906Y20050207D01*
X16288013Y20043601D01*
X16291617Y20037224D01*
X16295751Y20031125D01*
X16300446Y20025350D01*
X16305733Y20019948D01*
X16311644Y20014967D01*
X16318209Y20010453D01*
X16325461Y20006455D01*
X16333431Y20003021D01*
X16342150Y20000198D01*
X16351650Y19998033D01*
X16358674Y19997052D01*
X16365943Y19996560D01*
X16373439Y19996540D01*
X16381143Y19996977D01*
X16389035Y19997856D01*
X16397097Y19999159D01*
X16413652Y20002980D01*
X16430656Y20008313D01*
X16447955Y20015031D01*
X16465398Y20023008D01*
X16482832Y20032118D01*
X16500103Y20042234D01*
X16517060Y20053229D01*
X16533549Y20064978D01*
X16549419Y20077354D01*
X16564516Y20090230D01*
X16578688Y20103479D01*
X16591781Y20116977D01*
X16603644Y20130595D01*
X16616492Y20147212D01*
X16622202Y20155357D01*
X16627446Y20163396D01*
X16632229Y20171330D01*
X16636559Y20179163D01*
X16640440Y20186895D01*
X16643881Y20194530D01*
X16646886Y20202068D01*
X16649463Y20209513D01*
X16651619Y20216866D01*
X16653358Y20224128D01*
X16654689Y20231303D01*
X16655616Y20238393D01*
X16656147Y20245398D01*
X16656288Y20252322D01*
X16656046Y20259166D01*
X16655426Y20265933D01*
X16654436Y20272624D01*
X16653081Y20279241D01*
X16651368Y20285787D01*
X16649304Y20292264D01*
X16646894Y20298673D01*
X16644146Y20305017D01*
X16637658Y20317517D01*
X16629893Y20329780D01*
X16620900Y20341822D01*
X16610731Y20353660D01*
X16602488Y20362199D01*
X16593924Y20369995D01*
X16585079Y20377080D01*
X16575990Y20383485D01*
X16566696Y20389240D01*
X16557234Y20394375D01*
X16547643Y20398924D01*
X16537961Y20402915D01*
X16528226Y20406380D01*
X16518476Y20409350D01*
X16499085Y20413928D01*
X16480092Y20416896D01*
X16461803Y20418503D01*
X16444523Y20418994D01*
X16428557Y20418617D01*
X16414210Y20417620D01*
X16401787Y20416250D01*
X16383935Y20413379D01*
X16377442Y20411982D01*
X16389583Y20421782D01*
X16404191Y20432565D01*
X16423987Y20445965D01*
X16448591Y20461004D01*
X16477625Y20476704D01*
X16493686Y20484497D01*
X16510712Y20492087D01*
X16528656Y20499354D01*
X16547471Y20506175D01*
X16567110Y20512427D01*
X16587526Y20517989D01*
X16608670Y20522738D01*
X16630496Y20526551D01*
X16652957Y20529307D01*
X16676005Y20530883D01*
X16699592Y20531157D01*
X16723673Y20530006D01*
G37*
%TO.C,kibuzzard-67ED7177*%
G36*
X9518326Y4858380D02*
G01*
X9518326Y2502157D01*
X9518326Y1858380D01*
X8261674Y1858380D01*
X8261674Y2502157D01*
X8261674Y2845933D01*
X8422618Y2845933D01*
X8432275Y2757951D01*
X8461245Y2677693D01*
X8509528Y2605161D01*
X8570544Y2547936D01*
X8637711Y2513602D01*
X8711030Y2502157D01*
X8771867Y2534345D01*
X8792146Y2630912D01*
X8777983Y2701727D01*
X8717468Y2739067D01*
X8710386Y2741642D01*
X8694936Y2751298D01*
X8675622Y2770612D01*
X8660172Y2801513D01*
X8653090Y2847221D01*
X8673047Y2927693D01*
X8726481Y2957951D01*
X8782489Y2933165D01*
X8801159Y2858809D01*
X8801159Y2823401D01*
X8806953Y2793788D01*
X8823047Y2764818D01*
X8856524Y2749367D01*
X8913176Y2741642D01*
X8977554Y2750011D01*
X9011030Y2777049D01*
X9021974Y2809882D01*
X9023906Y2851084D01*
X9023906Y2860097D01*
X9032275Y2919968D01*
X9065107Y2938637D01*
X9109528Y2917393D01*
X9125622Y2858809D01*
X9112747Y2803444D01*
X9074120Y2766105D01*
X9021044Y2726906D01*
X9006023Y2672829D01*
X9029056Y2603873D01*
X9099871Y2540139D01*
X9188712Y2558809D01*
X9193219Y2560740D01*
X9207382Y2567822D01*
X9228627Y2580697D01*
X9254378Y2601298D01*
X9282060Y2629624D01*
X9308455Y2667607D01*
X9330987Y2715247D01*
X9346438Y2774474D01*
X9352232Y2845933D01*
X9342504Y2939567D01*
X9313319Y3019610D01*
X9264678Y3086062D01*
X9204163Y3135776D01*
X9139356Y3165604D01*
X9070258Y3175547D01*
X8975944Y3153337D01*
X8911888Y3086706D01*
X8842361Y3158809D01*
X8790858Y3184882D01*
X8729056Y3193573D01*
X8645722Y3182629D01*
X8572546Y3149796D01*
X8509528Y3095075D01*
X8461245Y3023616D01*
X8432275Y2940569D01*
X8422618Y2845933D01*
X8261674Y2845933D01*
X8261674Y3682843D01*
X8439356Y3682843D01*
X8455451Y3610740D01*
X8503734Y3566964D01*
X9174549Y3261813D01*
X9264034Y3248938D01*
X9325193Y3321041D01*
X9344506Y3417607D01*
X9271116Y3476835D01*
X8770258Y3680268D01*
X9271116Y3883702D01*
X9343863Y3944217D01*
X9325193Y4039496D01*
X9263391Y4113530D01*
X9174549Y4098723D01*
X8503734Y3793573D01*
X8456738Y3749152D01*
X8439356Y3682843D01*
X8261674Y3682843D01*
X8261674Y4510740D01*
X8422618Y4510740D01*
X8432275Y4422758D01*
X8461245Y4342500D01*
X8509528Y4269968D01*
X8570544Y4212743D01*
X8637711Y4178408D01*
X8711030Y4166964D01*
X8771867Y4199152D01*
X8792146Y4295719D01*
X8777983Y4366534D01*
X8717468Y4403873D01*
X8710386Y4406448D01*
X8694936Y4416105D01*
X8675622Y4435418D01*
X8660172Y4466320D01*
X8653090Y4512028D01*
X8673047Y4592500D01*
X8726481Y4622758D01*
X8782489Y4597972D01*
X8801159Y4523616D01*
X8801159Y4488208D01*
X8806953Y4458594D01*
X8823047Y4429624D01*
X8856524Y4414174D01*
X8913176Y4406448D01*
X8977554Y4414818D01*
X9011030Y4441856D01*
X9021974Y4474689D01*
X9023906Y4515891D01*
X9023906Y4524903D01*
X9032275Y4584775D01*
X9065107Y4603444D01*
X9109528Y4582200D01*
X9125622Y4523616D01*
X9112747Y4468251D01*
X9074120Y4430912D01*
X9021044Y4391713D01*
X9006023Y4337636D01*
X9029056Y4268680D01*
X9099871Y4204946D01*
X9188712Y4223616D01*
X9193219Y4225547D01*
X9207382Y4232629D01*
X9228627Y4245504D01*
X9254378Y4266105D01*
X9282060Y4294431D01*
X9308455Y4332414D01*
X9330987Y4380054D01*
X9346438Y4439281D01*
X9352232Y4510740D01*
X9342504Y4604374D01*
X9313319Y4684417D01*
X9264678Y4750869D01*
X9204163Y4800583D01*
X9139356Y4830411D01*
X9070258Y4840354D01*
X8975944Y4818144D01*
X8911888Y4751513D01*
X8842361Y4823616D01*
X8790858Y4849689D01*
X8729056Y4858380D01*
X8645722Y4847436D01*
X8572546Y4814603D01*
X8509528Y4759882D01*
X8461245Y4688423D01*
X8432275Y4605376D01*
X8422618Y4510740D01*
X8261674Y4510740D01*
X8261674Y4858380D01*
X8261674Y5126620D01*
X9518326Y5126620D01*
X9518326Y4858380D01*
G37*
%TO.C,kibuzzard-67ED66D1*%
G36*
X21043827Y16186112D02*
G01*
X21108920Y16114510D01*
X21575730Y15147414D01*
X21599907Y15016298D01*
X21495758Y14926098D01*
X21359993Y14899131D01*
X21267003Y15002350D01*
X21181452Y15180891D01*
X21041967Y15180891D01*
X20723941Y15180891D01*
X20638391Y15004210D01*
X20547260Y14897271D01*
X20409635Y14924238D01*
X20306416Y15015368D01*
X20331524Y15147414D01*
X20488026Y15471019D01*
X20867146Y15471019D01*
X21041967Y15471019D01*
X20954557Y15651420D01*
X20867146Y15471019D01*
X20488026Y15471019D01*
X20798333Y16112650D01*
X20862031Y16187972D01*
X20952697Y16213079D01*
X21043827Y16186112D01*
G37*
G36*
X16558920Y16202851D02*
G01*
X16611924Y16162865D01*
X16629592Y16114510D01*
X16632382Y16053137D01*
X16632382Y15597486D01*
X16876016Y15597486D01*
X16760708Y16071735D01*
X16786745Y16153566D01*
X16894614Y16207500D01*
X17035029Y16209360D01*
X17104771Y16086613D01*
X17247976Y15508215D01*
X17253555Y15448702D01*
X17250765Y15384539D01*
X17233097Y15333394D01*
X17181023Y15290619D01*
X17084313Y15277600D01*
X16632382Y15277600D01*
X16632382Y15084181D01*
X16629592Y15020018D01*
X16611924Y14968873D01*
X16559850Y14926098D01*
X16463140Y14913079D01*
X16364571Y14926098D01*
X16312496Y14967014D01*
X16293898Y15018158D01*
X16290179Y15082321D01*
X16290179Y16043838D01*
X16293898Y16107071D01*
X16311567Y16159145D01*
X16362711Y16201921D01*
X16459421Y16214939D01*
X16558920Y16202851D01*
G37*
G36*
X19174728Y16207500D02*
G01*
X19223083Y16188902D01*
X19262139Y16137758D01*
X19275157Y16041978D01*
X19262139Y15945268D01*
X19220293Y15893194D01*
X19169149Y15874596D01*
X19105916Y15870876D01*
X18733956Y15870876D01*
X18805558Y15755569D01*
X18867861Y15664903D01*
X18930165Y15571448D01*
X18989911Y15464742D01*
X19044542Y15334324D01*
X19083598Y15194607D01*
X19096617Y15060004D01*
X19092897Y14998630D01*
X19074299Y14953995D01*
X19023155Y14920519D01*
X18925515Y14911220D01*
X18829735Y14921448D01*
X18777661Y14953995D01*
X18758133Y14997700D01*
X18754413Y15056284D01*
X18737443Y15165082D01*
X18686531Y15294338D01*
X18615626Y15428011D01*
X18538677Y15550061D01*
X18461727Y15671645D01*
X18390823Y15803923D01*
X18339911Y15931785D01*
X18322940Y16040118D01*
X18325730Y16104281D01*
X18343398Y16155426D01*
X18395472Y16198201D01*
X18492182Y16211220D01*
X19115215Y16211220D01*
X19174728Y16207500D01*
G37*
G36*
X19924434Y16221035D02*
G01*
X20029203Y16183529D01*
X20119506Y16121019D01*
X20188732Y16039498D01*
X20230268Y15944958D01*
X20244113Y15837400D01*
X20229235Y15716513D01*
X20184599Y15616084D01*
X20110207Y15536112D01*
X20006059Y15476599D01*
X19935619Y15451259D01*
X19847046Y15427314D01*
X19701052Y15383609D01*
X19652697Y15325955D01*
X19686173Y15239474D01*
X19795901Y15212507D01*
X19869363Y15230175D01*
X19944685Y15298058D01*
X20028583Y15365837D01*
X20109174Y15378236D01*
X20186459Y15335254D01*
X20264571Y15216227D01*
X20218076Y15095340D01*
X20206917Y15082321D01*
X20186459Y15056284D01*
X20153913Y15023737D01*
X20109278Y14987471D01*
X20051624Y14952135D01*
X19980021Y14921448D01*
X19892611Y14900991D01*
X19788462Y14892622D01*
X19664785Y14906570D01*
X19537389Y14953995D01*
X19423011Y15036756D01*
X19342110Y15162293D01*
X19318398Y15242729D01*
X19310494Y15331534D01*
X19327929Y15470554D01*
X19380236Y15571448D01*
X19461835Y15642121D01*
X19567146Y15690476D01*
X19686173Y15719303D01*
X19799621Y15742550D01*
X19873083Y15775097D01*
X19905629Y15835540D01*
X19875873Y15892264D01*
X19807060Y15915511D01*
X19745687Y15909002D01*
X19709421Y15895054D01*
X19683383Y15873666D01*
X19661996Y15855998D01*
X19537389Y15821592D01*
X19427661Y15911792D01*
X19383026Y16026170D01*
X19449979Y16121949D01*
X19546481Y16183943D01*
X19664889Y16221139D01*
X19805200Y16233537D01*
X19924434Y16221035D01*
G37*
G36*
X15818720Y16223308D02*
G01*
X15904270Y16200991D01*
X15973083Y16168444D01*
X16027947Y16130318D01*
X16068863Y16090333D01*
X16098619Y16053137D01*
X16117217Y16022450D01*
X16127446Y16001992D01*
X16130236Y15995483D01*
X16157203Y15867157D01*
X16065143Y15764868D01*
X15965540Y15731598D01*
X15887429Y15753296D01*
X15830808Y15829961D01*
X15776874Y15885755D01*
X15696903Y15904353D01*
X15612282Y15881105D01*
X15581595Y15816942D01*
X15608562Y15769517D01*
X15695043Y15757428D01*
X15708062Y15757428D01*
X15767575Y15754639D01*
X15815000Y15738830D01*
X15854056Y15690476D01*
X15866144Y15597486D01*
X15854986Y15515655D01*
X15832668Y15467300D01*
X15790823Y15444052D01*
X15748047Y15435683D01*
X15696903Y15435683D01*
X15589499Y15408716D01*
X15553698Y15327815D01*
X15597403Y15250633D01*
X15713641Y15221806D01*
X15779664Y15232035D01*
X15824299Y15254353D01*
X15852196Y15282250D01*
X15866144Y15304567D01*
X15869864Y15314796D01*
X15923798Y15402207D01*
X16026087Y15422665D01*
X16165572Y15393373D01*
X16212067Y15305497D01*
X16195536Y15199592D01*
X16145941Y15102572D01*
X16063283Y15014438D01*
X15958515Y14944696D01*
X15842587Y14902851D01*
X15715501Y14888902D01*
X15578805Y14902851D01*
X15458848Y14944696D01*
X15355629Y15014438D01*
X15276588Y15105465D01*
X15229163Y15211164D01*
X15213355Y15331534D01*
X15225908Y15420805D01*
X15263569Y15495197D01*
X15367718Y15595626D01*
X15271474Y15688151D01*
X15239392Y15824381D01*
X15253754Y15924191D01*
X15296839Y16017800D01*
X15368648Y16105211D01*
X15464634Y16175470D01*
X15580252Y16217626D01*
X15715501Y16231677D01*
X15818720Y16223308D01*
G37*
G36*
X17894256Y16223308D02*
G01*
X17979807Y16200991D01*
X18048619Y16168444D01*
X18103484Y16130318D01*
X18144399Y16090333D01*
X18174156Y16053137D01*
X18192754Y16022450D01*
X18202983Y16001992D01*
X18205773Y15995483D01*
X18232740Y15867157D01*
X18140680Y15764868D01*
X18041077Y15731598D01*
X17962965Y15753296D01*
X17906345Y15829961D01*
X17852411Y15885755D01*
X17772439Y15904353D01*
X17687818Y15881105D01*
X17657132Y15816942D01*
X17684099Y15769517D01*
X17770579Y15757428D01*
X17783598Y15757428D01*
X17843112Y15754639D01*
X17890536Y15738830D01*
X17929592Y15690476D01*
X17941681Y15597486D01*
X17930522Y15515655D01*
X17908205Y15467300D01*
X17866359Y15444052D01*
X17823584Y15435683D01*
X17772439Y15435683D01*
X17665036Y15408716D01*
X17629235Y15327815D01*
X17672940Y15250633D01*
X17789177Y15221806D01*
X17855200Y15232035D01*
X17899835Y15254353D01*
X17927732Y15282250D01*
X17941681Y15304567D01*
X17945401Y15314796D01*
X17999335Y15402207D01*
X18101624Y15422665D01*
X18241109Y15393373D01*
X18287604Y15305497D01*
X18271072Y15199592D01*
X18221478Y15102572D01*
X18138820Y15014438D01*
X18034051Y14944696D01*
X17918124Y14902851D01*
X17791037Y14888902D01*
X17654342Y14902851D01*
X17534385Y14944696D01*
X17431166Y15014438D01*
X17352124Y15105465D01*
X17304700Y15211164D01*
X17288891Y15331534D01*
X17301445Y15420805D01*
X17339106Y15495197D01*
X17443255Y15595626D01*
X17347010Y15688151D01*
X17314928Y15824381D01*
X17329290Y15924191D01*
X17372376Y16017800D01*
X17444185Y16105211D01*
X17540171Y16175470D01*
X17655788Y16217626D01*
X17791037Y16231677D01*
X17894256Y16223308D01*
G37*
%TO.C,kibuzzard-67F8112D*%
G36*
X7751383Y22792854D02*
G01*
X7083763Y22792854D01*
X6979614Y22792854D01*
X6727825Y22792854D01*
X5927825Y22792854D01*
X5650858Y22792854D01*
X5650763Y22792854D01*
X5581941Y22796235D01*
X5513781Y22806346D01*
X5446941Y22823088D01*
X5382063Y22846302D01*
X5319774Y22875763D01*
X5260672Y22911187D01*
X5205326Y22952234D01*
X5154271Y22998508D01*
X5107997Y23049563D01*
X5066950Y23104909D01*
X5031526Y23164011D01*
X5002065Y23226300D01*
X4978851Y23291178D01*
X4962109Y23358018D01*
X4951998Y23426178D01*
X4948617Y23495000D01*
X4951998Y23563822D01*
X4962109Y23631982D01*
X4978851Y23698822D01*
X4999085Y23755372D01*
X5650858Y23755372D01*
X5676037Y23691280D01*
X5718956Y23644928D01*
X5758441Y23629478D01*
X5820243Y23655801D01*
X5827682Y23660951D01*
X5837411Y23667246D01*
X5848283Y23673541D01*
X5863734Y23679263D01*
X5882046Y23683841D01*
X5904936Y23687847D01*
X5932403Y23688991D01*
X5997639Y23677546D01*
X6062303Y23643784D01*
X6113233Y23581409D01*
X6127825Y23538491D01*
X6132690Y23489850D01*
X6123963Y23427332D01*
X6097783Y23374828D01*
X6060730Y23334628D01*
X6019385Y23309020D01*
X5932403Y23290708D01*
X5872031Y23300150D01*
X5814521Y23328476D01*
X5757296Y23351366D01*
X5718383Y23335057D01*
X5677182Y23286130D01*
X5652003Y23219750D01*
X5668026Y23177976D01*
X5714950Y23143069D01*
X5782856Y23107462D01*
X5853815Y23086098D01*
X5927825Y23078977D01*
X5976323Y23082411D01*
X6027969Y23092711D01*
X6082046Y23111166D01*
X6137840Y23139063D01*
X6191488Y23175114D01*
X6239127Y23218033D01*
X6279900Y23270823D01*
X6312947Y23336488D01*
X6333431Y23407446D01*
X6362732Y23407446D01*
X6369027Y23357661D01*
X6388484Y23331338D01*
X6410801Y23322182D01*
X6437124Y23320465D01*
X6727825Y23320465D01*
X6798784Y23345644D01*
X6825107Y23414313D01*
X6808226Y23478119D01*
X6757582Y23532196D01*
X6725250Y23554514D01*
X6676323Y23582554D01*
X6626109Y23612454D01*
X6589914Y23640351D01*
X6560730Y23701581D01*
X6563591Y23710737D01*
X6577325Y23726187D01*
X6604220Y23734771D01*
X6634549Y23722182D01*
X6647139Y23701581D01*
X6648856Y23687847D01*
X6651717Y23656373D01*
X6663734Y23629478D01*
X6692918Y23608877D01*
X6743848Y23602010D01*
X6790773Y23610021D01*
X6815951Y23634056D01*
X6824535Y23660379D01*
X6826252Y23687847D01*
X6810229Y23773684D01*
X6801836Y23786273D01*
X6874320Y23786273D01*
X6874320Y23194571D01*
X6876037Y23155086D01*
X6886910Y23124185D01*
X6918956Y23098433D01*
X6979614Y23090422D01*
X7039127Y23098433D01*
X7071173Y23124757D01*
X7082046Y23156230D01*
X7083763Y23195715D01*
X7083763Y23787418D01*
X7082046Y23825758D01*
X7071173Y23857232D01*
X7039127Y23883555D01*
X6978469Y23891567D01*
X6918956Y23883555D01*
X6886910Y23857232D01*
X6876037Y23825758D01*
X6874320Y23786273D01*
X6801836Y23786273D01*
X6762160Y23845787D01*
X6690916Y23894714D01*
X6605365Y23911023D01*
X6518956Y23894857D01*
X6447425Y23846359D01*
X6399356Y23774113D01*
X6383333Y23686702D01*
X6395923Y23618287D01*
X6433691Y23554959D01*
X6496638Y23496717D01*
X6437124Y23496717D01*
X6411946Y23495000D01*
X6389628Y23485844D01*
X6369599Y23458948D01*
X6362732Y23407446D01*
X6333431Y23407446D01*
X6334835Y23412310D01*
X6342132Y23495572D01*
X6334979Y23575687D01*
X6313519Y23648934D01*
X6280901Y23712597D01*
X6240272Y23763956D01*
X6192632Y23805730D01*
X6138984Y23840637D01*
X6082904Y23867675D01*
X6027969Y23885844D01*
X5974893Y23896144D01*
X5924392Y23899578D01*
X5856231Y23892457D01*
X5786036Y23871093D01*
X5713805Y23835486D01*
X5682904Y23813741D01*
X5661731Y23789707D01*
X5650858Y23755372D01*
X4999085Y23755372D01*
X5002065Y23763700D01*
X5031526Y23825989D01*
X5066950Y23885091D01*
X5107997Y23940437D01*
X5154271Y23991492D01*
X5205326Y24037766D01*
X5260672Y24078813D01*
X5319774Y24114237D01*
X5382063Y24143698D01*
X5446941Y24166912D01*
X5513781Y24183654D01*
X5581941Y24193765D01*
X5650763Y24197146D01*
X5650858Y24197146D01*
X7083763Y24197146D01*
X7751383Y24197146D01*
X7751383Y22792854D01*
G37*
D12*
%TO.C,JP3*%
X8509000Y15430500D02*
X8509000Y16954500D01*
X10083800Y17411700D02*
X8966200Y17411700D01*
X10083800Y14973300D02*
X8966200Y14973300D01*
X10541000Y16954500D02*
X10541000Y15430500D01*
X8509000Y16954500D02*
G75*
G02*
X8966200Y17411700I457200J0D01*
G01*
X8966200Y14973300D02*
G75*
G02*
X8509000Y15430500I1J457201D01*
G01*
X10083800Y17411700D02*
G75*
G02*
X10541000Y16954500I0J-457200D01*
G01*
X10541000Y15430500D02*
G75*
G02*
X10083800Y14973300I-457201J1D01*
G01*
D11*
%TO.C,kibuzzard-67ED691F*%
G36*
X16697339Y3938600D02*
G01*
X16724378Y3871003D01*
X16724378Y3733235D01*
X16536395Y3733235D01*
X16536395Y3872291D01*
X16559571Y3936025D01*
X16630386Y3966282D01*
X16697339Y3938600D01*
G37*
G36*
X16594818Y5185595D02*
G01*
X16668369Y5139244D01*
X16718101Y5071325D01*
X16734678Y4991175D01*
X16718101Y4910059D01*
X16668369Y4841819D01*
X16594818Y4795467D01*
X16506781Y4780016D01*
X16420515Y4795628D01*
X16347124Y4842462D01*
X16296910Y4910542D01*
X16280172Y4989887D01*
X16296427Y5071808D01*
X16345193Y5139887D01*
X16418101Y5185756D01*
X16506781Y5201046D01*
X16594818Y5185595D01*
G37*
G36*
X16571397Y6220991D02*
G01*
X16632204Y6211972D01*
X16691833Y6197035D01*
X16749711Y6176326D01*
X16805280Y6150044D01*
X16858006Y6118441D01*
X16907381Y6081822D01*
X16952928Y6040541D01*
X16994210Y5994993D01*
X17030828Y5945619D01*
X17062431Y5892893D01*
X17088713Y5837324D01*
X17109422Y5779445D01*
X17124359Y5719816D01*
X17133379Y5659010D01*
X17136395Y5597613D01*
X17136395Y5436668D01*
X17136395Y2571862D01*
X17136395Y1713492D01*
X15883605Y1713492D01*
X15883605Y2571862D01*
X15883605Y3025080D01*
X16045837Y3025080D01*
X16054608Y2935595D01*
X16080923Y2852548D01*
X16124780Y2775939D01*
X16186180Y2705767D01*
X16259812Y2647183D01*
X16340365Y2605338D01*
X16427838Y2580231D01*
X16522232Y2571862D01*
X16612240Y2580351D01*
X16695569Y2605821D01*
X16772218Y2648270D01*
X16842189Y2707698D01*
X16900491Y2779037D01*
X16942135Y2857216D01*
X16967122Y2942234D01*
X16975451Y3034093D01*
X16970783Y3100885D01*
X16956781Y3172505D01*
X16934410Y3240263D01*
X16904635Y3295467D01*
X16878884Y3331518D01*
X16851845Y3355338D01*
X16814506Y3367570D01*
X16742403Y3337956D01*
X16691223Y3290317D01*
X16674163Y3242677D01*
X16703777Y3173149D01*
X16730815Y3107162D01*
X16739828Y3027656D01*
X16723895Y2942999D01*
X16676094Y2871862D01*
X16605118Y2823578D01*
X16519657Y2807484D01*
X16431459Y2824222D01*
X16354850Y2874437D01*
X16301738Y2946862D01*
X16284034Y3030231D01*
X16288219Y3104265D01*
X16300773Y3158986D01*
X16411502Y3158986D01*
X16411502Y3063707D01*
X16413433Y3028943D01*
X16423734Y3001905D01*
X16453991Y2980016D01*
X16511931Y2973578D01*
X16568584Y2980660D01*
X16598841Y3004480D01*
X16609142Y3032806D01*
X16611073Y3067570D01*
X16611073Y3292892D01*
X16602060Y3342462D01*
X16585322Y3372720D01*
X16559571Y3388171D01*
X16531245Y3393965D01*
X16499056Y3394608D01*
X16235107Y3394608D01*
X16161073Y3363707D01*
X16125826Y3327334D01*
X16096052Y3280016D01*
X16068155Y3208771D01*
X16051416Y3123793D01*
X16045837Y3025080D01*
X15883605Y3025080D01*
X15883605Y3614780D01*
X16060000Y3614780D01*
X16069013Y3547827D01*
X16098627Y3511776D01*
X16134034Y3499544D01*
X16178455Y3497613D01*
X16842833Y3497613D01*
X16885966Y3499544D01*
X16921373Y3511776D01*
X16950987Y3547827D01*
X16960000Y3616068D01*
X16960000Y3872291D01*
X16954850Y3924759D01*
X16939399Y3979158D01*
X16914292Y4033235D01*
X16880172Y4084737D01*
X16834624Y4130606D01*
X16775236Y4167784D01*
X16705547Y4192409D01*
X16629099Y4200617D01*
X16552972Y4192570D01*
X16484249Y4168428D01*
X16425826Y4131572D01*
X16380601Y4085381D01*
X16346481Y4033235D01*
X16321373Y3978514D01*
X16305923Y3923632D01*
X16300773Y3871003D01*
X16300773Y3733235D01*
X16177167Y3733235D01*
X16132747Y3731304D01*
X16097983Y3719072D01*
X16069013Y3683020D01*
X16060000Y3614780D01*
X15883605Y3614780D01*
X15883605Y4371862D01*
X16058712Y4371862D01*
X16067725Y4304909D01*
X16097339Y4268857D01*
X16132747Y4256626D01*
X16177167Y4254694D01*
X16842833Y4254694D01*
X16885966Y4256626D01*
X16921373Y4268857D01*
X16950987Y4304909D01*
X16960000Y4373149D01*
X16950987Y4440102D01*
X16921373Y4476153D01*
X16885966Y4488385D01*
X16841545Y4490317D01*
X16175880Y4490317D01*
X16131459Y4488385D01*
X16096695Y4476153D01*
X16067725Y4440102D01*
X16058712Y4371862D01*
X15883605Y4371862D01*
X15883605Y4996325D01*
X16044549Y4996325D01*
X16052918Y4906357D01*
X16078026Y4823149D01*
X16119871Y4746701D01*
X16178455Y4677012D01*
X16248868Y4618991D01*
X16326202Y4577548D01*
X16410456Y4552682D01*
X16501631Y4544394D01*
X16595783Y4552441D01*
X16682532Y4576583D01*
X16761878Y4616819D01*
X16833820Y4673149D01*
X16893530Y4740987D01*
X16936180Y4815746D01*
X16961770Y4897425D01*
X16970300Y4986025D01*
X16961891Y5076475D01*
X16936663Y5159844D01*
X16894616Y5236132D01*
X16835751Y5305338D01*
X16764734Y5362795D01*
X16686234Y5403836D01*
X16600249Y5428460D01*
X16506781Y5436668D01*
X16414922Y5428581D01*
X16329903Y5404319D01*
X16251725Y5363881D01*
X16180386Y5307269D01*
X16120958Y5239311D01*
X16078509Y5164834D01*
X16053039Y5083839D01*
X16044549Y4996325D01*
X15883605Y4996325D01*
X15883605Y5436668D01*
X15883605Y5597613D01*
X15886621Y5659010D01*
X15895641Y5719816D01*
X15910578Y5779445D01*
X15931287Y5837324D01*
X15957569Y5892893D01*
X15989172Y5945619D01*
X16025790Y5994993D01*
X16067072Y6040541D01*
X16112619Y6081822D01*
X16161994Y6118441D01*
X16214720Y6150044D01*
X16270289Y6176326D01*
X16328167Y6197035D01*
X16387796Y6211972D01*
X16448603Y6220991D01*
X16510000Y6224008D01*
X16571397Y6220991D01*
G37*
%TO.C,G\u002A\u002A\u002A*%
G36*
X20055078Y11006211D02*
G01*
X20099028Y11000458D01*
X20136841Y10985726D01*
X20171028Y10961110D01*
X20186659Y10945727D01*
X20214507Y10907911D01*
X20233015Y10864370D01*
X20242548Y10814069D01*
X20243471Y10755975D01*
X20240805Y10727270D01*
X20228730Y10675228D01*
X20207851Y10631147D01*
X20178355Y10595286D01*
X20140431Y10567906D01*
X20094266Y10549268D01*
X20086603Y10547441D01*
X20060896Y10544080D01*
X20035947Y10543900D01*
X20012801Y10546613D01*
X19968121Y10558568D01*
X19930936Y10579430D01*
X19900013Y10610017D01*
X19874117Y10651146D01*
X19867516Y10664354D01*
X19858371Y10685147D01*
X19852816Y10703959D01*
X19849648Y10725474D01*
X19847667Y10754381D01*
X19847042Y10787130D01*
X19852041Y10840282D01*
X19865325Y10885949D01*
X19887309Y10925338D01*
X19918410Y10959656D01*
X19927502Y10967432D01*
X19962301Y10989776D01*
X20000671Y11002396D01*
X20045528Y11006364D01*
X20055078Y11006211D01*
G37*
G36*
X19538252Y10610690D02*
G01*
X19538252Y9979496D01*
X18087385Y9981304D01*
X16636517Y9983113D01*
X16577945Y9996583D01*
X16551287Y10003048D01*
X16459062Y10031389D01*
X16375016Y10067484D01*
X16297691Y10112146D01*
X16225630Y10166184D01*
X16157374Y10230408D01*
X16131293Y10258684D01*
X16070248Y10336059D01*
X16020543Y10417496D01*
X15982070Y10503265D01*
X15954723Y10593632D01*
X15938393Y10688866D01*
X15932974Y10789234D01*
X15933283Y10814270D01*
X15940279Y10905337D01*
X15956936Y10991342D01*
X15959835Y11000325D01*
X16554745Y11000325D01*
X16601670Y11000193D01*
X16628099Y10999055D01*
X16662835Y10992389D01*
X16692920Y10978502D01*
X16722260Y10955961D01*
X16749988Y10923208D01*
X16770395Y10882956D01*
X16783294Y10837499D01*
X16788618Y10789018D01*
X16786301Y10739698D01*
X16776277Y10691722D01*
X16758478Y10647272D01*
X16732839Y10608533D01*
X16714755Y10590033D01*
X16686028Y10571131D01*
X16651293Y10559637D01*
X16608130Y10554503D01*
X16554745Y10551951D01*
X16556377Y10430406D01*
X16558010Y10308861D01*
X16615380Y10307986D01*
X16643449Y10308009D01*
X16703036Y10312002D01*
X16734351Y10317919D01*
X17152851Y10317919D01*
X17303825Y10317919D01*
X17454800Y10317919D01*
X17454800Y10779902D01*
X17515190Y10779902D01*
X17515190Y10317919D01*
X17666165Y10317919D01*
X17817140Y10317919D01*
X17817140Y10779902D01*
X17817140Y11237982D01*
X17859413Y11237982D01*
X17859799Y11236662D01*
X17863530Y11225867D01*
X17870972Y11204957D01*
X17881817Y11174784D01*
X17895753Y11136204D01*
X17912472Y11090071D01*
X17931664Y11037238D01*
X17953018Y10978560D01*
X17976224Y10914892D01*
X18000974Y10847087D01*
X18026958Y10776000D01*
X18194503Y10317919D01*
X18345515Y10317926D01*
X18496526Y10317934D01*
X18583698Y10601850D01*
X18586478Y10610894D01*
X18603607Y10666230D01*
X18619705Y10717568D01*
X18634419Y10763828D01*
X18647395Y10803930D01*
X18658282Y10836793D01*
X18666727Y10861337D01*
X18672377Y10876481D01*
X18674879Y10881147D01*
X18674943Y10881056D01*
X18677707Y10873787D01*
X18683639Y10856187D01*
X18692375Y10829392D01*
X18703554Y10794536D01*
X18716814Y10752756D01*
X18731792Y10705187D01*
X18748126Y10652964D01*
X18765454Y10597223D01*
X18852021Y10317919D01*
X19003399Y10318023D01*
X19154776Y10318127D01*
X19321773Y10778496D01*
X19488770Y11238866D01*
X19337292Y11240481D01*
X19318856Y11240655D01*
X19269502Y11240817D01*
X19231586Y11240396D01*
X19204634Y11239377D01*
X19188173Y11237745D01*
X19181729Y11235485D01*
X19181136Y11234041D01*
X19177422Y11222786D01*
X19170780Y11201483D01*
X19161540Y11171236D01*
X19150035Y11133144D01*
X19136597Y11088310D01*
X19121557Y11037836D01*
X19105248Y10982823D01*
X19088002Y10924373D01*
X19080465Y10898833D01*
X19063650Y10842316D01*
X19047913Y10790044D01*
X19033580Y10743069D01*
X19020980Y10702441D01*
X19010440Y10669209D01*
X19002288Y10644425D01*
X18996851Y10629139D01*
X18994456Y10624401D01*
X18993051Y10627938D01*
X18988482Y10642026D01*
X18981208Y10665682D01*
X18971583Y10697709D01*
X18959966Y10736910D01*
X18946711Y10782087D01*
X18932176Y10832045D01*
X18916717Y10885584D01*
X18907757Y10916714D01*
X18891964Y10971500D01*
X18876908Y11023627D01*
X18863023Y11071604D01*
X18850740Y11113938D01*
X18840491Y11149138D01*
X18832711Y11175713D01*
X18827830Y11192170D01*
X18812777Y11242098D01*
X18667084Y11240482D01*
X18521391Y11238866D01*
X18492422Y11139222D01*
X18487281Y11121538D01*
X18461819Y11033984D01*
X18439470Y10957222D01*
X18420018Y10890574D01*
X18403248Y10833359D01*
X18388946Y10784900D01*
X18376897Y10744516D01*
X18366886Y10711529D01*
X18358698Y10685259D01*
X18352118Y10665028D01*
X18346931Y10650155D01*
X18342923Y10639963D01*
X18339879Y10633771D01*
X18337583Y10630901D01*
X18335821Y10630673D01*
X18334379Y10632408D01*
X18333040Y10635427D01*
X18332639Y10636517D01*
X18328887Y10648109D01*
X18322176Y10669849D01*
X18312861Y10700561D01*
X18301292Y10739068D01*
X18287824Y10784191D01*
X18272808Y10834753D01*
X18256598Y10889577D01*
X18239547Y10947484D01*
X18153036Y11241885D01*
X18006224Y11241885D01*
X17976224Y11241803D01*
X17938544Y11241443D01*
X17906384Y11240837D01*
X17881382Y11240030D01*
X17865178Y11239063D01*
X17859413Y11237982D01*
X17817140Y11237982D01*
X17817140Y11241885D01*
X17666165Y11241885D01*
X17515190Y11241885D01*
X17515190Y10779902D01*
X17454800Y10779902D01*
X17454800Y11241885D01*
X17303825Y11241885D01*
X17152851Y11241885D01*
X17152851Y10779902D01*
X17152851Y10776883D01*
X17152851Y10317919D01*
X16734351Y10317919D01*
X16757294Y10322254D01*
X16810206Y10339674D01*
X16865753Y10365172D01*
X16907268Y10389599D01*
X16960492Y10432402D01*
X17005129Y10483515D01*
X17040601Y10542350D01*
X17049704Y10561248D01*
X17064461Y10594854D01*
X17075122Y10625354D01*
X17082319Y10655778D01*
X17086681Y10689154D01*
X17088839Y10728513D01*
X17089424Y10776883D01*
X17088601Y10827052D01*
X17085494Y10871379D01*
X17079426Y10909824D01*
X17069721Y10945511D01*
X17055706Y10981568D01*
X17036706Y11021120D01*
X17027173Y11038286D01*
X16993581Y11085699D01*
X16952017Y11130138D01*
X16905474Y11168656D01*
X16856940Y11198305D01*
X16846171Y11203570D01*
X16795910Y11224642D01*
X16746399Y11238779D01*
X16693605Y11246912D01*
X16633497Y11249973D01*
X16558010Y11250943D01*
X16556378Y11125634D01*
X16554745Y11000325D01*
X15959835Y11000325D01*
X15983842Y11074727D01*
X16021582Y11157933D01*
X16033599Y11180362D01*
X16086407Y11263353D01*
X16147940Y11338205D01*
X16217731Y11404559D01*
X16295311Y11462056D01*
X16380209Y11510338D01*
X16471958Y11549044D01*
X16570088Y11577816D01*
X16574243Y11578743D01*
X16579648Y11579779D01*
X16585937Y11580745D01*
X16593526Y11581642D01*
X16602827Y11582472D01*
X16614257Y11583239D01*
X16628229Y11583944D01*
X16645159Y11584591D01*
X16665460Y11585182D01*
X16689548Y11585720D01*
X16717837Y11586206D01*
X16750741Y11586644D01*
X16788676Y11587035D01*
X16832055Y11587384D01*
X16881293Y11587691D01*
X16936805Y11587961D01*
X16999006Y11588194D01*
X17068310Y11588394D01*
X17145131Y11588564D01*
X17229884Y11588705D01*
X17322985Y11588821D01*
X17424846Y11588913D01*
X17535884Y11588985D01*
X17656512Y11589039D01*
X17787145Y11589078D01*
X17928197Y11589103D01*
X18080084Y11589118D01*
X18243220Y11589125D01*
X18418019Y11589127D01*
X20217639Y11589127D01*
X20282703Y11572601D01*
X20322022Y11561723D01*
X20413847Y11528438D01*
X20498650Y11485675D01*
X20577343Y11432932D01*
X20650838Y11369705D01*
X20715715Y11300250D01*
X20773696Y11221920D01*
X20820797Y11138416D01*
X20857118Y11049532D01*
X20882758Y10955063D01*
X20897816Y10854801D01*
X20900535Y10765609D01*
X20892225Y10673725D01*
X20873128Y10581262D01*
X20843513Y10490031D01*
X20827141Y10451002D01*
X20783161Y10368057D01*
X20729600Y10291287D01*
X20667373Y10221371D01*
X20597395Y10158992D01*
X20520582Y10104830D01*
X20437850Y10059565D01*
X20350113Y10023880D01*
X20258287Y9998455D01*
X20163288Y9983971D01*
X20156706Y9983565D01*
X20137475Y9982892D01*
X20109435Y9982236D01*
X20074608Y9981635D01*
X20035018Y9981127D01*
X19992686Y9980751D01*
X19846241Y9979736D01*
X19846241Y10205569D01*
X19846241Y10431403D01*
X19882006Y10396407D01*
X19889619Y10389200D01*
X19938003Y10352952D01*
X19992706Y10326877D01*
X20053340Y10311125D01*
X20119519Y10305841D01*
X20182193Y10309636D01*
X20251439Y10323992D01*
X20317282Y10349352D01*
X20368550Y10379683D01*
X20417876Y10421604D01*
X20460359Y10471980D01*
X20494492Y10529284D01*
X20507818Y10557785D01*
X20522613Y10594968D01*
X20533500Y10631799D01*
X20541638Y10672418D01*
X20548188Y10720967D01*
X20551518Y10772265D01*
X20549008Y10840673D01*
X20539255Y10908179D01*
X20522770Y10971537D01*
X20500062Y11027501D01*
X20466041Y11084413D01*
X20421503Y11137349D01*
X20369317Y11181189D01*
X20310055Y11215458D01*
X20244292Y11239679D01*
X20243407Y11239922D01*
X20208781Y11246566D01*
X20167479Y11250252D01*
X20123190Y11251031D01*
X20079602Y11248953D01*
X20040407Y11244071D01*
X20009294Y11236434D01*
X19977310Y11223752D01*
X19925075Y11194442D01*
X19877946Y11155444D01*
X19846241Y11124537D01*
X19846241Y11183211D01*
X19846241Y11241885D01*
X19692247Y11241885D01*
X19538252Y11241885D01*
X19538252Y11238866D01*
X19538252Y10610690D01*
G37*
%TO.C,kibuzzard-67ED716A*%
G36*
X6431116Y4871958D02*
G01*
X6500644Y4824641D01*
X6547961Y4755113D01*
X6563734Y4672709D01*
X6563734Y4569705D01*
X6134979Y4569705D01*
X6134979Y4673997D01*
X6150590Y4755435D01*
X6197425Y4824641D01*
X6266470Y4871958D01*
X6348712Y4887731D01*
X6431116Y4871958D01*
G37*
G36*
X6975751Y5123353D02*
G01*
X6975751Y2554683D01*
X6975751Y1910907D01*
X5724249Y1910907D01*
X5724249Y2554683D01*
X5724249Y3007902D01*
X5885193Y3007902D01*
X5893965Y2918417D01*
X5920279Y2835370D01*
X5964136Y2758761D01*
X6025536Y2688589D01*
X6099168Y2630005D01*
X6179721Y2588160D01*
X6267194Y2563053D01*
X6361588Y2554683D01*
X6451596Y2563173D01*
X6534925Y2588643D01*
X6611575Y2631092D01*
X6681545Y2690520D01*
X6739847Y2761859D01*
X6781491Y2840038D01*
X6806478Y2925056D01*
X6814807Y3016915D01*
X6810139Y3083707D01*
X6796137Y3155327D01*
X6773766Y3223085D01*
X6743991Y3278289D01*
X6718240Y3314340D01*
X6691202Y3338160D01*
X6653863Y3350392D01*
X6581760Y3320778D01*
X6530579Y3273138D01*
X6513519Y3225499D01*
X6543133Y3155971D01*
X6570172Y3089984D01*
X6579185Y3010477D01*
X6563251Y2925821D01*
X6515451Y2854683D01*
X6444474Y2806400D01*
X6359013Y2790306D01*
X6270815Y2807044D01*
X6194206Y2857259D01*
X6141094Y2929683D01*
X6123391Y3013053D01*
X6127575Y3087087D01*
X6140129Y3141808D01*
X6250858Y3141808D01*
X6250858Y3046529D01*
X6252790Y3011765D01*
X6263090Y2984726D01*
X6293348Y2962838D01*
X6351288Y2956400D01*
X6407940Y2963482D01*
X6438197Y2987302D01*
X6448498Y3015628D01*
X6450429Y3050392D01*
X6450429Y3275714D01*
X6441416Y3325284D01*
X6424678Y3355542D01*
X6398927Y3370992D01*
X6370601Y3376786D01*
X6338412Y3377430D01*
X6074464Y3377430D01*
X6000429Y3346529D01*
X5965182Y3310156D01*
X5935408Y3262838D01*
X5907511Y3191593D01*
X5890773Y3106615D01*
X5885193Y3007902D01*
X5724249Y3007902D01*
X5724249Y3587302D01*
X5724249Y4143525D01*
X5898069Y4143525D01*
X5905150Y4077216D01*
X5932833Y4039233D01*
X6373176Y3705756D01*
X6015236Y3705756D01*
X5970815Y3703825D01*
X5936052Y3691593D01*
X5907082Y3655542D01*
X5898069Y3587302D01*
X5907082Y3520992D01*
X5936052Y3486229D01*
X5971459Y3473997D01*
X6016524Y3471422D01*
X6684764Y3471422D01*
X6727897Y3473997D01*
X6762017Y3486872D01*
X6789700Y3522280D01*
X6798069Y3589877D01*
X6790343Y3648460D01*
X6774249Y3681293D01*
X6747854Y3704469D01*
X6315236Y4026357D01*
X6684764Y4026357D01*
X6727253Y4028932D01*
X6761373Y4041808D01*
X6789056Y4077859D01*
X6798069Y4144812D01*
X6789056Y4211765D01*
X6759442Y4247817D01*
X6724034Y4260048D01*
X6679614Y4261980D01*
X6015236Y4261980D01*
X5970815Y4260048D01*
X5936052Y4247817D01*
X5907082Y4211765D01*
X5898069Y4143525D01*
X5724249Y4143525D01*
X5724249Y4451250D01*
X5724249Y4670134D01*
X5899356Y4670134D01*
X5899356Y4451250D01*
X5908369Y4386229D01*
X5936052Y4350821D01*
X5972103Y4337302D01*
X6017811Y4334083D01*
X6683476Y4334083D01*
X6726609Y4336014D01*
X6762017Y4348246D01*
X6790987Y4384297D01*
X6799356Y4452538D01*
X6799356Y4673997D01*
X6791148Y4762838D01*
X6766524Y4845241D01*
X6725483Y4921207D01*
X6668026Y4990735D01*
X6599142Y5048755D01*
X6523820Y5090198D01*
X6442060Y5115064D01*
X6353863Y5123353D01*
X6263291Y5115064D01*
X6179560Y5090198D01*
X6102669Y5048755D01*
X6032618Y4990735D01*
X5974316Y4920966D01*
X5932672Y4844276D01*
X5907685Y4760665D01*
X5899356Y4670134D01*
X5724249Y4670134D01*
X5724249Y5123353D01*
X5724249Y5391593D01*
X6975751Y5391593D01*
X6975751Y5123353D01*
G37*
%TD*%
M02*
