%TF.GenerationSoftware,KiCad,Pcbnew,9.0.0*%
%TF.CreationDate,2025-04-11T12:54:06-06:00*%
%TF.ProjectId,SparkFun_AS7343_Qwiic,53706172-6b46-4756-9e5f-415337333433,v01*%
%TF.SameCoordinates,Original*%
%TF.FileFunction,Copper,L1,Top*%
%TF.FilePolarity,Positive*%
%FSLAX46Y46*%
G04 Gerber Fmt 4.6, Leading zero omitted, Abs format (unit mm)*
G04 Created by KiCad (PCBNEW 9.0.0) date 2025-04-11 12:54:06*
%MOMM*%
%LPD*%
G01*
G04 APERTURE LIST*
G04 Aperture macros list*
%AMRoundRect*
0 Rectangle with rounded corners*
0 $1 Rounding radius*
0 $2 $3 $4 $5 $6 $7 $8 $9 X,Y pos of 4 corners*
0 Add a 4 corners polygon primitive as box body*
4,1,4,$2,$3,$4,$5,$6,$7,$8,$9,$2,$3,0*
0 Add four circle primitives for the rounded corners*
1,1,$1+$1,$2,$3*
1,1,$1+$1,$4,$5*
1,1,$1+$1,$6,$7*
1,1,$1+$1,$8,$9*
0 Add four rect primitives between the rounded corners*
20,1,$1+$1,$2,$3,$4,$5,0*
20,1,$1+$1,$4,$5,$6,$7,0*
20,1,$1+$1,$6,$7,$8,$9,0*
20,1,$1+$1,$8,$9,$2,$3,0*%
%AMOutline5P*
0 Free polygon, 5 corners , with rotation*
0 The origin of the aperture is its center*
0 number of corners: always 5*
0 $1 to $10 corner X, Y*
0 $11 Rotation angle, in degrees counterclockwise*
0 create outline with 5 corners*
4,1,5,$1,$2,$3,$4,$5,$6,$7,$8,$9,$10,$1,$2,$11*%
%AMOutline6P*
0 Free polygon, 6 corners , with rotation*
0 The origin of the aperture is its center*
0 number of corners: always 6*
0 $1 to $12 corner X, Y*
0 $13 Rotation angle, in degrees counterclockwise*
0 create outline with 6 corners*
4,1,6,$1,$2,$3,$4,$5,$6,$7,$8,$9,$10,$11,$12,$1,$2,$13*%
%AMOutline7P*
0 Free polygon, 7 corners , with rotation*
0 The origin of the aperture is its center*
0 number of corners: always 7*
0 $1 to $14 corner X, Y*
0 $15 Rotation angle, in degrees counterclockwise*
0 create outline with 7 corners*
4,1,7,$1,$2,$3,$4,$5,$6,$7,$8,$9,$10,$11,$12,$13,$14,$1,$2,$15*%
%AMOutline8P*
0 Free polygon, 8 corners , with rotation*
0 The origin of the aperture is its center*
0 number of corners: always 8*
0 $1 to $16 corner X, Y*
0 $17 Rotation angle, in degrees counterclockwise*
0 create outline with 8 corners*
4,1,8,$1,$2,$3,$4,$5,$6,$7,$8,$9,$10,$11,$12,$13,$14,$15,$16,$1,$2,$17*%
G04 Aperture macros list end*
%TA.AperFunction,SMDPad,CuDef*%
%ADD10RoundRect,0.225000X-0.250000X0.225000X-0.250000X-0.225000X0.250000X-0.225000X0.250000X0.225000X0*%
%TD*%
%TA.AperFunction,SMDPad,CuDef*%
%ADD11RoundRect,0.225000X0.250000X-0.225000X0.250000X0.225000X-0.250000X0.225000X-0.250000X-0.225000X0*%
%TD*%
%TA.AperFunction,SMDPad,CuDef*%
%ADD12RoundRect,0.200000X0.200000X0.275000X-0.200000X0.275000X-0.200000X-0.275000X0.200000X-0.275000X0*%
%TD*%
%TA.AperFunction,SMDPad,CuDef*%
%ADD13R,0.800000X1.900000*%
%TD*%
%TA.AperFunction,SMDPad,CuDef*%
%ADD14R,0.800000X1.000000*%
%TD*%
%TA.AperFunction,SMDPad,CuDef*%
%ADD15RoundRect,0.218750X0.218750X0.256250X-0.218750X0.256250X-0.218750X-0.256250X0.218750X-0.256250X0*%
%TD*%
%TA.AperFunction,SMDPad,CuDef*%
%ADD16C,0.500000*%
%TD*%
%TA.AperFunction,ComponentPad*%
%ADD17C,1.879600*%
%TD*%
%TA.AperFunction,SMDPad,CuDef*%
%ADD18RoundRect,0.200000X-0.200000X-0.275000X0.200000X-0.275000X0.200000X0.275000X-0.200000X0.275000X0*%
%TD*%
%TA.AperFunction,SMDPad,CuDef*%
%ADD19R,1.200000X0.550000*%
%TD*%
%TA.AperFunction,SMDPad,CuDef*%
%ADD20R,1.350000X0.600000*%
%TD*%
%TA.AperFunction,SMDPad,CuDef*%
%ADD21R,2.000000X1.200000*%
%TD*%
%TA.AperFunction,SMDPad,CuDef*%
%ADD22Outline5P,-0.287500X0.244000X0.287500X0.244000X0.287500X-0.067100X0.110600X-0.244000X-0.287500X-0.244000X270.000000*%
%TD*%
%TA.AperFunction,SMDPad,CuDef*%
%ADD23R,0.488000X0.575000*%
%TD*%
%TA.AperFunction,SMDPad,CuDef*%
%ADD24R,0.900000X0.800000*%
%TD*%
%TA.AperFunction,SMDPad,CuDef*%
%ADD25RoundRect,0.200000X-0.275000X0.200000X-0.275000X-0.200000X0.275000X-0.200000X0.275000X0.200000X0*%
%TD*%
%TA.AperFunction,SMDPad,CuDef*%
%ADD26RoundRect,0.200000X0.275000X-0.200000X0.275000X0.200000X-0.275000X0.200000X-0.275000X-0.200000X0*%
%TD*%
%TA.AperFunction,ViaPad*%
%ADD27C,0.560000*%
%TD*%
%TA.AperFunction,Conductor*%
%ADD28C,0.203200*%
%TD*%
%TA.AperFunction,Conductor*%
%ADD29C,0.558800*%
%TD*%
%TA.AperFunction,Conductor*%
%ADD30C,0.406400*%
%TD*%
G04 APERTURE END LIST*
D10*
%TO.P,C6,1*%
%TO.N,1.8V*%
X17780000Y8712500D03*
%TO.P,C6,2*%
%TO.N,GND*%
X17780000Y7162500D03*
%TD*%
D11*
%TO.P,C3,1*%
%TO.N,GND*%
X15875000Y13195000D03*
%TO.P,C3,2*%
%TO.N,Net-(U2-VDD)*%
X15875000Y14745000D03*
%TD*%
D12*
%TO.P,R1,1*%
%TO.N,1.8V*%
X17652500Y16500000D03*
%TO.P,R1,2*%
%TO.N,Net-(U2-VDD)*%
X16002500Y16500000D03*
%TD*%
D13*
%TO.P,D2,1,K*%
%TO.N,Net-(D2-K)*%
X9525000Y13527000D03*
D14*
%TO.P,D2,2,A*%
%TO.N,3.3V*%
X9525000Y11500000D03*
%TD*%
D10*
%TO.P,C4,1*%
%TO.N,1.8V*%
X17780000Y14745000D03*
%TO.P,C4,2*%
%TO.N,GND*%
X17780000Y13195000D03*
%TD*%
D15*
%TO.P,D1,1,K*%
%TO.N,GND*%
X23647500Y8255000D03*
%TO.P,D1,2,A*%
%TO.N,Net-(D1-A)*%
X22072500Y8255000D03*
%TD*%
D16*
%TO.P,FID3,*%
%TO.N,*%
X635000Y24765000D03*
%TD*%
D17*
%TO.P,J3,1,Pin_1*%
%TO.N,GND*%
X6350000Y1270000D03*
%TO.P,J3,2,Pin_2*%
%TO.N,3.3V*%
X8890000Y1270000D03*
%TO.P,J3,3,Pin_3*%
%TO.N,SDA*%
X11430000Y1270000D03*
%TO.P,J3,4,Pin_4*%
%TO.N,SCL*%
X13970000Y1270000D03*
%TO.P,J3,5,Pin_5*%
%TO.N,GPIO*%
X16510000Y1270000D03*
%TO.P,J3,6,Pin_6*%
%TO.N,~{INT}*%
X19050000Y1270000D03*
%TD*%
D18*
%TO.P,R2,1*%
%TO.N,~{INT}*%
X16002500Y10477500D03*
%TO.P,R2,2*%
%TO.N,1.8V*%
X17652500Y10477500D03*
%TD*%
D19*
%TO.P,U1,1,VIN*%
%TO.N,3.3V*%
X11399900Y8887500D03*
%TO.P,U1,2,GND*%
%TO.N,GND*%
X11399900Y7937500D03*
%TO.P,U1,3,EN*%
%TO.N,3.3V*%
X11399900Y6987500D03*
%TO.P,U1,4,NC*%
%TO.N,unconnected-(U1-NC-Pad4)*%
X14000100Y6987500D03*
%TO.P,U1,5,VOUT*%
%TO.N,1.8V*%
X14000100Y8887500D03*
%TD*%
D20*
%TO.P,J1,1,Pin_1*%
%TO.N,GND*%
X20320000Y11200000D03*
%TO.P,J1,2,Pin_2*%
%TO.N,3.3V*%
X20320000Y12200000D03*
%TO.P,J1,3,Pin_3*%
%TO.N,SDA*%
X20320000Y13200000D03*
%TO.P,J1,4,Pin_4*%
%TO.N,SCL*%
X20320000Y14200000D03*
D21*
%TO.P,J1,NC1,NC*%
%TO.N,unconnected-(J1-NC-PadNC1)*%
X23995000Y15500000D03*
%TO.P,J1,NC2,NC*%
%TO.N,unconnected-(J1-NC-PadNC2)*%
X23995000Y9900000D03*
%TD*%
D16*
%TO.P,FID4,*%
%TO.N,*%
X24765000Y635000D03*
%TD*%
D22*
%TO.P,U2,1,VDD*%
%TO.N,Net-(U2-VDD)*%
X13900000Y13338000D03*
D23*
%TO.P,U2,2,SCL*%
%TO.N,SCL_1V8*%
X13100000Y13338000D03*
%TO.P,U2,3,GND*%
%TO.N,GND*%
X12300000Y13338000D03*
%TO.P,U2,4,LDR*%
%TO.N,Net-(D3-K)*%
X11500000Y13338000D03*
%TO.P,U2,5,PGND*%
%TO.N,GND*%
X11500000Y12062000D03*
%TO.P,U2,6,GPIO*%
%TO.N,GPIO*%
X12300000Y12062000D03*
%TO.P,U2,7,~{INT}*%
%TO.N,~{INT}*%
X13100000Y12062000D03*
%TO.P,U2,8,SDA*%
%TO.N,SDA_1V8*%
X13900000Y12062000D03*
%TD*%
D20*
%TO.P,J2,1,Pin_1*%
%TO.N,GND*%
X5080000Y14200000D03*
%TO.P,J2,2,Pin_2*%
%TO.N,3.3V*%
X5080000Y13200000D03*
%TO.P,J2,3,Pin_3*%
%TO.N,SDA*%
X5080000Y12200000D03*
%TO.P,J2,4,Pin_4*%
%TO.N,SCL*%
X5080000Y11200000D03*
D21*
%TO.P,J2,NC1,NC*%
%TO.N,unconnected-(J2-NC-PadNC1)*%
X1405000Y9900000D03*
%TO.P,J2,NC2,NC*%
%TO.N,unconnected-(J2-NC-PadNC2)*%
X1405000Y15500000D03*
%TD*%
D17*
%TO.P,D3,1,K*%
%TO.N,Net-(D3-K)*%
X3810000Y17780000D03*
%TO.P,D3,2,A*%
%TO.N,3.3V*%
X1270000Y17780000D03*
%TD*%
D24*
%TO.P,Q1,1,G*%
%TO.N,3.3V*%
X15192500Y23810000D03*
%TO.P,Q1,2,S*%
%TO.N,SCL*%
X15192500Y21910000D03*
%TO.P,Q1,3,D*%
%TO.N,SCL_1V8*%
X17292500Y22860000D03*
%TD*%
D25*
%TO.P,R5,1*%
%TO.N,Net-(JP2-A)*%
X13652500Y23685000D03*
%TO.P,R5,2*%
%TO.N,SCL*%
X13652500Y22035000D03*
%TD*%
D10*
%TO.P,C2,1*%
%TO.N,3.3V*%
X9525000Y8712500D03*
%TO.P,C2,2*%
%TO.N,GND*%
X9525000Y7162500D03*
%TD*%
D18*
%TO.P,R3,1*%
%TO.N,Net-(D1-A)*%
X22035000Y6350000D03*
%TO.P,R3,2*%
%TO.N,Net-(JP1-A)*%
X23685000Y6350000D03*
%TD*%
D26*
%TO.P,R4,1*%
%TO.N,SDA*%
X6985000Y22035000D03*
%TO.P,R4,2*%
%TO.N,Net-(JP2-C)*%
X6985000Y23685000D03*
%TD*%
D10*
%TO.P,C1,1*%
%TO.N,1.8V*%
X15875000Y8712500D03*
%TO.P,C1,2*%
%TO.N,GND*%
X15875000Y7162500D03*
%TD*%
D26*
%TO.P,R8,1*%
%TO.N,1.8V*%
X18732500Y22035000D03*
%TO.P,R8,2*%
%TO.N,SCL_1V8*%
X18732500Y23685000D03*
%TD*%
D10*
%TO.P,C5,1*%
%TO.N,3.3V*%
X7620000Y8712500D03*
%TO.P,C5,2*%
%TO.N,GND*%
X7620000Y7162500D03*
%TD*%
D26*
%TO.P,R7,1*%
%TO.N,1.8V*%
X12065000Y22035000D03*
%TO.P,R7,2*%
%TO.N,SDA_1V8*%
X12065000Y23685000D03*
%TD*%
D24*
%TO.P,Q2,1,G*%
%TO.N,3.3V*%
X8525000Y23810000D03*
%TO.P,Q2,2,S*%
%TO.N,SDA*%
X8525000Y21910000D03*
%TO.P,Q2,3,D*%
%TO.N,SDA_1V8*%
X10625000Y22860000D03*
%TD*%
D27*
%TO.N,3.3V*%
X10395000Y8898000D03*
X9588500Y24493000D03*
X6612000Y9324000D03*
X15209000Y23080000D03*
X9534000Y10294000D03*
X11411000Y6222000D03*
X3718000Y13189000D03*
X21844000Y12192000D03*
%TO.N,GND*%
X12336000Y14284000D03*
X9295000Y18510000D03*
X14752000Y13806000D03*
X12262000Y9560000D03*
X14155000Y6028000D03*
X22944000Y18429000D03*
X2210000Y13600000D03*
X7536000Y17022000D03*
X6124000Y22565000D03*
X8371000Y14435000D03*
X17414000Y20389000D03*
X19548000Y9380000D03*
X7950000Y5988000D03*
X539000Y7497000D03*
X4932000Y16536000D03*
X13738000Y15259000D03*
X15750000Y6000000D03*
X15754000Y18778000D03*
X24872000Y17997000D03*
X20135000Y24858000D03*
X13888000Y19166000D03*
X24907000Y8856000D03*
X15233000Y544000D03*
X3306000Y14579000D03*
X17144000Y11888000D03*
X14985000Y20939000D03*
X11530000Y11131000D03*
X22153000Y10858000D03*
X10143000Y542000D03*
X21172730Y20784333D03*
X10892000Y19077000D03*
X19047000Y19204000D03*
X4617000Y21445000D03*
X8706000Y9516000D03*
X1270000Y20637500D03*
X675000Y647000D03*
X7556000Y21242000D03*
X20405000Y494000D03*
X5790000Y6330000D03*
X490000Y16572000D03*
X19207000Y11893000D03*
X17792000Y581000D03*
X17375000Y5994000D03*
X24588000Y12817000D03*
X5401000Y10061000D03*
X10684000Y12757000D03*
X7002000Y11082000D03*
X15371000Y11584000D03*
X5245000Y24894000D03*
X24895000Y24878000D03*
X12609000Y7512000D03*
X12342000Y17723000D03*
X6261000Y14679000D03*
X5080000Y19260000D03*
X3536000Y4702000D03*
%TO.N,Net-(JP1-A)*%
X23812500Y5397500D03*
%TO.N,Net-(JP2-A)*%
X12902000Y23103000D03*
%TO.N,Net-(JP2-C)*%
X7777000Y22794000D03*
%TO.N,~{INT}*%
X16713000Y9436000D03*
%TO.N,GPIO*%
X15131000Y9429000D03*
%TO.N,1.8V*%
X12852000Y21300000D03*
X17865000Y19466000D03*
X18722000Y22839000D03*
%TO.N,SDA_1V8*%
X14774000Y12059000D03*
X10625000Y20819000D03*
%TO.N,SCL_1V8*%
X17335000Y23835000D03*
X16150000Y20536000D03*
%TO.N,Net-(D2-K)*%
X9523000Y14891000D03*
%TO.N,Net-(D3-K)*%
X11493000Y14110000D03*
%TD*%
D28*
%TO.N,3.3V*%
X2983000Y19493000D02*
X1270000Y17780000D01*
X6540000Y24512000D02*
X5577000Y23549000D01*
X3660000Y19493000D02*
X2983000Y19493000D01*
D29*
X5080000Y13200000D02*
X3729000Y13200000D01*
X20320000Y12200000D02*
X21836000Y12200000D01*
D28*
X8525000Y23810000D02*
X9208000Y24493000D01*
X5577000Y23549000D02*
X5577000Y21410000D01*
D29*
X9525000Y10303000D02*
X9534000Y10294000D01*
D28*
X15192500Y23096500D02*
X15209000Y23080000D01*
X11399900Y6233100D02*
X11411000Y6222000D01*
X10405500Y8887500D02*
X10395000Y8898000D01*
X11399900Y8887500D02*
X10405500Y8887500D01*
X7223500Y8712500D02*
X6612000Y9324000D01*
X10395000Y8898000D02*
X9710500Y8898000D01*
X9208000Y24493000D02*
X9588500Y24493000D01*
X7620000Y8712500D02*
X7223500Y8712500D01*
X5577000Y21410000D02*
X3660000Y19493000D01*
D29*
X9525000Y11500000D02*
X9525000Y10303000D01*
X21836000Y12200000D02*
X21844000Y12192000D01*
D28*
X9710500Y8898000D02*
X9525000Y8712500D01*
D29*
X3729000Y13200000D02*
X3718000Y13189000D01*
D28*
X15192500Y23810000D02*
X15192500Y23096500D01*
X11399900Y6924000D02*
X11399900Y6233100D01*
X6540000Y24512000D02*
X7823000Y24512000D01*
X7620000Y8712500D02*
X9525000Y8712500D01*
X7823000Y24512000D02*
X8525000Y23810000D01*
%TO.N,Net-(D1-A)*%
X22035000Y6350000D02*
X22035000Y8217500D01*
X22035000Y8217500D02*
X22072500Y8255000D01*
%TO.N,SDA*%
X9673000Y22217000D02*
X9366000Y21910000D01*
X11430000Y2774000D02*
X9918000Y4286000D01*
X21649000Y13200000D02*
X22280000Y13831000D01*
X8400000Y22035000D02*
X8525000Y21910000D01*
X3071000Y11664000D02*
X3608000Y12201000D01*
X6946000Y21996000D02*
X6985000Y22035000D01*
X9918000Y4286000D02*
X5088000Y4286000D01*
X3071000Y6303000D02*
X3071000Y11664000D01*
X19735000Y23962000D02*
X19136000Y24561000D01*
X3608000Y12201000D02*
X3609000Y12200000D01*
X5080000Y12200000D02*
X6144000Y12200000D01*
X19735000Y20375000D02*
X19735000Y23962000D01*
X10711000Y24561000D02*
X9673000Y23523000D01*
X5080000Y12200000D02*
X3609000Y12200000D01*
X22280000Y17830000D02*
X19735000Y20375000D01*
X5088000Y4286000D02*
X3071000Y6303000D01*
X20320000Y13200000D02*
X21649000Y13200000D01*
X9673000Y23523000D02*
X9673000Y22217000D01*
X22280000Y13831000D02*
X22280000Y17830000D01*
X6985000Y22035000D02*
X8400000Y22035000D01*
X6144000Y12200000D02*
X6946000Y13002000D01*
X6946000Y13002000D02*
X6946000Y21996000D01*
X9366000Y21910000D02*
X8525000Y21910000D01*
X19136000Y24561000D02*
X10711000Y24561000D01*
X11430000Y1270000D02*
X11430000Y2774000D01*
%TO.N,SCL*%
X17398000Y21910000D02*
X15192500Y21910000D01*
X20320000Y14200000D02*
X21548000Y14200000D01*
X9994000Y18092000D02*
X11825000Y18092000D01*
X21799000Y14451000D02*
X21799000Y17509000D01*
X15067500Y22035000D02*
X15192500Y21910000D01*
X3926000Y11200000D02*
X3660000Y10934000D01*
X10329000Y4911000D02*
X13970000Y1270000D01*
X7683000Y12620000D02*
X7683000Y15781000D01*
X13652500Y19919500D02*
X13652500Y22035000D01*
X3660000Y6684000D02*
X5433000Y4911000D01*
X13652500Y22035000D02*
X15067500Y22035000D01*
X3660000Y10934000D02*
X3660000Y6684000D01*
X5080000Y11200000D02*
X3926000Y11200000D01*
X5433000Y4911000D02*
X10329000Y4911000D01*
X11825000Y18092000D02*
X13652500Y19919500D01*
X7683000Y15781000D02*
X9994000Y18092000D01*
X21799000Y17509000D02*
X17398000Y21910000D01*
X6263000Y11200000D02*
X7683000Y12620000D01*
X21548000Y14200000D02*
X21799000Y14451000D01*
X5080000Y11200000D02*
X6263000Y11200000D01*
%TO.N,Net-(JP1-A)*%
X23685000Y5525000D02*
X23812500Y5397500D01*
X23685000Y6350000D02*
X23685000Y5525000D01*
%TO.N,Net-(JP2-A)*%
X13652500Y23685000D02*
X13484000Y23685000D01*
X13484000Y23685000D02*
X12902000Y23103000D01*
%TO.N,Net-(JP2-C)*%
X7777000Y22794000D02*
X7777000Y22893000D01*
X7777000Y22893000D02*
X6985000Y23685000D01*
%TO.N,~{INT}*%
X14181500Y10477500D02*
X16002500Y10477500D01*
X13100000Y12062000D02*
X13100000Y11559000D01*
X16713000Y10333000D02*
X16713000Y9436000D01*
X16002500Y10477500D02*
X16568500Y10477500D01*
X16726000Y9449000D02*
X16713000Y9436000D01*
X13100000Y11559000D02*
X14181500Y10477500D01*
X16568500Y10477500D02*
X16713000Y10333000D01*
%TO.N,GPIO*%
X14136000Y9734000D02*
X14441000Y9429000D01*
X14441000Y9429000D02*
X15131000Y9429000D01*
X12300000Y12062000D02*
X12300000Y11570000D01*
X12300000Y11570000D02*
X14136000Y9734000D01*
%TO.N,1.8V*%
X18695000Y12160000D02*
X18695000Y14449000D01*
X17652500Y14872500D02*
X17780000Y14745000D01*
X17652500Y11117500D02*
X18695000Y12160000D01*
X12852000Y21300000D02*
X12128500Y22023500D01*
X17780000Y8712500D02*
X17652500Y8840000D01*
X17652500Y19253500D02*
X17652500Y16500000D01*
X17652500Y8840000D02*
X17652500Y10477500D01*
X12128500Y22023500D02*
X12128500Y22098000D01*
X15875000Y8712500D02*
X17780000Y8712500D01*
X18725000Y22042500D02*
X18732500Y22035000D01*
X14000100Y8887500D02*
X15700000Y8887500D01*
X18722000Y22839000D02*
X18725000Y22836000D01*
X18695000Y14449000D02*
X18399000Y14745000D01*
X18399000Y14745000D02*
X17780000Y14745000D01*
X17652500Y10477500D02*
X17652500Y11117500D01*
X17865000Y19466000D02*
X17652500Y19253500D01*
X15700000Y8887500D02*
X15875000Y8712500D01*
X17652500Y16500000D02*
X17652500Y14872500D01*
X18725000Y22836000D02*
X18725000Y22042500D01*
%TO.N,SDA_1V8*%
X10625000Y20819000D02*
X10625000Y22860000D01*
X10625000Y23416000D02*
X10894000Y23685000D01*
X10894000Y23685000D02*
X12065000Y23685000D01*
X13900000Y12062000D02*
X14771000Y12062000D01*
X14771000Y12062000D02*
X14774000Y12059000D01*
X10625000Y22860000D02*
X10625000Y23416000D01*
%TO.N,Net-(U2-VDD)*%
X15875000Y14745000D02*
X16002500Y14872500D01*
X13900000Y14035000D02*
X14610000Y14745000D01*
X16002500Y14872500D02*
X16002500Y16500000D01*
X14610000Y14745000D02*
X15875000Y14745000D01*
X13900000Y13338000D02*
X13900000Y14035000D01*
%TO.N,SCL_1V8*%
X17335000Y23835000D02*
X18582500Y23835000D01*
X17335000Y23835000D02*
X17335000Y22902500D01*
X13100000Y17479000D02*
X13100000Y13338000D01*
X17335000Y22902500D02*
X17292500Y22860000D01*
X16150000Y20536000D02*
X16150000Y20529000D01*
X16150000Y20529000D02*
X13100000Y17479000D01*
X18582500Y23835000D02*
X18732500Y23685000D01*
D30*
%TO.N,Net-(D2-K)*%
X9525000Y13527000D02*
X9525000Y14889000D01*
X9525000Y14889000D02*
X9523000Y14891000D01*
%TO.N,Net-(D3-K)*%
X11493000Y14110000D02*
X11493000Y13345000D01*
X11493000Y13345000D02*
X11500000Y13338000D01*
%TD*%
%TA.AperFunction,Conductor*%
%TO.N,GND*%
G36*
X2749962Y9240385D02*
G01*
X2786682Y9180942D01*
X2791100Y9148136D01*
X2791100Y6339850D01*
X2791100Y6266150D01*
X2810175Y6194963D01*
X2847024Y6131138D01*
X4916138Y4062024D01*
X4979963Y4025175D01*
X5051150Y4006100D01*
X5124850Y4006100D01*
X9750700Y4006100D01*
X9817739Y3986415D01*
X9838381Y3969781D01*
X11113781Y2694381D01*
X11128484Y2667454D01*
X11145077Y2641635D01*
X11145968Y2635435D01*
X11147266Y2633058D01*
X11150100Y2606700D01*
X11150100Y2444786D01*
X11130415Y2377747D01*
X11077611Y2331992D01*
X11064426Y2326858D01*
X11037395Y2318076D01*
X11000794Y2306183D01*
X10843987Y2226285D01*
X10791274Y2187986D01*
X10701607Y2122839D01*
X10701605Y2122837D01*
X10701604Y2122837D01*
X10577163Y1998396D01*
X10577163Y1998395D01*
X10577161Y1998393D01*
X10549272Y1960007D01*
X10473715Y1856013D01*
X10393815Y1699202D01*
X10393814Y1699199D01*
X10339432Y1531824D01*
X10329019Y1466081D01*
X10311900Y1357996D01*
X10311900Y1182004D01*
X10317919Y1144000D01*
X10339432Y1008177D01*
X10393814Y840802D01*
X10393815Y840799D01*
X10429733Y770307D01*
X10473715Y683988D01*
X10577161Y541607D01*
X10577163Y541605D01*
X10703387Y415381D01*
X10736872Y354058D01*
X10731888Y284366D01*
X10690016Y228433D01*
X10624552Y204016D01*
X10615706Y203700D01*
X9704294Y203700D01*
X9637255Y223385D01*
X9591500Y276189D01*
X9581556Y345347D01*
X9610581Y408903D01*
X9616613Y415381D01*
X9643046Y441814D01*
X9742839Y541607D01*
X9846285Y683988D01*
X9926184Y840799D01*
X9980568Y1008178D01*
X10008100Y1182004D01*
X10008100Y1357996D01*
X9980568Y1531822D01*
X9953376Y1615512D01*
X9926185Y1699199D01*
X9926184Y1699202D01*
X9885473Y1779101D01*
X9846285Y1856012D01*
X9742839Y1998393D01*
X9618393Y2122839D01*
X9476012Y2226285D01*
X9404114Y2262919D01*
X9319201Y2306185D01*
X9319198Y2306186D01*
X9151823Y2360568D01*
X9052269Y2376336D01*
X8977996Y2388100D01*
X8802004Y2388100D01*
X8744062Y2378923D01*
X8628176Y2360568D01*
X8460801Y2306186D01*
X8460798Y2306185D01*
X8303987Y2226285D01*
X8251274Y2187986D01*
X8161607Y2122839D01*
X8161605Y2122837D01*
X8161604Y2122837D01*
X8037163Y1998396D01*
X8037163Y1998395D01*
X8037161Y1998393D01*
X8009272Y1960007D01*
X7933715Y1856013D01*
X7853815Y1699202D01*
X7853814Y1699199D01*
X7799432Y1531824D01*
X7780794Y1414154D01*
X7750864Y1351019D01*
X7691552Y1314089D01*
X7621690Y1315087D01*
X7563457Y1353698D01*
X7535848Y1414156D01*
X7514405Y1549545D01*
X7514404Y1549546D01*
X7456335Y1728263D01*
X7371028Y1895688D01*
X7260576Y2047710D01*
X7260576Y2047711D01*
X7127710Y2180577D01*
X6975687Y2291029D01*
X6808262Y2376336D01*
X6629549Y2434404D01*
X6629545Y2434405D01*
X6600000Y2439085D01*
X6600000Y1712252D01*
X6546081Y1743381D01*
X6416880Y1778000D01*
X6283120Y1778000D01*
X6153919Y1743381D01*
X6100000Y1712252D01*
X6100000Y2439085D01*
X6099999Y2439085D01*
X6070454Y2434405D01*
X6070450Y2434404D01*
X5891737Y2376336D01*
X5724312Y2291029D01*
X5572290Y2180577D01*
X5572289Y2180577D01*
X5439423Y2047711D01*
X5439423Y2047710D01*
X5328971Y1895688D01*
X5243664Y1728265D01*
X5185595Y1549550D01*
X5180916Y1520000D01*
X5907749Y1520000D01*
X5876619Y1466081D01*
X5842000Y1336880D01*
X5842000Y1203120D01*
X5876619Y1073919D01*
X5907749Y1020000D01*
X5180916Y1020000D01*
X5185595Y990451D01*
X5243664Y811736D01*
X5328971Y644313D01*
X5439423Y492291D01*
X5439423Y492290D01*
X5516332Y415381D01*
X5549817Y354058D01*
X5544833Y284366D01*
X5502961Y228433D01*
X5437497Y204016D01*
X5428651Y203700D01*
X327700Y203700D01*
X260661Y223385D01*
X214906Y276189D01*
X203700Y327700D01*
X203700Y2658005D01*
X739500Y2658005D01*
X739500Y2421996D01*
X739501Y2421980D01*
X770306Y2187990D01*
X831394Y1960007D01*
X921714Y1741955D01*
X921719Y1741944D01*
X946399Y1699198D01*
X1039727Y1537550D01*
X1039729Y1537547D01*
X1039730Y1537546D01*
X1183406Y1350303D01*
X1183412Y1350296D01*
X1350295Y1183413D01*
X1350302Y1183407D01*
X1406372Y1140383D01*
X1537550Y1039727D01*
X1622892Y990455D01*
X1741943Y921720D01*
X1741948Y921718D01*
X1741951Y921716D01*
X1960007Y831394D01*
X2187986Y770307D01*
X2421989Y739500D01*
X2421996Y739500D01*
X2658004Y739500D01*
X2658011Y739500D01*
X2892014Y770307D01*
X3119993Y831394D01*
X3338049Y921716D01*
X3542450Y1039727D01*
X3729699Y1183408D01*
X3896592Y1350301D01*
X4040273Y1537550D01*
X4158284Y1741951D01*
X4248606Y1960007D01*
X4309693Y2187986D01*
X4340500Y2421989D01*
X4340500Y2658011D01*
X4309693Y2892014D01*
X4248606Y3119993D01*
X4158284Y3338049D01*
X4158282Y3338052D01*
X4158280Y3338057D01*
X4116118Y3411082D01*
X4040273Y3542450D01*
X3896592Y3729699D01*
X3896587Y3729705D01*
X3729704Y3896588D01*
X3729697Y3896594D01*
X3542454Y4040270D01*
X3542453Y4040271D01*
X3542450Y4040273D01*
X3460957Y4087323D01*
X3338056Y4158281D01*
X3338045Y4158286D01*
X3119993Y4248606D01*
X2892010Y4309694D01*
X2658020Y4340499D01*
X2658017Y4340500D01*
X2658011Y4340500D01*
X2421989Y4340500D01*
X2421983Y4340500D01*
X2421979Y4340499D01*
X2187989Y4309694D01*
X1960006Y4248606D01*
X1741954Y4158286D01*
X1741943Y4158281D01*
X1537545Y4040270D01*
X1350302Y3896594D01*
X1350295Y3896588D01*
X1183412Y3729705D01*
X1183406Y3729698D01*
X1039730Y3542455D01*
X921719Y3338057D01*
X921714Y3338046D01*
X831394Y3119994D01*
X770306Y2892011D01*
X739501Y2658021D01*
X739500Y2658005D01*
X203700Y2658005D01*
X203700Y9007154D01*
X223385Y9074193D01*
X276189Y9119948D01*
X345347Y9129892D01*
X351875Y9128774D01*
X387439Y9121700D01*
X2422560Y9121701D01*
X2474569Y9132045D01*
X2533547Y9171453D01*
X2563998Y9217027D01*
X2617610Y9261832D01*
X2686935Y9270539D01*
X2749962Y9240385D01*
G37*
%TD.AperFunction*%
%TA.AperFunction,Conductor*%
G36*
X25139339Y25176615D02*
G01*
X25185094Y25123811D01*
X25196300Y25072300D01*
X25196300Y16392847D01*
X25176615Y16325808D01*
X25123811Y16280053D01*
X25054653Y16270109D01*
X25048110Y16271229D01*
X25040287Y16272785D01*
X25012561Y16278300D01*
X25012559Y16278300D01*
X22977441Y16278300D01*
X22925430Y16267955D01*
X22886022Y16241623D01*
X22866455Y16228548D01*
X22866452Y16228546D01*
X22827044Y16169568D01*
X22827043Y16169567D01*
X22816700Y16117566D01*
X22816700Y14882442D01*
X22826998Y14830667D01*
X22827045Y14830431D01*
X22866453Y14771453D01*
X22925431Y14732045D01*
X22925432Y14732045D01*
X22925433Y14732044D01*
X22956578Y14725850D01*
X22977439Y14721700D01*
X25012560Y14721701D01*
X25048111Y14728772D01*
X25117700Y14722545D01*
X25172878Y14679682D01*
X25196122Y14613792D01*
X25196300Y14607155D01*
X25196300Y10792847D01*
X25176615Y10725808D01*
X25123811Y10680053D01*
X25054653Y10670109D01*
X25048110Y10671229D01*
X25040287Y10672785D01*
X25012561Y10678300D01*
X25012559Y10678300D01*
X22977441Y10678300D01*
X22925430Y10667955D01*
X22866452Y10628546D01*
X22827044Y10569568D01*
X22827043Y10569567D01*
X22816700Y10517566D01*
X22816700Y9282442D01*
X22821342Y9259103D01*
X22827045Y9230431D01*
X22866453Y9171453D01*
X22925431Y9132045D01*
X22925432Y9132045D01*
X22925433Y9132044D01*
X22956578Y9125850D01*
X22977439Y9121700D01*
X23236854Y9121701D01*
X23303891Y9102017D01*
X23349646Y9049213D01*
X23359590Y8980054D01*
X23330565Y8916499D01*
X23293148Y8887217D01*
X23192759Y8836066D01*
X23192752Y8836061D01*
X23103939Y8747248D01*
X23103936Y8747244D01*
X23046905Y8635315D01*
X23032200Y8542466D01*
X23032200Y8458200D01*
X24262800Y8458200D01*
X24262800Y8542466D01*
X24248094Y8635315D01*
X24191063Y8747244D01*
X24191060Y8747248D01*
X24102247Y8836061D01*
X24102243Y8836064D01*
X24001851Y8887216D01*
X23951055Y8935190D01*
X23934260Y9003011D01*
X23956797Y9069146D01*
X24011512Y9112598D01*
X24058143Y9121701D01*
X25012560Y9121701D01*
X25048111Y9128772D01*
X25117700Y9122545D01*
X25172878Y9079682D01*
X25196122Y9013792D01*
X25196300Y9007155D01*
X25196300Y1178692D01*
X25176615Y1111653D01*
X25123811Y1065898D01*
X25054653Y1055954D01*
X25010301Y1071305D01*
X24958193Y1101390D01*
X24958188Y1101391D01*
X24958187Y1101392D01*
X24958186Y1101392D01*
X24830892Y1135500D01*
X24699108Y1135500D01*
X24571812Y1101392D01*
X24457686Y1035500D01*
X24457683Y1035498D01*
X24364502Y942317D01*
X24364500Y942314D01*
X24298608Y828188D01*
X24264500Y700892D01*
X24264500Y569109D01*
X24298608Y441813D01*
X24328696Y389701D01*
X24345169Y321801D01*
X24322317Y255774D01*
X24267396Y212583D01*
X24221309Y203700D01*
X19864294Y203700D01*
X19797255Y223385D01*
X19751500Y276189D01*
X19741556Y345347D01*
X19770581Y408903D01*
X19776613Y415381D01*
X19803046Y441814D01*
X19902839Y541607D01*
X20006285Y683988D01*
X20086184Y840799D01*
X20140568Y1008178D01*
X20168100Y1182004D01*
X20168100Y1357996D01*
X20140568Y1531822D01*
X20113376Y1615512D01*
X20086185Y1699199D01*
X20086184Y1699202D01*
X20045473Y1779101D01*
X20006285Y1856012D01*
X19902839Y1998393D01*
X19778393Y2122839D01*
X19636012Y2226285D01*
X19564114Y2262919D01*
X19479201Y2306185D01*
X19479198Y2306186D01*
X19311823Y2360568D01*
X19212269Y2376336D01*
X19137996Y2388100D01*
X18962004Y2388100D01*
X18904062Y2378923D01*
X18788176Y2360568D01*
X18620801Y2306186D01*
X18620798Y2306185D01*
X18463987Y2226285D01*
X18411274Y2187986D01*
X18321607Y2122839D01*
X18321605Y2122837D01*
X18321604Y2122837D01*
X18197163Y1998396D01*
X18197163Y1998395D01*
X18197161Y1998393D01*
X18169272Y1960007D01*
X18093715Y1856013D01*
X18013815Y1699202D01*
X18013814Y1699199D01*
X17959432Y1531824D01*
X17949019Y1466081D01*
X17931900Y1357996D01*
X17931900Y1182004D01*
X17937919Y1144000D01*
X17959432Y1008177D01*
X18013814Y840802D01*
X18013815Y840799D01*
X18049733Y770307D01*
X18093715Y683988D01*
X18197161Y541607D01*
X18197163Y541605D01*
X18323387Y415381D01*
X18356872Y354058D01*
X18351888Y284366D01*
X18310016Y228433D01*
X18244552Y204016D01*
X18235706Y203700D01*
X17324294Y203700D01*
X17257255Y223385D01*
X17211500Y276189D01*
X17201556Y345347D01*
X17230581Y408903D01*
X17236613Y415381D01*
X17263046Y441814D01*
X17362839Y541607D01*
X17466285Y683988D01*
X17546184Y840799D01*
X17600568Y1008178D01*
X17628100Y1182004D01*
X17628100Y1357996D01*
X17600568Y1531822D01*
X17573376Y1615512D01*
X17546185Y1699199D01*
X17546184Y1699202D01*
X17505473Y1779101D01*
X17466285Y1856012D01*
X17362839Y1998393D01*
X17238393Y2122839D01*
X17096012Y2226285D01*
X17024114Y2262919D01*
X16939201Y2306185D01*
X16939198Y2306186D01*
X16771823Y2360568D01*
X16672269Y2376336D01*
X16597996Y2388100D01*
X16422004Y2388100D01*
X16364062Y2378923D01*
X16248176Y2360568D01*
X16080801Y2306186D01*
X16080798Y2306185D01*
X15923987Y2226285D01*
X15871274Y2187986D01*
X15781607Y2122839D01*
X15781605Y2122837D01*
X15781604Y2122837D01*
X15657163Y1998396D01*
X15657163Y1998395D01*
X15657161Y1998393D01*
X15629272Y1960007D01*
X15553715Y1856013D01*
X15473815Y1699202D01*
X15473814Y1699199D01*
X15419432Y1531824D01*
X15409019Y1466081D01*
X15391900Y1357996D01*
X15391900Y1182004D01*
X15397919Y1144000D01*
X15419432Y1008177D01*
X15473814Y840802D01*
X15473815Y840799D01*
X15509733Y770307D01*
X15553715Y683988D01*
X15657161Y541607D01*
X15657163Y541605D01*
X15783387Y415381D01*
X15816872Y354058D01*
X15811888Y284366D01*
X15770016Y228433D01*
X15704552Y204016D01*
X15695706Y203700D01*
X14784294Y203700D01*
X14717255Y223385D01*
X14671500Y276189D01*
X14661556Y345347D01*
X14690581Y408903D01*
X14696613Y415381D01*
X14723046Y441814D01*
X14822839Y541607D01*
X14926285Y683988D01*
X15006184Y840799D01*
X15060568Y1008178D01*
X15088100Y1182004D01*
X15088100Y1357996D01*
X15060568Y1531822D01*
X15033376Y1615512D01*
X15006185Y1699199D01*
X15006184Y1699202D01*
X14965473Y1779101D01*
X14926285Y1856012D01*
X14822839Y1998393D01*
X14698393Y2122839D01*
X14556012Y2226285D01*
X14484114Y2262919D01*
X14399201Y2306185D01*
X14399198Y2306186D01*
X14231823Y2360568D01*
X14132269Y2376336D01*
X14057996Y2388100D01*
X13882004Y2388100D01*
X13824062Y2378923D01*
X13708176Y2360568D01*
X13540802Y2306186D01*
X13481193Y2275814D01*
X13412524Y2262919D01*
X13347784Y2289196D01*
X13337219Y2298619D01*
X12977833Y2658005D01*
X21059500Y2658005D01*
X21059500Y2421996D01*
X21059501Y2421980D01*
X21090306Y2187990D01*
X21151394Y1960007D01*
X21241714Y1741955D01*
X21241719Y1741944D01*
X21266399Y1699198D01*
X21359727Y1537550D01*
X21359729Y1537547D01*
X21359730Y1537546D01*
X21503406Y1350303D01*
X21503412Y1350296D01*
X21670295Y1183413D01*
X21670302Y1183407D01*
X21726372Y1140383D01*
X21857550Y1039727D01*
X21942892Y990455D01*
X22061943Y921720D01*
X22061948Y921718D01*
X22061951Y921716D01*
X22280007Y831394D01*
X22507986Y770307D01*
X22741989Y739500D01*
X22741996Y739500D01*
X22978004Y739500D01*
X22978011Y739500D01*
X23212014Y770307D01*
X23439993Y831394D01*
X23658049Y921716D01*
X23862450Y1039727D01*
X24049699Y1183408D01*
X24216592Y1350301D01*
X24360273Y1537550D01*
X24478284Y1741951D01*
X24568606Y1960007D01*
X24629693Y2187986D01*
X24660500Y2421989D01*
X24660500Y2658011D01*
X24629693Y2892014D01*
X24568606Y3119993D01*
X24478284Y3338049D01*
X24478282Y3338052D01*
X24478280Y3338057D01*
X24436118Y3411082D01*
X24360273Y3542450D01*
X24216592Y3729699D01*
X24216587Y3729705D01*
X24049704Y3896588D01*
X24049697Y3896594D01*
X23862454Y4040270D01*
X23862453Y4040271D01*
X23862450Y4040273D01*
X23780957Y4087323D01*
X23658056Y4158281D01*
X23658045Y4158286D01*
X23439993Y4248606D01*
X23212010Y4309694D01*
X22978020Y4340499D01*
X22978017Y4340500D01*
X22978011Y4340500D01*
X22741989Y4340500D01*
X22741983Y4340500D01*
X22741979Y4340499D01*
X22507989Y4309694D01*
X22280006Y4248606D01*
X22061954Y4158286D01*
X22061943Y4158281D01*
X21857545Y4040270D01*
X21670302Y3896594D01*
X21670295Y3896588D01*
X21503412Y3729705D01*
X21503406Y3729698D01*
X21359730Y3542455D01*
X21241719Y3338057D01*
X21241714Y3338046D01*
X21151394Y3119994D01*
X21090306Y2892011D01*
X21059501Y2658021D01*
X21059500Y2658005D01*
X12977833Y2658005D01*
X10500863Y5134975D01*
X10500862Y5134976D01*
X10437037Y5171825D01*
X10437038Y5171825D01*
X10413308Y5178184D01*
X10365850Y5190900D01*
X10365848Y5190900D01*
X5600300Y5190900D01*
X5533261Y5210585D01*
X5512619Y5227219D01*
X3976219Y6763619D01*
X3961515Y6790547D01*
X3944923Y6816365D01*
X3944031Y6822566D01*
X3942734Y6824942D01*
X3939900Y6851300D01*
X3939900Y6891664D01*
X6891000Y6891664D01*
X6897133Y6834633D01*
X6897134Y6834628D01*
X6945267Y6705579D01*
X6945269Y6705576D01*
X7027811Y6595315D01*
X7027814Y6595312D01*
X7138075Y6512770D01*
X7138078Y6512768D01*
X7267127Y6464635D01*
X7267132Y6464634D01*
X7324163Y6458501D01*
X7324180Y6458500D01*
X7416800Y6458500D01*
X7823200Y6458500D01*
X7915820Y6458500D01*
X7915836Y6458501D01*
X7972867Y6464634D01*
X7972872Y6464635D01*
X8101921Y6512768D01*
X8101924Y6512770D01*
X8212185Y6595312D01*
X8212188Y6595315D01*
X8294730Y6705576D01*
X8294732Y6705579D01*
X8342865Y6834628D01*
X8342866Y6834633D01*
X8348999Y6891664D01*
X8796000Y6891664D01*
X8802133Y6834633D01*
X8802134Y6834628D01*
X8850267Y6705579D01*
X8850269Y6705576D01*
X8932811Y6595315D01*
X8932814Y6595312D01*
X9043075Y6512770D01*
X9043078Y6512768D01*
X9172127Y6464635D01*
X9172132Y6464634D01*
X9229163Y6458501D01*
X9229180Y6458500D01*
X9321800Y6458500D01*
X9728200Y6458500D01*
X9820820Y6458500D01*
X9820836Y6458501D01*
X9877867Y6464634D01*
X9877872Y6464635D01*
X10006921Y6512768D01*
X10006924Y6512770D01*
X10117185Y6595312D01*
X10117188Y6595315D01*
X10199730Y6705576D01*
X10199732Y6705579D01*
X10247865Y6834628D01*
X10247866Y6834633D01*
X10253999Y6891664D01*
X10254000Y6891685D01*
X10254000Y6959300D01*
X9728200Y6959300D01*
X9728200Y6458500D01*
X9321800Y6458500D01*
X9321800Y6959300D01*
X8796000Y6959300D01*
X8796000Y6891664D01*
X8348999Y6891664D01*
X8349000Y6891685D01*
X8349000Y6959300D01*
X7823200Y6959300D01*
X7823200Y6458500D01*
X7416800Y6458500D01*
X7416800Y6959300D01*
X6891000Y6959300D01*
X6891000Y6891664D01*
X3939900Y6891664D01*
X3939900Y9384336D01*
X6153700Y9384336D01*
X6153700Y9263664D01*
X6184932Y9147103D01*
X6245268Y9042597D01*
X6330597Y8957268D01*
X6435103Y8896932D01*
X6551664Y8865700D01*
X6551666Y8865700D01*
X6623100Y8865700D01*
X6690139Y8846015D01*
X6710781Y8829381D01*
X6930381Y8609781D01*
X6963866Y8548458D01*
X6966700Y8522102D01*
X6966700Y8455764D01*
X6973047Y8415691D01*
X6981658Y8361320D01*
X7039657Y8247491D01*
X7039659Y8247489D01*
X7039661Y8247486D01*
X7129985Y8157162D01*
X7129987Y8157161D01*
X7129991Y8157157D01*
X7235962Y8103162D01*
X7243822Y8099157D01*
X7253104Y8096141D01*
X7252697Y8094891D01*
X7306765Y8069264D01*
X7343701Y8009955D01*
X7342708Y7940092D01*
X7304102Y7881857D01*
X7267574Y7860533D01*
X7138077Y7812232D01*
X7138075Y7812231D01*
X7027814Y7729689D01*
X7027811Y7729686D01*
X6945269Y7619425D01*
X6945267Y7619422D01*
X6897134Y7490373D01*
X6897133Y7490368D01*
X6891000Y7433337D01*
X6891000Y7365700D01*
X8349000Y7365700D01*
X8349000Y7433320D01*
X8348999Y7433337D01*
X8342866Y7490368D01*
X8342865Y7490373D01*
X8294732Y7619422D01*
X8294730Y7619425D01*
X8212188Y7729686D01*
X8212185Y7729689D01*
X8101923Y7812231D01*
X7972424Y7860533D01*
X7916491Y7902404D01*
X7892075Y7967869D01*
X7906927Y8036142D01*
X7956333Y8085547D01*
X7986947Y8095979D01*
X7986895Y8096141D01*
X7996176Y8099157D01*
X7996177Y8099158D01*
X7996180Y8099158D01*
X8110009Y8157157D01*
X8200343Y8247491D01*
X8258342Y8361320D01*
X8258342Y8361322D01*
X8260163Y8364895D01*
X8308138Y8415691D01*
X8370648Y8432600D01*
X8774352Y8432600D01*
X8841391Y8412915D01*
X8884837Y8364895D01*
X8886657Y8361322D01*
X8886658Y8361320D01*
X8944657Y8247491D01*
X8944659Y8247489D01*
X8944661Y8247486D01*
X9034985Y8157162D01*
X9034987Y8157161D01*
X9034991Y8157157D01*
X9140962Y8103162D01*
X9148822Y8099157D01*
X9158104Y8096141D01*
X9157697Y8094891D01*
X9211765Y8069264D01*
X9248701Y8009955D01*
X9247708Y7940092D01*
X9209102Y7881857D01*
X9172574Y7860533D01*
X9043077Y7812232D01*
X9043075Y7812231D01*
X8932814Y7729689D01*
X8932811Y7729686D01*
X8850269Y7619425D01*
X8850267Y7619422D01*
X8802134Y7490373D01*
X8802133Y7490368D01*
X8796000Y7433337D01*
X8796000Y7365700D01*
X10254000Y7365700D01*
X10254000Y7433320D01*
X10253999Y7433337D01*
X10247866Y7490368D01*
X10247865Y7490373D01*
X10199732Y7619421D01*
X10186209Y7637486D01*
X10545901Y7637486D01*
X10560637Y7563394D01*
X10560638Y7563391D01*
X10623561Y7469222D01*
X10621367Y7467757D01*
X10646399Y7421915D01*
X10641415Y7352223D01*
X10635530Y7340726D01*
X10631943Y7332067D01*
X10621600Y7280066D01*
X10621600Y6694942D01*
X10628370Y6660904D01*
X10631945Y6642931D01*
X10671353Y6583953D01*
X10730331Y6544545D01*
X10730332Y6544545D01*
X10730333Y6544544D01*
X10761478Y6538350D01*
X10782339Y6534200D01*
X10858586Y6534201D01*
X10925624Y6514517D01*
X10971380Y6461714D01*
X10981324Y6392555D01*
X10978361Y6378109D01*
X10952700Y6282338D01*
X10952700Y6282336D01*
X10952700Y6161664D01*
X10983932Y6045103D01*
X11044268Y5940597D01*
X11129597Y5855268D01*
X11234103Y5794932D01*
X11350664Y5763700D01*
X11350666Y5763700D01*
X11471334Y5763700D01*
X11471336Y5763700D01*
X11587897Y5794932D01*
X11692403Y5855268D01*
X11777732Y5940597D01*
X11838068Y6045103D01*
X11869300Y6161664D01*
X11869300Y6282336D01*
X11843638Y6378110D01*
X11845301Y6447958D01*
X11884464Y6505820D01*
X11948692Y6533324D01*
X11963413Y6534201D01*
X12017458Y6534201D01*
X12017460Y6534201D01*
X12069469Y6544545D01*
X12128447Y6583953D01*
X12167855Y6642931D01*
X12168695Y6647150D01*
X12178199Y6694935D01*
X12178200Y6694939D01*
X12178199Y7280060D01*
X12178198Y7280066D01*
X13221800Y7280066D01*
X13221800Y6694942D01*
X13228570Y6660904D01*
X13232145Y6642931D01*
X13271553Y6583953D01*
X13330531Y6544545D01*
X13330532Y6544545D01*
X13330533Y6544544D01*
X13361678Y6538350D01*
X13382539Y6534200D01*
X14617660Y6534201D01*
X14669669Y6544545D01*
X14728647Y6583953D01*
X14768055Y6642931D01*
X14768895Y6647150D01*
X14778399Y6694935D01*
X14778400Y6694939D01*
X14778400Y6891664D01*
X15146000Y6891664D01*
X15152133Y6834633D01*
X15152134Y6834628D01*
X15200267Y6705579D01*
X15200269Y6705576D01*
X15282811Y6595315D01*
X15282814Y6595312D01*
X15393075Y6512770D01*
X15393078Y6512768D01*
X15522127Y6464635D01*
X15522132Y6464634D01*
X15579163Y6458501D01*
X15579180Y6458500D01*
X15671800Y6458500D01*
X16078200Y6458500D01*
X16170820Y6458500D01*
X16170836Y6458501D01*
X16227867Y6464634D01*
X16227872Y6464635D01*
X16356921Y6512768D01*
X16356924Y6512770D01*
X16467185Y6595312D01*
X16467188Y6595315D01*
X16549730Y6705576D01*
X16549732Y6705579D01*
X16597865Y6834628D01*
X16597866Y6834633D01*
X16603999Y6891664D01*
X17051000Y6891664D01*
X17057133Y6834633D01*
X17057134Y6834628D01*
X17105267Y6705579D01*
X17105269Y6705576D01*
X17187811Y6595315D01*
X17187814Y6595312D01*
X17298075Y6512770D01*
X17298078Y6512768D01*
X17427127Y6464635D01*
X17427132Y6464634D01*
X17484163Y6458501D01*
X17484180Y6458500D01*
X17576800Y6458500D01*
X17983200Y6458500D01*
X18075820Y6458500D01*
X18075836Y6458501D01*
X18132867Y6464634D01*
X18132872Y6464635D01*
X18261921Y6512768D01*
X18261924Y6512770D01*
X18372185Y6595312D01*
X18372188Y6595315D01*
X18454730Y6705576D01*
X18454732Y6705579D01*
X18502865Y6834628D01*
X18502866Y6834633D01*
X18508999Y6891664D01*
X18509000Y6891685D01*
X18509000Y6959300D01*
X17983200Y6959300D01*
X17983200Y6458500D01*
X17576800Y6458500D01*
X17576800Y6959300D01*
X17051000Y6959300D01*
X17051000Y6891664D01*
X16603999Y6891664D01*
X16604000Y6891685D01*
X16604000Y6959300D01*
X16078200Y6959300D01*
X16078200Y6458500D01*
X15671800Y6458500D01*
X15671800Y6959300D01*
X15146000Y6959300D01*
X15146000Y6891664D01*
X14778400Y6891664D01*
X14778399Y7280060D01*
X14768055Y7332069D01*
X14728647Y7391047D01*
X14669669Y7430455D01*
X14669668Y7430456D01*
X14669667Y7430456D01*
X14669666Y7430457D01*
X14617663Y7440800D01*
X13382541Y7440800D01*
X13330530Y7430455D01*
X13291122Y7404123D01*
X13271555Y7391048D01*
X13271552Y7391046D01*
X13232144Y7332068D01*
X13232143Y7332067D01*
X13221800Y7280066D01*
X12178198Y7280066D01*
X12167855Y7332069D01*
X12167854Y7332071D01*
X12163180Y7343356D01*
X12165888Y7344478D01*
X12150587Y7393342D01*
X12169070Y7460723D01*
X12178644Y7472822D01*
X12239163Y7563396D01*
X12239164Y7563397D01*
X12253899Y7637479D01*
X12253900Y7637482D01*
X12253900Y7734300D01*
X10545901Y7734300D01*
X10545901Y7637486D01*
X10186209Y7637486D01*
X10130913Y7711351D01*
X10130912Y7711352D01*
X10117185Y7729689D01*
X10006923Y7812231D01*
X9877424Y7860533D01*
X9821491Y7902404D01*
X9797075Y7967869D01*
X9811927Y8036142D01*
X9861333Y8085547D01*
X9891947Y8095979D01*
X9891895Y8096141D01*
X9901176Y8099157D01*
X9901177Y8099158D01*
X9901180Y8099158D01*
X10015009Y8157157D01*
X10105343Y8247491D01*
X10163342Y8361320D01*
X10163343Y8361331D01*
X10164127Y8363738D01*
X10165879Y8366302D01*
X10167772Y8370015D01*
X10168251Y8369771D01*
X10203564Y8421414D01*
X10267922Y8448614D01*
X10289924Y8449172D01*
X10302233Y8448390D01*
X10334664Y8439700D01*
X10438954Y8439700D01*
X10442887Y8439450D01*
X10472166Y8428794D01*
X10502061Y8420015D01*
X10504722Y8416944D01*
X10508543Y8415553D01*
X10527418Y8390752D01*
X10547816Y8367211D01*
X10548394Y8363189D01*
X10550857Y8359953D01*
X10553325Y8328892D01*
X10557760Y8298053D01*
X10556639Y8291509D01*
X10545900Y8237522D01*
X10545900Y8140700D01*
X12253899Y8140700D01*
X12253899Y8237515D01*
X12239162Y8311607D01*
X12239161Y8311610D01*
X12176239Y8405778D01*
X12178432Y8407244D01*
X12153400Y8453086D01*
X12158384Y8522778D01*
X12164267Y8534271D01*
X12167856Y8542934D01*
X12178199Y8594935D01*
X12178200Y8594939D01*
X12178199Y9180060D01*
X12167855Y9232069D01*
X12128447Y9291047D01*
X12069469Y9330455D01*
X12069468Y9330456D01*
X12069467Y9330456D01*
X12069466Y9330457D01*
X12017463Y9340800D01*
X10782341Y9340800D01*
X10730329Y9330455D01*
X10730325Y9330453D01*
X10716675Y9321332D01*
X10649997Y9300456D01*
X10585788Y9317048D01*
X10571897Y9325068D01*
X10569001Y9325844D01*
X10455336Y9356300D01*
X10334664Y9356300D01*
X10218103Y9325068D01*
X10218102Y9325068D01*
X10128546Y9273363D01*
X10060646Y9256892D01*
X10010255Y9270266D01*
X9901180Y9325842D01*
X9901179Y9325843D01*
X9901176Y9325844D01*
X9901177Y9325844D01*
X9806744Y9340800D01*
X9243262Y9340800D01*
X9161732Y9327888D01*
X9148820Y9325842D01*
X9034991Y9267843D01*
X9034990Y9267842D01*
X9034985Y9267839D01*
X8944661Y9177515D01*
X8944658Y9177510D01*
X8944657Y9177509D01*
X8886658Y9063680D01*
X8886657Y9063679D01*
X8884837Y9060105D01*
X8836862Y9009309D01*
X8774352Y8992400D01*
X8370648Y8992400D01*
X8303609Y9012085D01*
X8260163Y9060105D01*
X8258342Y9063679D01*
X8258342Y9063680D01*
X8200343Y9177509D01*
X8200339Y9177513D01*
X8200338Y9177515D01*
X8110014Y9267839D01*
X8110011Y9267841D01*
X8110009Y9267843D01*
X8015716Y9315888D01*
X7996177Y9325844D01*
X7901744Y9340800D01*
X7338262Y9340800D01*
X7243818Y9325842D01*
X7243815Y9325841D01*
X7241363Y9324591D01*
X7238065Y9323973D01*
X7234542Y9322827D01*
X7234393Y9323283D01*
X7172692Y9311700D01*
X7107954Y9337982D01*
X7067702Y9395091D01*
X7065306Y9402972D01*
X7039068Y9500897D01*
X6978732Y9605403D01*
X6893403Y9690732D01*
X6788897Y9751068D01*
X6672336Y9782300D01*
X6551664Y9782300D01*
X6435103Y9751068D01*
X6435102Y9751068D01*
X6330598Y9690733D01*
X6330595Y9690731D01*
X6245269Y9605405D01*
X6245267Y9605402D01*
X6184932Y9500898D01*
X6184932Y9500897D01*
X6153700Y9384336D01*
X3939900Y9384336D01*
X3939900Y10766700D01*
X3948544Y10796141D01*
X3955068Y10826127D01*
X3958822Y10831143D01*
X3959585Y10833739D01*
X3976219Y10854381D01*
X4005619Y10883781D01*
X4066942Y10917266D01*
X4093300Y10920100D01*
X4117445Y10920100D01*
X4184484Y10900415D01*
X4230239Y10847611D01*
X4232170Y10841629D01*
X4232373Y10841712D01*
X4237045Y10830431D01*
X4276453Y10771453D01*
X4335431Y10732045D01*
X4335432Y10732045D01*
X4335433Y10732044D01*
X4366578Y10725850D01*
X4387439Y10721700D01*
X5772560Y10721701D01*
X5824569Y10732045D01*
X5883547Y10771453D01*
X5922955Y10830431D01*
X5922955Y10830435D01*
X5927630Y10841717D01*
X5931339Y10840181D01*
X5953342Y10882221D01*
X6014065Y10916782D01*
X6042556Y10920100D01*
X6299848Y10920100D01*
X6299850Y10920100D01*
X6371037Y10939175D01*
X6434862Y10976024D01*
X7906976Y12448138D01*
X7943825Y12511962D01*
X7962900Y12583150D01*
X7962900Y12656850D01*
X7962900Y14494566D01*
X8946700Y14494566D01*
X8946700Y12559442D01*
X8952994Y12527800D01*
X8957045Y12507431D01*
X8996453Y12448453D01*
X9055431Y12409045D01*
X9055432Y12409045D01*
X9066717Y12404370D01*
X9065703Y12401924D01*
X9111950Y12377733D01*
X9146524Y12317017D01*
X9142785Y12247248D01*
X9101919Y12190575D01*
X9066060Y12174199D01*
X9066712Y12172627D01*
X9055430Y12167955D01*
X9016022Y12141623D01*
X8996455Y12128548D01*
X8996452Y12128546D01*
X8957044Y12069568D01*
X8957043Y12069567D01*
X8946700Y12017566D01*
X8946700Y10982442D01*
X8949006Y10970850D01*
X8957045Y10930431D01*
X8996453Y10871453D01*
X9012189Y10860938D01*
X9056995Y10807327D01*
X9067300Y10757836D01*
X9067300Y10363258D01*
X9067300Y10242742D01*
X9080953Y10191789D01*
X9098492Y10126333D01*
X9098495Y10126328D01*
X9158744Y10021972D01*
X9158775Y10021931D01*
X9164776Y10015089D01*
X9167268Y10012597D01*
X9252597Y9927268D01*
X9357103Y9866932D01*
X9473664Y9835700D01*
X9473666Y9835700D01*
X9594334Y9835700D01*
X9594336Y9835700D01*
X9710897Y9866932D01*
X9815403Y9927268D01*
X9900732Y10012597D01*
X9961068Y10117103D01*
X9992300Y10233664D01*
X9992300Y10354336D01*
X9986923Y10374403D01*
X9982700Y10406489D01*
X9982700Y10757836D01*
X10002385Y10824875D01*
X10037809Y10860938D01*
X10053547Y10871453D01*
X10092955Y10930431D01*
X10094695Y10939175D01*
X10101892Y10975361D01*
X10103300Y10982439D01*
X10103299Y11749486D01*
X11002001Y11749486D01*
X11016737Y11675394D01*
X11016738Y11675391D01*
X11072876Y11591377D01*
X11156895Y11535237D01*
X11156896Y11535236D01*
X11230979Y11520501D01*
X11296799Y11520502D01*
X11296800Y11520502D01*
X11296800Y11858800D01*
X11002001Y11858800D01*
X11002001Y11749486D01*
X10103299Y11749486D01*
X10103299Y12017560D01*
X10092955Y12069569D01*
X10053547Y12128547D01*
X9994569Y12167955D01*
X9994568Y12167956D01*
X9994567Y12167956D01*
X9983283Y12172630D01*
X9984295Y12175075D01*
X9938039Y12199278D01*
X9903471Y12259998D01*
X9907219Y12329767D01*
X9939500Y12374522D01*
X11002000Y12374522D01*
X11002000Y12265200D01*
X11296800Y12265200D01*
X11296800Y12603500D01*
X11703200Y12603500D01*
X11703200Y11520501D01*
X11769015Y11520501D01*
X11843106Y11535238D01*
X11843108Y11535239D01*
X11848865Y11539085D01*
X11915541Y11559967D01*
X11982922Y11541486D01*
X12029615Y11489510D01*
X12037535Y11468083D01*
X12039175Y11461963D01*
X12073101Y11403200D01*
X12076023Y11398140D01*
X12076025Y11398137D01*
X13921681Y9552481D01*
X13955166Y9491158D01*
X13950182Y9421466D01*
X13908310Y9365533D01*
X13842846Y9341116D01*
X13834000Y9340800D01*
X13382541Y9340800D01*
X13330530Y9330455D01*
X13310466Y9317048D01*
X13271555Y9291048D01*
X13271552Y9291046D01*
X13232144Y9232068D01*
X13232143Y9232067D01*
X13221800Y9180066D01*
X13221800Y8594942D01*
X13227795Y8564803D01*
X13232145Y8542931D01*
X13271553Y8483953D01*
X13330531Y8444545D01*
X13330532Y8444545D01*
X13330533Y8444544D01*
X13356145Y8439450D01*
X13382539Y8434200D01*
X14617660Y8434201D01*
X14669669Y8444545D01*
X14728647Y8483953D01*
X14768055Y8542931D01*
X14768055Y8542932D01*
X14774442Y8552490D01*
X14780532Y8557581D01*
X14783831Y8564803D01*
X14806961Y8579668D01*
X14828054Y8597296D01*
X14837428Y8599248D01*
X14842609Y8602577D01*
X14877544Y8607600D01*
X15097701Y8607600D01*
X15164740Y8587915D01*
X15210495Y8535111D01*
X15221701Y8483600D01*
X15221701Y8455762D01*
X15236658Y8361320D01*
X15294657Y8247491D01*
X15294659Y8247489D01*
X15294661Y8247486D01*
X15384985Y8157162D01*
X15384987Y8157161D01*
X15384991Y8157157D01*
X15490962Y8103162D01*
X15498822Y8099157D01*
X15508104Y8096141D01*
X15507697Y8094891D01*
X15561765Y8069264D01*
X15598701Y8009955D01*
X15597708Y7940092D01*
X15559102Y7881857D01*
X15522574Y7860533D01*
X15393077Y7812232D01*
X15393075Y7812231D01*
X15282814Y7729689D01*
X15282811Y7729686D01*
X15200269Y7619425D01*
X15200267Y7619422D01*
X15152134Y7490373D01*
X15152133Y7490368D01*
X15146000Y7433337D01*
X15146000Y7365700D01*
X16604000Y7365700D01*
X16604000Y7433320D01*
X16603999Y7433337D01*
X16597866Y7490368D01*
X16597865Y7490373D01*
X16549732Y7619422D01*
X16549730Y7619425D01*
X16467188Y7729686D01*
X16467185Y7729689D01*
X16356923Y7812231D01*
X16227424Y7860533D01*
X16171491Y7902404D01*
X16147075Y7967869D01*
X16161927Y8036142D01*
X16211333Y8085547D01*
X16241947Y8095979D01*
X16241895Y8096141D01*
X16251176Y8099157D01*
X16251177Y8099158D01*
X16251180Y8099158D01*
X16365009Y8157157D01*
X16455343Y8247491D01*
X16513342Y8361320D01*
X16513342Y8361322D01*
X16515163Y8364895D01*
X16563138Y8415691D01*
X16625648Y8432600D01*
X17029352Y8432600D01*
X17096391Y8412915D01*
X17139837Y8364895D01*
X17141657Y8361322D01*
X17141658Y8361320D01*
X17199657Y8247491D01*
X17199659Y8247489D01*
X17199661Y8247486D01*
X17289985Y8157162D01*
X17289987Y8157161D01*
X17289991Y8157157D01*
X17395962Y8103162D01*
X17403822Y8099157D01*
X17413104Y8096141D01*
X17412697Y8094891D01*
X17466765Y8069264D01*
X17503701Y8009955D01*
X17502708Y7940092D01*
X17464102Y7881857D01*
X17427574Y7860533D01*
X17298077Y7812232D01*
X17298075Y7812231D01*
X17187814Y7729689D01*
X17187811Y7729686D01*
X17105269Y7619425D01*
X17105267Y7619422D01*
X17057134Y7490373D01*
X17057133Y7490368D01*
X17051000Y7433337D01*
X17051000Y7365700D01*
X18509000Y7365700D01*
X18509000Y7433320D01*
X18508999Y7433337D01*
X18502866Y7490368D01*
X18502865Y7490373D01*
X18454732Y7619422D01*
X18454730Y7619425D01*
X18372188Y7729686D01*
X18372185Y7729689D01*
X18261923Y7812231D01*
X18132424Y7860533D01*
X18076491Y7902404D01*
X18052075Y7967869D01*
X18066927Y8036142D01*
X18116333Y8085547D01*
X18146947Y8095979D01*
X18146895Y8096141D01*
X18156176Y8099157D01*
X18156177Y8099158D01*
X18156180Y8099158D01*
X18270009Y8157157D01*
X18360343Y8247491D01*
X18418342Y8361320D01*
X18418342Y8361322D01*
X18418343Y8361323D01*
X18433300Y8455756D01*
X18433300Y8542503D01*
X21456700Y8542503D01*
X21456700Y7967504D01*
X21461042Y7940092D01*
X21471426Y7874525D01*
X21528526Y7762461D01*
X21528528Y7762459D01*
X21528530Y7762456D01*
X21617455Y7673531D01*
X21617459Y7673528D01*
X21617461Y7673526D01*
X21687396Y7637892D01*
X21738191Y7589918D01*
X21755100Y7527408D01*
X21755100Y7084431D01*
X21735415Y7017392D01*
X21685561Y6973031D01*
X21612139Y6937137D01*
X21612138Y6937137D01*
X21522864Y6847863D01*
X21467413Y6734437D01*
X21467413Y6734435D01*
X21456700Y6660904D01*
X21456700Y6039096D01*
X21465882Y5976070D01*
X21467413Y5965564D01*
X21522864Y5852138D01*
X21612137Y5762865D01*
X21612138Y5762865D01*
X21612139Y5762864D01*
X21725565Y5707413D01*
X21799096Y5696700D01*
X21799102Y5696700D01*
X22270898Y5696700D01*
X22270904Y5696700D01*
X22344435Y5707413D01*
X22457861Y5762864D01*
X22547136Y5852139D01*
X22602587Y5965565D01*
X22613300Y6039096D01*
X22613300Y6660904D01*
X23106700Y6660904D01*
X23106700Y6039096D01*
X23115882Y5976070D01*
X23117413Y5965564D01*
X23172864Y5852138D01*
X23262137Y5762865D01*
X23262138Y5762865D01*
X23262139Y5762864D01*
X23324890Y5732187D01*
X23376472Y5685059D01*
X23394387Y5617525D01*
X23386923Y5582412D01*
X23387536Y5582247D01*
X23385433Y5574399D01*
X23385432Y5574397D01*
X23354200Y5457836D01*
X23354200Y5337164D01*
X23385432Y5220603D01*
X23445768Y5116097D01*
X23531097Y5030768D01*
X23635603Y4970432D01*
X23752164Y4939200D01*
X23752166Y4939200D01*
X23872834Y4939200D01*
X23872836Y4939200D01*
X23989397Y4970432D01*
X24093903Y5030768D01*
X24179232Y5116097D01*
X24239568Y5220603D01*
X24270800Y5337164D01*
X24270800Y5457836D01*
X24239568Y5574397D01*
X24179232Y5678903D01*
X24179231Y5678904D01*
X24177995Y5680515D01*
X24177374Y5682122D01*
X24175168Y5685942D01*
X24175763Y5686286D01*
X24152797Y5745683D01*
X24166831Y5814128D01*
X24188688Y5843691D01*
X24197136Y5852139D01*
X24252587Y5965565D01*
X24263300Y6039096D01*
X24263300Y6660904D01*
X24252587Y6734435D01*
X24197136Y6847861D01*
X24197135Y6847862D01*
X24197135Y6847863D01*
X24107862Y6937136D01*
X23994436Y6992587D01*
X23983930Y6994118D01*
X23920904Y7003300D01*
X23449096Y7003300D01*
X23393947Y6995266D01*
X23375563Y6992587D01*
X23262137Y6937136D01*
X23172864Y6847863D01*
X23117413Y6734437D01*
X23117413Y6734435D01*
X23106700Y6660904D01*
X22613300Y6660904D01*
X22602587Y6734435D01*
X22547136Y6847861D01*
X22547135Y6847862D01*
X22547135Y6847863D01*
X22457861Y6937137D01*
X22384439Y6973031D01*
X22332857Y7020159D01*
X22314900Y7084431D01*
X22314900Y7494591D01*
X22334585Y7561630D01*
X22387389Y7607385D01*
X22406296Y7613083D01*
X22406190Y7613409D01*
X22415471Y7616425D01*
X22415472Y7616426D01*
X22415475Y7616426D01*
X22527539Y7673526D01*
X22616474Y7762461D01*
X22673574Y7874525D01*
X22673574Y7874527D01*
X22673575Y7874528D01*
X22688300Y7967498D01*
X22688300Y7967535D01*
X23032200Y7967535D01*
X23046905Y7874686D01*
X23103936Y7762757D01*
X23103939Y7762753D01*
X23192752Y7673940D01*
X23192756Y7673937D01*
X23304685Y7616906D01*
X23397535Y7602200D01*
X23444300Y7602200D01*
X23850700Y7602200D01*
X23897465Y7602200D01*
X23990314Y7616906D01*
X24102243Y7673937D01*
X24102247Y7673940D01*
X24191060Y7762753D01*
X24191063Y7762757D01*
X24248094Y7874686D01*
X24262800Y7967535D01*
X24262800Y8051800D01*
X23850700Y8051800D01*
X23850700Y7602200D01*
X23444300Y7602200D01*
X23444300Y8051800D01*
X23032200Y8051800D01*
X23032200Y7967535D01*
X22688300Y7967535D01*
X22688300Y8103162D01*
X22688299Y8542497D01*
X22679994Y8594935D01*
X22673574Y8635475D01*
X22616474Y8747539D01*
X22616470Y8747543D01*
X22616469Y8747545D01*
X22527544Y8836470D01*
X22527539Y8836474D01*
X22415471Y8893576D01*
X22415472Y8893576D01*
X22322502Y8908300D01*
X21822503Y8908300D01*
X21740708Y8895346D01*
X21729525Y8893574D01*
X21617461Y8836474D01*
X21617460Y8836473D01*
X21617455Y8836470D01*
X21528530Y8747545D01*
X21528526Y8747540D01*
X21471424Y8635473D01*
X21456700Y8542503D01*
X18433300Y8542503D01*
X18433300Y8547369D01*
X18433299Y8969238D01*
X18431586Y8980054D01*
X18418342Y9063680D01*
X18360343Y9177509D01*
X18360339Y9177513D01*
X18360338Y9177515D01*
X18270014Y9267839D01*
X18270011Y9267841D01*
X18270009Y9267843D01*
X18156180Y9325842D01*
X18156179Y9325843D01*
X18156176Y9325844D01*
X18061739Y9340800D01*
X18056400Y9340800D01*
X17989361Y9360485D01*
X17943606Y9413289D01*
X17932400Y9464800D01*
X17932400Y9743070D01*
X17952085Y9810109D01*
X18001938Y9854470D01*
X18075361Y9890364D01*
X18164636Y9979639D01*
X18220087Y10093065D01*
X18230800Y10166596D01*
X18230800Y10788404D01*
X18220087Y10861935D01*
X18213707Y10874986D01*
X19391001Y10874986D01*
X19405737Y10800894D01*
X19405738Y10800891D01*
X19461876Y10716877D01*
X19545895Y10660737D01*
X19545896Y10660736D01*
X19619980Y10646001D01*
X20116799Y10646001D01*
X20523200Y10646001D01*
X21020015Y10646001D01*
X21094106Y10660738D01*
X21094109Y10660739D01*
X21178123Y10716877D01*
X21234263Y10800896D01*
X21234264Y10800897D01*
X21248999Y10874979D01*
X21249000Y10874982D01*
X21249000Y10996800D01*
X20523200Y10996800D01*
X20523200Y10646001D01*
X20116799Y10646001D01*
X20116800Y10646002D01*
X20116800Y10996800D01*
X19391001Y10996800D01*
X19391001Y10874986D01*
X18213707Y10874986D01*
X18164636Y10975361D01*
X18122235Y11017762D01*
X18121389Y11018642D01*
X18105785Y11048605D01*
X18089613Y11078223D01*
X18089703Y11079488D01*
X18089118Y11080612D01*
X18092188Y11114233D01*
X18094597Y11147915D01*
X18095374Y11149125D01*
X18095472Y11150192D01*
X18098818Y11154485D01*
X18123095Y11192259D01*
X18918976Y11988138D01*
X18955825Y12051963D01*
X18974900Y12123150D01*
X18974900Y12196850D01*
X18974900Y14485850D01*
X18955825Y14557037D01*
X18955825Y14557038D01*
X18918976Y14620862D01*
X18570862Y14968976D01*
X18507037Y15005825D01*
X18499530Y15008934D01*
X18500018Y15010115D01*
X18447411Y15042183D01*
X18421236Y15087272D01*
X18418342Y15096178D01*
X18418342Y15096180D01*
X18360343Y15210009D01*
X18360339Y15210013D01*
X18360338Y15210015D01*
X18270014Y15300339D01*
X18270011Y15300341D01*
X18270009Y15300343D01*
X18156180Y15358342D01*
X18156179Y15358343D01*
X18156176Y15358344D01*
X18061739Y15373300D01*
X18056400Y15373300D01*
X17989361Y15392985D01*
X17943606Y15445789D01*
X17932400Y15497300D01*
X17932400Y15765570D01*
X17952085Y15832609D01*
X18001938Y15876970D01*
X18075361Y15912864D01*
X18164636Y16002139D01*
X18220087Y16115565D01*
X18230800Y16189096D01*
X18230800Y16810904D01*
X18220087Y16884435D01*
X18164636Y16997861D01*
X18164635Y16997862D01*
X18164635Y16997863D01*
X18075361Y17087137D01*
X18001939Y17123031D01*
X17950357Y17170159D01*
X17932400Y17234431D01*
X17932400Y18914445D01*
X17952085Y18981484D01*
X18004889Y19027239D01*
X18024291Y19034215D01*
X18041897Y19038932D01*
X18146403Y19099268D01*
X18231732Y19184597D01*
X18292068Y19289103D01*
X18323300Y19405664D01*
X18323300Y19526336D01*
X18292068Y19642897D01*
X18231732Y19747403D01*
X18146403Y19832732D01*
X18041897Y19893068D01*
X17925336Y19924300D01*
X17804664Y19924300D01*
X17688103Y19893068D01*
X17688102Y19893068D01*
X17583598Y19832733D01*
X17583595Y19832731D01*
X17498269Y19747405D01*
X17498267Y19747402D01*
X17437932Y19642898D01*
X17437932Y19642897D01*
X17406700Y19526336D01*
X17406700Y19420787D01*
X17393032Y19369772D01*
X17394785Y19369046D01*
X17391676Y19361542D01*
X17372600Y19290349D01*
X17372600Y17234431D01*
X17352915Y17167392D01*
X17303061Y17123031D01*
X17229639Y17087137D01*
X17229638Y17087137D01*
X17140364Y16997863D01*
X17084913Y16884437D01*
X17084913Y16884435D01*
X17074200Y16810904D01*
X17074200Y16189096D01*
X17083382Y16126070D01*
X17084913Y16115564D01*
X17140364Y16002138D01*
X17229637Y15912865D01*
X17229638Y15912865D01*
X17229639Y15912864D01*
X17303061Y15876970D01*
X17354642Y15829843D01*
X17372600Y15765570D01*
X17372600Y15418422D01*
X17352915Y15351383D01*
X17304896Y15307938D01*
X17289989Y15300343D01*
X17199661Y15210015D01*
X17199658Y15210010D01*
X17141656Y15096178D01*
X17126700Y15001745D01*
X17126700Y14488263D01*
X17136121Y14428781D01*
X17141658Y14393820D01*
X17199657Y14279991D01*
X17199659Y14279989D01*
X17199661Y14279986D01*
X17289985Y14189662D01*
X17289987Y14189661D01*
X17289991Y14189657D01*
X17381486Y14143038D01*
X17403822Y14131657D01*
X17413104Y14128641D01*
X17412697Y14127391D01*
X17466765Y14101764D01*
X17503701Y14042455D01*
X17502708Y13972592D01*
X17464102Y13914357D01*
X17427574Y13893033D01*
X17298077Y13844732D01*
X17298075Y13844731D01*
X17187814Y13762189D01*
X17187811Y13762186D01*
X17105269Y13651925D01*
X17105267Y13651922D01*
X17057134Y13522873D01*
X17057133Y13522868D01*
X17051000Y13465837D01*
X17051000Y13398200D01*
X17656000Y13398200D01*
X17723039Y13378515D01*
X17768794Y13325711D01*
X17780000Y13274200D01*
X17780000Y13195000D01*
X17859200Y13195000D01*
X17926239Y13175315D01*
X17971994Y13122511D01*
X17983200Y13071000D01*
X17983200Y12491000D01*
X18075820Y12491000D01*
X18075836Y12491001D01*
X18132867Y12497134D01*
X18132869Y12497134D01*
X18247765Y12539989D01*
X18278375Y12542179D01*
X18308747Y12546546D01*
X18312900Y12544650D01*
X18317457Y12544975D01*
X18344390Y12530269D01*
X18372303Y12517521D01*
X18374772Y12513679D01*
X18378780Y12511490D01*
X18393485Y12484560D01*
X18410077Y12458743D01*
X18410968Y12452545D01*
X18412266Y12450168D01*
X18415100Y12423808D01*
X18415100Y12327300D01*
X18395415Y12260261D01*
X18378781Y12239619D01*
X17428525Y11289364D01*
X17428523Y11289361D01*
X17391675Y11225538D01*
X17391673Y11225533D01*
X17381095Y11186055D01*
X17344730Y11126395D01*
X17315782Y11106750D01*
X17229639Y11064637D01*
X17229638Y11064637D01*
X17140364Y10975363D01*
X17084913Y10861937D01*
X17082826Y10847611D01*
X17074200Y10788404D01*
X17074200Y10788399D01*
X17074200Y10667000D01*
X17054515Y10599961D01*
X17001711Y10554206D01*
X16932553Y10544262D01*
X16868997Y10573287D01*
X16862519Y10579319D01*
X16740363Y10701475D01*
X16740362Y10701476D01*
X16676537Y10738325D01*
X16663341Y10741861D01*
X16603682Y10778228D01*
X16573155Y10841076D01*
X16572745Y10843686D01*
X16570087Y10861935D01*
X16514636Y10975361D01*
X16514635Y10975362D01*
X16514635Y10975363D01*
X16425362Y11064636D01*
X16311936Y11120087D01*
X16301430Y11121618D01*
X16238404Y11130800D01*
X15766596Y11130800D01*
X15711447Y11122766D01*
X15693063Y11120087D01*
X15579637Y11064636D01*
X15490364Y10975363D01*
X15434911Y10861933D01*
X15432070Y10852735D01*
X15430426Y10853243D01*
X15406001Y10800023D01*
X15347153Y10762358D01*
X15312440Y10757400D01*
X14348800Y10757400D01*
X14281761Y10777085D01*
X14261119Y10793719D01*
X13670318Y11384520D01*
X13636833Y11445843D01*
X13641817Y11515535D01*
X13683689Y11571468D01*
X13749153Y11595885D01*
X13757977Y11596201D01*
X14161560Y11596201D01*
X14213569Y11606545D01*
X14272547Y11645953D01*
X14295295Y11679998D01*
X14348905Y11724802D01*
X14418229Y11733511D01*
X14481257Y11703357D01*
X14486077Y11698788D01*
X14492597Y11692268D01*
X14597103Y11631932D01*
X14713664Y11600700D01*
X14713666Y11600700D01*
X14834334Y11600700D01*
X14834336Y11600700D01*
X14950897Y11631932D01*
X15055403Y11692268D01*
X15140732Y11777597D01*
X15201068Y11882103D01*
X15232300Y11998664D01*
X15232300Y12119336D01*
X15201068Y12235897D01*
X15140732Y12340403D01*
X15055403Y12425732D01*
X14950897Y12486068D01*
X14834336Y12517300D01*
X14713664Y12517300D01*
X14597103Y12486068D01*
X14597102Y12486068D01*
X14492598Y12425733D01*
X14492597Y12425733D01*
X14488477Y12421612D01*
X14427152Y12388130D01*
X14357461Y12393118D01*
X14301529Y12434993D01*
X14297699Y12440406D01*
X14272547Y12478047D01*
X14259613Y12486689D01*
X14213569Y12517455D01*
X14213568Y12517456D01*
X14213567Y12517456D01*
X14213566Y12517457D01*
X14161563Y12527800D01*
X13638441Y12527800D01*
X13586429Y12517455D01*
X13586426Y12517453D01*
X13568887Y12505734D01*
X13502210Y12484858D01*
X13434830Y12503344D01*
X13431110Y12505735D01*
X13413569Y12517455D01*
X13413566Y12517457D01*
X13361563Y12527800D01*
X12838441Y12527800D01*
X12786429Y12517455D01*
X12786426Y12517453D01*
X12768887Y12505734D01*
X12762283Y12503667D01*
X12757298Y12498871D01*
X12729372Y12493363D01*
X12702210Y12484858D01*
X12695538Y12486689D01*
X12688750Y12485349D01*
X12648386Y12499625D01*
X12634830Y12503344D01*
X12633414Y12504920D01*
X12631110Y12505735D01*
X12613569Y12517455D01*
X12613566Y12517457D01*
X12561563Y12527800D01*
X12038441Y12527800D01*
X12038434Y12527799D01*
X12008594Y12521864D01*
X11977984Y12524605D01*
X11947240Y12525183D01*
X11941659Y12527857D01*
X11939003Y12528094D01*
X11915855Y12540218D01*
X11915518Y12540379D01*
X11843103Y12588764D01*
X11843103Y12588765D01*
X11769021Y12603500D01*
X11703200Y12603500D01*
X11296800Y12603500D01*
X11296799Y12603501D01*
X11230986Y12603500D01*
X11230985Y12603500D01*
X11156893Y12588763D01*
X11156890Y12588762D01*
X11072876Y12532624D01*
X11016736Y12448605D01*
X11016735Y12448604D01*
X11002000Y12374522D01*
X9939500Y12374522D01*
X9948092Y12386434D01*
X9953623Y12390491D01*
X9974754Y12405105D01*
X9994569Y12409045D01*
X10053547Y12448453D01*
X10092955Y12507431D01*
X10093763Y12511490D01*
X10103299Y12559435D01*
X10103300Y12559439D01*
X10103299Y14170336D01*
X11034700Y14170336D01*
X11034700Y14049664D01*
X11065932Y13933103D01*
X11089066Y13893033D01*
X11094887Y13882952D01*
X11099037Y13867464D01*
X11106477Y13855887D01*
X11111500Y13820952D01*
X11111500Y13767787D01*
X11091815Y13700748D01*
X11090604Y13698899D01*
X11088045Y13695070D01*
X11088043Y13695067D01*
X11077700Y13643066D01*
X11077700Y13032942D01*
X11081845Y13012104D01*
X11088045Y12980931D01*
X11127453Y12921953D01*
X11186431Y12882545D01*
X11186432Y12882545D01*
X11186433Y12882544D01*
X11217578Y12876350D01*
X11238439Y12872200D01*
X11761560Y12872201D01*
X11791404Y12878137D01*
X11822016Y12875397D01*
X11852759Y12874818D01*
X11858328Y12872147D01*
X11860993Y12871908D01*
X11884481Y12859622D01*
X11956896Y12811237D01*
X11956896Y12811236D01*
X12030979Y12796501D01*
X12096799Y12796502D01*
X12096800Y12796502D01*
X12096800Y13879500D01*
X12503200Y13879500D01*
X12503200Y12796501D01*
X12569015Y12796501D01*
X12643106Y12811238D01*
X12643109Y12811239D01*
X12715516Y12859620D01*
X12722120Y12861689D01*
X12727108Y12866485D01*
X12755032Y12871994D01*
X12782193Y12880498D01*
X12793168Y12879517D01*
X12795656Y12880007D01*
X12797988Y12879086D01*
X12808596Y12878137D01*
X12838439Y12872200D01*
X13361560Y12872201D01*
X13413569Y12882545D01*
X13472547Y12921953D01*
X13483431Y12938243D01*
X13537038Y12983046D01*
X13606363Y12991756D01*
X13669391Y12961603D01*
X13674213Y12957033D01*
X13719235Y12912011D01*
X13719243Y12912004D01*
X13763330Y12882545D01*
X13763332Y12882544D01*
X13797923Y12875665D01*
X13815339Y12872200D01*
X14161560Y12872201D01*
X14213569Y12882545D01*
X14272547Y12921953D01*
X14274024Y12924164D01*
X15146000Y12924164D01*
X15152133Y12867133D01*
X15152134Y12867128D01*
X15200267Y12738079D01*
X15200269Y12738076D01*
X15282811Y12627815D01*
X15282814Y12627812D01*
X15393075Y12545270D01*
X15393078Y12545268D01*
X15522127Y12497135D01*
X15522132Y12497134D01*
X15579163Y12491001D01*
X15579180Y12491000D01*
X15671800Y12491000D01*
X16078200Y12491000D01*
X16170820Y12491000D01*
X16170836Y12491001D01*
X16227867Y12497134D01*
X16227872Y12497135D01*
X16356921Y12545268D01*
X16356924Y12545270D01*
X16467185Y12627812D01*
X16467188Y12627815D01*
X16549730Y12738076D01*
X16549732Y12738079D01*
X16597865Y12867128D01*
X16597866Y12867133D01*
X16603999Y12924164D01*
X17051000Y12924164D01*
X17057133Y12867133D01*
X17057134Y12867128D01*
X17105267Y12738079D01*
X17105269Y12738076D01*
X17187811Y12627815D01*
X17187814Y12627812D01*
X17298075Y12545270D01*
X17298078Y12545268D01*
X17427127Y12497135D01*
X17427132Y12497134D01*
X17484163Y12491001D01*
X17484180Y12491000D01*
X17576800Y12491000D01*
X17576800Y12991800D01*
X17051000Y12991800D01*
X17051000Y12924164D01*
X16603999Y12924164D01*
X16604000Y12924185D01*
X16604000Y12991800D01*
X16078200Y12991800D01*
X16078200Y12491000D01*
X15671800Y12491000D01*
X15671800Y12991800D01*
X15146000Y12991800D01*
X15146000Y12924164D01*
X14274024Y12924164D01*
X14311955Y12980931D01*
X14318156Y13012103D01*
X14322299Y13032935D01*
X14322300Y13032938D01*
X14322300Y13043162D01*
X14322299Y13643059D01*
X14319387Y13657700D01*
X14311955Y13695069D01*
X14272547Y13754047D01*
X14243718Y13773310D01*
X14198914Y13826921D01*
X14190207Y13896246D01*
X14220361Y13959274D01*
X14224910Y13964073D01*
X14689619Y14428781D01*
X14750942Y14462266D01*
X14777300Y14465100D01*
X15124352Y14465100D01*
X15191391Y14445415D01*
X15234837Y14397395D01*
X15236657Y14393822D01*
X15236658Y14393820D01*
X15294657Y14279991D01*
X15294659Y14279989D01*
X15294661Y14279986D01*
X15384985Y14189662D01*
X15384987Y14189661D01*
X15384991Y14189657D01*
X15476486Y14143038D01*
X15498822Y14131657D01*
X15508104Y14128641D01*
X15507697Y14127391D01*
X15561765Y14101764D01*
X15598701Y14042455D01*
X15597708Y13972592D01*
X15559102Y13914357D01*
X15522574Y13893033D01*
X15393077Y13844732D01*
X15393075Y13844731D01*
X15282814Y13762189D01*
X15282811Y13762186D01*
X15200269Y13651925D01*
X15200267Y13651922D01*
X15152134Y13522873D01*
X15152133Y13522868D01*
X15146000Y13465837D01*
X15146000Y13398200D01*
X16604000Y13398200D01*
X16604000Y13465820D01*
X16603999Y13465837D01*
X16597866Y13522868D01*
X16597865Y13522873D01*
X16549732Y13651922D01*
X16549730Y13651925D01*
X16467188Y13762186D01*
X16467185Y13762189D01*
X16356923Y13844731D01*
X16227424Y13893033D01*
X16171491Y13934904D01*
X16147075Y14000369D01*
X16161927Y14068642D01*
X16211333Y14118047D01*
X16241947Y14128479D01*
X16241895Y14128641D01*
X16251176Y14131657D01*
X16251177Y14131658D01*
X16251180Y14131658D01*
X16365009Y14189657D01*
X16455343Y14279991D01*
X16513342Y14393820D01*
X16513342Y14393822D01*
X16513343Y14393823D01*
X16526976Y14479900D01*
X16528300Y14488261D01*
X16528299Y15001738D01*
X16513342Y15096180D01*
X16455343Y15210009D01*
X16455339Y15210013D01*
X16455338Y15210015D01*
X16365010Y15300343D01*
X16350104Y15307938D01*
X16299309Y15355912D01*
X16282400Y15418422D01*
X16282400Y15765570D01*
X16302085Y15832609D01*
X16351938Y15876970D01*
X16425361Y15912864D01*
X16514636Y16002139D01*
X16570087Y16115565D01*
X16580800Y16189096D01*
X16580800Y16810904D01*
X16570087Y16884435D01*
X16514636Y16997861D01*
X16514635Y16997862D01*
X16514635Y16997863D01*
X16425362Y17087136D01*
X16311936Y17142587D01*
X16301430Y17144118D01*
X16238404Y17153300D01*
X15766596Y17153300D01*
X15711447Y17145266D01*
X15693063Y17142587D01*
X15579637Y17087136D01*
X15490364Y16997863D01*
X15434913Y16884437D01*
X15434913Y16884435D01*
X15424200Y16810904D01*
X15424200Y16189096D01*
X15433382Y16126070D01*
X15434913Y16115564D01*
X15490364Y16002138D01*
X15579637Y15912865D01*
X15579638Y15912865D01*
X15579639Y15912864D01*
X15653061Y15876970D01*
X15704642Y15829843D01*
X15722600Y15765570D01*
X15722600Y15497300D01*
X15702915Y15430261D01*
X15650111Y15384506D01*
X15598612Y15373300D01*
X15593265Y15373300D01*
X15520712Y15361810D01*
X15498820Y15358342D01*
X15384991Y15300343D01*
X15384990Y15300342D01*
X15384985Y15300339D01*
X15294661Y15210015D01*
X15294658Y15210010D01*
X15294657Y15210009D01*
X15236658Y15096180D01*
X15236657Y15096179D01*
X15234837Y15092605D01*
X15186862Y15041809D01*
X15124352Y15024900D01*
X14646850Y15024900D01*
X14573150Y15024900D01*
X14525692Y15012184D01*
X14501962Y15005825D01*
X14438139Y14968977D01*
X14438136Y14968975D01*
X13676025Y14206864D01*
X13676023Y14206861D01*
X13639175Y14143038D01*
X13623675Y14085190D01*
X13587309Y14025529D01*
X13524462Y13995001D01*
X13455086Y14003296D01*
X13401209Y14047782D01*
X13379935Y14114334D01*
X13379900Y14117284D01*
X13379900Y17311700D01*
X13399585Y17378739D01*
X13416219Y17399381D01*
X16058220Y20041381D01*
X16119543Y20074866D01*
X16145901Y20077700D01*
X16210334Y20077700D01*
X16210336Y20077700D01*
X16326897Y20108932D01*
X16431403Y20169268D01*
X16516732Y20254597D01*
X16577068Y20359103D01*
X16608300Y20475664D01*
X16608300Y20596336D01*
X16577068Y20712897D01*
X16516732Y20817403D01*
X16431403Y20902732D01*
X16326897Y20963068D01*
X16210336Y20994300D01*
X16089664Y20994300D01*
X15973103Y20963068D01*
X15973102Y20963068D01*
X15868598Y20902733D01*
X15868595Y20902731D01*
X15783269Y20817405D01*
X15783267Y20817402D01*
X15722932Y20712898D01*
X15722932Y20712897D01*
X15691700Y20596336D01*
X15691700Y20517902D01*
X15672015Y20450863D01*
X15655381Y20430221D01*
X12928138Y17702976D01*
X12876025Y17650864D01*
X12876023Y17650861D01*
X12839175Y17587038D01*
X12820100Y17515849D01*
X12820100Y13977029D01*
X12800415Y13909990D01*
X12747611Y13864235D01*
X12678453Y13854291D01*
X12648648Y13862468D01*
X12643105Y13864764D01*
X12569021Y13879500D01*
X12503200Y13879500D01*
X12096800Y13879500D01*
X12096799Y13879501D01*
X12067306Y13879500D01*
X12000266Y13899184D01*
X11954510Y13951987D01*
X11944566Y14021146D01*
X11947530Y14035595D01*
X11949368Y14042455D01*
X11951300Y14049664D01*
X11951300Y14170336D01*
X11920068Y14286897D01*
X11859732Y14391403D01*
X11774403Y14476732D01*
X11669897Y14537068D01*
X11553336Y14568300D01*
X11432664Y14568300D01*
X11316103Y14537068D01*
X11316102Y14537068D01*
X11211598Y14476733D01*
X11211595Y14476731D01*
X11126269Y14391405D01*
X11126267Y14391402D01*
X11065932Y14286898D01*
X11065932Y14286897D01*
X11034700Y14170336D01*
X10103299Y14170336D01*
X10103299Y14494560D01*
X10092955Y14546569D01*
X10053547Y14605547D01*
X10014990Y14631310D01*
X9970187Y14684922D01*
X9961480Y14754247D01*
X9964104Y14766489D01*
X9981300Y14830664D01*
X9981300Y14951336D01*
X9950068Y15067897D01*
X9889732Y15172403D01*
X9804403Y15257732D01*
X9699897Y15318068D01*
X9583336Y15349300D01*
X9462664Y15349300D01*
X9346103Y15318068D01*
X9346102Y15318068D01*
X9241598Y15257733D01*
X9241595Y15257731D01*
X9156269Y15172405D01*
X9156267Y15172402D01*
X9095932Y15067898D01*
X9095932Y15067897D01*
X9064700Y14951336D01*
X9064700Y14830664D01*
X9081891Y14766505D01*
X9082499Y14764237D01*
X9080836Y14694387D01*
X9041673Y14636525D01*
X9031616Y14629043D01*
X8996453Y14605548D01*
X8957044Y14546568D01*
X8957043Y14546567D01*
X8946700Y14494566D01*
X7962900Y14494566D01*
X7962900Y15613700D01*
X7982585Y15680739D01*
X7999219Y15701381D01*
X10073619Y17775781D01*
X10134942Y17809266D01*
X10161300Y17812100D01*
X11861848Y17812100D01*
X11861850Y17812100D01*
X11933037Y17831175D01*
X11996862Y17868024D01*
X13876476Y19747637D01*
X13913325Y19811462D01*
X13932400Y19882650D01*
X13932400Y19956350D01*
X13932400Y21344940D01*
X13952085Y21411979D01*
X14004889Y21457734D01*
X14027764Y21464475D01*
X14027735Y21464570D01*
X14036932Y21467412D01*
X14036933Y21467413D01*
X14036935Y21467413D01*
X14150361Y21522864D01*
X14239636Y21612139D01*
X14257742Y21649175D01*
X14275531Y21685561D01*
X14286476Y21697541D01*
X14293218Y21712303D01*
X14309558Y21722805D01*
X14322659Y21737143D01*
X14338954Y21741696D01*
X14351996Y21750077D01*
X14386931Y21755100D01*
X14440201Y21755100D01*
X14507240Y21735415D01*
X14552995Y21682611D01*
X14564201Y21631100D01*
X14564201Y21492440D01*
X14574545Y21440431D01*
X14613953Y21381453D01*
X14672931Y21342045D01*
X14672932Y21342045D01*
X14672933Y21342044D01*
X14695991Y21337458D01*
X14724939Y21331700D01*
X15660060Y21331701D01*
X15712069Y21342045D01*
X15771047Y21381453D01*
X15810455Y21440431D01*
X15812009Y21448240D01*
X15820799Y21492435D01*
X15820800Y21492438D01*
X15820800Y21506100D01*
X15840485Y21573139D01*
X15893289Y21618894D01*
X15944800Y21630100D01*
X17230700Y21630100D01*
X17297739Y21610415D01*
X17318381Y21593781D01*
X21482781Y17429381D01*
X21516266Y17368058D01*
X21519100Y17341700D01*
X21519100Y14618300D01*
X21510455Y14588860D01*
X21503932Y14558873D01*
X21500177Y14553858D01*
X21499415Y14551261D01*
X21482781Y14530619D01*
X21468381Y14516219D01*
X21407058Y14482734D01*
X21380700Y14479900D01*
X21282555Y14479900D01*
X21215516Y14499585D01*
X21169761Y14552389D01*
X21167829Y14558372D01*
X21167627Y14558288D01*
X21162955Y14569568D01*
X21162955Y14569569D01*
X21123547Y14628547D01*
X21064569Y14667955D01*
X21064568Y14667956D01*
X21064567Y14667956D01*
X21064566Y14667957D01*
X21012563Y14678300D01*
X19627441Y14678300D01*
X19575430Y14667955D01*
X19556490Y14655299D01*
X19516455Y14628548D01*
X19516452Y14628546D01*
X19477044Y14569568D01*
X19477043Y14569567D01*
X19466700Y14517566D01*
X19466700Y13882442D01*
X19472322Y13854177D01*
X19477045Y13830431D01*
X19516453Y13771453D01*
X19516454Y13771453D01*
X19518165Y13768892D01*
X19539043Y13702214D01*
X19520559Y13634834D01*
X19518165Y13631109D01*
X19477044Y13569568D01*
X19477043Y13569567D01*
X19466700Y13517566D01*
X19466700Y12882442D01*
X19474976Y12840834D01*
X19477045Y12830431D01*
X19516453Y12771453D01*
X19516454Y12771453D01*
X19518165Y12768892D01*
X19539043Y12702214D01*
X19520559Y12634834D01*
X19518165Y12631109D01*
X19477044Y12569568D01*
X19477043Y12569567D01*
X19466700Y12517566D01*
X19466700Y11882442D01*
X19477045Y11830430D01*
X19481720Y11819144D01*
X19479011Y11818023D01*
X19494312Y11769153D01*
X19475826Y11701773D01*
X19466252Y11689673D01*
X19405736Y11599105D01*
X19405735Y11599104D01*
X19391000Y11525022D01*
X19391000Y11403200D01*
X21248999Y11403200D01*
X21248999Y11525015D01*
X21235256Y11594111D01*
X21241485Y11663702D01*
X21284349Y11718879D01*
X21350239Y11742122D01*
X21356874Y11742300D01*
X21735244Y11742300D01*
X21767335Y11738076D01*
X21783664Y11733700D01*
X21783666Y11733700D01*
X21904334Y11733700D01*
X21904336Y11733700D01*
X22020897Y11764932D01*
X22125403Y11825268D01*
X22210732Y11910597D01*
X22271068Y12015103D01*
X22302300Y12131664D01*
X22302300Y12252336D01*
X22271068Y12368897D01*
X22210732Y12473403D01*
X22125403Y12558732D01*
X22122911Y12561224D01*
X22118190Y12565364D01*
X22117028Y12566256D01*
X22012672Y12626505D01*
X22012667Y12626508D01*
X21973863Y12636906D01*
X21896258Y12657700D01*
X21896257Y12657700D01*
X21896256Y12657700D01*
X21276986Y12657700D01*
X21246854Y12666548D01*
X21216249Y12673594D01*
X21213593Y12676315D01*
X21209947Y12677385D01*
X21189385Y12701114D01*
X21167444Y12723592D01*
X21166680Y12727317D01*
X21164192Y12730189D01*
X21159722Y12761275D01*
X21153418Y12792040D01*
X21154599Y12796906D01*
X21154248Y12799347D01*
X21161336Y12826434D01*
X21162781Y12830172D01*
X21162955Y12830431D01*
X21163032Y12830820D01*
X21166906Y12840834D01*
X21181914Y12860387D01*
X21193342Y12882221D01*
X21202812Y12887612D01*
X21209450Y12896258D01*
X21232648Y12904593D01*
X21254065Y12916782D01*
X21272577Y12918938D01*
X21275205Y12919882D01*
X21277045Y12919459D01*
X21282556Y12920100D01*
X21685848Y12920100D01*
X21685850Y12920100D01*
X21757037Y12939175D01*
X21820862Y12976024D01*
X22503976Y13659138D01*
X22540825Y13722963D01*
X22559900Y13794150D01*
X22559900Y13867850D01*
X22559900Y17866850D01*
X22540825Y17938037D01*
X22503976Y18001862D01*
X22451862Y18053976D01*
X20051219Y20454619D01*
X20017734Y20515942D01*
X20014900Y20542300D01*
X20014900Y22978005D01*
X21059500Y22978005D01*
X21059500Y22741996D01*
X21059501Y22741980D01*
X21089699Y22512597D01*
X21090307Y22507986D01*
X21115161Y22415231D01*
X21151394Y22280007D01*
X21241714Y22061955D01*
X21241719Y22061944D01*
X21312677Y21939043D01*
X21359727Y21857550D01*
X21359729Y21857547D01*
X21359730Y21857546D01*
X21503406Y21670303D01*
X21503412Y21670296D01*
X21670295Y21503413D01*
X21670302Y21503407D01*
X21730669Y21457086D01*
X21857550Y21359727D01*
X21950016Y21306342D01*
X22061943Y21241720D01*
X22061948Y21241718D01*
X22061951Y21241716D01*
X22280007Y21151394D01*
X22507986Y21090307D01*
X22741989Y21059500D01*
X22741996Y21059500D01*
X22978004Y21059500D01*
X22978011Y21059500D01*
X23212014Y21090307D01*
X23439993Y21151394D01*
X23658049Y21241716D01*
X23862450Y21359727D01*
X24049699Y21503408D01*
X24216592Y21670301D01*
X24360273Y21857550D01*
X24478284Y22061951D01*
X24568606Y22280007D01*
X24629693Y22507986D01*
X24660500Y22741989D01*
X24660500Y22978011D01*
X24629693Y23212014D01*
X24568606Y23439993D01*
X24478284Y23658049D01*
X24478282Y23658052D01*
X24478280Y23658057D01*
X24426942Y23746976D01*
X24360273Y23862450D01*
X24285772Y23959542D01*
X24216593Y24049698D01*
X24216587Y24049705D01*
X24049704Y24216588D01*
X24049697Y24216594D01*
X23862454Y24360270D01*
X23862453Y24360271D01*
X23862450Y24360273D01*
X23779810Y24407985D01*
X23658056Y24478281D01*
X23658045Y24478286D01*
X23439993Y24568606D01*
X23212010Y24629694D01*
X22978020Y24660499D01*
X22978017Y24660500D01*
X22978011Y24660500D01*
X22741989Y24660500D01*
X22741983Y24660500D01*
X22741979Y24660499D01*
X22507989Y24629694D01*
X22280006Y24568606D01*
X22061954Y24478286D01*
X22061943Y24478281D01*
X21857545Y24360270D01*
X21670302Y24216594D01*
X21670295Y24216588D01*
X21503412Y24049705D01*
X21503406Y24049698D01*
X21359730Y23862455D01*
X21241719Y23658057D01*
X21241714Y23658046D01*
X21151394Y23439994D01*
X21090306Y23212011D01*
X21059501Y22978021D01*
X21059500Y22978005D01*
X20014900Y22978005D01*
X20014900Y23998849D01*
X20011403Y24011900D01*
X19995825Y24070037D01*
X19958976Y24133862D01*
X19906862Y24185976D01*
X19307862Y24784976D01*
X19244037Y24821825D01*
X19244038Y24821825D01*
X19220308Y24828184D01*
X19172850Y24840900D01*
X10747850Y24840900D01*
X10674150Y24840900D01*
X10626692Y24828184D01*
X10602962Y24821825D01*
X10539139Y24784977D01*
X10539136Y24784975D01*
X10253759Y24499598D01*
X10192436Y24466113D01*
X10122744Y24471097D01*
X10066811Y24512969D01*
X10046305Y24555183D01*
X10015568Y24669897D01*
X9955232Y24774403D01*
X9869903Y24859732D01*
X9765397Y24920068D01*
X9648836Y24951300D01*
X9528164Y24951300D01*
X9411603Y24920068D01*
X9411602Y24920068D01*
X9307098Y24859733D01*
X9307095Y24859731D01*
X9256582Y24809218D01*
X9195259Y24775734D01*
X9179202Y24774008D01*
X9179209Y24773961D01*
X9171152Y24772901D01*
X9099962Y24753825D01*
X9036139Y24716977D01*
X9036136Y24716975D01*
X8743780Y24424619D01*
X8682457Y24391134D01*
X8656099Y24388300D01*
X8393900Y24388300D01*
X8326861Y24407985D01*
X8306219Y24424619D01*
X7994863Y24735975D01*
X7994862Y24735976D01*
X7931037Y24772825D01*
X7931038Y24772825D01*
X7907308Y24779184D01*
X7859850Y24791900D01*
X6576850Y24791900D01*
X6503150Y24791900D01*
X6455692Y24779184D01*
X6431962Y24772825D01*
X6368139Y24735977D01*
X6368136Y24735975D01*
X5353025Y23720864D01*
X5353023Y23720861D01*
X5316175Y23657038D01*
X5309208Y23631038D01*
X5301990Y23604097D01*
X5297100Y23585849D01*
X5297100Y21577301D01*
X5277415Y21510262D01*
X5260781Y21489620D01*
X3580381Y19809219D01*
X3519058Y19775734D01*
X3492700Y19772900D01*
X3019850Y19772900D01*
X2946150Y19772900D01*
X2898692Y19760184D01*
X2874962Y19753825D01*
X2811139Y19716977D01*
X2811136Y19716975D01*
X1902779Y18808619D01*
X1841456Y18775134D01*
X1771764Y18780118D01*
X1758812Y18785812D01*
X1699201Y18816184D01*
X1699200Y18816185D01*
X1699197Y18816186D01*
X1531823Y18870568D01*
X1444909Y18884334D01*
X1357996Y18898100D01*
X1182004Y18898100D01*
X1124062Y18888923D01*
X1008176Y18870568D01*
X840801Y18816186D01*
X840798Y18816185D01*
X683987Y18736285D01*
X602753Y18677265D01*
X541607Y18632839D01*
X541605Y18632837D01*
X541604Y18632837D01*
X415381Y18506613D01*
X354058Y18473128D01*
X284366Y18478112D01*
X228433Y18519984D01*
X204016Y18585448D01*
X203700Y18594294D01*
X203700Y22978005D01*
X739500Y22978005D01*
X739500Y22741996D01*
X739501Y22741980D01*
X769699Y22512597D01*
X770307Y22507986D01*
X795161Y22415231D01*
X831394Y22280007D01*
X921714Y22061955D01*
X921719Y22061944D01*
X992677Y21939043D01*
X1039727Y21857550D01*
X1039729Y21857547D01*
X1039730Y21857546D01*
X1183406Y21670303D01*
X1183412Y21670296D01*
X1350295Y21503413D01*
X1350302Y21503407D01*
X1410669Y21457086D01*
X1537550Y21359727D01*
X1630016Y21306342D01*
X1741943Y21241720D01*
X1741948Y21241718D01*
X1741951Y21241716D01*
X1960007Y21151394D01*
X2187986Y21090307D01*
X2421989Y21059500D01*
X2421996Y21059500D01*
X2658004Y21059500D01*
X2658011Y21059500D01*
X2892014Y21090307D01*
X3119993Y21151394D01*
X3338049Y21241716D01*
X3542450Y21359727D01*
X3729699Y21503408D01*
X3896592Y21670301D01*
X4040273Y21857550D01*
X4158284Y22061951D01*
X4248606Y22280007D01*
X4309693Y22507986D01*
X4340500Y22741989D01*
X4340500Y22978011D01*
X4309693Y23212014D01*
X4248606Y23439993D01*
X4158284Y23658049D01*
X4158282Y23658052D01*
X4158280Y23658057D01*
X4106942Y23746976D01*
X4040273Y23862450D01*
X3965772Y23959542D01*
X3896593Y24049698D01*
X3896587Y24049705D01*
X3729704Y24216588D01*
X3729697Y24216594D01*
X3542454Y24360270D01*
X3542453Y24360271D01*
X3542450Y24360273D01*
X3459810Y24407985D01*
X3338056Y24478281D01*
X3338045Y24478286D01*
X3119993Y24568606D01*
X2892010Y24629694D01*
X2658020Y24660499D01*
X2658017Y24660500D01*
X2658011Y24660500D01*
X2421989Y24660500D01*
X2421983Y24660500D01*
X2421979Y24660499D01*
X2187989Y24629694D01*
X1960006Y24568606D01*
X1741954Y24478286D01*
X1741943Y24478281D01*
X1537545Y24360270D01*
X1350302Y24216594D01*
X1350295Y24216588D01*
X1183412Y24049705D01*
X1183406Y24049698D01*
X1039730Y23862455D01*
X921719Y23658057D01*
X921714Y23658046D01*
X831394Y23439994D01*
X770306Y23212011D01*
X739501Y22978021D01*
X739500Y22978005D01*
X203700Y22978005D01*
X203700Y24221309D01*
X223385Y24288348D01*
X276189Y24334103D01*
X345347Y24344047D01*
X389698Y24328697D01*
X441814Y24298608D01*
X569108Y24264500D01*
X569110Y24264500D01*
X700890Y24264500D01*
X700892Y24264500D01*
X828186Y24298608D01*
X942314Y24364500D01*
X1035500Y24457686D01*
X1101392Y24571814D01*
X1135500Y24699108D01*
X1135500Y24830892D01*
X1101392Y24958186D01*
X1071303Y25010301D01*
X1054831Y25078199D01*
X1077683Y25144226D01*
X1132604Y25187417D01*
X1178691Y25196300D01*
X25072300Y25196300D01*
X25139339Y25176615D01*
G37*
%TD.AperFunction*%
%TA.AperFunction,Conductor*%
G36*
X6251034Y23724682D02*
G01*
X6306967Y23682810D01*
X6331384Y23617346D01*
X6331700Y23608500D01*
X6331700Y23449096D01*
X6339955Y23392439D01*
X6342413Y23375564D01*
X6397864Y23262138D01*
X6487137Y23172865D01*
X6487138Y23172865D01*
X6487139Y23172864D01*
X6600565Y23117413D01*
X6674096Y23106700D01*
X7116100Y23106700D01*
X7145540Y23098056D01*
X7175527Y23091532D01*
X7180542Y23087778D01*
X7183139Y23087015D01*
X7203781Y23070381D01*
X7289447Y22984715D01*
X7322932Y22923392D01*
X7321542Y22864947D01*
X7318701Y22854343D01*
X7318700Y22854334D01*
X7318700Y22737300D01*
X7299015Y22670261D01*
X7246211Y22624506D01*
X7194700Y22613300D01*
X6674096Y22613300D01*
X6618947Y22605266D01*
X6600563Y22602587D01*
X6487137Y22547136D01*
X6397864Y22457863D01*
X6342413Y22344437D01*
X6339352Y22323427D01*
X6331700Y22270904D01*
X6331700Y21799096D01*
X6336912Y21763323D01*
X6342413Y21725564D01*
X6397864Y21612138D01*
X6487137Y21522865D01*
X6487138Y21522865D01*
X6487139Y21522864D01*
X6596562Y21469370D01*
X6648142Y21422244D01*
X6666100Y21357971D01*
X6666100Y13169300D01*
X6646415Y13102261D01*
X6629781Y13081619D01*
X6107811Y12559650D01*
X6089320Y12549554D01*
X6073648Y12535475D01*
X6059271Y12533146D01*
X6046488Y12526165D01*
X6025472Y12527668D01*
X6004678Y12524298D01*
X5991325Y12530110D01*
X5976796Y12531149D01*
X5959929Y12543776D01*
X5940614Y12552183D01*
X5924016Y12570661D01*
X5920863Y12573021D01*
X5917029Y12578439D01*
X5881835Y12631109D01*
X5860956Y12697786D01*
X5879440Y12765166D01*
X5881835Y12768893D01*
X5883544Y12771452D01*
X5883547Y12771453D01*
X5922955Y12830431D01*
X5925025Y12840834D01*
X5931263Y12872200D01*
X5933300Y12882439D01*
X5933299Y13517560D01*
X5922955Y13569569D01*
X5922954Y13569571D01*
X5918280Y13580856D01*
X5920988Y13581978D01*
X5905687Y13630842D01*
X5924170Y13698223D01*
X5933744Y13710322D01*
X5994263Y13800896D01*
X5994264Y13800897D01*
X6008999Y13874979D01*
X6009000Y13874982D01*
X6009000Y13996800D01*
X4151001Y13996800D01*
X4151001Y13874986D01*
X4164744Y13805889D01*
X4158515Y13736298D01*
X4115651Y13681121D01*
X4049761Y13657878D01*
X4043126Y13657700D01*
X3668743Y13657700D01*
X3614129Y13643066D01*
X3552333Y13626508D01*
X3552330Y13626506D01*
X3508221Y13601041D01*
X3508222Y13601040D01*
X3447970Y13566255D01*
X3447956Y13566244D01*
X3445974Y13564262D01*
X3439080Y13558216D01*
X3351266Y13470401D01*
X3290932Y13365898D01*
X3290932Y13365897D01*
X3259700Y13249336D01*
X3259700Y13128664D01*
X3290932Y13012103D01*
X3351268Y12907597D01*
X3436597Y12822268D01*
X3541103Y12761932D01*
X3657664Y12730700D01*
X3657666Y12730700D01*
X3690043Y12730700D01*
X3778336Y12730700D01*
X3816713Y12740984D01*
X3827920Y12741893D01*
X3837953Y12742300D01*
X4123014Y12742300D01*
X4190053Y12722615D01*
X4235808Y12669811D01*
X4245752Y12600653D01*
X4237573Y12570842D01*
X4237046Y12569572D01*
X4237045Y12569569D01*
X4237045Y12569568D01*
X4232369Y12558280D01*
X4228658Y12559817D01*
X4206658Y12517779D01*
X4145935Y12483218D01*
X4117444Y12479900D01*
X3660572Y12479900D01*
X3645316Y12480900D01*
X3644850Y12480900D01*
X3571150Y12480900D01*
X3527322Y12469156D01*
X3499962Y12461825D01*
X3436139Y12424977D01*
X3436136Y12424975D01*
X2847025Y11835864D01*
X2847023Y11835861D01*
X2810175Y11772038D01*
X2806187Y11757154D01*
X2791348Y11701773D01*
X2791100Y11700849D01*
X2791100Y10651866D01*
X2771415Y10584827D01*
X2718611Y10539072D01*
X2649453Y10529128D01*
X2585897Y10558153D01*
X2563999Y10582974D01*
X2533547Y10628547D01*
X2507424Y10646002D01*
X2474569Y10667955D01*
X2474568Y10667956D01*
X2474567Y10667956D01*
X2474566Y10667957D01*
X2422563Y10678300D01*
X387441Y10678300D01*
X387440Y10678299D01*
X351887Y10671229D01*
X282297Y10677457D01*
X227121Y10720322D01*
X203878Y10786212D01*
X203700Y10792846D01*
X203700Y14525022D01*
X4151000Y14525022D01*
X4151000Y14403200D01*
X4876800Y14403200D01*
X5283200Y14403200D01*
X6008999Y14403200D01*
X6008999Y14525015D01*
X5994262Y14599107D01*
X5994261Y14599110D01*
X5938123Y14683124D01*
X5854104Y14739264D01*
X5854103Y14739265D01*
X5780021Y14754000D01*
X5283200Y14754000D01*
X5283200Y14403200D01*
X4876800Y14403200D01*
X4876800Y14754000D01*
X4379985Y14754000D01*
X4305893Y14739263D01*
X4305890Y14739262D01*
X4221876Y14683124D01*
X4165736Y14599105D01*
X4165735Y14599104D01*
X4151000Y14525022D01*
X203700Y14525022D01*
X203700Y14607154D01*
X223385Y14674193D01*
X276189Y14719948D01*
X345347Y14729892D01*
X351875Y14728774D01*
X387439Y14721700D01*
X2422560Y14721701D01*
X2474569Y14732045D01*
X2533547Y14771453D01*
X2572955Y14830431D01*
X2573002Y14830664D01*
X2583299Y14882435D01*
X2583300Y14882439D01*
X2583299Y16117560D01*
X2572955Y16169569D01*
X2533547Y16228547D01*
X2474569Y16267955D01*
X2474568Y16267956D01*
X2474567Y16267956D01*
X2474566Y16267957D01*
X2422563Y16278300D01*
X387441Y16278300D01*
X387440Y16278299D01*
X351887Y16271229D01*
X282297Y16277457D01*
X227121Y16320322D01*
X203878Y16386212D01*
X203700Y16392846D01*
X203700Y16965706D01*
X223385Y17032745D01*
X276189Y17078500D01*
X345347Y17088444D01*
X408903Y17059419D01*
X415381Y17053387D01*
X417161Y17051607D01*
X541607Y16927161D01*
X683988Y16823715D01*
X760899Y16784527D01*
X840798Y16743816D01*
X840801Y16743815D01*
X924488Y16716624D01*
X1008178Y16689432D01*
X1182004Y16661900D01*
X1182005Y16661900D01*
X1357995Y16661900D01*
X1357996Y16661900D01*
X1531822Y16689432D01*
X1699201Y16743816D01*
X1856012Y16823715D01*
X1998393Y16927161D01*
X2122839Y17051607D01*
X2226285Y17193988D01*
X2306184Y17350799D01*
X2360568Y17518178D01*
X2388100Y17692004D01*
X2388100Y17867996D01*
X2691900Y17867996D01*
X2691900Y17692005D01*
X2719432Y17518177D01*
X2773814Y17350802D01*
X2773815Y17350799D01*
X2833108Y17234431D01*
X2853715Y17193988D01*
X2957161Y17051607D01*
X3081607Y16927161D01*
X3223988Y16823715D01*
X3300899Y16784527D01*
X3380798Y16743816D01*
X3380801Y16743815D01*
X3464488Y16716624D01*
X3548178Y16689432D01*
X3722004Y16661900D01*
X3722005Y16661900D01*
X3897995Y16661900D01*
X3897996Y16661900D01*
X4071822Y16689432D01*
X4239201Y16743816D01*
X4396012Y16823715D01*
X4538393Y16927161D01*
X4662839Y17051607D01*
X4766285Y17193988D01*
X4846184Y17350799D01*
X4900568Y17518178D01*
X4928100Y17692004D01*
X4928100Y17867996D01*
X4900568Y18041822D01*
X4846184Y18209201D01*
X4846184Y18209202D01*
X4791780Y18315975D01*
X4766285Y18366012D01*
X4662839Y18508393D01*
X4538393Y18632839D01*
X4396012Y18736285D01*
X4379075Y18744915D01*
X4239201Y18816185D01*
X4239198Y18816186D01*
X4071823Y18870568D01*
X3984909Y18884334D01*
X3897996Y18898100D01*
X3722004Y18898100D01*
X3664062Y18888923D01*
X3548176Y18870568D01*
X3380801Y18816186D01*
X3380798Y18816185D01*
X3223987Y18736285D01*
X3142753Y18677265D01*
X3081607Y18632839D01*
X3081605Y18632837D01*
X3081604Y18632837D01*
X2957163Y18508396D01*
X2957163Y18508395D01*
X2957161Y18508393D01*
X2912735Y18447247D01*
X2853715Y18366013D01*
X2773815Y18209202D01*
X2773814Y18209199D01*
X2719432Y18041824D01*
X2691900Y17867996D01*
X2388100Y17867996D01*
X2360568Y18041822D01*
X2306184Y18209201D01*
X2275814Y18268806D01*
X2262918Y18337476D01*
X2289194Y18402216D01*
X2298609Y18412773D01*
X3062619Y19176781D01*
X3123942Y19210266D01*
X3150300Y19213100D01*
X3696848Y19213100D01*
X3696850Y19213100D01*
X3768037Y19232175D01*
X3831862Y19269024D01*
X5800976Y21238137D01*
X5837825Y21301962D01*
X5848565Y21342045D01*
X5856900Y21373150D01*
X5856900Y23381700D01*
X5876585Y23448739D01*
X5893219Y23469381D01*
X6120019Y23696181D01*
X6181342Y23729666D01*
X6251034Y23724682D01*
G37*
%TD.AperFunction*%
%TA.AperFunction,Conductor*%
G36*
X11331034Y22356426D02*
G01*
X11386967Y22314554D01*
X11411384Y22249090D01*
X11411700Y22240244D01*
X11411700Y21799096D01*
X11416912Y21763323D01*
X11422413Y21725564D01*
X11477864Y21612138D01*
X11567137Y21522865D01*
X11567138Y21522865D01*
X11567139Y21522864D01*
X11680565Y21467413D01*
X11754096Y21456700D01*
X12248100Y21456700D01*
X12277540Y21448056D01*
X12307527Y21441532D01*
X12312542Y21437778D01*
X12315139Y21437015D01*
X12335781Y21420381D01*
X12357381Y21398781D01*
X12390866Y21337458D01*
X12393700Y21311100D01*
X12393700Y21239664D01*
X12424932Y21123103D01*
X12485268Y21018597D01*
X12570597Y20933268D01*
X12675103Y20872932D01*
X12791664Y20841700D01*
X12791666Y20841700D01*
X12912334Y20841700D01*
X12912336Y20841700D01*
X13028897Y20872932D01*
X13133403Y20933268D01*
X13160919Y20960784D01*
X13222242Y20994269D01*
X13291934Y20989285D01*
X13347867Y20947413D01*
X13372284Y20881949D01*
X13372600Y20873103D01*
X13372600Y20086801D01*
X13352915Y20019762D01*
X13336281Y19999120D01*
X11745381Y18408219D01*
X11684058Y18374734D01*
X11657700Y18371900D01*
X10030850Y18371900D01*
X9957150Y18371900D01*
X9909692Y18359184D01*
X9885962Y18352825D01*
X9822139Y18315977D01*
X9822136Y18315975D01*
X7459025Y15952864D01*
X7459021Y15952859D01*
X7457287Y15949854D01*
X7455159Y15947825D01*
X7454074Y15946411D01*
X7453853Y15946581D01*
X7406721Y15901639D01*
X7338114Y15888415D01*
X7273249Y15914383D01*
X7232720Y15971297D01*
X7225900Y16011854D01*
X7225900Y21339259D01*
X7245585Y21406298D01*
X7298389Y21452053D01*
X7332017Y21461962D01*
X7369435Y21467413D01*
X7482861Y21522864D01*
X7572136Y21612139D01*
X7590242Y21649175D01*
X7608031Y21685561D01*
X7618976Y21697541D01*
X7625718Y21712303D01*
X7642058Y21722805D01*
X7655159Y21737143D01*
X7671454Y21741696D01*
X7684496Y21750077D01*
X7719431Y21755100D01*
X7772701Y21755100D01*
X7839740Y21735415D01*
X7885495Y21682611D01*
X7896701Y21631100D01*
X7896701Y21492440D01*
X7907045Y21440431D01*
X7946453Y21381453D01*
X8005431Y21342045D01*
X8005432Y21342045D01*
X8005433Y21342044D01*
X8028491Y21337458D01*
X8057439Y21331700D01*
X8992560Y21331701D01*
X9044569Y21342045D01*
X9103547Y21381453D01*
X9142955Y21440431D01*
X9144509Y21448240D01*
X9153299Y21492435D01*
X9153300Y21492438D01*
X9153300Y21506100D01*
X9172985Y21573139D01*
X9225789Y21618894D01*
X9277300Y21630100D01*
X9402848Y21630100D01*
X9402850Y21630100D01*
X9474037Y21649175D01*
X9537862Y21686024D01*
X9896976Y22045138D01*
X9933825Y22108963D01*
X9952900Y22180150D01*
X9952900Y22180154D01*
X9953867Y22187495D01*
X9956595Y22193664D01*
X9956267Y22200404D01*
X9970554Y22225217D01*
X9982134Y22251392D01*
X9987765Y22255107D01*
X9991132Y22260953D01*
X10016561Y22274101D01*
X10040458Y22289863D01*
X10048669Y22290702D01*
X10053197Y22293042D01*
X10071176Y22292999D01*
X10088449Y22294762D01*
X10103487Y22293344D01*
X10105431Y22292045D01*
X10157439Y22281700D01*
X10226939Y22281701D01*
X10232743Y22281153D01*
X10259992Y22270282D01*
X10288138Y22262017D01*
X10292065Y22257485D01*
X10297638Y22255261D01*
X10314682Y22231384D01*
X10333894Y22209214D01*
X10335377Y22202394D01*
X10338233Y22198394D01*
X10338807Y22186629D01*
X10345100Y22157701D01*
X10345100Y21238598D01*
X10325415Y21171559D01*
X10308782Y21150918D01*
X10258269Y21100405D01*
X10258267Y21100402D01*
X10197932Y20995898D01*
X10197932Y20995897D01*
X10166700Y20879336D01*
X10166700Y20758664D01*
X10197932Y20642103D01*
X10258268Y20537597D01*
X10343597Y20452268D01*
X10448103Y20391932D01*
X10564664Y20360700D01*
X10564666Y20360700D01*
X10685334Y20360700D01*
X10685336Y20360700D01*
X10801897Y20391932D01*
X10906403Y20452268D01*
X10991732Y20537597D01*
X11052068Y20642103D01*
X11083300Y20758664D01*
X11083300Y20879336D01*
X11052068Y20995897D01*
X10991732Y21100403D01*
X10969031Y21123104D01*
X10941218Y21150918D01*
X10907734Y21212241D01*
X10904900Y21238598D01*
X10904900Y22157701D01*
X10924585Y22224740D01*
X10977389Y22270495D01*
X11028900Y22281701D01*
X11092558Y22281701D01*
X11092560Y22281701D01*
X11144569Y22292045D01*
X11203547Y22331453D01*
X11203548Y22331455D01*
X11213700Y22338238D01*
X11215091Y22336156D01*
X11261342Y22361410D01*
X11331034Y22356426D01*
G37*
%TD.AperFunction*%
%TD*%
M02*
