M48
; DRILL file {KiCad 9.0.0} date 2025-05-07T13:20:37-0600
; FORMAT={-:-/ absolute / metric / decimal}
; #@! TF.CreationDate,2025-05-07T13:20:37-06:00
; #@! TF.GenerationSoftware,Kicad,Pcbnew,9.0.0
; #@! TF.FileFunction,MixedPlating,1,2
FMAT,2
METRIC
; #@! TA.AperFunction,Plated,PTH,ViaDrill
T1C0.300
; #@! TA.AperFunction,Plated,PTH,ComponentDrill
T2C1.016
; #@! TA.AperFunction,NonPlated,NPTH,ComponentDrill
T3C3.100
%
G90
G05
T1
X0.49Y146.072
X0.49Y120.172
X0.49Y94.272
X0.49Y68.372
X0.49Y42.472
X0.49Y16.572
X0.539Y136.997
X0.539Y111.097
X0.539Y85.197
X0.539Y59.297
X0.539Y33.397
X0.539Y7.497
X0.675Y130.147
X0.675Y104.247
X0.675Y78.347
X0.675Y52.447
X0.675Y26.547
X0.675Y0.647
X1.27Y150.137
X1.27Y124.237
X1.27Y98.337
X1.27Y72.438
X1.27Y46.538
X1.27Y20.637
X2.21Y143.1
X2.21Y117.2
X2.21Y91.3
X2.21Y65.4
X2.21Y39.5
X2.21Y13.6
X3.306Y144.079
X3.306Y118.179
X3.306Y92.279
X3.306Y66.379
X3.306Y40.479
X3.306Y14.579
X3.536Y134.202
X3.536Y108.302
X3.536Y82.402
X3.536Y56.502
X3.536Y30.602
X3.536Y4.702
X3.718Y142.689
X3.718Y116.789
X3.718Y90.889
X3.718Y64.989
X3.718Y39.089
X3.718Y13.189
X4.617Y150.945
X4.617Y125.045
X4.617Y99.145
X4.617Y73.245
X4.617Y47.345
X4.617Y21.445
X4.932Y146.036
X4.932Y120.136
X4.932Y94.236
X4.932Y68.336
X4.932Y42.436
X4.932Y16.536
X5.08Y148.76
X5.08Y122.86
X5.08Y96.96
X5.08Y71.06
X5.08Y45.16
X5.08Y19.26
X5.245Y154.394
X5.245Y128.494
X5.245Y102.594
X5.245Y76.694
X5.245Y50.794
X5.245Y24.894
X5.401Y139.561
X5.401Y113.661
X5.401Y87.761
X5.401Y61.861
X5.401Y35.961
X5.401Y10.061
X5.524Y150.258
X5.524Y124.358
X5.524Y98.458
X5.524Y72.558
X5.524Y46.658
X5.524Y20.758
X5.79Y135.83
X5.79Y109.93
X5.79Y84.03
X5.79Y58.13
X5.79Y32.23
X5.79Y6.33
X6.124Y152.065
X6.124Y126.165
X6.124Y100.265
X6.124Y74.365
X6.124Y48.465
X6.124Y22.565
X6.261Y144.179
X6.261Y118.279
X6.261Y92.379
X6.261Y66.479
X6.261Y40.579
X6.261Y14.679
X6.612Y138.824
X6.612Y112.924
X6.612Y87.024
X6.612Y61.124
X6.612Y35.224
X6.612Y9.324
X7.002Y140.582
X7.002Y114.682
X7.002Y88.782
X7.002Y62.882
X7.002Y36.982
X7.002Y11.082
X7.536Y146.522
X7.536Y120.622
X7.536Y94.722
X7.536Y68.822
X7.536Y42.922
X7.536Y17.022
X7.543Y152.372
X7.543Y126.472
X7.543Y100.572
X7.543Y74.672
X7.543Y48.772
X7.543Y22.872
X7.793Y150.915
X7.793Y125.015
X7.793Y99.115
X7.793Y73.215
X7.793Y47.315
X7.793Y21.415
X7.95Y135.488
X7.95Y109.588
X7.95Y83.688
X7.95Y57.788
X7.95Y31.888
X7.95Y5.988
X8.371Y143.935
X8.371Y118.035
X8.371Y92.135
X8.371Y66.235
X8.371Y40.335
X8.371Y14.435
X8.706Y139.016
X8.706Y113.116
X8.706Y87.216
X8.706Y61.316
X8.706Y35.416
X8.706Y9.516
X9.295Y148.01
X9.295Y122.11
X9.295Y96.21
X9.295Y70.31
X9.295Y44.41
X9.295Y18.51
X9.523Y144.391
X9.523Y118.491
X9.523Y92.591
X9.523Y66.691
X9.523Y40.791
X9.523Y14.891
X9.534Y139.794
X9.534Y113.894
X9.534Y87.994
X9.534Y62.094
X9.534Y36.194
X9.534Y10.294
X10.143Y130.042
X10.143Y104.142
X10.143Y78.242
X10.143Y52.342
X10.143Y26.442
X10.143Y0.542
X10.395Y138.398
X10.395Y112.498
X10.395Y86.598
X10.395Y60.698
X10.395Y34.798
X10.395Y8.898
X10.684Y142.257
X10.684Y116.357
X10.684Y90.457
X10.684Y64.557
X10.684Y38.657
X10.684Y12.757
X10.892Y148.577
X10.892Y122.677
X10.892Y96.777
X10.892Y70.877
X10.892Y44.977
X10.892Y19.077
X11.411Y135.722
X11.411Y109.822
X11.411Y83.922
X11.411Y58.022
X11.411Y32.122
X11.411Y6.222
X11.493Y143.61
X11.493Y117.71
X11.493Y91.81
X11.493Y65.91
X11.493Y40.01
X11.493Y14.11
X11.53Y140.631
X11.53Y114.731
X11.53Y88.831
X11.53Y62.931
X11.53Y37.031
X11.53Y11.131
X11.625Y152.361
X11.625Y126.461
X11.625Y100.561
X11.625Y74.661
X11.625Y48.761
X11.625Y22.861
X12.262Y139.06
X12.262Y113.16
X12.262Y87.26
X12.262Y61.36
X12.262Y35.46
X12.262Y9.56
X12.336Y143.784
X12.336Y117.884
X12.336Y91.984
X12.336Y66.084
X12.336Y40.184
X12.336Y14.284
X12.342Y147.223
X12.342Y121.323
X12.342Y95.423
X12.342Y69.523
X12.342Y43.623
X12.342Y17.723
X12.609Y137.012
X12.609Y111.112
X12.609Y85.212
X12.609Y59.312
X12.609Y33.412
X12.609Y7.512
X12.789Y152.384
X12.789Y126.484
X12.789Y100.584
X12.789Y74.684
X12.789Y48.784
X12.789Y22.884
X12.852Y150.8
X12.852Y124.9
X12.852Y99.0
X12.852Y73.1
X12.852Y47.2
X12.852Y21.3
X13.738Y144.759
X13.738Y118.859
X13.738Y92.959
X13.738Y67.059
X13.738Y41.159
X13.738Y15.259
X13.888Y148.666
X13.888Y122.766
X13.888Y96.866
X13.888Y70.966
X13.888Y45.066
X13.888Y19.166
X14.155Y135.528
X14.155Y109.628
X14.155Y83.728
X14.155Y57.828
X14.155Y31.928
X14.155Y6.028
X14.367Y150.755
X14.367Y124.855
X14.367Y98.955
X14.367Y73.055
X14.367Y47.155
X14.367Y21.255
X14.477Y153.229
X14.477Y127.329
X14.477Y101.429
X14.477Y75.529
X14.477Y49.629
X14.477Y23.729
X14.752Y143.306
X14.752Y117.406
X14.752Y91.506
X14.752Y65.606
X14.752Y39.706
X14.752Y13.806
X14.774Y141.559
X14.774Y115.659
X14.774Y89.759
X14.774Y63.859
X14.774Y37.959
X14.774Y12.059
X15.131Y138.929
X15.131Y113.029
X15.131Y87.129
X15.131Y61.229
X15.131Y35.329
X15.131Y9.429
X15.198Y150.538
X15.198Y124.638
X15.198Y98.738
X15.198Y72.838
X15.198Y46.938
X15.198Y21.038
X15.233Y130.044
X15.233Y104.144
X15.233Y78.244
X15.233Y52.344
X15.233Y26.444
X15.233Y0.544
X15.371Y141.084
X15.371Y115.184
X15.371Y89.284
X15.371Y63.384
X15.371Y37.484
X15.371Y11.584
X15.75Y135.5
X15.75Y109.6
X15.75Y83.7
X15.75Y57.8
X15.75Y31.9
X15.75Y6.0
X15.754Y148.278
X15.754Y122.378
X15.754Y96.478
X15.754Y70.578
X15.754Y44.678
X15.754Y18.778
X16.155Y153.32
X16.155Y127.42
X16.155Y101.52
X16.155Y75.62
X16.155Y49.72
X16.155Y23.82
X16.713Y138.936
X16.713Y113.036
X16.713Y87.136
X16.713Y61.236
X16.713Y35.336
X16.713Y9.436
X17.144Y141.388
X17.144Y115.488
X17.144Y89.588
X17.144Y63.688
X17.144Y37.788
X17.144Y11.888
X17.375Y135.494
X17.375Y109.594
X17.375Y83.694
X17.375Y57.794
X17.375Y31.894
X17.375Y5.994
X17.414Y149.889
X17.414Y123.989
X17.414Y98.089
X17.414Y72.189
X17.414Y46.289
X17.414Y20.389
X17.792Y130.081
X17.792Y104.181
X17.792Y78.281
X17.792Y52.381
X17.792Y26.481
X17.792Y0.581
X17.865Y148.966
X17.865Y123.066
X17.865Y97.166
X17.865Y71.266
X17.865Y45.366
X17.865Y19.466
X18.722Y152.339
X18.722Y126.439
X18.722Y100.539
X18.722Y74.639
X18.722Y48.739
X18.722Y22.839
X19.047Y148.704
X19.047Y122.804
X19.047Y96.904
X19.047Y71.004
X19.047Y45.104
X19.047Y19.204
X19.207Y141.393
X19.207Y115.493
X19.207Y89.593
X19.207Y63.693
X19.207Y37.793
X19.207Y11.893
X19.548Y138.88
X19.548Y112.98
X19.548Y87.08
X19.548Y61.18
X19.548Y35.28
X19.548Y9.38
X20.135Y154.358
X20.135Y128.458
X20.135Y102.558
X20.135Y76.658
X20.135Y50.758
X20.135Y24.858
X20.405Y129.994
X20.405Y104.094
X20.405Y78.194
X20.405Y52.294
X20.405Y26.394
X20.405Y0.494
X21.173Y150.284
X21.173Y124.384
X21.173Y98.484
X21.173Y72.584
X21.173Y46.684
X21.173Y20.784
X21.844Y141.692
X21.844Y115.792
X21.844Y89.892
X21.844Y63.992
X21.844Y38.092
X21.844Y12.192
X22.153Y140.358
X22.153Y114.458
X22.153Y88.558
X22.153Y62.658
X22.153Y36.758
X22.153Y10.858
X22.944Y147.929
X22.944Y122.029
X22.944Y96.129
X22.944Y70.229
X22.944Y44.329
X22.944Y18.429
X23.812Y134.898
X23.812Y108.997
X23.812Y83.097
X23.812Y57.197
X23.812Y31.297
X23.812Y5.397
X24.588Y142.317
X24.588Y116.417
X24.588Y90.517
X24.588Y64.617
X24.588Y38.717
X24.588Y12.817
X24.872Y147.497
X24.872Y121.597
X24.872Y95.697
X24.872Y69.797
X24.872Y43.897
X24.872Y17.997
X24.895Y154.378
X24.895Y128.478
X24.895Y102.578
X24.895Y76.678
X24.895Y50.778
X24.895Y24.878
X24.907Y138.356
X24.907Y112.456
X24.907Y86.556
X24.907Y60.656
X24.907Y34.756
X24.907Y8.856
X26.39Y146.072
X26.39Y120.172
X26.39Y94.272
X26.39Y68.372
X26.39Y42.472
X26.39Y16.572
X26.439Y136.997
X26.439Y111.097
X26.439Y85.197
X26.439Y59.297
X26.439Y33.397
X26.439Y7.497
X26.575Y130.147
X26.575Y104.247
X26.575Y78.347
X26.575Y52.447
X26.575Y26.547
X26.575Y0.647
X27.17Y150.137
X27.17Y124.237
X27.17Y98.337
X27.17Y72.438
X27.17Y46.538
X27.17Y20.637
X28.11Y143.1
X28.11Y117.2
X28.11Y91.3
X28.11Y65.4
X28.11Y39.5
X28.11Y13.6
X29.206Y144.079
X29.206Y118.179
X29.206Y92.279
X29.206Y66.379
X29.206Y40.479
X29.206Y14.579
X29.436Y134.202
X29.436Y108.302
X29.436Y82.402
X29.436Y56.502
X29.436Y30.602
X29.436Y4.702
X29.618Y142.689
X29.618Y116.789
X29.618Y90.889
X29.618Y64.989
X29.618Y39.089
X29.618Y13.189
X30.517Y150.945
X30.517Y125.045
X30.517Y99.145
X30.517Y73.245
X30.517Y47.345
X30.517Y21.445
X30.832Y146.036
X30.832Y120.136
X30.832Y94.236
X30.832Y68.336
X30.832Y42.436
X30.832Y16.536
X30.98Y148.76
X30.98Y122.86
X30.98Y96.96
X30.98Y71.06
X30.98Y45.16
X30.98Y19.26
X31.145Y154.394
X31.145Y128.494
X31.145Y102.594
X31.145Y76.694
X31.145Y50.794
X31.145Y24.894
X31.301Y139.561
X31.301Y113.661
X31.301Y87.761
X31.301Y61.861
X31.301Y35.961
X31.301Y10.061
X31.424Y150.258
X31.424Y124.358
X31.424Y98.458
X31.424Y72.558
X31.424Y46.658
X31.424Y20.758
X31.69Y135.83
X31.69Y109.93
X31.69Y84.03
X31.69Y58.13
X31.69Y32.23
X31.69Y6.33
X32.024Y152.065
X32.024Y126.165
X32.024Y100.265
X32.024Y74.365
X32.024Y48.465
X32.024Y22.565
X32.161Y144.179
X32.161Y118.279
X32.161Y92.379
X32.161Y66.479
X32.161Y40.579
X32.161Y14.679
X32.512Y138.824
X32.512Y112.924
X32.512Y87.024
X32.512Y61.124
X32.512Y35.224
X32.512Y9.324
X32.902Y140.582
X32.902Y114.682
X32.902Y88.782
X32.902Y62.882
X32.902Y36.982
X32.902Y11.082
X33.436Y146.522
X33.436Y120.622
X33.436Y94.722
X33.436Y68.822
X33.436Y42.922
X33.436Y17.022
X33.443Y152.372
X33.443Y126.472
X33.443Y100.572
X33.443Y74.672
X33.443Y48.772
X33.443Y22.872
X33.693Y150.915
X33.693Y125.015
X33.693Y99.115
X33.693Y73.215
X33.693Y47.315
X33.693Y21.415
X33.85Y135.488
X33.85Y109.588
X33.85Y83.688
X33.85Y57.788
X33.85Y31.888
X33.85Y5.988
X34.271Y143.935
X34.271Y118.035
X34.271Y92.135
X34.271Y66.235
X34.271Y40.335
X34.271Y14.435
X34.606Y139.016
X34.606Y113.116
X34.606Y87.216
X34.606Y61.316
X34.606Y35.416
X34.606Y9.516
X35.195Y148.01
X35.195Y122.11
X35.195Y96.21
X35.195Y70.31
X35.195Y44.41
X35.195Y18.51
X35.423Y144.391
X35.423Y118.491
X35.423Y92.591
X35.423Y66.691
X35.423Y40.791
X35.423Y14.891
X35.434Y139.794
X35.434Y113.894
X35.434Y87.994
X35.434Y62.094
X35.434Y36.194
X35.434Y10.294
X36.043Y130.042
X36.043Y104.142
X36.043Y78.242
X36.043Y52.342
X36.043Y26.442
X36.043Y0.542
X36.295Y138.398
X36.295Y112.498
X36.295Y86.598
X36.295Y60.698
X36.295Y34.798
X36.295Y8.898
X36.584Y142.257
X36.584Y116.357
X36.584Y90.457
X36.584Y64.557
X36.584Y38.657
X36.584Y12.757
X36.792Y148.577
X36.792Y122.677
X36.792Y96.777
X36.792Y70.877
X36.792Y44.977
X36.792Y19.077
X37.311Y135.722
X37.311Y109.822
X37.311Y83.922
X37.311Y58.022
X37.311Y32.122
X37.311Y6.222
X37.393Y143.61
X37.393Y117.71
X37.393Y91.81
X37.393Y65.91
X37.393Y40.01
X37.393Y14.11
X37.43Y140.631
X37.43Y114.731
X37.43Y88.831
X37.43Y62.931
X37.43Y37.031
X37.43Y11.131
X37.525Y152.361
X37.525Y126.461
X37.525Y100.561
X37.525Y74.661
X37.525Y48.761
X37.525Y22.861
X38.162Y139.06
X38.162Y113.16
X38.162Y87.26
X38.162Y61.36
X38.162Y35.46
X38.162Y9.56
X38.236Y143.784
X38.236Y117.884
X38.236Y91.984
X38.236Y66.084
X38.236Y40.184
X38.236Y14.284
X38.242Y147.223
X38.242Y121.323
X38.242Y95.423
X38.242Y69.523
X38.242Y43.623
X38.242Y17.723
X38.509Y137.012
X38.509Y111.112
X38.509Y85.212
X38.509Y59.312
X38.509Y33.412
X38.509Y7.512
X38.689Y152.384
X38.689Y126.484
X38.689Y100.584
X38.689Y74.684
X38.689Y48.784
X38.689Y22.884
X38.752Y150.8
X38.752Y124.9
X38.752Y99.0
X38.752Y73.1
X38.752Y47.2
X38.752Y21.3
X39.638Y144.759
X39.638Y118.859
X39.638Y92.959
X39.638Y67.059
X39.638Y41.159
X39.638Y15.259
X39.788Y148.666
X39.788Y122.766
X39.788Y96.866
X39.788Y70.966
X39.788Y45.066
X39.788Y19.166
X40.055Y135.528
X40.055Y109.628
X40.055Y83.728
X40.055Y57.828
X40.055Y31.928
X40.055Y6.028
X40.267Y150.755
X40.267Y124.855
X40.267Y98.955
X40.267Y73.055
X40.267Y47.155
X40.267Y21.255
X40.377Y153.229
X40.377Y127.329
X40.377Y101.429
X40.377Y75.529
X40.377Y49.629
X40.377Y23.729
X40.652Y143.306
X40.652Y117.406
X40.652Y91.506
X40.652Y65.606
X40.652Y39.706
X40.652Y13.806
X40.674Y141.559
X40.674Y115.659
X40.674Y89.759
X40.674Y63.859
X40.674Y37.959
X40.674Y12.059
X41.031Y138.929
X41.031Y113.029
X41.031Y87.129
X41.031Y61.229
X41.031Y35.329
X41.031Y9.429
X41.098Y150.538
X41.098Y124.638
X41.098Y98.738
X41.098Y72.838
X41.098Y46.938
X41.098Y21.038
X41.133Y130.044
X41.133Y104.144
X41.133Y78.244
X41.133Y52.344
X41.133Y26.444
X41.133Y0.544
X41.271Y141.084
X41.271Y115.184
X41.271Y89.284
X41.271Y63.384
X41.271Y37.484
X41.271Y11.584
X41.65Y135.5
X41.65Y109.6
X41.65Y83.7
X41.65Y57.8
X41.65Y31.9
X41.65Y6.0
X41.654Y148.278
X41.654Y122.378
X41.654Y96.478
X41.654Y70.578
X41.654Y44.678
X41.654Y18.778
X42.055Y153.32
X42.055Y127.42
X42.055Y101.52
X42.055Y75.62
X42.055Y49.72
X42.055Y23.82
X42.613Y138.936
X42.613Y113.036
X42.613Y87.136
X42.613Y61.236
X42.613Y35.336
X42.613Y9.436
X43.044Y141.388
X43.044Y115.488
X43.044Y89.588
X43.044Y63.688
X43.044Y37.788
X43.044Y11.888
X43.275Y135.494
X43.275Y109.594
X43.275Y83.694
X43.275Y57.794
X43.275Y31.894
X43.275Y5.994
X43.314Y149.889
X43.314Y123.989
X43.314Y98.089
X43.314Y72.189
X43.314Y46.289
X43.314Y20.389
X43.692Y130.081
X43.692Y104.181
X43.692Y78.281
X43.692Y52.381
X43.692Y26.481
X43.692Y0.581
X43.765Y148.966
X43.765Y123.066
X43.765Y97.166
X43.765Y71.266
X43.765Y45.366
X43.765Y19.466
X44.622Y152.339
X44.622Y126.439
X44.622Y100.539
X44.622Y74.639
X44.622Y48.739
X44.622Y22.839
X44.947Y148.704
X44.947Y122.804
X44.947Y96.904
X44.947Y71.004
X44.947Y45.104
X44.947Y19.204
X45.107Y141.393
X45.107Y115.493
X45.107Y89.593
X45.107Y63.693
X45.107Y37.793
X45.107Y11.893
X45.448Y138.88
X45.448Y112.98
X45.448Y87.08
X45.448Y61.18
X45.448Y35.28
X45.448Y9.38
X46.035Y154.358
X46.035Y128.458
X46.035Y102.558
X46.035Y76.658
X46.035Y50.758
X46.035Y24.858
X46.305Y129.994
X46.305Y104.094
X46.305Y78.194
X46.305Y52.294
X46.305Y26.394
X46.305Y0.494
X47.073Y150.284
X47.073Y124.384
X47.073Y98.484
X47.073Y72.584
X47.073Y46.684
X47.073Y20.784
X47.744Y141.692
X47.744Y115.792
X47.744Y89.892
X47.744Y63.992
X47.744Y38.092
X47.744Y12.192
X48.053Y140.358
X48.053Y114.458
X48.053Y88.558
X48.053Y62.658
X48.053Y36.758
X48.053Y10.858
X48.844Y147.929
X48.844Y122.029
X48.844Y96.129
X48.844Y70.229
X48.844Y44.329
X48.844Y18.429
X49.712Y134.898
X49.712Y108.997
X49.712Y83.097
X49.712Y57.197
X49.712Y31.297
X49.712Y5.397
X50.488Y142.317
X50.488Y116.417
X50.488Y90.517
X50.488Y64.617
X50.488Y38.717
X50.488Y12.817
X50.772Y147.497
X50.772Y121.597
X50.772Y95.697
X50.772Y69.797
X50.772Y43.897
X50.772Y17.997
X50.795Y154.378
X50.795Y128.478
X50.795Y102.578
X50.795Y76.678
X50.795Y50.778
X50.795Y24.878
X50.807Y138.356
X50.807Y112.456
X50.807Y86.556
X50.807Y60.656
X50.807Y34.756
X50.807Y8.856
X52.29Y146.072
X52.29Y120.172
X52.29Y94.272
X52.29Y68.372
X52.29Y42.472
X52.29Y16.572
X52.339Y136.997
X52.339Y111.097
X52.339Y85.197
X52.339Y59.297
X52.339Y33.397
X52.339Y7.497
X52.475Y130.147
X52.475Y104.247
X52.475Y78.347
X52.475Y52.447
X52.475Y26.547
X52.475Y0.647
X53.07Y150.137
X53.07Y124.237
X53.07Y98.337
X53.07Y72.438
X53.07Y46.538
X53.07Y20.637
X54.01Y143.1
X54.01Y117.2
X54.01Y91.3
X54.01Y65.4
X54.01Y39.5
X54.01Y13.6
X55.106Y144.079
X55.106Y118.179
X55.106Y92.279
X55.106Y66.379
X55.106Y40.479
X55.106Y14.579
X55.336Y134.202
X55.336Y108.302
X55.336Y82.402
X55.336Y56.502
X55.336Y30.602
X55.336Y4.702
X55.518Y142.689
X55.518Y116.789
X55.518Y90.889
X55.518Y64.989
X55.518Y39.089
X55.518Y13.189
X56.417Y150.945
X56.417Y125.045
X56.417Y99.145
X56.417Y73.245
X56.417Y47.345
X56.417Y21.445
X56.732Y146.036
X56.732Y120.136
X56.732Y94.236
X56.732Y68.336
X56.732Y42.436
X56.732Y16.536
X56.88Y148.76
X56.88Y122.86
X56.88Y96.96
X56.88Y71.06
X56.88Y45.16
X56.88Y19.26
X57.045Y154.394
X57.045Y128.494
X57.045Y102.594
X57.045Y76.694
X57.045Y50.794
X57.045Y24.894
X57.201Y139.561
X57.201Y113.661
X57.201Y87.761
X57.201Y61.861
X57.201Y35.961
X57.201Y10.061
X57.324Y150.258
X57.324Y124.358
X57.324Y98.458
X57.324Y72.558
X57.324Y46.658
X57.324Y20.758
X57.59Y135.83
X57.59Y109.93
X57.59Y84.03
X57.59Y58.13
X57.59Y32.23
X57.59Y6.33
X57.924Y152.065
X57.924Y126.165
X57.924Y100.265
X57.924Y74.365
X57.924Y48.465
X57.924Y22.565
X58.061Y144.179
X58.061Y118.279
X58.061Y92.379
X58.061Y66.479
X58.061Y40.579
X58.061Y14.679
X58.412Y138.824
X58.412Y112.924
X58.412Y87.024
X58.412Y61.124
X58.412Y35.224
X58.412Y9.324
X58.802Y140.582
X58.802Y114.682
X58.802Y88.782
X58.802Y62.882
X58.802Y36.982
X58.802Y11.082
X59.336Y146.522
X59.336Y120.622
X59.336Y94.722
X59.336Y68.822
X59.336Y42.922
X59.336Y17.022
X59.343Y152.372
X59.343Y126.472
X59.343Y100.572
X59.343Y74.672
X59.343Y48.772
X59.343Y22.872
X59.593Y150.915
X59.593Y125.015
X59.593Y99.115
X59.593Y73.215
X59.593Y47.315
X59.593Y21.415
X59.75Y135.488
X59.75Y109.588
X59.75Y83.688
X59.75Y57.788
X59.75Y31.888
X59.75Y5.988
X60.171Y143.935
X60.171Y118.035
X60.171Y92.135
X60.171Y66.235
X60.171Y40.335
X60.171Y14.435
X60.506Y139.016
X60.506Y113.116
X60.506Y87.216
X60.506Y61.316
X60.506Y35.416
X60.506Y9.516
X61.095Y148.01
X61.095Y122.11
X61.095Y96.21
X61.095Y70.31
X61.095Y44.41
X61.095Y18.51
X61.323Y144.391
X61.323Y118.491
X61.323Y92.591
X61.323Y66.691
X61.323Y40.791
X61.323Y14.891
X61.334Y139.794
X61.334Y113.894
X61.334Y87.994
X61.334Y62.094
X61.334Y36.194
X61.334Y10.294
X61.943Y130.042
X61.943Y104.142
X61.943Y78.242
X61.943Y52.342
X61.943Y26.442
X61.943Y0.542
X62.195Y138.398
X62.195Y112.498
X62.195Y86.598
X62.195Y60.698
X62.195Y34.798
X62.195Y8.898
X62.484Y142.257
X62.484Y116.357
X62.484Y90.457
X62.484Y64.557
X62.484Y38.657
X62.484Y12.757
X62.692Y148.577
X62.692Y122.677
X62.692Y96.777
X62.692Y70.877
X62.692Y44.977
X62.692Y19.077
X63.211Y135.722
X63.211Y109.822
X63.211Y83.922
X63.211Y58.022
X63.211Y32.122
X63.211Y6.222
X63.293Y143.61
X63.293Y117.71
X63.293Y91.81
X63.293Y65.91
X63.293Y40.01
X63.293Y14.11
X63.33Y140.631
X63.33Y114.731
X63.33Y88.831
X63.33Y62.931
X63.33Y37.031
X63.33Y11.131
X63.425Y152.361
X63.425Y126.461
X63.425Y100.561
X63.425Y74.661
X63.425Y48.761
X63.425Y22.861
X64.062Y139.06
X64.062Y113.16
X64.062Y87.26
X64.062Y61.36
X64.062Y35.46
X64.062Y9.56
X64.136Y143.784
X64.136Y117.884
X64.136Y91.984
X64.136Y66.084
X64.136Y40.184
X64.136Y14.284
X64.142Y147.223
X64.142Y121.323
X64.142Y95.423
X64.142Y69.523
X64.142Y43.623
X64.142Y17.723
X64.409Y137.012
X64.409Y111.112
X64.409Y85.212
X64.409Y59.312
X64.409Y33.412
X64.409Y7.512
X64.589Y152.384
X64.589Y126.484
X64.589Y100.584
X64.589Y74.684
X64.589Y48.784
X64.589Y22.884
X64.652Y150.8
X64.652Y124.9
X64.652Y99.0
X64.652Y73.1
X64.652Y47.2
X64.652Y21.3
X65.538Y144.759
X65.538Y118.859
X65.538Y92.959
X65.538Y67.059
X65.538Y41.159
X65.538Y15.259
X65.688Y148.666
X65.688Y122.766
X65.688Y96.866
X65.688Y70.966
X65.688Y45.066
X65.688Y19.166
X65.955Y135.528
X65.955Y109.628
X65.955Y83.728
X65.955Y57.828
X65.955Y31.928
X65.955Y6.028
X66.167Y150.755
X66.167Y124.855
X66.167Y98.955
X66.167Y73.055
X66.167Y47.155
X66.167Y21.255
X66.277Y153.229
X66.277Y127.329
X66.277Y101.429
X66.277Y75.529
X66.277Y49.629
X66.277Y23.729
X66.552Y143.306
X66.552Y117.406
X66.552Y91.506
X66.552Y65.606
X66.552Y39.706
X66.552Y13.806
X66.574Y141.559
X66.574Y115.659
X66.574Y89.759
X66.574Y63.859
X66.574Y37.959
X66.574Y12.059
X66.931Y138.929
X66.931Y113.029
X66.931Y87.129
X66.931Y61.229
X66.931Y35.329
X66.931Y9.429
X66.998Y150.538
X66.998Y124.638
X66.998Y98.738
X66.998Y72.838
X66.998Y46.938
X66.998Y21.038
X67.033Y130.044
X67.033Y104.144
X67.033Y78.244
X67.033Y52.344
X67.033Y26.444
X67.033Y0.544
X67.171Y141.084
X67.171Y115.184
X67.171Y89.284
X67.171Y63.384
X67.171Y37.484
X67.171Y11.584
X67.55Y135.5
X67.55Y109.6
X67.55Y83.7
X67.55Y57.8
X67.55Y31.9
X67.55Y6.0
X67.554Y148.278
X67.554Y122.378
X67.554Y96.478
X67.554Y70.578
X67.554Y44.678
X67.554Y18.778
X67.955Y153.32
X67.955Y127.42
X67.955Y101.52
X67.955Y75.62
X67.955Y49.72
X67.955Y23.82
X68.513Y138.936
X68.513Y113.036
X68.513Y87.136
X68.513Y61.236
X68.513Y35.336
X68.513Y9.436
X68.944Y141.388
X68.944Y115.488
X68.944Y89.588
X68.944Y63.688
X68.944Y37.788
X68.944Y11.888
X69.175Y135.494
X69.175Y109.594
X69.175Y83.694
X69.175Y57.794
X69.175Y31.894
X69.175Y5.994
X69.214Y149.889
X69.214Y123.989
X69.214Y98.089
X69.214Y72.189
X69.214Y46.289
X69.214Y20.389
X69.592Y130.081
X69.592Y104.181
X69.592Y78.281
X69.592Y52.381
X69.592Y26.481
X69.592Y0.581
X69.665Y148.966
X69.665Y123.066
X69.665Y97.166
X69.665Y71.266
X69.665Y45.366
X69.665Y19.466
X70.522Y152.339
X70.522Y126.439
X70.522Y100.539
X70.522Y74.639
X70.522Y48.739
X70.522Y22.839
X70.847Y148.704
X70.847Y122.804
X70.847Y96.904
X70.847Y71.004
X70.847Y45.104
X70.847Y19.204
X71.007Y141.393
X71.007Y115.493
X71.007Y89.593
X71.007Y63.693
X71.007Y37.793
X71.007Y11.893
X71.348Y138.88
X71.348Y112.98
X71.348Y87.08
X71.348Y61.18
X71.348Y35.28
X71.348Y9.38
X71.935Y154.358
X71.935Y128.458
X71.935Y102.558
X71.935Y76.658
X71.935Y50.758
X71.935Y24.858
X72.205Y129.994
X72.205Y104.094
X72.205Y78.194
X72.205Y52.294
X72.205Y26.394
X72.205Y0.494
X72.973Y150.284
X72.973Y124.384
X72.973Y98.484
X72.973Y72.584
X72.973Y46.684
X72.973Y20.784
X73.644Y141.692
X73.644Y115.792
X73.644Y89.892
X73.644Y63.992
X73.644Y38.092
X73.644Y12.192
X73.953Y140.358
X73.953Y114.458
X73.953Y88.558
X73.953Y62.658
X73.953Y36.758
X73.953Y10.858
X74.744Y147.929
X74.744Y122.029
X74.744Y96.129
X74.744Y70.229
X74.744Y44.329
X74.744Y18.429
X75.612Y134.898
X75.612Y108.997
X75.612Y83.097
X75.612Y57.197
X75.612Y31.297
X75.612Y5.397
X76.388Y142.317
X76.388Y116.417
X76.388Y90.517
X76.388Y64.617
X76.388Y38.717
X76.388Y12.817
X76.672Y147.497
X76.672Y121.597
X76.672Y95.697
X76.672Y69.797
X76.672Y43.897
X76.672Y17.997
X76.695Y154.378
X76.695Y128.478
X76.695Y102.578
X76.695Y76.678
X76.695Y50.778
X76.695Y24.878
X76.707Y138.356
X76.707Y112.456
X76.707Y86.556
X76.707Y60.656
X76.707Y34.756
X76.707Y8.856
X78.19Y146.072
X78.19Y120.172
X78.19Y94.272
X78.19Y68.372
X78.19Y42.472
X78.19Y16.572
X78.239Y136.997
X78.239Y111.097
X78.239Y85.197
X78.239Y59.297
X78.239Y33.397
X78.239Y7.497
X78.375Y130.147
X78.375Y104.247
X78.375Y78.347
X78.375Y52.447
X78.375Y26.547
X78.375Y0.647
X78.97Y150.137
X78.97Y124.237
X78.97Y98.337
X78.97Y72.438
X78.97Y46.538
X78.97Y20.637
X79.91Y143.1
X79.91Y117.2
X79.91Y91.3
X79.91Y65.4
X79.91Y39.5
X79.91Y13.6
X81.006Y144.079
X81.006Y118.179
X81.006Y92.279
X81.006Y66.379
X81.006Y40.479
X81.006Y14.579
X81.236Y134.202
X81.236Y108.302
X81.236Y82.402
X81.236Y56.502
X81.236Y30.602
X81.236Y4.702
X81.418Y142.689
X81.418Y116.789
X81.418Y90.889
X81.418Y64.989
X81.418Y39.089
X81.418Y13.189
X82.317Y150.945
X82.317Y125.045
X82.317Y99.145
X82.317Y73.245
X82.317Y47.345
X82.317Y21.445
X82.632Y146.036
X82.632Y120.136
X82.632Y94.236
X82.632Y68.336
X82.632Y42.436
X82.632Y16.536
X82.78Y148.76
X82.78Y122.86
X82.78Y96.96
X82.78Y71.06
X82.78Y45.16
X82.78Y19.26
X82.945Y154.394
X82.945Y128.494
X82.945Y102.594
X82.945Y76.694
X82.945Y50.794
X82.945Y24.894
X83.101Y139.561
X83.101Y113.661
X83.101Y87.761
X83.101Y61.861
X83.101Y35.961
X83.101Y10.061
X83.224Y150.258
X83.224Y124.358
X83.224Y98.458
X83.224Y72.558
X83.224Y46.658
X83.224Y20.758
X83.49Y135.83
X83.49Y109.93
X83.49Y84.03
X83.49Y58.13
X83.49Y32.23
X83.49Y6.33
X83.824Y152.065
X83.824Y126.165
X83.824Y100.265
X83.824Y74.365
X83.824Y48.465
X83.824Y22.565
X83.961Y144.179
X83.961Y118.279
X83.961Y92.379
X83.961Y66.479
X83.961Y40.579
X83.961Y14.679
X84.312Y138.824
X84.312Y112.924
X84.312Y87.024
X84.312Y61.124
X84.312Y35.224
X84.312Y9.324
X84.702Y140.582
X84.702Y114.682
X84.702Y88.782
X84.702Y62.882
X84.702Y36.982
X84.702Y11.082
X85.236Y146.522
X85.236Y120.622
X85.236Y94.722
X85.236Y68.822
X85.236Y42.922
X85.236Y17.022
X85.243Y152.372
X85.243Y126.472
X85.243Y100.572
X85.243Y74.672
X85.243Y48.772
X85.243Y22.872
X85.493Y150.915
X85.493Y125.015
X85.493Y99.115
X85.493Y73.215
X85.493Y47.315
X85.493Y21.415
X85.65Y135.488
X85.65Y109.588
X85.65Y83.688
X85.65Y57.788
X85.65Y31.888
X85.65Y5.988
X86.071Y143.935
X86.071Y118.035
X86.071Y92.135
X86.071Y66.235
X86.071Y40.335
X86.071Y14.435
X86.406Y139.016
X86.406Y113.116
X86.406Y87.216
X86.406Y61.316
X86.406Y35.416
X86.406Y9.516
X86.995Y148.01
X86.995Y122.11
X86.995Y96.21
X86.995Y70.31
X86.995Y44.41
X86.995Y18.51
X87.223Y144.391
X87.223Y118.491
X87.223Y92.591
X87.223Y66.691
X87.223Y40.791
X87.223Y14.891
X87.234Y139.794
X87.234Y113.894
X87.234Y87.994
X87.234Y62.094
X87.234Y36.194
X87.234Y10.294
X87.843Y130.042
X87.843Y104.142
X87.843Y78.242
X87.843Y52.342
X87.843Y26.442
X87.843Y0.542
X88.095Y138.398
X88.095Y112.498
X88.095Y86.598
X88.095Y60.698
X88.095Y34.798
X88.095Y8.898
X88.384Y142.257
X88.384Y116.357
X88.384Y90.457
X88.384Y64.557
X88.384Y38.657
X88.384Y12.757
X88.592Y148.577
X88.592Y122.677
X88.592Y96.777
X88.592Y70.877
X88.592Y44.977
X88.592Y19.077
X89.111Y135.722
X89.111Y109.822
X89.111Y83.922
X89.111Y58.022
X89.111Y32.122
X89.111Y6.222
X89.193Y143.61
X89.193Y117.71
X89.193Y91.81
X89.193Y65.91
X89.193Y40.01
X89.193Y14.11
X89.23Y140.631
X89.23Y114.731
X89.23Y88.831
X89.23Y62.931
X89.23Y37.031
X89.23Y11.131
X89.325Y152.361
X89.325Y126.461
X89.325Y100.561
X89.325Y74.661
X89.325Y48.761
X89.325Y22.861
X89.962Y139.06
X89.962Y113.16
X89.962Y87.26
X89.962Y61.36
X89.962Y35.46
X89.962Y9.56
X90.036Y143.784
X90.036Y117.884
X90.036Y91.984
X90.036Y66.084
X90.036Y40.184
X90.036Y14.284
X90.042Y147.223
X90.042Y121.323
X90.042Y95.423
X90.042Y69.523
X90.042Y43.623
X90.042Y17.723
X90.309Y137.012
X90.309Y111.112
X90.309Y85.212
X90.309Y59.312
X90.309Y33.412
X90.309Y7.512
X90.489Y152.384
X90.489Y126.484
X90.489Y100.584
X90.489Y74.684
X90.489Y48.784
X90.489Y22.884
X90.552Y150.8
X90.552Y124.9
X90.552Y99.0
X90.552Y73.1
X90.552Y47.2
X90.552Y21.3
X91.438Y144.759
X91.438Y118.859
X91.438Y92.959
X91.438Y67.059
X91.438Y41.159
X91.438Y15.259
X91.588Y148.666
X91.588Y122.766
X91.588Y96.866
X91.588Y70.966
X91.588Y45.066
X91.588Y19.166
X91.855Y135.528
X91.855Y109.628
X91.855Y83.728
X91.855Y57.828
X91.855Y31.928
X91.855Y6.028
X92.067Y150.755
X92.067Y124.855
X92.067Y98.955
X92.067Y73.055
X92.067Y47.155
X92.067Y21.255
X92.177Y153.229
X92.177Y127.329
X92.177Y101.429
X92.177Y75.529
X92.177Y49.629
X92.177Y23.729
X92.452Y143.306
X92.452Y117.406
X92.452Y91.506
X92.452Y65.606
X92.452Y39.706
X92.452Y13.806
X92.474Y141.559
X92.474Y115.659
X92.474Y89.759
X92.474Y63.859
X92.474Y37.959
X92.474Y12.059
X92.831Y138.929
X92.831Y113.029
X92.831Y87.129
X92.831Y61.229
X92.831Y35.329
X92.831Y9.429
X92.898Y150.538
X92.898Y124.638
X92.898Y98.738
X92.898Y72.838
X92.898Y46.938
X92.898Y21.038
X92.933Y130.044
X92.933Y104.144
X92.933Y78.244
X92.933Y52.344
X92.933Y26.444
X92.933Y0.544
X93.071Y141.084
X93.071Y115.184
X93.071Y89.284
X93.071Y63.384
X93.071Y37.484
X93.071Y11.584
X93.45Y135.5
X93.45Y109.6
X93.45Y83.7
X93.45Y57.8
X93.45Y31.9
X93.45Y6.0
X93.454Y148.278
X93.454Y122.378
X93.454Y96.478
X93.454Y70.578
X93.454Y44.678
X93.454Y18.778
X93.855Y153.32
X93.855Y127.42
X93.855Y101.52
X93.855Y75.62
X93.855Y49.72
X93.855Y23.82
X94.413Y138.936
X94.413Y113.036
X94.413Y87.136
X94.413Y61.236
X94.413Y35.336
X94.413Y9.436
X94.844Y141.388
X94.844Y115.488
X94.844Y89.588
X94.844Y63.688
X94.844Y37.788
X94.844Y11.888
X95.075Y135.494
X95.075Y109.594
X95.075Y83.694
X95.075Y57.794
X95.075Y31.894
X95.075Y5.994
X95.114Y149.889
X95.114Y123.989
X95.114Y98.089
X95.114Y72.189
X95.114Y46.289
X95.114Y20.389
X95.492Y130.081
X95.492Y104.181
X95.492Y78.281
X95.492Y52.381
X95.492Y26.481
X95.492Y0.581
X95.565Y148.966
X95.565Y123.066
X95.565Y97.166
X95.565Y71.266
X95.565Y45.366
X95.565Y19.466
X96.422Y152.339
X96.422Y126.439
X96.422Y100.539
X96.422Y74.639
X96.422Y48.739
X96.422Y22.839
X96.747Y148.704
X96.747Y122.804
X96.747Y96.904
X96.747Y71.004
X96.747Y45.104
X96.747Y19.204
X96.907Y141.393
X96.907Y115.493
X96.907Y89.593
X96.907Y63.693
X96.907Y37.793
X96.907Y11.893
X97.248Y138.88
X97.248Y112.98
X97.248Y87.08
X97.248Y61.18
X97.248Y35.28
X97.248Y9.38
X97.835Y154.358
X97.835Y128.458
X97.835Y102.558
X97.835Y76.658
X97.835Y50.758
X97.835Y24.858
X98.105Y129.994
X98.105Y104.094
X98.105Y78.194
X98.105Y52.294
X98.105Y26.394
X98.105Y0.494
X98.873Y150.284
X98.873Y124.384
X98.873Y98.484
X98.873Y72.584
X98.873Y46.684
X98.873Y20.784
X99.544Y141.692
X99.544Y115.792
X99.544Y89.892
X99.544Y63.992
X99.544Y38.092
X99.544Y12.192
X99.853Y140.358
X99.853Y114.458
X99.853Y88.558
X99.853Y62.658
X99.853Y36.758
X99.853Y10.858
X100.644Y147.929
X100.644Y122.029
X100.644Y96.129
X100.644Y70.229
X100.644Y44.329
X100.644Y18.429
X101.512Y134.898
X101.512Y108.997
X101.512Y83.097
X101.512Y57.197
X101.512Y31.297
X101.512Y5.397
X102.288Y142.317
X102.288Y116.417
X102.288Y90.517
X102.288Y64.617
X102.288Y38.717
X102.288Y12.817
X102.572Y147.497
X102.572Y121.597
X102.572Y95.697
X102.572Y69.797
X102.572Y43.897
X102.572Y17.997
X102.595Y154.378
X102.595Y128.478
X102.595Y102.578
X102.595Y76.678
X102.595Y50.778
X102.595Y24.878
X102.607Y138.356
X102.607Y112.456
X102.607Y86.556
X102.607Y60.656
X102.607Y34.756
X102.607Y8.856
T2
X1.27Y147.28
X1.27Y121.38
X1.27Y95.48
X1.27Y69.58
X1.27Y43.68
X1.27Y17.78
X3.81Y147.28
X3.81Y121.38
X3.81Y95.48
X3.81Y69.58
X3.81Y43.68
X3.81Y17.78
X6.35Y130.77
X6.35Y104.87
X6.35Y78.97
X6.35Y53.07
X6.35Y27.17
X6.35Y1.27
X8.89Y130.77
X8.89Y104.87
X8.89Y78.97
X8.89Y53.07
X8.89Y27.17
X8.89Y1.27
X11.43Y130.77
X11.43Y104.87
X11.43Y78.97
X11.43Y53.07
X11.43Y27.17
X11.43Y1.27
X13.97Y130.77
X13.97Y104.87
X13.97Y78.97
X13.97Y53.07
X13.97Y27.17
X13.97Y1.27
X16.51Y130.77
X16.51Y104.87
X16.51Y78.97
X16.51Y53.07
X16.51Y27.17
X16.51Y1.27
X19.05Y130.77
X19.05Y104.87
X19.05Y78.97
X19.05Y53.07
X19.05Y27.17
X19.05Y1.27
X27.17Y147.28
X27.17Y121.38
X27.17Y95.48
X27.17Y69.58
X27.17Y43.68
X27.17Y17.78
X29.71Y147.28
X29.71Y121.38
X29.71Y95.48
X29.71Y69.58
X29.71Y43.68
X29.71Y17.78
X32.25Y130.77
X32.25Y104.87
X32.25Y78.97
X32.25Y53.07
X32.25Y27.17
X32.25Y1.27
X34.79Y130.77
X34.79Y104.87
X34.79Y78.97
X34.79Y53.07
X34.79Y27.17
X34.79Y1.27
X37.33Y130.77
X37.33Y104.87
X37.33Y78.97
X37.33Y53.07
X37.33Y27.17
X37.33Y1.27
X39.87Y130.77
X39.87Y104.87
X39.87Y78.97
X39.87Y53.07
X39.87Y27.17
X39.87Y1.27
X42.41Y130.77
X42.41Y104.87
X42.41Y78.97
X42.41Y53.07
X42.41Y27.17
X42.41Y1.27
X44.95Y130.77
X44.95Y104.87
X44.95Y78.97
X44.95Y53.07
X44.95Y27.17
X44.95Y1.27
X53.07Y147.28
X53.07Y121.38
X53.07Y95.48
X53.07Y69.58
X53.07Y43.68
X53.07Y17.78
X55.61Y147.28
X55.61Y121.38
X55.61Y95.48
X55.61Y69.58
X55.61Y43.68
X55.61Y17.78
X58.15Y130.77
X58.15Y104.87
X58.15Y78.97
X58.15Y53.07
X58.15Y27.17
X58.15Y1.27
X60.69Y130.77
X60.69Y104.87
X60.69Y78.97
X60.69Y53.07
X60.69Y27.17
X60.69Y1.27
X63.23Y130.77
X63.23Y104.87
X63.23Y78.97
X63.23Y53.07
X63.23Y27.17
X63.23Y1.27
X65.77Y130.77
X65.77Y104.87
X65.77Y78.97
X65.77Y53.07
X65.77Y27.17
X65.77Y1.27
X68.31Y130.77
X68.31Y104.87
X68.31Y78.97
X68.31Y53.07
X68.31Y27.17
X68.31Y1.27
X70.85Y130.77
X70.85Y104.87
X70.85Y78.97
X70.85Y53.07
X70.85Y27.17
X70.85Y1.27
X78.97Y147.28
X78.97Y121.38
X78.97Y95.48
X78.97Y69.58
X78.97Y43.68
X78.97Y17.78
X81.51Y147.28
X81.51Y121.38
X81.51Y95.48
X81.51Y69.58
X81.51Y43.68
X81.51Y17.78
X84.05Y130.77
X84.05Y104.87
X84.05Y78.97
X84.05Y53.07
X84.05Y27.17
X84.05Y1.27
X86.59Y130.77
X86.59Y104.87
X86.59Y78.97
X86.59Y53.07
X86.59Y27.17
X86.59Y1.27
X89.13Y130.77
X89.13Y104.87
X89.13Y78.97
X89.13Y53.07
X89.13Y27.17
X89.13Y1.27
X91.67Y130.77
X91.67Y104.87
X91.67Y78.97
X91.67Y53.07
X91.67Y27.17
X91.67Y1.27
X94.21Y130.77
X94.21Y104.87
X94.21Y78.97
X94.21Y53.07
X94.21Y27.17
X94.21Y1.27
X96.75Y130.77
X96.75Y104.87
X96.75Y78.97
X96.75Y53.07
X96.75Y27.17
X96.75Y1.27
T3
X2.54Y152.36
X2.54Y132.04
X2.54Y126.46
X2.54Y106.14
X2.54Y100.56
X2.54Y80.24
X2.54Y74.66
X2.54Y54.34
X2.54Y48.76
X2.54Y28.44
X2.54Y22.86
X2.54Y2.54
X22.86Y152.36
X22.86Y132.04
X22.86Y126.46
X22.86Y106.14
X22.86Y100.56
X22.86Y80.24
X22.86Y74.66
X22.86Y54.34
X22.86Y48.76
X22.86Y28.44
X22.86Y22.86
X22.86Y2.54
X28.44Y152.36
X28.44Y132.04
X28.44Y126.46
X28.44Y106.14
X28.44Y100.56
X28.44Y80.24
X28.44Y74.66
X28.44Y54.34
X28.44Y48.76
X28.44Y28.44
X28.44Y22.86
X28.44Y2.54
X48.76Y152.36
X48.76Y132.04
X48.76Y126.46
X48.76Y106.14
X48.76Y100.56
X48.76Y80.24
X48.76Y74.66
X48.76Y54.34
X48.76Y48.76
X48.76Y28.44
X48.76Y22.86
X48.76Y2.54
X54.34Y152.36
X54.34Y132.04
X54.34Y126.46
X54.34Y106.14
X54.34Y100.56
X54.34Y80.24
X54.34Y74.66
X54.34Y54.34
X54.34Y48.76
X54.34Y28.44
X54.34Y22.86
X54.34Y2.54
X74.66Y152.36
X74.66Y132.04
X74.66Y126.46
X74.66Y106.14
X74.66Y100.56
X74.66Y80.24
X74.66Y74.66
X74.66Y54.34
X74.66Y48.76
X74.66Y28.44
X74.66Y22.86
X74.66Y2.54
X80.24Y152.36
X80.24Y132.04
X80.24Y126.46
X80.24Y106.14
X80.24Y100.56
X80.24Y80.24
X80.24Y74.66
X80.24Y54.34
X80.24Y48.76
X80.24Y28.44
X80.24Y22.86
X80.24Y2.54
X100.56Y152.36
X100.56Y132.04
X100.56Y126.46
X100.56Y106.14
X100.56Y100.56
X100.56Y80.24
X100.56Y74.66
X100.56Y54.34
X100.56Y48.76
X100.56Y28.44
X100.56Y22.86
X100.56Y2.54
M30
