%TF.GenerationSoftware,KiCad,Pcbnew,9.0.0*%
%TF.CreationDate,2025-05-07T13:20:37-06:00*%
%TF.ProjectId,SparkFun_AS7343_Qwiic_panelized,53706172-6b46-4756-9e5f-415337333433,v10*%
%TF.SameCoordinates,Original*%
%TF.FileFunction,Soldermask,Bot*%
%TF.FilePolarity,Negative*%
%FSLAX46Y46*%
G04 Gerber Fmt 4.6, Leading zero omitted, Abs format (unit mm)*
G04 Created by KiCad (PCBNEW 9.0.0) date 2025-05-07 13:20:37*
%MOMM*%
%LPD*%
G01*
G04 APERTURE LIST*
G04 Aperture macros list*
%AMRoundRect*
0 Rectangle with rounded corners*
0 $1 Rounding radius*
0 $2 $3 $4 $5 $6 $7 $8 $9 X,Y pos of 4 corners*
0 Add a 4 corners polygon primitive as box body*
4,1,4,$2,$3,$4,$5,$6,$7,$8,$9,$2,$3,0*
0 Add four circle primitives for the rounded corners*
1,1,$1+$1,$2,$3*
1,1,$1+$1,$4,$5*
1,1,$1+$1,$6,$7*
1,1,$1+$1,$8,$9*
0 Add four rect primitives between the rounded corners*
20,1,$1+$1,$2,$3,$4,$5,0*
20,1,$1+$1,$4,$5,$6,$7,0*
20,1,$1+$1,$6,$7,$8,$9,0*
20,1,$1+$1,$8,$9,$2,$3,0*%
G04 Aperture macros list end*
%ADD10C,0.000000*%
%ADD11C,1.100000*%
%ADD12C,1.600000*%
%ADD13RoundRect,0.050000X0.635000X-0.330200X0.635000X0.330200X-0.635000X0.330200X-0.635000X-0.330200X0*%
%ADD14C,0.600000*%
%ADD15RoundRect,0.050000X0.330200X0.635000X-0.330200X0.635000X-0.330200X-0.635000X0.330200X-0.635000X0*%
%ADD16RoundRect,0.050000X-0.330200X-0.635000X0.330200X-0.635000X0.330200X0.635000X-0.330200X0.635000X0*%
%ADD17C,3.200000*%
%ADD18C,1.979600*%
G04 APERTURE END LIST*
D10*
%TO.C,JP3*%
G36*
X87465500Y145438500D02*
G01*
X86984500Y145438500D01*
X86984500Y145946500D01*
X87465500Y145946500D01*
X87465500Y145438500D01*
G37*
G36*
X87465500Y119538500D02*
G01*
X86984500Y119538500D01*
X86984500Y120046500D01*
X87465500Y120046500D01*
X87465500Y119538500D01*
G37*
G36*
X87465500Y93638500D02*
G01*
X86984500Y93638500D01*
X86984500Y94146500D01*
X87465500Y94146500D01*
X87465500Y93638500D01*
G37*
G36*
X87465500Y67738500D02*
G01*
X86984500Y67738500D01*
X86984500Y68246500D01*
X87465500Y68246500D01*
X87465500Y67738500D01*
G37*
G36*
X87465500Y41838500D02*
G01*
X86984500Y41838500D01*
X86984500Y42346500D01*
X87465500Y42346500D01*
X87465500Y41838500D01*
G37*
G36*
X87465500Y15938500D02*
G01*
X86984500Y15938500D01*
X86984500Y16446500D01*
X87465500Y16446500D01*
X87465500Y15938500D01*
G37*
G36*
X61565500Y145438500D02*
G01*
X61084500Y145438500D01*
X61084500Y145946500D01*
X61565500Y145946500D01*
X61565500Y145438500D01*
G37*
G36*
X61565500Y119538500D02*
G01*
X61084500Y119538500D01*
X61084500Y120046500D01*
X61565500Y120046500D01*
X61565500Y119538500D01*
G37*
G36*
X61565500Y93638500D02*
G01*
X61084500Y93638500D01*
X61084500Y94146500D01*
X61565500Y94146500D01*
X61565500Y93638500D01*
G37*
G36*
X61565500Y67738500D02*
G01*
X61084500Y67738500D01*
X61084500Y68246500D01*
X61565500Y68246500D01*
X61565500Y67738500D01*
G37*
G36*
X61565500Y41838500D02*
G01*
X61084500Y41838500D01*
X61084500Y42346500D01*
X61565500Y42346500D01*
X61565500Y41838500D01*
G37*
G36*
X61565500Y15938500D02*
G01*
X61084500Y15938500D01*
X61084500Y16446500D01*
X61565500Y16446500D01*
X61565500Y15938500D01*
G37*
G36*
X35665500Y145438500D02*
G01*
X35184500Y145438500D01*
X35184500Y145946500D01*
X35665500Y145946500D01*
X35665500Y145438500D01*
G37*
G36*
X35665500Y119538500D02*
G01*
X35184500Y119538500D01*
X35184500Y120046500D01*
X35665500Y120046500D01*
X35665500Y119538500D01*
G37*
G36*
X35665500Y93638500D02*
G01*
X35184500Y93638500D01*
X35184500Y94146500D01*
X35665500Y94146500D01*
X35665500Y93638500D01*
G37*
G36*
X35665500Y67738500D02*
G01*
X35184500Y67738500D01*
X35184500Y68246500D01*
X35665500Y68246500D01*
X35665500Y67738500D01*
G37*
G36*
X35665500Y41838500D02*
G01*
X35184500Y41838500D01*
X35184500Y42346500D01*
X35665500Y42346500D01*
X35665500Y41838500D01*
G37*
G36*
X35665500Y15938500D02*
G01*
X35184500Y15938500D01*
X35184500Y16446500D01*
X35665500Y16446500D01*
X35665500Y15938500D01*
G37*
G36*
X9765500Y145438500D02*
G01*
X9284500Y145438500D01*
X9284500Y145946500D01*
X9765500Y145946500D01*
X9765500Y145438500D01*
G37*
G36*
X9765500Y119538500D02*
G01*
X9284500Y119538500D01*
X9284500Y120046500D01*
X9765500Y120046500D01*
X9765500Y119538500D01*
G37*
G36*
X9765500Y93638500D02*
G01*
X9284500Y93638500D01*
X9284500Y94146500D01*
X9765500Y94146500D01*
X9765500Y93638500D01*
G37*
G36*
X9765500Y67738500D02*
G01*
X9284500Y67738500D01*
X9284500Y68246500D01*
X9765500Y68246500D01*
X9765500Y67738500D01*
G37*
G36*
X9765500Y41838500D02*
G01*
X9284500Y41838500D01*
X9284500Y42346500D01*
X9765500Y42346500D01*
X9765500Y41838500D01*
G37*
%TO.C,JP1*%
G36*
X101322000Y136879500D02*
G01*
X100814000Y136879500D01*
X100814000Y137360500D01*
X101322000Y137360500D01*
X101322000Y136879500D01*
G37*
G36*
X101322000Y110979500D02*
G01*
X100814000Y110979500D01*
X100814000Y111460500D01*
X101322000Y111460500D01*
X101322000Y110979500D01*
G37*
G36*
X101322000Y85079500D02*
G01*
X100814000Y85079500D01*
X100814000Y85560500D01*
X101322000Y85560500D01*
X101322000Y85079500D01*
G37*
G36*
X101322000Y59179500D02*
G01*
X100814000Y59179500D01*
X100814000Y59660500D01*
X101322000Y59660500D01*
X101322000Y59179500D01*
G37*
G36*
X101322000Y33279500D02*
G01*
X100814000Y33279500D01*
X100814000Y33760500D01*
X101322000Y33760500D01*
X101322000Y33279500D01*
G37*
G36*
X101322000Y7379500D02*
G01*
X100814000Y7379500D01*
X100814000Y7860500D01*
X101322000Y7860500D01*
X101322000Y7379500D01*
G37*
G36*
X75422000Y136879500D02*
G01*
X74914000Y136879500D01*
X74914000Y137360500D01*
X75422000Y137360500D01*
X75422000Y136879500D01*
G37*
G36*
X75422000Y110979500D02*
G01*
X74914000Y110979500D01*
X74914000Y111460500D01*
X75422000Y111460500D01*
X75422000Y110979500D01*
G37*
G36*
X75422000Y85079500D02*
G01*
X74914000Y85079500D01*
X74914000Y85560500D01*
X75422000Y85560500D01*
X75422000Y85079500D01*
G37*
G36*
X75422000Y59179500D02*
G01*
X74914000Y59179500D01*
X74914000Y59660500D01*
X75422000Y59660500D01*
X75422000Y59179500D01*
G37*
G36*
X75422000Y33279500D02*
G01*
X74914000Y33279500D01*
X74914000Y33760500D01*
X75422000Y33760500D01*
X75422000Y33279500D01*
G37*
G36*
X75422000Y7379500D02*
G01*
X74914000Y7379500D01*
X74914000Y7860500D01*
X75422000Y7860500D01*
X75422000Y7379500D01*
G37*
G36*
X49522000Y136879500D02*
G01*
X49014000Y136879500D01*
X49014000Y137360500D01*
X49522000Y137360500D01*
X49522000Y136879500D01*
G37*
G36*
X49522000Y110979500D02*
G01*
X49014000Y110979500D01*
X49014000Y111460500D01*
X49522000Y111460500D01*
X49522000Y110979500D01*
G37*
G36*
X49522000Y85079500D02*
G01*
X49014000Y85079500D01*
X49014000Y85560500D01*
X49522000Y85560500D01*
X49522000Y85079500D01*
G37*
G36*
X49522000Y59179500D02*
G01*
X49014000Y59179500D01*
X49014000Y59660500D01*
X49522000Y59660500D01*
X49522000Y59179500D01*
G37*
G36*
X49522000Y33279500D02*
G01*
X49014000Y33279500D01*
X49014000Y33760500D01*
X49522000Y33760500D01*
X49522000Y33279500D01*
G37*
G36*
X49522000Y7379500D02*
G01*
X49014000Y7379500D01*
X49014000Y7860500D01*
X49522000Y7860500D01*
X49522000Y7379500D01*
G37*
G36*
X23622000Y136879500D02*
G01*
X23114000Y136879500D01*
X23114000Y137360500D01*
X23622000Y137360500D01*
X23622000Y136879500D01*
G37*
G36*
X23622000Y110979500D02*
G01*
X23114000Y110979500D01*
X23114000Y111460500D01*
X23622000Y111460500D01*
X23622000Y110979500D01*
G37*
G36*
X23622000Y85079500D02*
G01*
X23114000Y85079500D01*
X23114000Y85560500D01*
X23622000Y85560500D01*
X23622000Y85079500D01*
G37*
G36*
X23622000Y59179500D02*
G01*
X23114000Y59179500D01*
X23114000Y59660500D01*
X23622000Y59660500D01*
X23622000Y59179500D01*
G37*
G36*
X23622000Y33279500D02*
G01*
X23114000Y33279500D01*
X23114000Y33760500D01*
X23622000Y33760500D01*
X23622000Y33279500D01*
G37*
%TO.C,JP2*%
G36*
X86967000Y152777500D02*
G01*
X86459000Y152777500D01*
X86459000Y153258500D01*
X86967000Y153258500D01*
X86967000Y152777500D01*
G37*
G36*
X87999700Y152754500D02*
G01*
X87491700Y152754500D01*
X87491700Y153235500D01*
X87999700Y153235500D01*
X87999700Y152754500D01*
G37*
G36*
X86967000Y126877500D02*
G01*
X86459000Y126877500D01*
X86459000Y127358500D01*
X86967000Y127358500D01*
X86967000Y126877500D01*
G37*
G36*
X87999700Y126854500D02*
G01*
X87491700Y126854500D01*
X87491700Y127335500D01*
X87999700Y127335500D01*
X87999700Y126854500D01*
G37*
G36*
X86967000Y100977500D02*
G01*
X86459000Y100977500D01*
X86459000Y101458500D01*
X86967000Y101458500D01*
X86967000Y100977500D01*
G37*
G36*
X87999700Y100954500D02*
G01*
X87491700Y100954500D01*
X87491700Y101435500D01*
X87999700Y101435500D01*
X87999700Y100954500D01*
G37*
G36*
X86967000Y75077500D02*
G01*
X86459000Y75077500D01*
X86459000Y75558500D01*
X86967000Y75558500D01*
X86967000Y75077500D01*
G37*
G36*
X87999700Y75054500D02*
G01*
X87491700Y75054500D01*
X87491700Y75535500D01*
X87999700Y75535500D01*
X87999700Y75054500D01*
G37*
G36*
X86967000Y49177500D02*
G01*
X86459000Y49177500D01*
X86459000Y49658500D01*
X86967000Y49658500D01*
X86967000Y49177500D01*
G37*
G36*
X87999700Y49154500D02*
G01*
X87491700Y49154500D01*
X87491700Y49635500D01*
X87999700Y49635500D01*
X87999700Y49154500D01*
G37*
G36*
X86967000Y23277500D02*
G01*
X86459000Y23277500D01*
X86459000Y23758500D01*
X86967000Y23758500D01*
X86967000Y23277500D01*
G37*
G36*
X87999700Y23254500D02*
G01*
X87491700Y23254500D01*
X87491700Y23735500D01*
X87999700Y23735500D01*
X87999700Y23254500D01*
G37*
G36*
X61067000Y152777500D02*
G01*
X60559000Y152777500D01*
X60559000Y153258500D01*
X61067000Y153258500D01*
X61067000Y152777500D01*
G37*
G36*
X62099700Y152754500D02*
G01*
X61591700Y152754500D01*
X61591700Y153235500D01*
X62099700Y153235500D01*
X62099700Y152754500D01*
G37*
G36*
X61067000Y126877500D02*
G01*
X60559000Y126877500D01*
X60559000Y127358500D01*
X61067000Y127358500D01*
X61067000Y126877500D01*
G37*
G36*
X62099700Y126854500D02*
G01*
X61591700Y126854500D01*
X61591700Y127335500D01*
X62099700Y127335500D01*
X62099700Y126854500D01*
G37*
G36*
X61067000Y100977500D02*
G01*
X60559000Y100977500D01*
X60559000Y101458500D01*
X61067000Y101458500D01*
X61067000Y100977500D01*
G37*
G36*
X62099700Y100954500D02*
G01*
X61591700Y100954500D01*
X61591700Y101435500D01*
X62099700Y101435500D01*
X62099700Y100954500D01*
G37*
G36*
X61067000Y75077500D02*
G01*
X60559000Y75077500D01*
X60559000Y75558500D01*
X61067000Y75558500D01*
X61067000Y75077500D01*
G37*
G36*
X62099700Y75054500D02*
G01*
X61591700Y75054500D01*
X61591700Y75535500D01*
X62099700Y75535500D01*
X62099700Y75054500D01*
G37*
G36*
X61067000Y49177500D02*
G01*
X60559000Y49177500D01*
X60559000Y49658500D01*
X61067000Y49658500D01*
X61067000Y49177500D01*
G37*
G36*
X62099700Y49154500D02*
G01*
X61591700Y49154500D01*
X61591700Y49635500D01*
X62099700Y49635500D01*
X62099700Y49154500D01*
G37*
G36*
X61067000Y23277500D02*
G01*
X60559000Y23277500D01*
X60559000Y23758500D01*
X61067000Y23758500D01*
X61067000Y23277500D01*
G37*
G36*
X62099700Y23254500D02*
G01*
X61591700Y23254500D01*
X61591700Y23735500D01*
X62099700Y23735500D01*
X62099700Y23254500D01*
G37*
G36*
X35167000Y152777500D02*
G01*
X34659000Y152777500D01*
X34659000Y153258500D01*
X35167000Y153258500D01*
X35167000Y152777500D01*
G37*
G36*
X36199700Y152754500D02*
G01*
X35691700Y152754500D01*
X35691700Y153235500D01*
X36199700Y153235500D01*
X36199700Y152754500D01*
G37*
G36*
X35167000Y126877500D02*
G01*
X34659000Y126877500D01*
X34659000Y127358500D01*
X35167000Y127358500D01*
X35167000Y126877500D01*
G37*
G36*
X36199700Y126854500D02*
G01*
X35691700Y126854500D01*
X35691700Y127335500D01*
X36199700Y127335500D01*
X36199700Y126854500D01*
G37*
G36*
X35167000Y100977500D02*
G01*
X34659000Y100977500D01*
X34659000Y101458500D01*
X35167000Y101458500D01*
X35167000Y100977500D01*
G37*
G36*
X36199700Y100954500D02*
G01*
X35691700Y100954500D01*
X35691700Y101435500D01*
X36199700Y101435500D01*
X36199700Y100954500D01*
G37*
G36*
X35167000Y75077500D02*
G01*
X34659000Y75077500D01*
X34659000Y75558500D01*
X35167000Y75558500D01*
X35167000Y75077500D01*
G37*
G36*
X36199700Y75054500D02*
G01*
X35691700Y75054500D01*
X35691700Y75535500D01*
X36199700Y75535500D01*
X36199700Y75054500D01*
G37*
G36*
X35167000Y49177500D02*
G01*
X34659000Y49177500D01*
X34659000Y49658500D01*
X35167000Y49658500D01*
X35167000Y49177500D01*
G37*
G36*
X36199700Y49154500D02*
G01*
X35691700Y49154500D01*
X35691700Y49635500D01*
X36199700Y49635500D01*
X36199700Y49154500D01*
G37*
G36*
X35167000Y23277500D02*
G01*
X34659000Y23277500D01*
X34659000Y23758500D01*
X35167000Y23758500D01*
X35167000Y23277500D01*
G37*
G36*
X36199700Y23254500D02*
G01*
X35691700Y23254500D01*
X35691700Y23735500D01*
X36199700Y23735500D01*
X36199700Y23254500D01*
G37*
G36*
X9267000Y152777500D02*
G01*
X8759000Y152777500D01*
X8759000Y153258500D01*
X9267000Y153258500D01*
X9267000Y152777500D01*
G37*
G36*
X10299700Y152754500D02*
G01*
X9791700Y152754500D01*
X9791700Y153235500D01*
X10299700Y153235500D01*
X10299700Y152754500D01*
G37*
G36*
X9267000Y126877500D02*
G01*
X8759000Y126877500D01*
X8759000Y127358500D01*
X9267000Y127358500D01*
X9267000Y126877500D01*
G37*
G36*
X10299700Y126854500D02*
G01*
X9791700Y126854500D01*
X9791700Y127335500D01*
X10299700Y127335500D01*
X10299700Y126854500D01*
G37*
G36*
X9267000Y100977500D02*
G01*
X8759000Y100977500D01*
X8759000Y101458500D01*
X9267000Y101458500D01*
X9267000Y100977500D01*
G37*
G36*
X10299700Y100954500D02*
G01*
X9791700Y100954500D01*
X9791700Y101435500D01*
X10299700Y101435500D01*
X10299700Y100954500D01*
G37*
G36*
X9267000Y75077500D02*
G01*
X8759000Y75077500D01*
X8759000Y75558500D01*
X9267000Y75558500D01*
X9267000Y75077500D01*
G37*
G36*
X10299700Y75054500D02*
G01*
X9791700Y75054500D01*
X9791700Y75535500D01*
X10299700Y75535500D01*
X10299700Y75054500D01*
G37*
G36*
X9267000Y49177500D02*
G01*
X8759000Y49177500D01*
X8759000Y49658500D01*
X9267000Y49658500D01*
X9267000Y49177500D01*
G37*
G36*
X10299700Y49154500D02*
G01*
X9791700Y49154500D01*
X9791700Y49635500D01*
X10299700Y49635500D01*
X10299700Y49154500D01*
G37*
G36*
X9267000Y23277500D02*
G01*
X8759000Y23277500D01*
X8759000Y23758500D01*
X9267000Y23758500D01*
X9267000Y23277500D01*
G37*
G36*
X10299700Y23254500D02*
G01*
X9791700Y23254500D01*
X9791700Y23735500D01*
X10299700Y23735500D01*
X10299700Y23254500D01*
G37*
%TO.C,JP1*%
G36*
X23622000Y7379500D02*
G01*
X23114000Y7379500D01*
X23114000Y7860500D01*
X23622000Y7860500D01*
X23622000Y7379500D01*
G37*
%TO.C,JP3*%
G36*
X9765500Y15938500D02*
G01*
X9284500Y15938500D01*
X9284500Y16446500D01*
X9765500Y16446500D01*
X9765500Y15938500D01*
G37*
%TD*%
D11*
%TO.C,*%
X101100000Y156987500D03*
%TD*%
%TO.C,*%
X2000000Y156987500D03*
%TD*%
D12*
%TO.C,*%
X2000000Y-2087500D03*
%TD*%
D13*
%TO.C,JP3*%
X87225000Y145171800D03*
X87225000Y146213200D03*
%TD*%
%TO.C,JP3*%
X87225000Y119271800D03*
X87225000Y120313200D03*
%TD*%
%TO.C,JP3*%
X87225000Y93371800D03*
X87225000Y94413200D03*
%TD*%
%TO.C,JP3*%
X87225000Y67471800D03*
X87225000Y68513200D03*
%TD*%
%TO.C,JP3*%
X87225000Y41571800D03*
X87225000Y42613200D03*
%TD*%
%TO.C,JP3*%
X87225000Y15671800D03*
X87225000Y16713200D03*
%TD*%
%TO.C,JP3*%
X61325000Y145171800D03*
X61325000Y146213200D03*
%TD*%
%TO.C,JP3*%
X61325000Y119271800D03*
X61325000Y120313200D03*
%TD*%
%TO.C,JP3*%
X61325000Y93371800D03*
X61325000Y94413200D03*
%TD*%
%TO.C,JP3*%
X61325000Y67471800D03*
X61325000Y68513200D03*
%TD*%
%TO.C,JP3*%
X61325000Y41571800D03*
X61325000Y42613200D03*
%TD*%
%TO.C,JP3*%
X61325000Y15671800D03*
X61325000Y16713200D03*
%TD*%
%TO.C,JP3*%
X35425000Y145171800D03*
X35425000Y146213200D03*
%TD*%
%TO.C,JP3*%
X35425000Y119271800D03*
X35425000Y120313200D03*
%TD*%
%TO.C,JP3*%
X35425000Y93371800D03*
X35425000Y94413200D03*
%TD*%
%TO.C,JP3*%
X35425000Y67471800D03*
X35425000Y68513200D03*
%TD*%
%TO.C,JP3*%
X35425000Y41571800D03*
X35425000Y42613200D03*
%TD*%
%TO.C,JP3*%
X35425000Y15671800D03*
X35425000Y16713200D03*
%TD*%
%TO.C,JP3*%
X9525000Y145171800D03*
X9525000Y146213200D03*
%TD*%
%TO.C,JP3*%
X9525000Y119271800D03*
X9525000Y120313200D03*
%TD*%
%TO.C,JP3*%
X9525000Y93371800D03*
X9525000Y94413200D03*
%TD*%
%TO.C,JP3*%
X9525000Y67471800D03*
X9525000Y68513200D03*
%TD*%
%TO.C,JP3*%
X9525000Y41571800D03*
X9525000Y42613200D03*
%TD*%
D14*
%TO.C,FID1*%
X102465000Y130135000D03*
%TD*%
%TO.C,FID1*%
X102465000Y104235000D03*
%TD*%
%TO.C,FID1*%
X102465000Y78335000D03*
%TD*%
%TO.C,FID1*%
X102465000Y52435000D03*
%TD*%
%TO.C,FID1*%
X102465000Y26535000D03*
%TD*%
%TO.C,FID1*%
X102465000Y635000D03*
%TD*%
%TO.C,FID1*%
X76565000Y130135000D03*
%TD*%
%TO.C,FID1*%
X76565000Y104235000D03*
%TD*%
%TO.C,FID1*%
X76565000Y78335000D03*
%TD*%
%TO.C,FID1*%
X76565000Y52435000D03*
%TD*%
%TO.C,FID1*%
X76565000Y26535000D03*
%TD*%
%TO.C,FID1*%
X76565000Y635000D03*
%TD*%
%TO.C,FID1*%
X50665000Y130135000D03*
%TD*%
%TO.C,FID1*%
X50665000Y104235000D03*
%TD*%
%TO.C,FID1*%
X50665000Y78335000D03*
%TD*%
%TO.C,FID1*%
X50665000Y52435000D03*
%TD*%
%TO.C,FID1*%
X50665000Y26535000D03*
%TD*%
%TO.C,FID1*%
X50665000Y635000D03*
%TD*%
%TO.C,FID1*%
X24765000Y130135000D03*
%TD*%
%TO.C,FID1*%
X24765000Y104235000D03*
%TD*%
%TO.C,FID1*%
X24765000Y78335000D03*
%TD*%
%TO.C,FID1*%
X24765000Y52435000D03*
%TD*%
%TO.C,FID1*%
X24765000Y26535000D03*
%TD*%
%TO.C,FID2*%
X78335000Y154265000D03*
%TD*%
%TO.C,FID2*%
X78335000Y128365000D03*
%TD*%
%TO.C,FID2*%
X78335000Y102465000D03*
%TD*%
%TO.C,FID2*%
X78335000Y76565000D03*
%TD*%
%TO.C,FID2*%
X78335000Y50665000D03*
%TD*%
%TO.C,FID2*%
X78335000Y24765000D03*
%TD*%
%TO.C,FID2*%
X52435000Y154265000D03*
%TD*%
%TO.C,FID2*%
X52435000Y128365000D03*
%TD*%
%TO.C,FID2*%
X52435000Y102465000D03*
%TD*%
%TO.C,FID2*%
X52435000Y76565000D03*
%TD*%
%TO.C,FID2*%
X52435000Y50665000D03*
%TD*%
%TO.C,FID2*%
X52435000Y24765000D03*
%TD*%
%TO.C,FID2*%
X26535000Y154265000D03*
%TD*%
%TO.C,FID2*%
X26535000Y128365000D03*
%TD*%
%TO.C,FID2*%
X26535000Y102465000D03*
%TD*%
%TO.C,FID2*%
X26535000Y76565000D03*
%TD*%
%TO.C,FID2*%
X26535000Y50665000D03*
%TD*%
%TO.C,FID2*%
X26535000Y24765000D03*
%TD*%
%TO.C,FID2*%
X635000Y154265000D03*
%TD*%
%TO.C,FID2*%
X635000Y128365000D03*
%TD*%
%TO.C,FID2*%
X635000Y102465000D03*
%TD*%
%TO.C,FID2*%
X635000Y76565000D03*
%TD*%
%TO.C,FID2*%
X635000Y50665000D03*
%TD*%
D15*
%TO.C,JP1*%
X101588700Y137120000D03*
X100547300Y137120000D03*
%TD*%
%TO.C,JP1*%
X101588700Y111220000D03*
X100547300Y111220000D03*
%TD*%
%TO.C,JP1*%
X101588700Y85320000D03*
X100547300Y85320000D03*
%TD*%
%TO.C,JP1*%
X101588700Y59420000D03*
X100547300Y59420000D03*
%TD*%
%TO.C,JP1*%
X101588700Y33520000D03*
X100547300Y33520000D03*
%TD*%
%TO.C,JP1*%
X101588700Y7620000D03*
X100547300Y7620000D03*
%TD*%
%TO.C,JP1*%
X75688700Y137120000D03*
X74647300Y137120000D03*
%TD*%
%TO.C,JP1*%
X75688700Y111220000D03*
X74647300Y111220000D03*
%TD*%
%TO.C,JP1*%
X75688700Y85320000D03*
X74647300Y85320000D03*
%TD*%
%TO.C,JP1*%
X75688700Y59420000D03*
X74647300Y59420000D03*
%TD*%
%TO.C,JP1*%
X75688700Y33520000D03*
X74647300Y33520000D03*
%TD*%
%TO.C,JP1*%
X75688700Y7620000D03*
X74647300Y7620000D03*
%TD*%
%TO.C,JP1*%
X49788700Y137120000D03*
X48747300Y137120000D03*
%TD*%
%TO.C,JP1*%
X49788700Y111220000D03*
X48747300Y111220000D03*
%TD*%
%TO.C,JP1*%
X49788700Y85320000D03*
X48747300Y85320000D03*
%TD*%
%TO.C,JP1*%
X49788700Y59420000D03*
X48747300Y59420000D03*
%TD*%
%TO.C,JP1*%
X49788700Y33520000D03*
X48747300Y33520000D03*
%TD*%
%TO.C,JP1*%
X49788700Y7620000D03*
X48747300Y7620000D03*
%TD*%
%TO.C,JP1*%
X23888700Y137120000D03*
X22847300Y137120000D03*
%TD*%
%TO.C,JP1*%
X23888700Y111220000D03*
X22847300Y111220000D03*
%TD*%
%TO.C,JP1*%
X23888700Y85320000D03*
X22847300Y85320000D03*
%TD*%
%TO.C,JP1*%
X23888700Y59420000D03*
X22847300Y59420000D03*
%TD*%
%TO.C,JP1*%
X23888700Y33520000D03*
X22847300Y33520000D03*
%TD*%
%TO.C,JP2*%
X88266400Y152995000D03*
X87225000Y152995000D03*
D16*
X86183600Y152995000D03*
%TD*%
D15*
%TO.C,JP2*%
X88266400Y127095000D03*
X87225000Y127095000D03*
D16*
X86183600Y127095000D03*
%TD*%
D15*
%TO.C,JP2*%
X88266400Y101195000D03*
X87225000Y101195000D03*
D16*
X86183600Y101195000D03*
%TD*%
D15*
%TO.C,JP2*%
X88266400Y75295000D03*
X87225000Y75295000D03*
D16*
X86183600Y75295000D03*
%TD*%
D15*
%TO.C,JP2*%
X88266400Y49395000D03*
X87225000Y49395000D03*
D16*
X86183600Y49395000D03*
%TD*%
D15*
%TO.C,JP2*%
X88266400Y23495000D03*
X87225000Y23495000D03*
D16*
X86183600Y23495000D03*
%TD*%
D15*
%TO.C,JP2*%
X62366400Y152995000D03*
X61325000Y152995000D03*
D16*
X60283600Y152995000D03*
%TD*%
D15*
%TO.C,JP2*%
X62366400Y127095000D03*
X61325000Y127095000D03*
D16*
X60283600Y127095000D03*
%TD*%
D15*
%TO.C,JP2*%
X62366400Y101195000D03*
X61325000Y101195000D03*
D16*
X60283600Y101195000D03*
%TD*%
D15*
%TO.C,JP2*%
X62366400Y75295000D03*
X61325000Y75295000D03*
D16*
X60283600Y75295000D03*
%TD*%
D15*
%TO.C,JP2*%
X62366400Y49395000D03*
X61325000Y49395000D03*
D16*
X60283600Y49395000D03*
%TD*%
D15*
%TO.C,JP2*%
X62366400Y23495000D03*
X61325000Y23495000D03*
D16*
X60283600Y23495000D03*
%TD*%
D15*
%TO.C,JP2*%
X36466400Y152995000D03*
X35425000Y152995000D03*
D16*
X34383600Y152995000D03*
%TD*%
D15*
%TO.C,JP2*%
X36466400Y127095000D03*
X35425000Y127095000D03*
D16*
X34383600Y127095000D03*
%TD*%
D15*
%TO.C,JP2*%
X36466400Y101195000D03*
X35425000Y101195000D03*
D16*
X34383600Y101195000D03*
%TD*%
D15*
%TO.C,JP2*%
X36466400Y75295000D03*
X35425000Y75295000D03*
D16*
X34383600Y75295000D03*
%TD*%
D15*
%TO.C,JP2*%
X36466400Y49395000D03*
X35425000Y49395000D03*
D16*
X34383600Y49395000D03*
%TD*%
D15*
%TO.C,JP2*%
X36466400Y23495000D03*
X35425000Y23495000D03*
D16*
X34383600Y23495000D03*
%TD*%
D15*
%TO.C,JP2*%
X10566400Y152995000D03*
X9525000Y152995000D03*
D16*
X8483600Y152995000D03*
%TD*%
D15*
%TO.C,JP2*%
X10566400Y127095000D03*
X9525000Y127095000D03*
D16*
X8483600Y127095000D03*
%TD*%
D15*
%TO.C,JP2*%
X10566400Y101195000D03*
X9525000Y101195000D03*
D16*
X8483600Y101195000D03*
%TD*%
D15*
%TO.C,JP2*%
X10566400Y75295000D03*
X9525000Y75295000D03*
D16*
X8483600Y75295000D03*
%TD*%
D15*
%TO.C,JP2*%
X10566400Y49395000D03*
X9525000Y49395000D03*
D16*
X8483600Y49395000D03*
%TD*%
D17*
%TO.C,ST4*%
X80240000Y132040000D03*
%TD*%
%TO.C,ST4*%
X80240000Y106140000D03*
%TD*%
%TO.C,ST4*%
X80240000Y80240000D03*
%TD*%
%TO.C,ST4*%
X80240000Y54340000D03*
%TD*%
%TO.C,ST4*%
X80240000Y28440000D03*
%TD*%
%TO.C,ST4*%
X80240000Y2540000D03*
%TD*%
%TO.C,ST4*%
X54340000Y132040000D03*
%TD*%
%TO.C,ST4*%
X54340000Y106140000D03*
%TD*%
%TO.C,ST4*%
X54340000Y80240000D03*
%TD*%
%TO.C,ST4*%
X54340000Y54340000D03*
%TD*%
%TO.C,ST4*%
X54340000Y28440000D03*
%TD*%
%TO.C,ST4*%
X54340000Y2540000D03*
%TD*%
%TO.C,ST4*%
X28440000Y132040000D03*
%TD*%
%TO.C,ST4*%
X28440000Y106140000D03*
%TD*%
%TO.C,ST4*%
X28440000Y80240000D03*
%TD*%
%TO.C,ST4*%
X28440000Y54340000D03*
%TD*%
%TO.C,ST4*%
X28440000Y28440000D03*
%TD*%
%TO.C,ST4*%
X28440000Y2540000D03*
%TD*%
%TO.C,ST4*%
X2540000Y132040000D03*
%TD*%
%TO.C,ST4*%
X2540000Y106140000D03*
%TD*%
%TO.C,ST4*%
X2540000Y80240000D03*
%TD*%
%TO.C,ST4*%
X2540000Y54340000D03*
%TD*%
%TO.C,ST4*%
X2540000Y28440000D03*
%TD*%
D18*
%TO.C,D3*%
X81510000Y147280000D03*
X78970000Y147280000D03*
%TD*%
%TO.C,D3*%
X81510000Y121380000D03*
X78970000Y121380000D03*
%TD*%
%TO.C,D3*%
X81510000Y95480000D03*
X78970000Y95480000D03*
%TD*%
%TO.C,D3*%
X81510000Y69580000D03*
X78970000Y69580000D03*
%TD*%
%TO.C,D3*%
X81510000Y43680000D03*
X78970000Y43680000D03*
%TD*%
%TO.C,D3*%
X81510000Y17780000D03*
X78970000Y17780000D03*
%TD*%
%TO.C,D3*%
X55610000Y147280000D03*
X53070000Y147280000D03*
%TD*%
%TO.C,D3*%
X55610000Y121380000D03*
X53070000Y121380000D03*
%TD*%
%TO.C,D3*%
X55610000Y95480000D03*
X53070000Y95480000D03*
%TD*%
%TO.C,D3*%
X55610000Y69580000D03*
X53070000Y69580000D03*
%TD*%
%TO.C,D3*%
X55610000Y43680000D03*
X53070000Y43680000D03*
%TD*%
%TO.C,D3*%
X55610000Y17780000D03*
X53070000Y17780000D03*
%TD*%
%TO.C,D3*%
X29710000Y147280000D03*
X27170000Y147280000D03*
%TD*%
%TO.C,D3*%
X29710000Y121380000D03*
X27170000Y121380000D03*
%TD*%
%TO.C,D3*%
X29710000Y95480000D03*
X27170000Y95480000D03*
%TD*%
%TO.C,D3*%
X29710000Y69580000D03*
X27170000Y69580000D03*
%TD*%
%TO.C,D3*%
X29710000Y43680000D03*
X27170000Y43680000D03*
%TD*%
%TO.C,D3*%
X29710000Y17780000D03*
X27170000Y17780000D03*
%TD*%
%TO.C,D3*%
X3810000Y147280000D03*
X1270000Y147280000D03*
%TD*%
%TO.C,D3*%
X3810000Y121380000D03*
X1270000Y121380000D03*
%TD*%
%TO.C,D3*%
X3810000Y95480000D03*
X1270000Y95480000D03*
%TD*%
%TO.C,D3*%
X3810000Y69580000D03*
X1270000Y69580000D03*
%TD*%
%TO.C,D3*%
X3810000Y43680000D03*
X1270000Y43680000D03*
%TD*%
D17*
%TO.C,ST1*%
X80240000Y152360000D03*
%TD*%
%TO.C,ST1*%
X80240000Y126460000D03*
%TD*%
%TO.C,ST1*%
X80240000Y100560000D03*
%TD*%
%TO.C,ST1*%
X80240000Y74660000D03*
%TD*%
%TO.C,ST1*%
X80240000Y48760000D03*
%TD*%
%TO.C,ST1*%
X80240000Y22860000D03*
%TD*%
%TO.C,ST1*%
X54340000Y152360000D03*
%TD*%
%TO.C,ST1*%
X54340000Y126460000D03*
%TD*%
%TO.C,ST1*%
X54340000Y100560000D03*
%TD*%
%TO.C,ST1*%
X54340000Y74660000D03*
%TD*%
%TO.C,ST1*%
X54340000Y48760000D03*
%TD*%
%TO.C,ST1*%
X54340000Y22860000D03*
%TD*%
%TO.C,ST1*%
X28440000Y152360000D03*
%TD*%
%TO.C,ST1*%
X28440000Y126460000D03*
%TD*%
%TO.C,ST1*%
X28440000Y100560000D03*
%TD*%
%TO.C,ST1*%
X28440000Y74660000D03*
%TD*%
%TO.C,ST1*%
X28440000Y48760000D03*
%TD*%
%TO.C,ST1*%
X28440000Y22860000D03*
%TD*%
%TO.C,ST1*%
X2540000Y152360000D03*
%TD*%
%TO.C,ST1*%
X2540000Y126460000D03*
%TD*%
%TO.C,ST1*%
X2540000Y100560000D03*
%TD*%
%TO.C,ST1*%
X2540000Y74660000D03*
%TD*%
%TO.C,ST1*%
X2540000Y48760000D03*
%TD*%
%TO.C,ST2*%
X100560000Y152360000D03*
%TD*%
%TO.C,ST2*%
X100560000Y126460000D03*
%TD*%
%TO.C,ST2*%
X100560000Y100560000D03*
%TD*%
%TO.C,ST2*%
X100560000Y74660000D03*
%TD*%
%TO.C,ST2*%
X100560000Y48760000D03*
%TD*%
%TO.C,ST2*%
X100560000Y22860000D03*
%TD*%
%TO.C,ST2*%
X74660000Y152360000D03*
%TD*%
%TO.C,ST2*%
X74660000Y126460000D03*
%TD*%
%TO.C,ST2*%
X74660000Y100560000D03*
%TD*%
%TO.C,ST2*%
X74660000Y74660000D03*
%TD*%
%TO.C,ST2*%
X74660000Y48760000D03*
%TD*%
%TO.C,ST2*%
X74660000Y22860000D03*
%TD*%
%TO.C,ST2*%
X48760000Y152360000D03*
%TD*%
%TO.C,ST2*%
X48760000Y126460000D03*
%TD*%
%TO.C,ST2*%
X48760000Y100560000D03*
%TD*%
%TO.C,ST2*%
X48760000Y74660000D03*
%TD*%
%TO.C,ST2*%
X48760000Y48760000D03*
%TD*%
%TO.C,ST2*%
X48760000Y22860000D03*
%TD*%
%TO.C,ST2*%
X22860000Y152360000D03*
%TD*%
%TO.C,ST2*%
X22860000Y126460000D03*
%TD*%
%TO.C,ST2*%
X22860000Y100560000D03*
%TD*%
%TO.C,ST2*%
X22860000Y74660000D03*
%TD*%
%TO.C,ST2*%
X22860000Y48760000D03*
%TD*%
%TO.C,ST3*%
X100560000Y132040000D03*
%TD*%
%TO.C,ST3*%
X100560000Y106140000D03*
%TD*%
%TO.C,ST3*%
X100560000Y80240000D03*
%TD*%
%TO.C,ST3*%
X100560000Y54340000D03*
%TD*%
%TO.C,ST3*%
X100560000Y28440000D03*
%TD*%
%TO.C,ST3*%
X100560000Y2540000D03*
%TD*%
%TO.C,ST3*%
X74660000Y132040000D03*
%TD*%
%TO.C,ST3*%
X74660000Y106140000D03*
%TD*%
%TO.C,ST3*%
X74660000Y80240000D03*
%TD*%
%TO.C,ST3*%
X74660000Y54340000D03*
%TD*%
%TO.C,ST3*%
X74660000Y28440000D03*
%TD*%
%TO.C,ST3*%
X74660000Y2540000D03*
%TD*%
%TO.C,ST3*%
X48760000Y132040000D03*
%TD*%
%TO.C,ST3*%
X48760000Y106140000D03*
%TD*%
%TO.C,ST3*%
X48760000Y80240000D03*
%TD*%
%TO.C,ST3*%
X48760000Y54340000D03*
%TD*%
%TO.C,ST3*%
X48760000Y28440000D03*
%TD*%
%TO.C,ST3*%
X48760000Y2540000D03*
%TD*%
%TO.C,ST3*%
X22860000Y132040000D03*
%TD*%
%TO.C,ST3*%
X22860000Y106140000D03*
%TD*%
%TO.C,ST3*%
X22860000Y80240000D03*
%TD*%
%TO.C,ST3*%
X22860000Y54340000D03*
%TD*%
%TO.C,ST3*%
X22860000Y28440000D03*
%TD*%
D18*
%TO.C,J3*%
X84050000Y130770000D03*
X86590000Y130770000D03*
X89130000Y130770000D03*
X91670000Y130770000D03*
X94210000Y130770000D03*
X96750000Y130770000D03*
%TD*%
%TO.C,J3*%
X84050000Y104870000D03*
X86590000Y104870000D03*
X89130000Y104870000D03*
X91670000Y104870000D03*
X94210000Y104870000D03*
X96750000Y104870000D03*
%TD*%
%TO.C,J3*%
X84050000Y78970000D03*
X86590000Y78970000D03*
X89130000Y78970000D03*
X91670000Y78970000D03*
X94210000Y78970000D03*
X96750000Y78970000D03*
%TD*%
%TO.C,J3*%
X84050000Y53070000D03*
X86590000Y53070000D03*
X89130000Y53070000D03*
X91670000Y53070000D03*
X94210000Y53070000D03*
X96750000Y53070000D03*
%TD*%
%TO.C,J3*%
X84050000Y27170000D03*
X86590000Y27170000D03*
X89130000Y27170000D03*
X91670000Y27170000D03*
X94210000Y27170000D03*
X96750000Y27170000D03*
%TD*%
%TO.C,J3*%
X84050000Y1270000D03*
X86590000Y1270000D03*
X89130000Y1270000D03*
X91670000Y1270000D03*
X94210000Y1270000D03*
X96750000Y1270000D03*
%TD*%
%TO.C,J3*%
X58150000Y130770000D03*
X60690000Y130770000D03*
X63230000Y130770000D03*
X65770000Y130770000D03*
X68310000Y130770000D03*
X70850000Y130770000D03*
%TD*%
%TO.C,J3*%
X58150000Y104870000D03*
X60690000Y104870000D03*
X63230000Y104870000D03*
X65770000Y104870000D03*
X68310000Y104870000D03*
X70850000Y104870000D03*
%TD*%
%TO.C,J3*%
X58150000Y78970000D03*
X60690000Y78970000D03*
X63230000Y78970000D03*
X65770000Y78970000D03*
X68310000Y78970000D03*
X70850000Y78970000D03*
%TD*%
%TO.C,J3*%
X58150000Y53070000D03*
X60690000Y53070000D03*
X63230000Y53070000D03*
X65770000Y53070000D03*
X68310000Y53070000D03*
X70850000Y53070000D03*
%TD*%
%TO.C,J3*%
X58150000Y27170000D03*
X60690000Y27170000D03*
X63230000Y27170000D03*
X65770000Y27170000D03*
X68310000Y27170000D03*
X70850000Y27170000D03*
%TD*%
%TO.C,J3*%
X58150000Y1270000D03*
X60690000Y1270000D03*
X63230000Y1270000D03*
X65770000Y1270000D03*
X68310000Y1270000D03*
X70850000Y1270000D03*
%TD*%
%TO.C,J3*%
X32250000Y130770000D03*
X34790000Y130770000D03*
X37330000Y130770000D03*
X39870000Y130770000D03*
X42410000Y130770000D03*
X44950000Y130770000D03*
%TD*%
%TO.C,J3*%
X32250000Y104870000D03*
X34790000Y104870000D03*
X37330000Y104870000D03*
X39870000Y104870000D03*
X42410000Y104870000D03*
X44950000Y104870000D03*
%TD*%
%TO.C,J3*%
X32250000Y78970000D03*
X34790000Y78970000D03*
X37330000Y78970000D03*
X39870000Y78970000D03*
X42410000Y78970000D03*
X44950000Y78970000D03*
%TD*%
%TO.C,J3*%
X32250000Y53070000D03*
X34790000Y53070000D03*
X37330000Y53070000D03*
X39870000Y53070000D03*
X42410000Y53070000D03*
X44950000Y53070000D03*
%TD*%
%TO.C,J3*%
X32250000Y27170000D03*
X34790000Y27170000D03*
X37330000Y27170000D03*
X39870000Y27170000D03*
X42410000Y27170000D03*
X44950000Y27170000D03*
%TD*%
%TO.C,J3*%
X32250000Y1270000D03*
X34790000Y1270000D03*
X37330000Y1270000D03*
X39870000Y1270000D03*
X42410000Y1270000D03*
X44950000Y1270000D03*
%TD*%
%TO.C,J3*%
X6350000Y130770000D03*
X8890000Y130770000D03*
X11430000Y130770000D03*
X13970000Y130770000D03*
X16510000Y130770000D03*
X19050000Y130770000D03*
%TD*%
%TO.C,J3*%
X6350000Y104870000D03*
X8890000Y104870000D03*
X11430000Y104870000D03*
X13970000Y104870000D03*
X16510000Y104870000D03*
X19050000Y104870000D03*
%TD*%
%TO.C,J3*%
X6350000Y78970000D03*
X8890000Y78970000D03*
X11430000Y78970000D03*
X13970000Y78970000D03*
X16510000Y78970000D03*
X19050000Y78970000D03*
%TD*%
%TO.C,J3*%
X6350000Y53070000D03*
X8890000Y53070000D03*
X11430000Y53070000D03*
X13970000Y53070000D03*
X16510000Y53070000D03*
X19050000Y53070000D03*
%TD*%
%TO.C,J3*%
X6350000Y27170000D03*
X8890000Y27170000D03*
X11430000Y27170000D03*
X13970000Y27170000D03*
X16510000Y27170000D03*
X19050000Y27170000D03*
%TD*%
%TO.C,J3*%
X6350000Y1270000D03*
X8890000Y1270000D03*
X11430000Y1270000D03*
X13970000Y1270000D03*
X16510000Y1270000D03*
X19050000Y1270000D03*
%TD*%
D17*
%TO.C,ST3*%
X22860000Y2540000D03*
%TD*%
%TO.C,ST2*%
X22860000Y22860000D03*
%TD*%
%TO.C,ST1*%
X2540000Y22860000D03*
%TD*%
D18*
%TO.C,D3*%
X3810000Y17780000D03*
X1270000Y17780000D03*
%TD*%
D17*
%TO.C,ST4*%
X2540000Y2540000D03*
%TD*%
D15*
%TO.C,JP2*%
X10566400Y23495000D03*
X9525000Y23495000D03*
D16*
X8483600Y23495000D03*
%TD*%
D15*
%TO.C,JP1*%
X23888700Y7620000D03*
X22847300Y7620000D03*
%TD*%
D14*
%TO.C,FID2*%
X635000Y24765000D03*
%TD*%
%TO.C,FID1*%
X24765000Y635000D03*
%TD*%
D13*
%TO.C,JP3*%
X9525000Y15671800D03*
X9525000Y16713200D03*
%TD*%
M02*
